<?xml version="1.0" standalone="no"?>
<!DOCTYPE svg PUBLIC "-//W3C//DTD SVG 1.1//EN" "http://www.w3.org/Graphics/SVG/1.1/DTD/svg11.dtd" >
<svg xmlns="http://www.w3.org/2000/svg" xmlns:xlink="http://www.w3.org/1999/xlink" version="1.1">
<metadata>
Created by FontForge 20230101 at Thu Feb  9 12:26:38 2023
 By Robert Piechaud
(c) Robert Piechaud 2021. Machaut font is dedicated to medieval music and designed for the package MEDIEVAL for FINALE. This font can be freely distributed separately.
</metadata>
<defs>
<font id="Machaut" horiz-adv-x="171" >
  <font-face 
    font-family="Machaut"
    font-weight="400"
    font-stretch="normal"
    units-per-em="1000"
    panose-1="2 0 5 3 0 0 0 0 0 0"
    ascent="800"
    descent="-200"
    x-height="94"
    cap-height="465.58"
    bbox="-231 -1018.25 1120 1250"
    underline-thickness="9"
    underline-position="-82"
    stemh=" 19 "
    stemv=" 26 "
    unicode-range="U+0020-FB02"
  />
    <missing-glyph />
    <glyph glyph-name="zeroWidthSpace" unicode=" " horiz-adv-x="0" 
 />
    <glyph glyph-name="zeroWidthSpace" unicode="&#xf020;" horiz-adv-x="0" 
 />
    <glyph glyph-name="mensuralRestSemiminima" unicode="!" horiz-adv-x="97" 
d="M8 125.7h81c7 0 8 -3.2002 8 -4.7998v-18.4004c0 -4.7998 -3 -5.59961 -8 -5.59961h-45c-10 0 -8 -4 -8 -6.40039v-88.2666c0 -2.49902 -0.824219 -3.7666 -3.4668 -4.05859c-4.52051 -0.499023 -9.06543 -0.539062 -13.5977 -0.539062
c-4.88965 0 -9.7793 0.194336 -14.6689 0.533203c-3.80176 0.263672 -4.2666 1.58301 -4.2666 4.19727v116.934c0 2.40039 5 6.40039 8 6.40039z" />
    <glyph glyph-name="mensuralRestSemiminima" unicode="&#xf021;" horiz-adv-x="97" 
d="M8 125.7h81c7 0 8 -3.2002 8 -4.7998v-18.4004c0 -4.7998 -3 -5.59961 -8 -5.59961h-45c-10 0 -8 -4 -8 -6.40039v-88.2666c0 -2.49902 -0.824219 -3.7666 -3.4668 -4.05859c-4.52051 -0.499023 -9.06543 -0.539062 -13.5977 -0.539062
c-4.88965 0 -9.7793 0.194336 -14.6689 0.533203c-3.80176 0.263672 -4.2666 1.58301 -4.2666 4.19727v116.934c0 2.40039 5 6.40039 8 6.40039z" />

<!--
plicaSemibrevisAsc
-->
    <glyph glyph-name="plicaSemibrevisAscBlack" unicode="&#x22;" horiz-adv-x="160" 
d="M359 355c-30 -51 -65 -111 -102 -182c-48 -93 -105 -203 -168 -329c-21 32 -52 83 -88 156c21 33 46 82 77 150c14 -31 35 -68 66 -123c3 -5 4 -9 7 -9c2 0 4 2 7 6c31 54 63 115 98 180c22 42 47 84 73 131c3 4 3 11 6 15c3 6 6 10 10 17c2 1 3 2 5 2l5 -2
c3 -2 4 -6 4 -12z" />

<!--
plicaSemibrevisAsc
-->
    <glyph glyph-name="plicaSemibrevisAscBlack" unicode="&#xf022;" horiz-adv-x="160" 
d="M359 355c-30 -51 -65 -111 -102 -182c-48 -93 -105 -203 -168 -329c-21 32 -52 83 -88 156c21 33 46 82 77 150c14 -31 35 -68 66 -123c3 -5 4 -9 7 -9c2 0 4 2 7 6c31 54 63 115 98 180c22 42 47 84 73 131c3 4 3 11 6 15c3 6 6 10 10 17c2 1 3 2 5 2l5 -2
c3 -2 4 -6 4 -12z" />

<!--
plicaSemibrevisAsc
-->
    <glyph glyph-name="plicaSemibrevisAscBlack" unicode="&#xe998;" horiz-adv-x="160" 
d="M359 355c-30 -51 -65 -111 -102 -182c-48 -93 -105 -203 -168 -329c-21 32 -52 83 -88 156c21 33 46 82 77 150c14 -31 35 -68 66 -123c3 -5 4 -9 7 -9c2 0 4 2 7 6c31 54 63 115 98 180c22 42 47 84 73 131c3 4 3 11 6 15c3 6 6 10 10 17c2 1 3 2 5 2l5 -2
c3 -2 4 -6 4 -12z" />

<!--
plicaSemibrevisDesc
-->
    <glyph glyph-name="plicaSemibrevisDescBlack" unicode="#" horiz-adv-x="167" 
d="M372 -343c0 -6 -1 -9 -4 -11l-5 -2c-2 0 -4 1 -6 2c-4 7 -7 10 -11 16c-3 4 -3 10 -6 14c-24 45 -47 89 -70 129c-37 63 -71 119 -105 172c-3 4 -5 6 -7 6c-3 0 -4 -4 -8 -9c-32 -53 -55 -88 -69 -118c-32 65 -59 112 -81 144c38 70 73 119 93 150
c119 -212 211 -379 279 -493z" />

<!--
plicaSemibrevisDesc
-->
    <glyph glyph-name="plicaSemibrevisDescBlack" unicode="&#xf023;" horiz-adv-x="167" 
d="M372 -343c0 -6 -1 -9 -4 -11l-5 -2c-2 0 -4 1 -6 2c-4 7 -7 10 -11 16c-3 4 -3 10 -6 14c-24 45 -47 89 -70 129c-37 63 -71 119 -105 172c-3 4 -5 6 -7 6c-3 0 -4 -4 -8 -9c-32 -53 -55 -88 -69 -118c-32 65 -59 112 -81 144c38 70 73 119 93 150
c119 -212 211 -379 279 -493z" />
    <glyph glyph-name="mensuralRestSemifusa" unicode="$" horiz-adv-x="97" 
d="M89 159.2h-81c-7 0 -8 -3.2002 -8 -4.7998v-18.4004c0 -4.7998 3 -5.59961 8 -5.59961h45c7.14258 0 8.16309 -2.04102 8.16309 -4.08203c0 -0.816406 -0.163086 -1.63281 -0.163086 -2.31836v-20.7998h-53c-7 0 -8 -3.2002 -8 -4.7998v-18.4004
c0 -4.7998 3 -5.59961 8 -5.59961h45c6 0 8 -1.60059 8 -3.2002v-68.4004c0 -2.22461 0.595703 -2.88281 3.5 -3.08594c4.22559 -0.296875 8.4873 -0.422852 12.7754 -0.422852c5.30762 0 10.668 0.0146484 16.0244 0.489258c2.6543 0.235352 3.7002 1.06836 3.7002 5.41992
v147.6c0 2.40039 -5 6.40039 -8 6.40039z" />
    <glyph glyph-name="mensuralRestSemifusa" unicode="&#xf024;" horiz-adv-x="97" 
d="M89 159.2h-81c-7 0 -8 -3.2002 -8 -4.7998v-18.4004c0 -4.7998 3 -5.59961 8 -5.59961h45c7.14258 0 8.16309 -2.04102 8.16309 -4.08203c0 -0.816406 -0.163086 -1.63281 -0.163086 -2.31836v-20.7998h-53c-7 0 -8 -3.2002 -8 -4.7998v-18.4004
c0 -4.7998 3 -5.59961 8 -5.59961h45c6 0 8 -1.60059 8 -3.2002v-68.4004c0 -2.22461 0.595703 -2.88281 3.5 -3.08594c4.22559 -0.296875 8.4873 -0.422852 12.7754 -0.422852c5.30762 0 10.668 0.0146484 16.0244 0.489258c2.6543 0.235352 3.7002 1.06836 3.7002 5.41992
v147.6c0 2.40039 -5 6.40039 -8 6.40039z" />
    <glyph glyph-name="cross" unicode="%" horiz-adv-x="192" 
d="M14 -101c-7 2 -12 7 -14 14l72 72c3.63482 3.63482 5.38222 7 5.38222 10.2356c0 2.99555 -1.49777 5.87999 -4.38222 8.76444l-75 74c4 8 9 13 14 15l72 -72c4 -4 8 -6 12 -6l12 6l72 72c6 -3 11 -7 15 -14l-76 -75
c-3.13665 -3.13665 -4.63353 -6.27329 -4.63353 -9.26707c0 -2.73293 1.24741 -5.3468 3.63353 -7.73293l75 -75c-3 -6 -8 -11 -14 -14l-76 76c-2.16118 2.16118 -4.32236 3.20139 -6.56429 3.20139c-2.9449 0 -6.02913 -1.7948 -9.43571 -5.20139z" />
    <glyph glyph-name="cross" unicode="&#xf025;" horiz-adv-x="192" 
d="M14 -101c-7 2 -12 7 -14 14l72 72c3.63482 3.63482 5.38222 7 5.38222 10.2356c0 2.99555 -1.49777 5.87999 -4.38222 8.76444l-75 74c4 8 9 13 14 15l72 -72c4 -4 8 -6 12 -6l12 6l72 72c6 -3 11 -7 15 -14l-76 -75
c-3.13665 -3.13665 -4.63353 -6.27329 -4.63353 -9.26707c0 -2.73293 1.24741 -5.3468 3.63353 -7.73293l75 -75c-3 -6 -8 -11 -14 -14l-76 76c-2.16118 2.16118 -4.32236 3.20139 -6.56429 3.20139c-2.9449 0 -6.02913 -1.7948 -9.43571 -5.20139z" />
    <glyph glyph-name="mensuralProlation1" unicode="&#x26;" horiz-adv-x="302" 
d="M176 -23c-6 -7 -14 -10 -24 -10c-8 0 -15 3 -21 7c-8 6 -12 13 -12 25c0 10 3 17 9 24c6 6 13 10 23 10c8 0 16 -3 22 -8c7 -6 11 -15 11 -26c0 -9 -3 -17 -8 -22zM246 -86c18 20 30 49 30 82c0 43 -18 76 -42 99c-24 20 -52 32 -84 32c-39 0 -66 -14 -89 -38
c-24 -25 -35 -53 -35 -91c0 -45 17 -75 47 -98c23 -17 51 -27 80 -27c39 0 70 17 93 41zM255 -112c-27 -25 -63 -40 -102 -40c-40 0 -78 16 -106 42s-47 60 -47 98c0 58 16 96 52 128c26 23 60 36 95 36c46 0 84 -16 113 -47c25 -26 42 -63 42 -107s-21 -86 -47 -110z" />
    <glyph glyph-name="mensuralProlation1" unicode="&#xf026;" horiz-adv-x="302" 
d="M176 -23c-6 -7 -14 -10 -24 -10c-8 0 -15 3 -21 7c-8 6 -12 13 -12 25c0 10 3 17 9 24c6 6 13 10 23 10c8 0 16 -3 22 -8c7 -6 11 -15 11 -26c0 -9 -3 -17 -8 -22zM246 -86c18 20 30 49 30 82c0 43 -18 76 -42 99c-24 20 -52 32 -84 32c-39 0 -66 -14 -89 -38
c-24 -25 -35 -53 -35 -91c0 -45 17 -75 47 -98c23 -17 51 -27 80 -27c39 0 70 17 93 41zM255 -112c-27 -25 -63 -40 -102 -40c-40 0 -78 16 -106 42s-47 60 -47 98c0 58 16 96 52 128c26 23 60 36 95 36c46 0 84 -16 113 -47c25 -26 42 -63 42 -107s-21 -86 -47 -110z" />
    <glyph glyph-name="mensuralProlation1" unicode="&#xe910;" horiz-adv-x="302" 
d="M176 -23c-6 -7 -14 -10 -24 -10c-8 0 -15 3 -21 7c-8 6 -12 13 -12 25c0 10 3 17 9 24c6 6 13 10 23 10c8 0 16 -3 22 -8c7 -6 11 -15 11 -26c0 -9 -3 -17 -8 -22zM246 -86c18 20 30 49 30 82c0 43 -18 76 -42 99c-24 20 -52 32 -84 32c-39 0 -66 -14 -89 -38
c-24 -25 -35 -53 -35 -91c0 -45 17 -75 47 -98c23 -17 51 -27 80 -27c39 0 70 17 93 41zM255 -112c-27 -25 -63 -40 -102 -40c-40 0 -78 16 -106 42s-47 60 -47 98c0 58 16 96 52 128c26 23 60 36 95 36c46 0 84 -16 113 -47c25 -26 42 -63 42 -107s-21 -86 -47 -110z" />
    <glyph glyph-name="mensuralProlation2" unicode="'" horiz-adv-x="302" 
d="M246 -86c18 20 30 49 30 82c0 43 -18 76 -42 99c-24 20 -52 32 -84 32c-39 0 -66 -14 -89 -38c-24 -25 -35 -53 -35 -91c0 -45 17 -75 47 -98c23 -17 51 -27 80 -27c39 0 70 17 93 41zM255 -112c-27 -25 -63 -40 -102 -40c-40 0 -78 16 -106 42s-47 60 -47 98
c0 58 16 96 52 128c26 23 60 36 95 36c46 0 84 -16 113 -47c25 -26 42 -63 42 -107s-21 -86 -47 -110z" />
    <glyph glyph-name="mensuralProlation2" unicode="&#xf027;" horiz-adv-x="302" 
d="M246 -86c18 20 30 49 30 82c0 43 -18 76 -42 99c-24 20 -52 32 -84 32c-39 0 -66 -14 -89 -38c-24 -25 -35 -53 -35 -91c0 -45 17 -75 47 -98c23 -17 51 -27 80 -27c39 0 70 17 93 41zM255 -112c-27 -25 -63 -40 -102 -40c-40 0 -78 16 -106 42s-47 60 -47 98
c0 58 16 96 52 128c26 23 60 36 95 36c46 0 84 -16 113 -47c25 -26 42 -63 42 -107s-21 -86 -47 -110z" />
    <glyph glyph-name="mensuralProlation2" unicode="&#xe911;" horiz-adv-x="302" 
d="M246 -86c18 20 30 49 30 82c0 43 -18 76 -42 99c-24 20 -52 32 -84 32c-39 0 -66 -14 -89 -38c-24 -25 -35 -53 -35 -91c0 -45 17 -75 47 -98c23 -17 51 -27 80 -27c39 0 70 17 93 41zM255 -112c-27 -25 -63 -40 -102 -40c-40 0 -78 16 -106 42s-47 60 -47 98
c0 58 16 96 52 128c26 23 60 36 95 36c46 0 84 -16 113 -47c25 -26 42 -63 42 -107s-21 -86 -47 -110z" />
    <glyph glyph-name="mensuralRest2FullSpaceUp" unicode="(" horiz-adv-x="134" 
d="M92.4297 250l21.2793 -0.25l10.626 0.25c1.82129 0 1.97949 -0.900391 1.97949 -2.53613c0 -0.344727 -0.00683594 -0.722656 -0.00683594 -1.13086l-0.455078 -51.833l0.683594 -65.25l-0.683594 -74.75l0.455078 -50.583
c0 -0.613281 0.0214844 -1.15527 0.0214844 -1.62598c0 -1.51758 -0.227539 -2.29102 -2.14648 -2.29102l-16.0908 -0.5l-16.2695 0.5c-1.65723 0 -1.83594 0.724609 -1.83594 2.11328c0 0.383789 0.0136719 0.819336 0.0136719 1.30371l-0.455078 51.583l0.683594 78.5
l-0.683594 68.25l0.455078 43.25c0 1.12402 -0.100586 2.06641 -0.100586 2.81836c0 1.4375 0.370117 2.18164 2.53027 2.18164zM2.42969 250l21.2793 -0.25l10.626 0.25c1.82129 0 1.97949 -0.900391 1.97949 -2.53613
c0 -0.344727 -0.00683594 -0.722656 -0.00683594 -1.13086l-0.455078 -51.833l0.683594 -65.25l-0.683594 -74.75l0.455078 -50.583c0 -0.613281 0.0214844 -1.15527 0.0214844 -1.62598c0 -1.51758 -0.227539 -2.29102 -2.14648 -2.29102l-16.0908 -0.5l-16.2695 0.5
c-1.65723 0 -1.83594 0.724609 -1.83594 2.11328c0 0.383789 0.0136719 0.819336 0.0136719 1.30371l-0.455078 51.583l0.683594 78.5l-0.683594 68.25l0.455078 43.25c0 1.12402 -0.100586 2.06641 -0.100586 2.81836c0 1.4375 0.370117 2.18164 2.53027 2.18164z" />
    <glyph glyph-name="mensuralRest2FullSpaceUp" unicode="&#xf028;" horiz-adv-x="134" 
d="M92.4297 250l21.2793 -0.25l10.626 0.25c1.82129 0 1.97949 -0.900391 1.97949 -2.53613c0 -0.344727 -0.00683594 -0.722656 -0.00683594 -1.13086l-0.455078 -51.833l0.683594 -65.25l-0.683594 -74.75l0.455078 -50.583
c0 -0.613281 0.0214844 -1.15527 0.0214844 -1.62598c0 -1.51758 -0.227539 -2.29102 -2.14648 -2.29102l-16.0908 -0.5l-16.2695 0.5c-1.65723 0 -1.83594 0.724609 -1.83594 2.11328c0 0.383789 0.0136719 0.819336 0.0136719 1.30371l-0.455078 51.583l0.683594 78.5
l-0.683594 68.25l0.455078 43.25c0 1.12402 -0.100586 2.06641 -0.100586 2.81836c0 1.4375 0.370117 2.18164 2.53027 2.18164zM2.42969 250l21.2793 -0.25l10.626 0.25c1.82129 0 1.97949 -0.900391 1.97949 -2.53613
c0 -0.344727 -0.00683594 -0.722656 -0.00683594 -1.13086l-0.455078 -51.833l0.683594 -65.25l-0.683594 -74.75l0.455078 -50.583c0 -0.613281 0.0214844 -1.15527 0.0214844 -1.62598c0 -1.51758 -0.227539 -2.29102 -2.14648 -2.29102l-16.0908 -0.5l-16.2695 0.5
c-1.65723 0 -1.83594 0.724609 -1.83594 2.11328c0 0.383789 0.0136719 0.819336 0.0136719 1.30371l-0.455078 51.583l0.683594 78.5l-0.683594 68.25l0.455078 43.25c0 1.12402 -0.100586 2.06641 -0.100586 2.81836c0 1.4375 0.370117 2.18164 2.53027 2.18164z" />
    <glyph glyph-name="mensuralProlation6" unicode=")" horiz-adv-x="283" 
d="M283 96c0 -9 -5 -12 -12 -12c-2 0 -5 0 -7 2c-19 33 -67 41 -115 41c-69 0 -123 -52 -123 -123c0 -75 55 -131 126 -131c38 0 62 6 85 23c9 7 19 10 24 22c3 2 6 3 8 3c8 0 14 -7 14 -14v-1c-8 -15 -22 -28 -37 -38c-26 -18 -56 -20 -91 -20c-87 0 -155 64 -155 154
c0 85 67 150 149 150c40 0 75 -5 106 -27c12 -9 24 -17 28 -29z" />
    <glyph glyph-name="mensuralProlation6" unicode="&#xf029;" horiz-adv-x="283" 
d="M283 96c0 -9 -5 -12 -12 -12c-2 0 -5 0 -7 2c-19 33 -67 41 -115 41c-69 0 -123 -52 -123 -123c0 -75 55 -131 126 -131c38 0 62 6 85 23c9 7 19 10 24 22c3 2 6 3 8 3c8 0 14 -7 14 -14v-1c-8 -15 -22 -28 -37 -38c-26 -18 -56 -20 -91 -20c-87 0 -155 64 -155 154
c0 85 67 150 149 150c40 0 75 -5 106 -27c12 -9 24 -17 28 -29z" />
    <glyph glyph-name="mensuralProlation6" unicode="&#xe915;" horiz-adv-x="283" 
d="M283 96c0 -9 -5 -12 -12 -12c-2 0 -5 0 -7 2c-19 33 -67 41 -115 41c-69 0 -123 -52 -123 -123c0 -75 55 -131 126 -131c38 0 62 6 85 23c9 7 19 10 24 22c3 2 6 3 8 3c8 0 14 -7 14 -14v-1c-8 -15 -22 -28 -37 -38c-26 -18 -56 -20 -91 -20c-87 0 -155 64 -155 154
c0 85 67 150 149 150c40 0 75 -5 106 -27c12 -9 24 -17 28 -29z" />
    <glyph glyph-name="mensuralProlation7" unicode="*" horiz-adv-x="284" 
d="M22 -64c8 -14 18 -26 32 -36c23 -17 52 -27 81 -27c39 0 70 17 93 41c19 20 30 49 30 82c0 44 -18 76 -42 99c-24 21 -52 32 -84 32c-38 0 -66 -14 -89 -38c-8 -8 -15 -16 -20 -25c-3 -2 -6 -3 -8 -3c-6 0 -15 9 -15 13c0 1 0 1 1 2c8 15 19 28 33 40c26 23 60 36 95 36
c46 0 84 -16 113 -47c25 -26 42 -63 42 -107s-21 -86 -47 -110c-27 -25 -63 -40 -102 -40c-40 0 -78 16 -106 42c-11 10 -18 23 -26 36c2 7 8 10 13 10c2 0 4 1 6 0z" />
    <glyph glyph-name="mensuralProlation7" unicode="&#xf02a;" horiz-adv-x="284" 
d="M22 -64c8 -14 18 -26 32 -36c23 -17 52 -27 81 -27c39 0 70 17 93 41c19 20 30 49 30 82c0 44 -18 76 -42 99c-24 21 -52 32 -84 32c-38 0 -66 -14 -89 -38c-8 -8 -15 -16 -20 -25c-3 -2 -6 -3 -8 -3c-6 0 -15 9 -15 13c0 1 0 1 1 2c8 15 19 28 33 40c26 23 60 36 95 36
c46 0 84 -16 113 -47c25 -26 42 -63 42 -107s-21 -86 -47 -110c-27 -25 -63 -40 -102 -40c-40 0 -78 16 -106 42c-11 10 -18 23 -26 36c2 7 8 10 13 10c2 0 4 1 6 0z" />
    <glyph glyph-name="mensuralProlation7" unicode="&#xe916;" horiz-adv-x="284" 
d="M22 -64c8 -14 18 -26 32 -36c23 -17 52 -27 81 -27c39 0 70 17 93 41c19 20 30 49 30 82c0 44 -18 76 -42 99c-24 21 -52 32 -84 32c-38 0 -66 -14 -89 -38c-8 -8 -15 -16 -20 -25c-3 -2 -6 -3 -8 -3c-6 0 -15 9 -15 13c0 1 0 1 1 2c8 15 19 28 33 40c26 23 60 36 95 36
c46 0 84 -16 113 -47c25 -26 42 -63 42 -107s-21 -86 -47 -110c-27 -25 -63 -40 -102 -40c-40 0 -78 16 -106 42c-11 10 -18 23 -26 36c2 7 8 10 13 10c2 0 4 1 6 0z" />

<!--
chantCustosStemUpPosMiddle
-->
    <glyph glyph-name="chantCustosStemUpPosMiddle" unicode="+" horiz-adv-x="53" 
d="M41 187c1.60275 0.961652 3.10275 1.40954 4.5 1.40954c2.96165 0 5.46165 -2.01229 7.5 -5.40954v-265c-16.4779 6.40809 -32.9559 17.0063 -48.6667 31.0276c-4.11395 3.67154 -4.33334 6.07874 -4.33334 14.3057v86.9167
c0 1.8676 -0.0641435 3.61036 -0.0641435 5.13426c0 3.53947 0.346032 5.89825 2.64551 5.89825c0.773266 0 1.76743 -0.266738 3.04363 -0.845014l28 -12.6875c1.90247 -0.859811 3.41719 -1.33523 4.60224 -1.33523c2.65291 0 3.65363 2.38259 3.65363 8.16901
c0 0.256996 -0.001974 0.520707 -0.00586491 0.791221c-0.873047 60.6982 -0.875 102.948 -0.875 131.625z" />

<!--
chantCustosStemUpPosMiddle
-->
    <glyph glyph-name="chantCustosStemUpPosMiddle" unicode="&#xf02b;" horiz-adv-x="53" 
d="M41 187c1.60275 0.961652 3.10275 1.40954 4.5 1.40954c2.96165 0 5.46165 -2.01229 7.5 -5.40954v-265c-16.4779 6.40809 -32.9559 17.0063 -48.6667 31.0276c-4.11395 3.67154 -4.33334 6.07874 -4.33334 14.3057v86.9167
c0 1.8676 -0.0641435 3.61036 -0.0641435 5.13426c0 3.53947 0.346032 5.89825 2.64551 5.89825c0.773266 0 1.76743 -0.266738 3.04363 -0.845014l28 -12.6875c1.90247 -0.859811 3.41719 -1.33523 4.60224 -1.33523c2.65291 0 3.65363 2.38259 3.65363 8.16901
c0 0.256996 -0.001974 0.520707 -0.00586491 0.791221c-0.873047 60.6982 -0.875 102.948 -0.875 131.625z" />

<!--
chantCustosStemUpPosMiddle
-->
    <glyph glyph-name="chantCustosStemUpPosMiddle" unicode="&#xea06;" horiz-adv-x="53" 
d="M41 187c1.60275 0.961652 3.10275 1.40954 4.5 1.40954c2.96165 0 5.46165 -2.01229 7.5 -5.40954v-265c-16.4779 6.40809 -32.9559 17.0063 -48.6667 31.0276c-4.11395 3.67154 -4.33334 6.07874 -4.33334 14.3057v86.9167
c0 1.8676 -0.0641435 3.61036 -0.0641435 5.13426c0 3.53947 0.346032 5.89825 2.64551 5.89825c0.773266 0 1.76743 -0.266738 3.04363 -0.845014l28 -12.6875c1.90247 -0.859811 3.41719 -1.33523 4.60224 -1.33523c2.65291 0 3.65363 2.38259 3.65363 8.16901
c0 0.256996 -0.001974 0.520707 -0.00586491 0.791221c-0.873047 60.6982 -0.875 102.948 -0.875 131.625z" />
    <glyph glyph-name="chantCustosStemUpPosLow" unicode="," horiz-adv-x="53" 
d="M41 296c0.885622 0.177124 1.73987 0.26013 2.56275 0.26013c3.82288 0 6.96863 -1.7915 9.43725 -4.26013v-374c-15.6974 4.61687 -31.3947 14.3495 -48.6667 30.7724c-3.62469 3.44651 -4.33333 4.98083 -4.33333 12.561v93.3333
c0 5.06917 0.23236 7.21294 1.59577 7.21294c0.886594 0 2.25146 -0.906512 4.34173 -2.50461c9.98535 -7.63281 18.9365 -11.7856 30.0625 -14.2987c1.04669 -0.236417 1.91131 -0.353164 2.6252 -0.353164c3.004 0 3.33894 2.06722 3.33894 5.98388
c0 0.9993 -0.0218036 2.11899 -0.026644 3.35546z" />
    <glyph glyph-name="chantCustosStemUpPosLow" unicode="&#xf02c;" horiz-adv-x="53" 
d="M41 296c0.885622 0.177124 1.73987 0.26013 2.56275 0.26013c3.82288 0 6.96863 -1.7915 9.43725 -4.26013v-374c-15.6974 4.61687 -31.3947 14.3495 -48.6667 30.7724c-3.62469 3.44651 -4.33333 4.98083 -4.33333 12.561v93.3333
c0 5.06917 0.23236 7.21294 1.59577 7.21294c0.886594 0 2.25146 -0.906512 4.34173 -2.50461c9.98535 -7.63281 18.9365 -11.7856 30.0625 -14.2987c1.04669 -0.236417 1.91131 -0.353164 2.6252 -0.353164c3.004 0 3.33894 2.06722 3.33894 5.98388
c0 0.9993 -0.0218036 2.11899 -0.026644 3.35546z" />
    <glyph glyph-name="chantCustosStemUpPosLow" unicode="&#xea05;" horiz-adv-x="53" 
d="M41 296c0.885622 0.177124 1.73987 0.26013 2.56275 0.26013c3.82288 0 6.96863 -1.7915 9.43725 -4.26013v-374c-15.6974 4.61687 -31.3947 14.3495 -48.6667 30.7724c-3.62469 3.44651 -4.33333 4.98083 -4.33333 12.561v93.3333
c0 5.06917 0.23236 7.21294 1.59577 7.21294c0.886594 0 2.25146 -0.906512 4.34173 -2.50461c9.98535 -7.63281 18.9365 -11.7856 30.0625 -14.2987c1.04669 -0.236417 1.91131 -0.353164 2.6252 -0.353164c3.004 0 3.33894 2.06722 3.33894 5.98388
c0 0.9993 -0.0218036 2.11899 -0.026644 3.35546z" />
    <glyph glyph-name="chantCustosInclinatus" unicode="-" horiz-adv-x="154" 
d="M49 -22c-19 3 -28 13 -28 32c0 4 1 7 3 10c27 35 67 79 121 130v-13c-37 -35 -61 -61 -71 -76c-1 -1 -1 -3 -1 -5c0 -13 6 -19 17 -18c93 98 212 222 357 371c1 -9 2 -14 1 -15c-171 -173 -304 -311 -399 -416z" />
    <glyph glyph-name="chantCustosInclinatus" unicode="&#xf02d;" horiz-adv-x="154" 
d="M49 -22c-19 3 -28 13 -28 32c0 4 1 7 3 10c27 35 67 79 121 130v-13c-37 -35 -61 -61 -71 -76c-1 -1 -1 -3 -1 -5c0 -13 6 -19 17 -18c93 98 212 222 357 371c1 -9 2 -14 1 -15c-171 -173 -304 -311 -399 -416z" />

<!--
mensuralCustosUp
-->
    <glyph glyph-name="mensuralCustosUp" unicode="." horiz-adv-x="154" 
d="M0 -6l0.25 8.5459c0 1.61035 1.1709 2.89551 1.9375 3.6416l35.8125 34.8125c2.24089 2.17832 4.23724 3.65212 5.54545 4.79838c0.705742 0.618368 1.35554 0.896764 1.98988 0.896764c0.818301 0 1.61088 -0.463275 2.46466 -1.25764
c2.24707 -2.09082 6.47207 -7.1343 15 -16.4375c5.34929 -5.83559 9.59342 -10.1773 12.5006 -13.25c1.6631 -1.75784 3.26633 -2.59244 4.87441 -2.59244c1.51915 0 3.04264 0.744849 4.62502 2.15983c5.52006 4.93607 15.997 14.706 31.6364 28.5881
c1.15927 1.02902 2.00572 1.58319 2.81 1.58319c0.848441 0 1.64995 -0.616707 2.72227 -1.94326c0.938218 -1.16066 2.26897 -2.59247 3.83136 -4.54545c9.88839 -11.6334 17.4084 -19.8834 22.1664 -24.75c3.32866 -3.40462 4.68484 -5.38503 6.29238 -5.38503
c1.13108 0 2.3866 0.980429 4.5412 3.13503c37 39 108 111 214 218c101.576 101.576 168.005 167.104 201 198.296c1.71455 1.62089 3.08536 3.02716 4.00809 3.02716c0.609452 0 1.34022 -0.654188 1.34022 -2.20024c0 -0.24132 -0.017804 -0.504368 -0.0566524 -0.790049
c0.125209 -0.291697 0.179206 -0.592535 0.179206 -0.91001c0 -1.99147 -2.12469 -4.63762 -2.12469 -9.78897c0 -0.765725 0.0469462 -1.5868 0.154795 -2.46931c-204 -195 -345.453 -341.117 -439.501 -435.165c-1.58635 -1.58635 -3.10755 -2.92362 -4.36364 -3.9439
c-1.04221 -0.846562 -2.04591 -1.51251 -2.94258 -1.51251c-0.478931 0 -0.927329 0.189985 -1.33476 0.643908c-2.61001 2.90787 -10.6142 11.7311 -27.4508 27.9033c-2.16349 2.07853 -3.95185 3.20833 -5.73213 3.20833c-1.26853 0 -2.53296 -0.573622 -3.92608 -1.78637
c-3.17279 -2.76201 -7.76631 -7.02908 -13.25 -12.5128c-8.40418 -7.70383 -13.9558 -12.8537 -16.7273 -15.4107c-0.710088 -0.655137 -1.29505 -0.982472 -1.88834 -0.982472c-0.751586 0 -1.51655 0.525301 -2.5662 1.57496l-3.81818 3.81818l-23 25
c-2.98546 3.24507 -4.9495 5.51781 -7.79241 5.51781c-1.31743 0 -2.82359 -0.488068 -4.70759 -1.59362c-5.23876 -3.07415 -9.66909 -6.97507 -18.5 -15.9242z" />

<!--
mensuralCustosUp
-->
    <glyph glyph-name="mensuralCustosUp" unicode="&#xf02e;" horiz-adv-x="154" 
d="M0 -6l0.25 8.5459c0 1.61035 1.1709 2.89551 1.9375 3.6416l35.8125 34.8125c2.24089 2.17832 4.23724 3.65212 5.54545 4.79838c0.705742 0.618368 1.35554 0.896764 1.98988 0.896764c0.818301 0 1.61088 -0.463275 2.46466 -1.25764
c2.24707 -2.09082 6.47207 -7.1343 15 -16.4375c5.34929 -5.83559 9.59342 -10.1773 12.5006 -13.25c1.6631 -1.75784 3.26633 -2.59244 4.87441 -2.59244c1.51915 0 3.04264 0.744849 4.62502 2.15983c5.52006 4.93607 15.997 14.706 31.6364 28.5881
c1.15927 1.02902 2.00572 1.58319 2.81 1.58319c0.848441 0 1.64995 -0.616707 2.72227 -1.94326c0.938218 -1.16066 2.26897 -2.59247 3.83136 -4.54545c9.88839 -11.6334 17.4084 -19.8834 22.1664 -24.75c3.32866 -3.40462 4.68484 -5.38503 6.29238 -5.38503
c1.13108 0 2.3866 0.980429 4.5412 3.13503c37 39 108 111 214 218c101.576 101.576 168.005 167.104 201 198.296c1.71455 1.62089 3.08536 3.02716 4.00809 3.02716c0.609452 0 1.34022 -0.654188 1.34022 -2.20024c0 -0.24132 -0.017804 -0.504368 -0.0566524 -0.790049
c0.125209 -0.291697 0.179206 -0.592535 0.179206 -0.91001c0 -1.99147 -2.12469 -4.63762 -2.12469 -9.78897c0 -0.765725 0.0469462 -1.5868 0.154795 -2.46931c-204 -195 -345.453 -341.117 -439.501 -435.165c-1.58635 -1.58635 -3.10755 -2.92362 -4.36364 -3.9439
c-1.04221 -0.846562 -2.04591 -1.51251 -2.94258 -1.51251c-0.478931 0 -0.927329 0.189985 -1.33476 0.643908c-2.61001 2.90787 -10.6142 11.7311 -27.4508 27.9033c-2.16349 2.07853 -3.95185 3.20833 -5.73213 3.20833c-1.26853 0 -2.53296 -0.573622 -3.92608 -1.78637
c-3.17279 -2.76201 -7.76631 -7.02908 -13.25 -12.5128c-8.40418 -7.70383 -13.9558 -12.8537 -16.7273 -15.4107c-0.710088 -0.655137 -1.29505 -0.982472 -1.88834 -0.982472c-0.751586 0 -1.51655 0.525301 -2.5662 1.57496l-3.81818 3.81818l-23 25
c-2.98546 3.24507 -4.9495 5.51781 -7.79241 5.51781c-1.31743 0 -2.82359 -0.488068 -4.70759 -1.59362c-5.23876 -3.07415 -9.66909 -6.97507 -18.5 -15.9242z" />

<!--
mensuralCustosUp
-->
    <glyph glyph-name="mensuralCustosUp" unicode="&#xea02;" horiz-adv-x="154" 
d="M0 -6l0.25 8.5459c0 1.61035 1.1709 2.89551 1.9375 3.6416l35.8125 34.8125c2.24089 2.17832 4.23724 3.65212 5.54545 4.79838c0.705742 0.618368 1.35554 0.896764 1.98988 0.896764c0.818301 0 1.61088 -0.463275 2.46466 -1.25764
c2.24707 -2.09082 6.47207 -7.1343 15 -16.4375c5.34929 -5.83559 9.59342 -10.1773 12.5006 -13.25c1.6631 -1.75784 3.26633 -2.59244 4.87441 -2.59244c1.51915 0 3.04264 0.744849 4.62502 2.15983c5.52006 4.93607 15.997 14.706 31.6364 28.5881
c1.15927 1.02902 2.00572 1.58319 2.81 1.58319c0.848441 0 1.64995 -0.616707 2.72227 -1.94326c0.938218 -1.16066 2.26897 -2.59247 3.83136 -4.54545c9.88839 -11.6334 17.4084 -19.8834 22.1664 -24.75c3.32866 -3.40462 4.68484 -5.38503 6.29238 -5.38503
c1.13108 0 2.3866 0.980429 4.5412 3.13503c37 39 108 111 214 218c101.576 101.576 168.005 167.104 201 198.296c1.71455 1.62089 3.08536 3.02716 4.00809 3.02716c0.609452 0 1.34022 -0.654188 1.34022 -2.20024c0 -0.24132 -0.017804 -0.504368 -0.0566524 -0.790049
c0.125209 -0.291697 0.179206 -0.592535 0.179206 -0.91001c0 -1.99147 -2.12469 -4.63762 -2.12469 -9.78897c0 -0.765725 0.0469462 -1.5868 0.154795 -2.46931c-204 -195 -345.453 -341.117 -439.501 -435.165c-1.58635 -1.58635 -3.10755 -2.92362 -4.36364 -3.9439
c-1.04221 -0.846562 -2.04591 -1.51251 -2.94258 -1.51251c-0.478931 0 -0.927329 0.189985 -1.33476 0.643908c-2.61001 2.90787 -10.6142 11.7311 -27.4508 27.9033c-2.16349 2.07853 -3.95185 3.20833 -5.73213 3.20833c-1.26853 0 -2.53296 -0.573622 -3.92608 -1.78637
c-3.17279 -2.76201 -7.76631 -7.02908 -13.25 -12.5128c-8.40418 -7.70383 -13.9558 -12.8537 -16.7273 -15.4107c-0.710088 -0.655137 -1.29505 -0.982472 -1.88834 -0.982472c-0.751586 0 -1.51655 0.525301 -2.5662 1.57496l-3.81818 3.81818l-23 25
c-2.98546 3.24507 -4.9495 5.51781 -7.79241 5.51781c-1.31743 0 -2.82359 -0.488068 -4.70759 -1.59362c-5.23876 -3.07415 -9.66909 -6.97507 -18.5 -15.9242z" />
    <glyph glyph-name="mensuralRestOneThirdSpaceUp" unicode="/" horiz-adv-x="40" 
d="M1.82031 82h30.5098c0.544922 0 0.996094 0.015625 1.36914 0.015625c1.38379 0 1.69727 -0.219727 1.75293 -2.28809c0.366211 -13.6807 0.568359 -27.2197 0.568359 -40.584c0 -12.3262 -0.171875 -24.5039 -0.545898 -36.5068
c-0.0712891 -2.29102 0.183594 -2.63672 -2.24414 -2.63672h-31.5c-1.64844 0 -1.97266 0.348633 -1.97266 1.2207c0 0.464844 0.0927734 1.08008 0.125 1.87012c0.507812 12.3457 0.508789 24.7227 0.508789 37.2764c0 13.459 -0.584961 26.9639 -0.584961 40.4619
c0 1.08594 0.235352 1.17383 1.29883 1.17383c0.205078 0 0.442383 -0.00292969 0.714844 -0.00292969z" />
    <glyph glyph-name="mensuralRestOneThirdSpaceUp" unicode="&#xf02f;" horiz-adv-x="40" 
d="M1.82031 82h30.5098c0.544922 0 0.996094 0.015625 1.36914 0.015625c1.38379 0 1.69727 -0.219727 1.75293 -2.28809c0.366211 -13.6807 0.568359 -27.2197 0.568359 -40.584c0 -12.3262 -0.171875 -24.5039 -0.545898 -36.5068
c-0.0712891 -2.29102 0.183594 -2.63672 -2.24414 -2.63672h-31.5c-1.64844 0 -1.97266 0.348633 -1.97266 1.2207c0 0.464844 0.0927734 1.08008 0.125 1.87012c0.507812 12.3457 0.508789 24.7227 0.508789 37.2764c0 13.459 -0.584961 26.9639 -0.584961 40.4619
c0 1.08594 0.235352 1.17383 1.29883 1.17383c0.205078 0 0.442383 -0.00292969 0.714844 -0.00292969z" />
    <glyph glyph-name="mensuralRestMinima" unicode="0" horiz-adv-x="36" 
d="M3.46484 127.5l13.6123 -0.25l15.7578 0.25c2.41602 0 2.80469 -0.942383 2.80469 -3.4834l-0.495117 -31.5166l0.743164 -63.75l-0.248047 -25.833c0 -2.5752 0.652344 -4.41699 -2.14453 -4.41699h-16.2939h-14.2314c-2.55176 0 -2.96973 0.0908203 -2.96973 2.66699
l0.495117 32.958l-0.743164 53.625l0.248047 37.5166c0 2.38379 1.16504 2.2334 3.46484 2.2334z" />
    <glyph glyph-name="mensuralRestMinima" unicode="&#xf030;" horiz-adv-x="36" 
d="M3.46484 127.5l13.6123 -0.25l15.7578 0.25c2.41602 0 2.80469 -0.942383 2.80469 -3.4834l-0.495117 -31.5166l0.743164 -63.75l-0.248047 -25.833c0 -2.5752 0.652344 -4.41699 -2.14453 -4.41699h-16.2939h-14.2314c-2.55176 0 -2.96973 0.0908203 -2.96973 2.66699
l0.495117 32.958l-0.743164 53.625l0.248047 37.5166c0 2.38379 1.16504 2.2334 3.46484 2.2334z" />
    <glyph glyph-name="mensuralRestSemibrevis" unicode="1" horiz-adv-x="36" 
d="M3.38281 252.25l14.2715 -0.5l15.5107 0.5c2.29395 0 2.47461 -1.08984 2.47461 -3.4834l-0.495117 -32.5166l0.991211 -54.5l-0.496094 -34.833c0 -2.33887 0.260742 -3.66699 -2.14453 -3.66699l-14.6846 -0.5l-15.0977 0.5
c-2.65918 0 -3.71289 0.21875 -3.71289 2.83301l0.495117 39.167l-0.990234 55l0.495117 29.9336c0 2.11133 1.29102 2.06641 3.38281 2.06641z" />
    <glyph glyph-name="mensuralRestSemibrevis" unicode="&#xf031;" horiz-adv-x="36" 
d="M3.38281 252.25l14.2715 -0.5l15.5107 0.5c2.29395 0 2.47461 -1.08984 2.47461 -3.4834l-0.495117 -32.5166l0.991211 -54.5l-0.496094 -34.833c0 -2.33887 0.260742 -3.66699 -2.14453 -3.66699l-14.6846 -0.5l-15.0977 0.5
c-2.65918 0 -3.71289 0.21875 -3.71289 2.83301l0.495117 39.167l-0.990234 55l0.495117 29.9336c0 2.11133 1.29102 2.06641 3.38281 2.06641z" />
    <glyph glyph-name="mensuralRestFusa" unicode="2" horiz-adv-x="98" 
d="M89 127.2c3 0 8 -4 8 -6.40039v-116.934c0 -2.61426 -0.464844 -3.93457 -4.2666 -4.19727c-4.88965 -0.338867 -9.7793 -0.533203 -14.6689 -0.533203c-4.53223 0 -9.07715 0.0400391 -13.5977 0.539062c-2.6416 0.291992 -3.4668 1.55859 -3.4668 4.05859v88.2666
c0 2.40039 2 6.40039 -8 6.40039h-45c-5 0 -8 0.799805 -8 5.59961v18.4004c0 1.59961 1 4.7998 8 4.7998h81z" />
    <glyph glyph-name="mensuralRestFusa" unicode="&#xf032;" horiz-adv-x="98" 
d="M89 127.2c3 0 8 -4 8 -6.40039v-116.934c0 -2.61426 -0.464844 -3.93457 -4.2666 -4.19727c-4.88965 -0.338867 -9.7793 -0.533203 -14.6689 -0.533203c-4.53223 0 -9.07715 0.0400391 -13.5977 0.539062c-2.6416 0.291992 -3.4668 1.55859 -3.4668 4.05859v88.2666
c0 2.40039 2 6.40039 -8 6.40039h-45c-5 0 -8 0.799805 -8 5.59961v18.4004c0 1.59961 1 4.7998 8 4.7998h81z" />
    <glyph glyph-name="mensuralRest1Space" unicode="3" horiz-adv-x="43" 
d="M2.42969 250l21.2793 -0.25l10.626 0.25c1.82129 0 1.97949 -0.900391 1.97949 -2.53613c0 -0.344727 -0.00683594 -0.722656 -0.00683594 -1.13086l-0.455078 -51.833l0.683594 -65.25l-0.683594 -74.75l0.455078 -50.583
c0 -0.613281 0.0214844 -1.15527 0.0214844 -1.62598c0 -1.51758 -0.227539 -2.29102 -2.14648 -2.29102l-16.0908 -0.5l-16.2695 0.5c-1.65723 0 -1.83594 0.724609 -1.83594 2.11328c0 0.383789 0.0136719 0.819336 0.0136719 1.30371l-0.455078 51.583l0.683594 78.5
l-0.683594 68.25l0.455078 43.25c0 1.12402 -0.100586 2.06641 -0.100586 2.81836c0 1.4375 0.370117 2.18164 2.53027 2.18164z" />
    <glyph glyph-name="mensuralRest1Space" unicode="&#xf033;" horiz-adv-x="43" 
d="M2.42969 250l21.2793 -0.25l10.626 0.25c1.82129 0 1.97949 -0.900391 1.97949 -2.53613c0 -0.344727 -0.00683594 -0.722656 -0.00683594 -1.13086l-0.455078 -51.833l0.683594 -65.25l-0.683594 -74.75l0.455078 -50.583
c0 -0.613281 0.0214844 -1.15527 0.0214844 -1.62598c0 -1.51758 -0.227539 -2.29102 -2.14648 -2.29102l-16.0908 -0.5l-16.2695 0.5c-1.65723 0 -1.83594 0.724609 -1.83594 2.11328c0 0.383789 0.0136719 0.819336 0.0136719 1.30371l-0.455078 51.583l0.683594 78.5
l-0.683594 68.25l0.455078 43.25c0 1.12402 -0.100586 2.06641 -0.100586 2.81836c0 1.4375 0.370117 2.18164 2.53027 2.18164z" />
    <glyph glyph-name="mensuralRest2Spaces" unicode="4" horiz-adv-x="44" 
d="M2.65625 500h10.6426h11.5117c2.07617 0 2.32812 -1.49805 2.32812 -3.81152c0 -0.737305 -0.0263672 -1.55762 -0.0263672 -2.43848l0.53125 -106.75l-1.23926 -144.5l0.53125 -185l0.176758 -52c0 -0.860352 0.0273438 -1.63965 0.0273438 -2.32227
c0 -2.00098 -0.242188 -3.17773 -2.15234 -3.17773h-10.2715h-12.4131c-2.07715 0 -2.3291 1.6416 -2.3291 4.02441c0 0.759766 0.0263672 1.59473 0.0263672 2.47559v44l-0.532227 179l1.24023 147l-0.708008 118c0 0.495117 -0.00390625 0.952148 -0.00390625 1.37402
c0 2.91309 0.158203 4.12598 2.66016 4.12598z" />
    <glyph glyph-name="mensuralRest2Spaces" unicode="&#xf034;" horiz-adv-x="44" 
d="M2.65625 500h10.6426h11.5117c2.07617 0 2.32812 -1.49805 2.32812 -3.81152c0 -0.737305 -0.0263672 -1.55762 -0.0263672 -2.43848l0.53125 -106.75l-1.23926 -144.5l0.53125 -185l0.176758 -52c0 -0.860352 0.0273438 -1.63965 0.0273438 -2.32227
c0 -2.00098 -0.242188 -3.17773 -2.15234 -3.17773h-10.2715h-12.4131c-2.07715 0 -2.3291 1.6416 -2.3291 4.02441c0 0.759766 0.0263672 1.59473 0.0263672 2.47559v44l-0.532227 179l1.24023 147l-0.708008 118c0 0.495117 -0.00390625 0.952148 -0.00390625 1.37402
c0 2.91309 0.158203 4.12598 2.66016 4.12598z" />
    <glyph glyph-name="mensuralRest3Spaces" unicode="5" horiz-adv-x="43" 
d="M2.83398 750h20.5645c2.97363 0 3.07031 -1.0332 3.07031 -4.83105c0 -0.264648 -0.000976562 -0.542969 -0.000976562 -0.835938l0.355469 -145.333l-0.708984 -254l0.708984 -231l-0.355469 -107.667c0 -1.22559 0.0341797 -2.22656 0.0341797 -3.04004
c0 -2.62109 -0.352539 -3.29297 -3.33887 -3.29297h-20.0928c-2.76953 0 -3.10449 0.65625 -3.10449 3.0918c0 0.776367 0.0341797 1.7334 0.0341797 2.9082l0.353516 107l-0.707031 201l0.885742 261l-0.532227 169.917
c0 0.311523 -0.000976562 0.605469 -0.000976562 0.881836c0 3.39062 0.103516 4.20117 2.83496 4.20117z" />
    <glyph glyph-name="mensuralRest3Spaces" unicode="&#xf035;" horiz-adv-x="43" 
d="M2.83398 750h20.5645c2.97363 0 3.07031 -1.0332 3.07031 -4.83105c0 -0.264648 -0.000976562 -0.542969 -0.000976562 -0.835938l0.355469 -145.333l-0.708984 -254l0.708984 -231l-0.355469 -107.667c0 -1.22559 0.0341797 -2.22656 0.0341797 -3.04004
c0 -2.62109 -0.352539 -3.29297 -3.33887 -3.29297h-20.0928c-2.76953 0 -3.10449 0.65625 -3.10449 3.0918c0 0.776367 0.0341797 1.7334 0.0341797 2.9082l0.353516 107l-0.707031 201l0.885742 261l-0.532227 169.917
c0 0.311523 -0.000976562 0.605469 -0.000976562 0.881836c0 3.39062 0.103516 4.20117 2.83496 4.20117z" />
    <glyph glyph-name="mensuralRest4Spaces" unicode="6" horiz-adv-x="141" 
d="M3.36426 1000h18.7734c3.12012 0 3.36426 -1.44922 3.36426 -6l-0.53125 -201l1.0625 -320l-1.0625 -316l0.53125 -149c0 -5.59863 0.604492 -8 -3.54102 -8h-18.9502c-3.44531 0 -3.01074 2.30371 -3.01074 7l-0.532227 150l1.06445 312l-1.06445 315l0.532227 212
c0 3.84961 0.617188 4 3.36426 4z" />
    <glyph glyph-name="mensuralRest4Spaces" unicode="&#xf036;" horiz-adv-x="141" 
d="M3.36426 1000h18.7734c3.12012 0 3.36426 -1.44922 3.36426 -6l-0.53125 -201l1.0625 -320l-1.0625 -316l0.53125 -149c0 -5.59863 0.604492 -8 -3.54102 -8h-18.9502c-3.44531 0 -3.01074 2.30371 -3.01074 7l-0.532227 150l1.06445 312l-1.06445 315l0.532227 212
c0 3.84961 0.617188 4 3.36426 4z" />
    <glyph glyph-name="verticalBar5Spaces" unicode="7" horiz-adv-x="40" 
d="M3.54199 1250h18.7725c3.08105 0 3.1875 -2.12109 3.1875 -6.5l-0.353516 -216.5l0.708984 -268l-0.708984 -276l0.708984 -272l-0.355469 -205.25c0 -5.4541 -0.881836 -5.75 -4.78125 -5.75h-17.3564c-3.29102 0 -3.36426 1.49316 -3.36426 5.86719v0.632812
l0.353516 214.5l-0.707031 266l0.707031 276l-0.707031 266l0.353516 217c0 3.84961 0.793945 4 3.54199 4z" />
    <glyph glyph-name="verticalBar5Spaces" unicode="&#xf037;" horiz-adv-x="40" 
d="M3.54199 1250h18.7725c3.08105 0 3.1875 -2.12109 3.1875 -6.5l-0.353516 -216.5l0.708984 -268l-0.708984 -276l0.708984 -272l-0.355469 -205.25c0 -5.4541 -0.881836 -5.75 -4.78125 -5.75h-17.3564c-3.29102 0 -3.36426 1.49316 -3.36426 5.86719v0.632812
l0.353516 214.5l-0.707031 266l0.707031 276l-0.707031 266l0.353516 217c0 3.84961 0.793945 4 3.54199 4z" />

<!--
L for final ascending 2nd with oblique before (stacked porrectus style)
-->
    <glyph glyph-name="pesPorrectusFinal2ndBlack" unicode="8" horiz-adv-x="5" 
d="M4.93262 64.2666c0.0136719 -28.7822 0.317383 -67.9355 0.317383 -95.9082c0 -36.7686 -0.27832 -60.8906 -0.27832 -93.1309c0 -44.6406 0.272461 -77.9395 0.27832 -113.728c0 -2.27539 0.830078 -6.25098 0.830078 -7.75c0 -3.72949 -0.233398 -4.75 -6.16504 -4.75
c-4.2959 0 -6.41113 1.21289 -6.41113 4.06641c0 2.86328 0.682617 5.81348 0.682617 8.5625c1.43262 58.2227 1.43262 66.9482 1.43262 132.591v1.05664c0 6.27051 0.570312 26.3691 0.570312 41.6523c0 7.65918 -0.143555 11.6094 -0.573242 14.5029
c-0.641602 4.31445 -5.13672 10.5869 -12.2725 10.5869c-15.5654 0 -34.9521 0.770508 -54.1797 0.770508c-9.15625 0 -15.5654 0.339844 -24.7217 0.339844h-7.32422c-16.4814 0 -34.293 -0.75 -41.6182 -2.27051
c-2.96387 -0.615234 -2.95312 -0.686523 -3.68848 -0.686523c-4.59082 0 -5.05176 1.65332 -5.05176 8.24707v1.67969c0 23.5195 1.83105 46.2002 1.83105 69.7197c0 20.1602 -0.915039 47.6699 -1.83105 69.5098c0 5.04004 1.83105 6.7207 5.49414 6.7207
c14.6494 0.839844 36.624 2.09961 63.1758 2.09961h10.9873c12.8184 0 21.3027 0 34.1211 -0.629883c11.0098 -0.541016 8.55859 -0.629883 18.6299 -0.629883c17.6973 0 26.082 -12.4531 26.082 -29.2891c0 -13.0273 -0.0712891 -10.4375 -0.317383 -23.333z" />

<!--
L for final ascending 2nd with oblique before (stacked porrectus style)
-->
    <glyph glyph-name="pesPorrectusFinal2ndBlack" unicode="&#xf038;" horiz-adv-x="5" 
d="M4.93262 64.2666c0.0136719 -28.7822 0.317383 -67.9355 0.317383 -95.9082c0 -36.7686 -0.27832 -60.8906 -0.27832 -93.1309c0 -44.6406 0.272461 -77.9395 0.27832 -113.728c0 -2.27539 0.830078 -6.25098 0.830078 -7.75c0 -3.72949 -0.233398 -4.75 -6.16504 -4.75
c-4.2959 0 -6.41113 1.21289 -6.41113 4.06641c0 2.86328 0.682617 5.81348 0.682617 8.5625c1.43262 58.2227 1.43262 66.9482 1.43262 132.591v1.05664c0 6.27051 0.570312 26.3691 0.570312 41.6523c0 7.65918 -0.143555 11.6094 -0.573242 14.5029
c-0.641602 4.31445 -5.13672 10.5869 -12.2725 10.5869c-15.5654 0 -34.9521 0.770508 -54.1797 0.770508c-9.15625 0 -15.5654 0.339844 -24.7217 0.339844h-7.32422c-16.4814 0 -34.293 -0.75 -41.6182 -2.27051
c-2.96387 -0.615234 -2.95312 -0.686523 -3.68848 -0.686523c-4.59082 0 -5.05176 1.65332 -5.05176 8.24707v1.67969c0 23.5195 1.83105 46.2002 1.83105 69.7197c0 20.1602 -0.915039 47.6699 -1.83105 69.5098c0 5.04004 1.83105 6.7207 5.49414 6.7207
c14.6494 0.839844 36.624 2.09961 63.1758 2.09961h10.9873c12.8184 0 21.3027 0 34.1211 -0.629883c11.0098 -0.541016 8.55859 -0.629883 18.6299 -0.629883c17.6973 0 26.082 -12.4531 26.082 -29.2891c0 -13.0273 -0.0712891 -10.4375 -0.317383 -23.333z" />

<!--
L for final ascending 2nd with oblique before (stacked porrectus style)
-->
    <glyph glyph-name="pesPorrectusFinal2ndBlack" unicode="&#xf741;" horiz-adv-x="5" 
d="M4.93262 64.2666c0.0136719 -28.7822 0.317383 -67.9355 0.317383 -95.9082c0 -36.7686 -0.27832 -60.8906 -0.27832 -93.1309c0 -44.6406 0.272461 -77.9395 0.27832 -113.728c0 -2.27539 0.830078 -6.25098 0.830078 -7.75c0 -3.72949 -0.233398 -4.75 -6.16504 -4.75
c-4.2959 0 -6.41113 1.21289 -6.41113 4.06641c0 2.86328 0.682617 5.81348 0.682617 8.5625c1.43262 58.2227 1.43262 66.9482 1.43262 132.591v1.05664c0 6.27051 0.570312 26.3691 0.570312 41.6523c0 7.65918 -0.143555 11.6094 -0.573242 14.5029
c-0.641602 4.31445 -5.13672 10.5869 -12.2725 10.5869c-15.5654 0 -34.9521 0.770508 -54.1797 0.770508c-9.15625 0 -15.5654 0.339844 -24.7217 0.339844h-7.32422c-16.4814 0 -34.293 -0.75 -41.6182 -2.27051
c-2.96387 -0.615234 -2.95312 -0.686523 -3.68848 -0.686523c-4.59082 0 -5.05176 1.65332 -5.05176 8.24707v1.67969c0 23.5195 1.83105 46.2002 1.83105 69.7197c0 20.1602 -0.915039 47.6699 -1.83105 69.5098c0 5.04004 1.83105 6.7207 5.49414 6.7207
c14.6494 0.839844 36.624 2.09961 63.1758 2.09961h10.9873c12.8184 0 21.3027 0 34.1211 -0.629883c11.0098 -0.541016 8.55859 -0.629883 18.6299 -0.629883c17.6973 0 26.082 -12.4531 26.082 -29.2891c0 -13.0273 -0.0712891 -10.4375 -0.317383 -23.333z" />

<!--
for ascending 2nd B-L in stacked (anticus) style
-->
    <glyph glyph-name="pesFinal2ndBlack" unicode="9" horiz-adv-x="6" 
d="M5.68262 74.667c0.0136719 -28.7822 0.317383 -67.9355 0.317383 -95.9082c0 -36.7686 -0.27832 -71.291 -0.27832 -103.531c0 -44.6406 0.289708 -43.9041 0.329102 -79.6934c0.00195312 -1.77441 0.529297 -5.03516 0.529297 -7.34621
c0 -3.67879 -0.0164173 -4.68797 -5.91504 -4.68797c-4.2959 0 -6.41113 1.21289 -6.41113 4.06641c0 2.86328 0.682617 5.81348 0.682617 8.5625c1.43262 58.2227 1.43262 42.8486 1.43262 108.491v1.05664c0 6.27051 0.570312 26.3691 0.570312 41.6523
c0 7.65918 -0.143555 11.6094 -0.573242 14.5029c-0.641602 4.31445 -3.88672 10.5869 -11.0225 10.5869c-15.5654 0 -36.2021 0.770508 -55.4297 0.770508c-9.15625 0 -15.5654 0.339844 -24.7217 0.339844h-7.32422c-16.4814 0 -34.293 -0.75 -41.6182 -2.27051
c-2.96387 -0.615234 -2.95312 -0.686523 -3.68848 -0.686523c-4.59082 0 -5.05176 1.65332 -5.05176 8.24707v1.67969c0 23.5195 1.83105 46.2002 1.83105 69.7197c0 20.1602 -0.915039 47.6699 -1.83105 69.5098c0 5.04004 1.83105 6.7207 5.49414 6.7207
c14.6494 0.839844 36.624 2.09961 63.1758 2.09961h10.9873c12.8184 0 21.3027 0 34.1211 -0.629883c11.0098 -0.541016 8.55859 -0.629883 18.6299 -0.629883c17.6973 0 26.082 -12.4531 26.082 -29.2891c0 -13.0273 -0.0712891 -10.4375 -0.317383 -23.333z" />

<!--
for ascending 2nd B-L in stacked (anticus) style
-->
    <glyph glyph-name="pesFinal2ndBlack" unicode="&#xf039;" horiz-adv-x="6" 
d="M5.68262 74.667c0.0136719 -28.7822 0.317383 -67.9355 0.317383 -95.9082c0 -36.7686 -0.27832 -71.291 -0.27832 -103.531c0 -44.6406 0.289708 -43.9041 0.329102 -79.6934c0.00195312 -1.77441 0.529297 -5.03516 0.529297 -7.34621
c0 -3.67879 -0.0164173 -4.68797 -5.91504 -4.68797c-4.2959 0 -6.41113 1.21289 -6.41113 4.06641c0 2.86328 0.682617 5.81348 0.682617 8.5625c1.43262 58.2227 1.43262 42.8486 1.43262 108.491v1.05664c0 6.27051 0.570312 26.3691 0.570312 41.6523
c0 7.65918 -0.143555 11.6094 -0.573242 14.5029c-0.641602 4.31445 -3.88672 10.5869 -11.0225 10.5869c-15.5654 0 -36.2021 0.770508 -55.4297 0.770508c-9.15625 0 -15.5654 0.339844 -24.7217 0.339844h-7.32422c-16.4814 0 -34.293 -0.75 -41.6182 -2.27051
c-2.96387 -0.615234 -2.95312 -0.686523 -3.68848 -0.686523c-4.59082 0 -5.05176 1.65332 -5.05176 8.24707v1.67969c0 23.5195 1.83105 46.2002 1.83105 69.7197c0 20.1602 -0.915039 47.6699 -1.83105 69.5098c0 5.04004 1.83105 6.7207 5.49414 6.7207
c14.6494 0.839844 36.624 2.09961 63.1758 2.09961h10.9873c12.8184 0 21.3027 0 34.1211 -0.629883c11.0098 -0.541016 8.55859 -0.629883 18.6299 -0.629883c17.6973 0 26.082 -12.4531 26.082 -29.2891c0 -13.0273 -0.0712891 -10.4375 -0.317383 -23.333z" />

<!--
for ascending 2nd B-L in stacked (anticus) style
-->
    <glyph glyph-name="pesFinal2ndBlack" unicode="&#xf742;" horiz-adv-x="6" 
d="M5.68262 74.667c0.0136719 -28.7822 0.317383 -67.9355 0.317383 -95.9082c0 -36.7686 -0.27832 -71.291 -0.27832 -103.531c0 -44.6406 0.289708 -43.9041 0.329102 -79.6934c0.00195312 -1.77441 0.529297 -5.03516 0.529297 -7.34621
c0 -3.67879 -0.0164173 -4.68797 -5.91504 -4.68797c-4.2959 0 -6.41113 1.21289 -6.41113 4.06641c0 2.86328 0.682617 5.81348 0.682617 8.5625c1.43262 58.2227 1.43262 42.8486 1.43262 108.491v1.05664c0 6.27051 0.570312 26.3691 0.570312 41.6523
c0 7.65918 -0.143555 11.6094 -0.573242 14.5029c-0.641602 4.31445 -3.88672 10.5869 -11.0225 10.5869c-15.5654 0 -36.2021 0.770508 -55.4297 0.770508c-9.15625 0 -15.5654 0.339844 -24.7217 0.339844h-7.32422c-16.4814 0 -34.293 -0.75 -41.6182 -2.27051
c-2.96387 -0.615234 -2.95312 -0.686523 -3.68848 -0.686523c-4.59082 0 -5.05176 1.65332 -5.05176 8.24707v1.67969c0 23.5195 1.83105 46.2002 1.83105 69.7197c0 20.1602 -0.915039 47.6699 -1.83105 69.5098c0 5.04004 1.83105 6.7207 5.49414 6.7207
c14.6494 0.839844 36.624 2.09961 63.1758 2.09961h10.9873c12.8184 0 21.3027 0 34.1211 -0.629883c11.0098 -0.541016 8.55859 -0.629883 18.6299 -0.629883c17.6973 0 26.082 -12.4531 26.082 -29.2891c0 -13.0273 -0.0712891 -10.4375 -0.317383 -23.333z" />
    <glyph glyph-name="pesFinal4thBlack" unicode=";" horiz-adv-x="5" 
d="M4 -19.25c0 -21 1 -53 1 -64c0 -9 -6 -11 -17 -11c-17 0 -45 3 -66 3c-10 0 -17 1 -27 1h-8c-18 0 -38 0 -46 -3c-3 -1 -3 -2 -3 -2h-1c-4 0 -5 4 -5 11v2c0 28 2 55 2 83c0 24 -1 56.75 -2 82.75c0 6 2 8 6 8c16 1 40 2.5 69 2.5h12c14 0 29 0 43 -0.75
c12.0244 -0.644531 16.5 -0.75 27.5 -0.75c11.25 0 15.5 -9.5 15.5 -20v-20.75c0 -24 -1 -45 -1 -71zM-7.94043 -460.57c0 1.60645 0.759766 4.82129 0.759766 6.42871s0.759766 4.01855 0.759766 5.62598c1.51855 81.9697 1.51855 196.889 1.51855 289.306v1.4873
c0 84.6055 -0.00195312 157.447 -0.756836 229.352c0.0712891 4.00781 3.22754 4.62109 5.50586 4.62109c3.13574 0 5.12598 -0.748047 5.12598 -3.01367c0 -7.20703 -0.00292969 -10.4443 -0.00292969 -18.4805c0 -142.242 0.172852 -371.026 1.13965 -449.027
c0.359375 -29.0381 2.09375 -42.9668 3.2334 -64.2324c0.0146484 -0.280273 0.0224609 -0.551758 0.0224609 -0.81543c0 -5.5498 -3.30469 -7.68066 -9.71094 -7.68066c-4.55664 0 -7.59473 2.41113 -7.59473 6.42969z" />
    <glyph glyph-name="pesFinal4thBlack" unicode="&#xf03b;" horiz-adv-x="5" 
d="M4 -19.25c0 -21 1 -53 1 -64c0 -9 -6 -11 -17 -11c-17 0 -45 3 -66 3c-10 0 -17 1 -27 1h-8c-18 0 -38 0 -46 -3c-3 -1 -3 -2 -3 -2h-1c-4 0 -5 4 -5 11v2c0 28 2 55 2 83c0 24 -1 56.75 -2 82.75c0 6 2 8 6 8c16 1 40 2.5 69 2.5h12c14 0 29 0 43 -0.75
c12.0244 -0.644531 16.5 -0.75 27.5 -0.75c11.25 0 15.5 -9.5 15.5 -20v-20.75c0 -24 -1 -45 -1 -71zM-7.94043 -460.57c0 1.60645 0.759766 4.82129 0.759766 6.42871s0.759766 4.01855 0.759766 5.62598c1.51855 81.9697 1.51855 196.889 1.51855 289.306v1.4873
c0 84.6055 -0.00195312 157.447 -0.756836 229.352c0.0712891 4.00781 3.22754 4.62109 5.50586 4.62109c3.13574 0 5.12598 -0.748047 5.12598 -3.01367c0 -7.20703 -0.00292969 -10.4443 -0.00292969 -18.4805c0 -142.242 0.172852 -371.026 1.13965 -449.027
c0.359375 -29.0381 2.09375 -42.9668 3.2334 -64.2324c0.0146484 -0.280273 0.0224609 -0.551758 0.0224609 -0.81543c0 -5.5498 -3.30469 -7.68066 -9.71094 -7.68066c-4.55664 0 -7.59473 2.41113 -7.59473 6.42969z" />
    <glyph glyph-name="pesFinal4thBlack" unicode="&#xf744;" horiz-adv-x="5" 
d="M4 -19.25c0 -21 1 -53 1 -64c0 -9 -6 -11 -17 -11c-17 0 -45 3 -66 3c-10 0 -17 1 -27 1h-8c-18 0 -38 0 -46 -3c-3 -1 -3 -2 -3 -2h-1c-4 0 -5 4 -5 11v2c0 28 2 55 2 83c0 24 -1 56.75 -2 82.75c0 6 2 8 6 8c16 1 40 2.5 69 2.5h12c14 0 29 0 43 -0.75
c12.0244 -0.644531 16.5 -0.75 27.5 -0.75c11.25 0 15.5 -9.5 15.5 -20v-20.75c0 -24 -1 -45 -1 -71zM-7.94043 -460.57c0 1.60645 0.759766 4.82129 0.759766 6.42871s0.759766 4.01855 0.759766 5.62598c1.51855 81.9697 1.51855 196.889 1.51855 289.306v1.4873
c0 84.6055 -0.00195312 157.447 -0.756836 229.352c0.0712891 4.00781 3.22754 4.62109 5.50586 4.62109c3.13574 0 5.12598 -0.748047 5.12598 -3.01367c0 -7.20703 -0.00292969 -10.4443 -0.00292969 -18.4805c0 -142.242 0.172852 -371.026 1.13965 -449.027
c0.359375 -29.0381 2.09375 -42.9668 3.2334 -64.2324c0.0146484 -0.280273 0.0224609 -0.551758 0.0224609 -0.81543c0 -5.5498 -3.30469 -7.68066 -9.71094 -7.68066c-4.55664 0 -7.59473 2.41113 -7.59473 6.42969z" />
    <glyph glyph-name="pesFinal5thBlack" unicode="&#x3c;" horiz-adv-x="5" 
d="M4 -19.25c0 -21 1 -53 1 -64c0 -9 -6 -11 -17 -11c-17 0 -45 3 -66 3c-10 0 -17 1 -27 1h-8c-18 0 -38 0 -46 -3c-3 -1 -3 -2 -3 -2h-1c-4 0 -5 4 -5 11v2c0 28 2 55 2 83c0 24 -1 56.75 -2 82.75c0 6 2 8 6 8c16 1 40 2.5 69 2.5h12c14 0 29 0 43 -0.75
c12.0244 -0.644531 16.5 -0.75 27.5 -0.75c11.25 0 15.5 -9.5 15.5 -20v-20.75c0 -24 -1 -45 -1 -71zM-7.94824 -584.104c0 1.97461 0.758789 5.92285 0.758789 7.89648c0 1.97559 0.759766 4.93652 0.759766 6.91016c1.51855 100.68 1.51855 241.83 1.51855 355.341
v1.82812c0 103.916 -0.00195312 193.385 -0.756836 281.702c0.0722656 4.92188 3.22754 5.67578 5.50586 5.67578c3.13574 0 5.12598 -0.918945 5.12598 -3.70117c0 -8.85254 -0.00195312 -12.8291 -0.00195312 -22.6992c0 -174.71 0.172852 -455.715 1.13867 -551.52
c0.360352 -35.667 2.09473 -52.7754 3.2334 -78.8945c0.0146484 -0.34375 0.0224609 -0.678711 0.0224609 -1.00195c0 -6.81641 -3.30469 -9.43262 -9.71094 -9.43262c-4.55664 0 -7.59375 2.96094 -7.59375 7.89551z" />
    <glyph glyph-name="pesFinal5thBlack" unicode="&#xf03c;" horiz-adv-x="5" 
d="M4 -19.25c0 -21 1 -53 1 -64c0 -9 -6 -11 -17 -11c-17 0 -45 3 -66 3c-10 0 -17 1 -27 1h-8c-18 0 -38 0 -46 -3c-3 -1 -3 -2 -3 -2h-1c-4 0 -5 4 -5 11v2c0 28 2 55 2 83c0 24 -1 56.75 -2 82.75c0 6 2 8 6 8c16 1 40 2.5 69 2.5h12c14 0 29 0 43 -0.75
c12.0244 -0.644531 16.5 -0.75 27.5 -0.75c11.25 0 15.5 -9.5 15.5 -20v-20.75c0 -24 -1 -45 -1 -71zM-7.94824 -584.104c0 1.97461 0.758789 5.92285 0.758789 7.89648c0 1.97559 0.759766 4.93652 0.759766 6.91016c1.51855 100.68 1.51855 241.83 1.51855 355.341
v1.82812c0 103.916 -0.00195312 193.385 -0.756836 281.702c0.0722656 4.92188 3.22754 5.67578 5.50586 5.67578c3.13574 0 5.12598 -0.918945 5.12598 -3.70117c0 -8.85254 -0.00195312 -12.8291 -0.00195312 -22.6992c0 -174.71 0.172852 -455.715 1.13867 -551.52
c0.360352 -35.667 2.09473 -52.7754 3.2334 -78.8945c0.0146484 -0.34375 0.0224609 -0.678711 0.0224609 -1.00195c0 -6.81641 -3.30469 -9.43262 -9.71094 -9.43262c-4.55664 0 -7.59375 2.96094 -7.59375 7.89551z" />
    <glyph glyph-name="pesFinal5thBlack" unicode="&#xf745;" horiz-adv-x="5" 
d="M4 -19.25c0 -21 1 -53 1 -64c0 -9 -6 -11 -17 -11c-17 0 -45 3 -66 3c-10 0 -17 1 -27 1h-8c-18 0 -38 0 -46 -3c-3 -1 -3 -2 -3 -2h-1c-4 0 -5 4 -5 11v2c0 28 2 55 2 83c0 24 -1 56.75 -2 82.75c0 6 2 8 6 8c16 1 40 2.5 69 2.5h12c14 0 29 0 43 -0.75
c12.0244 -0.644531 16.5 -0.75 27.5 -0.75c11.25 0 15.5 -9.5 15.5 -20v-20.75c0 -24 -1 -45 -1 -71zM-7.94824 -584.104c0 1.97461 0.758789 5.92285 0.758789 7.89648c0 1.97559 0.759766 4.93652 0.759766 6.91016c1.51855 100.68 1.51855 241.83 1.51855 355.341
v1.82812c0 103.916 -0.00195312 193.385 -0.756836 281.702c0.0722656 4.92188 3.22754 5.67578 5.50586 5.67578c3.13574 0 5.12598 -0.918945 5.12598 -3.70117c0 -8.85254 -0.00195312 -12.8291 -0.00195312 -22.6992c0 -174.71 0.172852 -455.715 1.13867 -551.52
c0.360352 -35.667 2.09473 -52.7754 3.2334 -78.8945c0.0146484 -0.34375 0.0224609 -0.678711 0.0224609 -1.00195c0 -6.81641 -3.30469 -9.43262 -9.71094 -9.43262c-4.55664 0 -7.59375 2.96094 -7.59375 7.89551z" />
    <glyph glyph-name="pesFinal6thBlack" unicode="=" horiz-adv-x="5" 
d="M4 -19.25c0 -21 1 -53 1 -64c0 -9 -6 -11 -17 -11c-17 0 -45 3 -66 3c-10 0 -17 1 -27 1h-8c-18 0 -38 0 -46 -3c-3 -1 -3 -2 -3 -2h-1c-4 0 -5 4 -5 11v2c0 28 2 55 2 83c0 24 -1 56.75 -2 82.75c0 6 2 8 6 8c16 1 40 2.5 69 2.5h12c14 0 29 0 43 -0.75
c12.0244 -0.644531 16.5 -0.75 27.5 -0.75c11.25 0 15.5 -9.5 15.5 -20v-20.75c0 -24 -1 -45 -1 -71zM-7.94824 -707.669c0 2.33301 0.758789 6.99902 0.758789 9.33203c0 2.33398 0.759766 5.83301 0.759766 8.16602c1.51855 118.975 1.51855 285.773 1.51855 419.912
v2.15918c0 122.8 -0.00195312 228.526 -0.756836 332.893c0.0722656 5.81641 3.22754 6.70703 5.50586 6.70703c3.13574 0 5.12598 -1.08594 5.12598 -4.37402c0 -10.4609 -0.00195312 -15.1602 -0.00195312 -26.8242c0 -206.457 0.172852 -538.525 1.13867 -651.739
c0.360352 -42.1475 2.09473 -62.3652 3.2334 -93.2314c0.0146484 -0.40625 0.0224609 -0.800781 0.0224609 -1.18359c0 -8.05566 -3.30469 -11.1475 -9.71094 -11.1475c-4.55664 0 -7.59375 3.5 -7.59375 9.33105z" />
    <glyph glyph-name="pesFinal6thBlack" unicode="&#xf03d;" horiz-adv-x="5" 
d="M4 -19.25c0 -21 1 -53 1 -64c0 -9 -6 -11 -17 -11c-17 0 -45 3 -66 3c-10 0 -17 1 -27 1h-8c-18 0 -38 0 -46 -3c-3 -1 -3 -2 -3 -2h-1c-4 0 -5 4 -5 11v2c0 28 2 55 2 83c0 24 -1 56.75 -2 82.75c0 6 2 8 6 8c16 1 40 2.5 69 2.5h12c14 0 29 0 43 -0.75
c12.0244 -0.644531 16.5 -0.75 27.5 -0.75c11.25 0 15.5 -9.5 15.5 -20v-20.75c0 -24 -1 -45 -1 -71zM-7.94824 -707.669c0 2.33301 0.758789 6.99902 0.758789 9.33203c0 2.33398 0.759766 5.83301 0.759766 8.16602c1.51855 118.975 1.51855 285.773 1.51855 419.912
v2.15918c0 122.8 -0.00195312 228.526 -0.756836 332.893c0.0722656 5.81641 3.22754 6.70703 5.50586 6.70703c3.13574 0 5.12598 -1.08594 5.12598 -4.37402c0 -10.4609 -0.00195312 -15.1602 -0.00195312 -26.8242c0 -206.457 0.172852 -538.525 1.13867 -651.739
c0.360352 -42.1475 2.09473 -62.3652 3.2334 -93.2314c0.0146484 -0.40625 0.0224609 -0.800781 0.0224609 -1.18359c0 -8.05566 -3.30469 -11.1475 -9.71094 -11.1475c-4.55664 0 -7.59375 3.5 -7.59375 9.33105z" />
    <glyph glyph-name="pesFinal6thBlack" unicode="&#xf746;" horiz-adv-x="5" 
d="M4 -19.25c0 -21 1 -53 1 -64c0 -9 -6 -11 -17 -11c-17 0 -45 3 -66 3c-10 0 -17 1 -27 1h-8c-18 0 -38 0 -46 -3c-3 -1 -3 -2 -3 -2h-1c-4 0 -5 4 -5 11v2c0 28 2 55 2 83c0 24 -1 56.75 -2 82.75c0 6 2 8 6 8c16 1 40 2.5 69 2.5h12c14 0 29 0 43 -0.75
c12.0244 -0.644531 16.5 -0.75 27.5 -0.75c11.25 0 15.5 -9.5 15.5 -20v-20.75c0 -24 -1 -45 -1 -71zM-7.94824 -707.669c0 2.33301 0.758789 6.99902 0.758789 9.33203c0 2.33398 0.759766 5.83301 0.759766 8.16602c1.51855 118.975 1.51855 285.773 1.51855 419.912
v2.15918c0 122.8 -0.00195312 228.526 -0.756836 332.893c0.0722656 5.81641 3.22754 6.70703 5.50586 6.70703c3.13574 0 5.12598 -1.08594 5.12598 -4.37402c0 -10.4609 -0.00195312 -15.1602 -0.00195312 -26.8242c0 -206.457 0.172852 -538.525 1.13867 -651.739
c0.360352 -42.1475 2.09473 -62.3652 3.2334 -93.2314c0.0146484 -0.40625 0.0224609 -0.800781 0.0224609 -1.18359c0 -8.05566 -3.30469 -11.1475 -9.71094 -11.1475c-4.55664 0 -7.59375 3.5 -7.59375 9.33105z" />
    <glyph glyph-name="pesFinal7thBlack" unicode="&#x3e;" horiz-adv-x="5" 
d="M4 -19.25c0 -21 1 -53 1 -64c0 -9 -6 -11 -17 -11c-17 0 -45 3 -66 3c-10 0 -17 1 -27 1h-8c-18 0 -38 0 -46 -3c-3 -1 -3 -2 -3 -2h-1c-4 0 -5 4 -5 11v2c0 28 2 55 2 83c0 24 -1 56.75 -2 82.75c0 6 2 8 6 8c16 1 40 2.5 69 2.5h12c14 0 29 0 43 -0.75
c12.0244 -0.644531 16.5 -0.75 27.5 -0.75c11.25 0 15.5 -9.5 15.5 -20v-20.75c0 -24 -1 -45 -1 -71zM-8.03223 -832.802c0 2.7168 0.759766 8.15137 0.759766 10.8682c0 2.71875 0.759766 6.79492 0.759766 9.51172c1.51855 138.578 1.51855 332.861 1.51855 489.102
v2.51562c0 143.033 -0.00195312 266.181 -0.756836 387.743c0.0712891 6.77441 3.22754 7.8125 5.50586 7.8125c3.13574 0 5.12598 -1.26465 5.12598 -5.0957c0 -12.1846 -0.00292969 -17.6572 -0.00292969 -31.2432c0 -240.475 0.172852 -627.259 1.13965 -759.127
c0.359375 -49.0928 2.09375 -72.6416 3.2334 -108.593c0.0146484 -0.473633 0.0224609 -0.933594 0.0224609 -1.37891c0 -9.38281 -3.30469 -12.9844 -9.71094 -12.9844c-4.55664 0 -7.59473 4.07617 -7.59473 10.8691z" />
    <glyph glyph-name="pesFinal7thBlack" unicode="&#xf03e;" horiz-adv-x="5" 
d="M4 -19.25c0 -21 1 -53 1 -64c0 -9 -6 -11 -17 -11c-17 0 -45 3 -66 3c-10 0 -17 1 -27 1h-8c-18 0 -38 0 -46 -3c-3 -1 -3 -2 -3 -2h-1c-4 0 -5 4 -5 11v2c0 28 2 55 2 83c0 24 -1 56.75 -2 82.75c0 6 2 8 6 8c16 1 40 2.5 69 2.5h12c14 0 29 0 43 -0.75
c12.0244 -0.644531 16.5 -0.75 27.5 -0.75c11.25 0 15.5 -9.5 15.5 -20v-20.75c0 -24 -1 -45 -1 -71zM-8.03223 -832.802c0 2.7168 0.759766 8.15137 0.759766 10.8682c0 2.71875 0.759766 6.79492 0.759766 9.51172c1.51855 138.578 1.51855 332.861 1.51855 489.102
v2.51562c0 143.033 -0.00195312 266.181 -0.756836 387.743c0.0712891 6.77441 3.22754 7.8125 5.50586 7.8125c3.13574 0 5.12598 -1.26465 5.12598 -5.0957c0 -12.1846 -0.00292969 -17.6572 -0.00292969 -31.2432c0 -240.475 0.172852 -627.259 1.13965 -759.127
c0.359375 -49.0928 2.09375 -72.6416 3.2334 -108.593c0.0146484 -0.473633 0.0224609 -0.933594 0.0224609 -1.37891c0 -9.38281 -3.30469 -12.9844 -9.71094 -12.9844c-4.55664 0 -7.59473 4.07617 -7.59473 10.8691z" />
    <glyph glyph-name="pesFinal7thBlack" unicode="&#xf747;" horiz-adv-x="5" 
d="M4 -19.25c0 -21 1 -53 1 -64c0 -9 -6 -11 -17 -11c-17 0 -45 3 -66 3c-10 0 -17 1 -27 1h-8c-18 0 -38 0 -46 -3c-3 -1 -3 -2 -3 -2h-1c-4 0 -5 4 -5 11v2c0 28 2 55 2 83c0 24 -1 56.75 -2 82.75c0 6 2 8 6 8c16 1 40 2.5 69 2.5h12c14 0 29 0 43 -0.75
c12.0244 -0.644531 16.5 -0.75 27.5 -0.75c11.25 0 15.5 -9.5 15.5 -20v-20.75c0 -24 -1 -45 -1 -71zM-8.03223 -832.802c0 2.7168 0.759766 8.15137 0.759766 10.8682c0 2.71875 0.759766 6.79492 0.759766 9.51172c1.51855 138.578 1.51855 332.861 1.51855 489.102
v2.51562c0 143.033 -0.00195312 266.181 -0.756836 387.743c0.0712891 6.77441 3.22754 7.8125 5.50586 7.8125c3.13574 0 5.12598 -1.26465 5.12598 -5.0957c0 -12.1846 -0.00292969 -17.6572 -0.00292969 -31.2432c0 -240.475 0.172852 -627.259 1.13965 -759.127
c0.359375 -49.0928 2.09375 -72.6416 3.2334 -108.593c0.0146484 -0.473633 0.0224609 -0.933594 0.0224609 -1.37891c0 -9.38281 -3.30469 -12.9844 -9.71094 -12.9844c-4.55664 0 -7.59473 4.07617 -7.59473 10.8691z" />
    <glyph glyph-name="pesFinal8vaBlack" unicode="?" horiz-adv-x="5" 
d="M-8.03223 -957.616c0 2.7627 0.759766 8.28809 0.759766 11.0518s0.759766 6.9082 0.759766 9.67188c1.51855 140.915 1.51855 463.475 1.51855 622.35v2.55859c0 145.445 -0.00195312 258.17 -0.756836 381.782c0.0712891 6.88867 3.22754 7.94336 5.50586 7.94336
c3.13574 0 5.12598 -1.28516 5.12598 -5.18066c0 -12.3906 -0.00292969 -17.9551 -0.00292969 -31.7705c0 -244.53 0.172852 -782.837 1.13965 -916.93c0.359375 -49.9199 2.09375 -41.3662 3.2334 -77.9238c0.330078 -10.5859 -2.97754 -14.6055 -9.68848 -14.6055
c-4.55664 0 -7.59473 4.14453 -7.59473 11.0527zM4 -19.25c0 -21 1 -53 1 -64c0 -9 -6 -11 -17 -11c-17 0 -45 3 -66 3c-10 0 -17 1 -27 1h-8c-18 0 -38 0 -46 -3c-3 -1 -3 -2 -3 -2h-1c-4 0 -5 4 -5 11v2c0 28 2 55 2 83c0 24 -1 56.75 -2 82.75c0 6 2 8 6 8
c16 1 40 2.5 69 2.5h12c14 0 29 0 43 -0.75c12.0244 -0.644531 16.5 -0.75 27.5 -0.75c11.25 0 15.5 -9.5 15.5 -20v-20.75c0 -24 -1 -45 -1 -71z" />
    <glyph glyph-name="pesFinal8vaBlack" unicode="&#xf03f;" horiz-adv-x="5" 
d="M-8.03223 -957.616c0 2.7627 0.759766 8.28809 0.759766 11.0518s0.759766 6.9082 0.759766 9.67188c1.51855 140.915 1.51855 463.475 1.51855 622.35v2.55859c0 145.445 -0.00195312 258.17 -0.756836 381.782c0.0712891 6.88867 3.22754 7.94336 5.50586 7.94336
c3.13574 0 5.12598 -1.28516 5.12598 -5.18066c0 -12.3906 -0.00292969 -17.9551 -0.00292969 -31.7705c0 -244.53 0.172852 -782.837 1.13965 -916.93c0.359375 -49.9199 2.09375 -41.3662 3.2334 -77.9238c0.330078 -10.5859 -2.97754 -14.6055 -9.68848 -14.6055
c-4.55664 0 -7.59473 4.14453 -7.59473 11.0527zM4 -19.25c0 -21 1 -53 1 -64c0 -9 -6 -11 -17 -11c-17 0 -45 3 -66 3c-10 0 -17 1 -27 1h-8c-18 0 -38 0 -46 -3c-3 -1 -3 -2 -3 -2h-1c-4 0 -5 4 -5 11v2c0 28 2 55 2 83c0 24 -1 56.75 -2 82.75c0 6 2 8 6 8
c16 1 40 2.5 69 2.5h12c14 0 29 0 43 -0.75c12.0244 -0.644531 16.5 -0.75 27.5 -0.75c11.25 0 15.5 -9.5 15.5 -20v-20.75c0 -24 -1 -45 -1 -71z" />
    <glyph glyph-name="pesFinal8vaBlack" unicode="&#xf748;" horiz-adv-x="5" 
d="M-8.03223 -957.616c0 2.7627 0.759766 8.28809 0.759766 11.0518s0.759766 6.9082 0.759766 9.67188c1.51855 140.915 1.51855 463.475 1.51855 622.35v2.55859c0 145.445 -0.00195312 258.17 -0.756836 381.782c0.0712891 6.88867 3.22754 7.94336 5.50586 7.94336
c3.13574 0 5.12598 -1.28516 5.12598 -5.18066c0 -12.3906 -0.00292969 -17.9551 -0.00292969 -31.7705c0 -244.53 0.172852 -782.837 1.13965 -916.93c0.359375 -49.9199 2.09375 -41.3662 3.2334 -77.9238c0.330078 -10.5859 -2.97754 -14.6055 -9.68848 -14.6055
c-4.55664 0 -7.59473 4.14453 -7.59473 11.0527zM4 -19.25c0 -21 1 -53 1 -64c0 -9 -6 -11 -17 -11c-17 0 -45 3 -66 3c-10 0 -17 1 -27 1h-8c-18 0 -38 0 -46 -3c-3 -1 -3 -2 -3 -2h-1c-4 0 -5 4 -5 11v2c0 28 2 55 2 83c0 24 -1 56.75 -2 82.75c0 6 2 8 6 8
c16 1 40 2.5 69 2.5h12c14 0 29 0 43 -0.75c12.0244 -0.644531 16.5 -0.75 27.5 -0.75c11.25 0 15.5 -9.5 15.5 -20v-20.75c0 -24 -1 -45 -1 -71z" />
    <glyph glyph-name="connectingStem2ndUp" unicode="@" horiz-adv-x="0" 
d="M-7.25 213.333c2.33691 1.4209 4.46094 2.04395 6.43457 2.04395c3.14941 0 5.91797 -1.58594 8.56543 -4.04395v-4.16602c0 -11.0605 -0.03125 -24.3252 -0.03125 -33.7803c0 -4.72656 0.0078125 -9.37598 0.03125 -14.0703
c0.135742 -27.2891 0.227539 -56.1416 0.227539 -82.9111c0 -22.6846 -0.0664062 -42.0586 -0.227539 -64.8389c-0.0527344 -7.46582 -0.0722656 -14.8965 -0.0722656 -22.3291c0 -20.3076 0.144531 -33.6357 0.144531 -54.7627
c0 -7.73242 -0.0195312 -13.0732 -0.0722656 -21.0576v-4.16699c-1.85645 -2.9043 -4.90234 -4.40527 -7.84668 -4.40527c-2.88281 0 -5.66992 1.4375 -7.15332 4.40527v6.83301c0.242188 9.59277 0.333984 16.8369 0.333984 26.6719
c0 12.8262 -0.155273 18.8076 -0.333984 31.8115c-0.211914 15.4277 -0.282227 32.21 -0.282227 52.0615c0 39.7041 0.282227 78.6885 0.282227 78.6885c0 21.1006 -0.207031 44.4824 -0.207031 66.293c0 10.9062 0.0517578 25.4189 0.207031 36.5576v5.16602z" />
    <glyph glyph-name="connectingStem2ndUp" unicode="&#xf040;" horiz-adv-x="0" 
d="M-7.25 213.333c2.33691 1.4209 4.46094 2.04395 6.43457 2.04395c3.14941 0 5.91797 -1.58594 8.56543 -4.04395v-4.16602c0 -11.0605 -0.03125 -24.3252 -0.03125 -33.7803c0 -4.72656 0.0078125 -9.37598 0.03125 -14.0703
c0.135742 -27.2891 0.227539 -56.1416 0.227539 -82.9111c0 -22.6846 -0.0664062 -42.0586 -0.227539 -64.8389c-0.0527344 -7.46582 -0.0722656 -14.8965 -0.0722656 -22.3291c0 -20.3076 0.144531 -33.6357 0.144531 -54.7627
c0 -7.73242 -0.0195312 -13.0732 -0.0722656 -21.0576v-4.16699c-1.85645 -2.9043 -4.90234 -4.40527 -7.84668 -4.40527c-2.88281 0 -5.66992 1.4375 -7.15332 4.40527v6.83301c0.242188 9.59277 0.333984 16.8369 0.333984 26.6719
c0 12.8262 -0.155273 18.8076 -0.333984 31.8115c-0.211914 15.4277 -0.282227 32.21 -0.282227 52.0615c0 39.7041 0.282227 78.6885 0.282227 78.6885c0 21.1006 -0.207031 44.4824 -0.207031 66.293c0 10.9062 0.0517578 25.4189 0.207031 36.5576v5.16602z" />
    <glyph glyph-name="connectingStem3rdUp" unicode="A" horiz-adv-x="0" 
d="M-7.6543 165.297c0 35.4717 0.241211 71.4551 0.241211 106.558c0 17.9912 -0.396484 32.207 -0.396484 50.4072c0 5.87402 0.208008 10.998 0.30957 16.876c1.74609 0.75 4.00098 1.52539 7.05859 1.52539c2.19727 0 5.30762 -0.400391 7.94141 -2.52539
c0.244141 -8.63379 0.326172 -16.3887 0.326172 -24.8379c0 -30.7559 -0.275391 -57.9053 -0.275391 -88.792c0 -14.7939 0.133789 -29.6221 0.133789 -44.3496c0 -25.3838 -0.451172 -51.0635 -0.451172 -76.9531c0 -24.6738 0.452148 -49.8867 0.452148 -74.2949
c0 -9.79785 0.00683594 -19.5195 0.00683594 -29.1777c0 -20.3809 -0.210938 -32.1133 -0.210938 -52.0889c0 -9.31934 0.241211 -18.376 0.241211 -27.3398c0 -5.15918 -0.0556641 -6.78711 -0.222656 -11.916c-2.15332 -1.07617 -3.91992 -1.6377 -5.57812 -1.6377
c-1.27734 0 -2.49023 -0.271484 -3.76465 -0.271484c-1.68066 0 -3.46973 0.47168 -5.65723 2.65918c0.0361328 7.53906 0.0478516 11.9219 0.0478516 19.8389c0 29.0381 -0.329102 48.0566 -0.329102 75.9941c0 19.9619 0.352539 40.7158 0.352539 60.9141
c0 10.457 -0.0439453 20.9307 -0.0439453 31.3906c0 9.16895 0.0429688 18.4746 0.0429688 27.8711c0 13.3086 -0.224609 26.8018 -0.224609 40.1504z" />
    <glyph glyph-name="connectingStem3rdUp" unicode="&#xf041;" horiz-adv-x="0" 
d="M-7.6543 165.297c0 35.4717 0.241211 71.4551 0.241211 106.558c0 17.9912 -0.396484 32.207 -0.396484 50.4072c0 5.87402 0.208008 10.998 0.30957 16.876c1.74609 0.75 4.00098 1.52539 7.05859 1.52539c2.19727 0 5.30762 -0.400391 7.94141 -2.52539
c0.244141 -8.63379 0.326172 -16.3887 0.326172 -24.8379c0 -30.7559 -0.275391 -57.9053 -0.275391 -88.792c0 -14.7939 0.133789 -29.6221 0.133789 -44.3496c0 -25.3838 -0.451172 -51.0635 -0.451172 -76.9531c0 -24.6738 0.452148 -49.8867 0.452148 -74.2949
c0 -9.79785 0.00683594 -19.5195 0.00683594 -29.1777c0 -20.3809 -0.210938 -32.1133 -0.210938 -52.0889c0 -9.31934 0.241211 -18.376 0.241211 -27.3398c0 -5.15918 -0.0556641 -6.78711 -0.222656 -11.916c-2.15332 -1.07617 -3.91992 -1.6377 -5.57812 -1.6377
c-1.27734 0 -2.49023 -0.271484 -3.76465 -0.271484c-1.68066 0 -3.46973 0.47168 -5.65723 2.65918c0.0361328 7.53906 0.0478516 11.9219 0.0478516 19.8389c0 29.0381 -0.329102 48.0566 -0.329102 75.9941c0 19.9619 0.352539 40.7158 0.352539 60.9141
c0 10.457 -0.0439453 20.9307 -0.0439453 31.3906c0 9.16895 0.0429688 18.4746 0.0429688 27.8711c0 13.3086 -0.224609 26.8018 -0.224609 40.1504z" />
    <glyph glyph-name="connectingStem4thUp" unicode="B" horiz-adv-x="0" 
d="M-8.91113 331.707c0 38.0312 -0.0283203 69.1299 -0.27832 106.994c-0.0107422 1.54688 -0.0146484 3.09375 -0.0146484 4.6416c0 6.67969 0.0878906 13.3604 0.204102 20.0449c1.74609 0 4.00098 0.775391 7.05859 0.775391
c2.19727 0 4.80762 -0.400391 7.94141 -1.77539c0.244141 -8.63379 0.326172 -17.1387 0.326172 -25.5879c0 -39.3135 -0.199219 -73.7715 -0.199219 -113.001c0 -27.2803 -0.330078 -53.2637 -0.330078 -80.7607c0 -24.377 0.446289 -137.495 0.446289 -190.925
c0 -10.457 -0.0166016 -18.627 -0.0576172 -23.3984c-0.166016 -19.3574 -0.303711 -38.4219 -0.303711 -57.2744c0 -9.48438 0.0341797 -5.41602 0.118164 -14.8027c0.0966797 -10.8232 0.222656 -21.2656 0.222656 -31.584
c0 -5.15918 -0.0556641 -10.2871 -0.222656 -15.416c-2.15332 -1.07617 -3.91992 -1.6377 -5.57812 -1.6377c-1.27734 0 -2.49023 -0.271484 -3.76465 -0.271484c-1.68066 0 -3.46973 0.47168 -5.65723 2.65918c0.0361328 7.53906 0.0478516 15.4219 0.0478516 23.3389
c0 40.8389 -0.12207 64.6729 -0.12207 105.297c0 19.168 0.101562 38.4844 0.101562 57.752c0 16.2988 -0.0761719 158.525 -0.0761719 175.432c0 19.8037 0.137695 39.6914 0.137695 59.5z" />
    <glyph glyph-name="connectingStem4thUp" unicode="&#xf042;" horiz-adv-x="0" 
d="M-8.91113 331.707c0 38.0312 -0.0283203 69.1299 -0.27832 106.994c-0.0107422 1.54688 -0.0146484 3.09375 -0.0146484 4.6416c0 6.67969 0.0878906 13.3604 0.204102 20.0449c1.74609 0 4.00098 0.775391 7.05859 0.775391
c2.19727 0 4.80762 -0.400391 7.94141 -1.77539c0.244141 -8.63379 0.326172 -17.1387 0.326172 -25.5879c0 -39.3135 -0.199219 -73.7715 -0.199219 -113.001c0 -27.2803 -0.330078 -53.2637 -0.330078 -80.7607c0 -24.377 0.446289 -137.495 0.446289 -190.925
c0 -10.457 -0.0166016 -18.627 -0.0576172 -23.3984c-0.166016 -19.3574 -0.303711 -38.4219 -0.303711 -57.2744c0 -9.48438 0.0341797 -5.41602 0.118164 -14.8027c0.0966797 -10.8232 0.222656 -21.2656 0.222656 -31.584
c0 -5.15918 -0.0556641 -10.2871 -0.222656 -15.416c-2.15332 -1.07617 -3.91992 -1.6377 -5.57812 -1.6377c-1.27734 0 -2.49023 -0.271484 -3.76465 -0.271484c-1.68066 0 -3.46973 0.47168 -5.65723 2.65918c0.0361328 7.53906 0.0478516 15.4219 0.0478516 23.3389
c0 40.8389 -0.12207 64.6729 -0.12207 105.297c0 19.168 0.101562 38.4844 0.101562 57.752c0 16.2988 -0.0761719 158.525 -0.0761719 175.432c0 19.8037 0.137695 39.6914 0.137695 59.5z" />

<!--
obliqueDesc2ndWhiteBlack
-->
    <glyph glyph-name="mensuralObliqueAsc3rdBlack" unicode="H" horiz-adv-x="405" 
d="M405 90.998v-178.823c0 -16.5381 -18.5322 -31.1279 -26 -37.7188c-88.5938 -78.1904 -133.345 -112.081 -222 -159.835c-43.4629 -23.4111 -107.325 -42.3359 -157 -55.498v181.136c45.0625 11.7051 89.0283 25.3135 127.25 47.1465
c40.041 22.8721 64.1807 37.0029 92 56.0273c47.5293 32.5029 85.0801 59.5312 131.5 99.7725c18.4404 15.9863 32.25 27.4033 54.25 47.793z" />

<!--
obliqueDesc2ndWhiteBlack
-->
    <glyph glyph-name="mensuralObliqueAsc3rdBlack" unicode="&#xf048;" horiz-adv-x="405" 
d="M405 90.998v-178.823c0 -16.5381 -18.5322 -31.1279 -26 -37.7188c-88.5938 -78.1904 -133.345 -112.081 -222 -159.835c-43.4629 -23.4111 -107.325 -42.3359 -157 -55.498v181.136c45.0625 11.7051 89.0283 25.3135 127.25 47.1465
c40.041 22.8721 64.1807 37.0029 92 56.0273c47.5293 32.5029 85.0801 59.5312 131.5 99.7725c18.4404 15.9863 32.25 27.4033 54.25 47.793z" />

<!--
obliqueDesc2ndBlackWhite
-->
    <glyph glyph-name="mensuralRest2x3Spaces" unicode="L" horiz-adv-x="149" 
d="M95.334 750h20.5645c2.97363 0 3.07031 -1.0332 3.07031 -4.83105c0 -0.264648 -0.000976562 -0.542969 -0.000976562 -0.835938l0.355469 -145.333l-0.708984 -254l0.708984 -231l-0.355469 -107.667c0 -1.22559 0.0341797 -2.22656 0.0341797 -3.04004
c0 -2.62109 -0.352539 -3.29297 -3.33887 -3.29297h-20.0928c-2.76953 0 -3.10449 0.65625 -3.10449 3.0918c0 0.776367 0.0341797 1.7334 0.0341797 2.9082l0.353516 107l-0.707031 201l0.885742 261l-0.532227 169.917
c0 0.311523 -0.000976562 0.605469 -0.000976562 0.881836c0 3.39062 0.103516 4.20117 2.83496 4.20117zM2.83398 750h20.5645c2.97363 0 3.07031 -1.0332 3.07031 -4.83105c0 -0.264648 -0.000976562 -0.542969 -0.000976562 -0.835938l0.355469 -145.333l-0.708984 -254
l0.708984 -231l-0.355469 -107.667c0 -1.22559 0.0341797 -2.22656 0.0341797 -3.04004c0 -2.62109 -0.352539 -3.29297 -3.33887 -3.29297h-20.0928c-2.76953 0 -3.10449 0.65625 -3.10449 3.0918c0 0.776367 0.0341797 1.7334 0.0341797 2.9082l0.353516 107
l-0.707031 201l0.885742 261l-0.532227 169.917c0 0.311523 -0.000976562 0.605469 -0.000976562 0.881836c0 3.39062 0.103516 4.20117 2.83496 4.20117z" />

<!--
obliqueDesc2ndBlackWhite
-->
    <glyph glyph-name="mensuralRest2x3Spaces" unicode="&#xf04c;" horiz-adv-x="149" 
d="M95.334 750h20.5645c2.97363 0 3.07031 -1.0332 3.07031 -4.83105c0 -0.264648 -0.000976562 -0.542969 -0.000976562 -0.835938l0.355469 -145.333l-0.708984 -254l0.708984 -231l-0.355469 -107.667c0 -1.22559 0.0341797 -2.22656 0.0341797 -3.04004
c0 -2.62109 -0.352539 -3.29297 -3.33887 -3.29297h-20.0928c-2.76953 0 -3.10449 0.65625 -3.10449 3.0918c0 0.776367 0.0341797 1.7334 0.0341797 2.9082l0.353516 107l-0.707031 201l0.885742 261l-0.532227 169.917
c0 0.311523 -0.000976562 0.605469 -0.000976562 0.881836c0 3.39062 0.103516 4.20117 2.83496 4.20117zM2.83398 750h20.5645c2.97363 0 3.07031 -1.0332 3.07031 -4.83105c0 -0.264648 -0.000976562 -0.542969 -0.000976562 -0.835938l0.355469 -145.333l-0.708984 -254
l0.708984 -231l-0.355469 -107.667c0 -1.22559 0.0341797 -2.22656 0.0341797 -3.04004c0 -2.62109 -0.352539 -3.29297 -3.33887 -3.29297h-20.0928c-2.76953 0 -3.10449 0.65625 -3.10449 3.0918c0 0.776367 0.0341797 1.7334 0.0341797 2.9082l0.353516 107
l-0.707031 201l0.885742 261l-0.532227 169.917c0 0.311523 -0.000976562 0.605469 -0.000976562 0.881836c0 3.39062 0.103516 4.20117 2.83496 4.20117z" />
    <glyph glyph-name="stemInitialUp" unicode="Q" horiz-adv-x="14" 
d="M-11.25 551c0 5 4 8 10 8c9 0 16 -3 16 -11c0 -30 -2 -51 -3 -87c-4 -97 -6 -342 -6 -519v-30v-3.75c-2 -1 -4 -1.25 -6 -1.25c-3 0 -6.66992 1.83789 -8 7c1 90 1 180 1 286c0 115 0 234 -2 336c0 2 -1 5 -1 7s-1 6 -1 8z" />
    <glyph glyph-name="stemInitialUp" unicode="&#xf051;" horiz-adv-x="14" 
d="M-11.25 551c0 5 4 8 10 8c9 0 16 -3 16 -11c0 -30 -2 -51 -3 -87c-4 -97 -6 -342 -6 -519v-30v-3.75c-2 -1 -4 -1.25 -6 -1.25c-3 0 -6.66992 1.83789 -8 7c1 90 1 180 1 286c0 115 0 234 -2 336c0 2 -1 5 -1 7s-1 6 -1 8z" />
    <glyph glyph-name="connectingStemBasisDown" unicode="R" horiz-adv-x="6" 
d="M-5.4541 90.333c5.15723 3.68945 9.08887 1.99805 12.75 -2v-48.5166v-118v-136.316c-3.12305 -5.74609 -10.2002 -6 -12.75 0v99.3164v134v71.5166z" />
    <glyph glyph-name="connectingStemBasisDown" unicode="&#xf052;" horiz-adv-x="6" 
d="M-5.4541 90.333c5.15723 3.68945 9.08887 1.99805 12.75 -2v-48.5166v-118v-136.316c-3.12305 -5.74609 -10.2002 -6 -12.75 0v99.3164v134v71.5166z" />
    <glyph glyph-name="connectingStem3rdDown" unicode="S" horiz-adv-x="5" 
d="M-5.80957 -39v105v24c1.7002 1 3.39941 1 5.9502 1c1.69922 0 4.25 -1 6.7998 -2v-25v-111v-81v-89v-74.75v-32v-16c-1.7002 -1 -3.40039 -2 -5.10059 -2h-2.5498c-1.7002 0 -3.39941 0 -5.09961 2v25v108.75v57v50v60z" />
    <glyph glyph-name="connectingStem3rdDown" unicode="&#xf053;" horiz-adv-x="5" 
d="M-5.80957 -39v105v24c1.7002 1 3.39941 1 5.9502 1c1.69922 0 4.25 -1 6.7998 -2v-25v-111v-81v-89v-74.75v-32v-16c-1.7002 -1 -3.40039 -2 -5.10059 -2h-2.5498c-1.7002 0 -3.39941 0 -5.09961 2v25v108.75v57v50v60z" />
    <glyph glyph-name="connectingStem4thDown" unicode="T" horiz-adv-x="7" 
d="M-7 91c2.16602 0.373047 4.53809 1.02832 7.32422 1.02832c2.25098 0 4.77344 -0.427734 7.67578 -1.77832v-76.25v-125v-116v-149.25v-78.5v-8.5c-1.37988 -2.30078 -3.89062 -3.875 -6.55566 -3.875c-3.12695 0 -6.4668 2.16797 -8.44434 7.875v7.5v98.5v152.25v122
v104v66z" />
    <glyph glyph-name="connectingStem4thDown" unicode="&#xf054;" horiz-adv-x="7" 
d="M-7 91c2.16602 0.373047 4.53809 1.02832 7.32422 1.02832c2.25098 0 4.77344 -0.427734 7.67578 -1.77832v-76.25v-125v-116v-149.25v-78.5v-8.5c-1.37988 -2.30078 -3.89062 -3.875 -6.55566 -3.875c-3.12695 0 -6.4668 2.16797 -8.44434 7.875v7.5v98.5v152.25v122
v104v66z" />
    <glyph glyph-name="connectingStem5thDown" unicode="U" horiz-adv-x="6" 
d="M-7 91.25c0.924805 0.523438 4.39355 1.28418 7.1875 1.28418c2.26562 0 3.5752 -0.250977 6.8125 -1.28418v-681.5c-2.01367 -0.788086 -4.7998 -1.19141 -6.8916 -1.19141c-2.9082 0 -4.18945 0.168945 -7.1084 2.19141v680.5z" />
    <glyph glyph-name="connectingStem5thDown" unicode="&#xf055;" horiz-adv-x="6" 
d="M-7 91.25c0.924805 0.523438 4.39355 1.28418 7.1875 1.28418c2.26562 0 3.5752 -0.250977 6.8125 -1.28418v-681.5c-2.01367 -0.788086 -4.7998 -1.19141 -6.8916 -1.19141c-2.9082 0 -4.18945 0.168945 -7.1084 2.19141v680.5z" />
    <glyph glyph-name="connectingStem6thDown" unicode="V" horiz-adv-x="7" 
d="M-6 89.25c1.37012 0.530273 3.37207 1.17871 6.34473 1.17871c2.05176 0 4.56641 -0.308594 7.65527 -1.17871v-803.75c-2.37012 -1.7207 -5.52539 -2.2002 -6.1416 -2.19141c-2.97754 0.0449219 -5.96387 0.0800781 -7.8584 3.44141v802.5z" />
    <glyph glyph-name="connectingStem6thDown" unicode="&#xf056;" horiz-adv-x="7" 
d="M-6 89.25c1.37012 0.530273 3.37207 1.17871 6.34473 1.17871c2.05176 0 4.56641 -0.308594 7.65527 -1.17871v-803.75c-2.37012 -1.7207 -5.52539 -2.2002 -6.1416 -2.19141c-2.97754 0.0449219 -5.96387 0.0800781 -7.8584 3.44141v802.5z" />
    <glyph glyph-name="connectingStem7thDown" unicode="W" horiz-adv-x="6" 
d="M-6.5 91.75c1.35547 0.600586 3.68652 1.35156 6.62402 1.35156c2.17578 0 4.68359 -0.411133 7.37598 -1.60059v-921.501c-0.645508 -0.128906 -1.27539 -0.191406 -1.8916 -0.191406c-4.1582 0 -7.75391 2.83691 -12.1084 7.19141v914.75z" />
    <glyph glyph-name="connectingStem7thDown" unicode="&#xf057;" horiz-adv-x="6" 
d="M-6.5 91.75c1.35547 0.600586 3.68652 1.35156 6.62402 1.35156c2.17578 0 4.68359 -0.411133 7.37598 -1.60059v-921.501c-0.645508 -0.128906 -1.27539 -0.191406 -1.8916 -0.191406c-4.1582 0 -7.75391 2.83691 -12.1084 7.19141v914.75z" />
    <glyph glyph-name="chantPunctumBlack" unicode="X" 
d="M170 -19c0 -21 1 -53 1 -64c0 -9 -6 -11 -17 -11c-17 0 -45 3 -66 3c-10 0 -17 1 -27 1h-8c-18 0 -38 0 -46 -3c-3 -1 -3 -2 -3 -2h-1c-4 0 -5 4 -5 11v2c0 28 2 55 2 83c0 24 -1 56.75 -2 82.75c0 6 2 8 6 8c16 1 40 2.5 69 2.5h12c14 0 29 0 43 -0.75
c12.0244 -0.644531 23 -0.75 34 -0.75c9 0 9 -8 9 -15v-20.75c0 -24 -1 -50 -1 -76z" />
    <glyph glyph-name="chantPunctumBlack" unicode="&#xf058;" 
d="M170 -19c0 -21 1 -53 1 -64c0 -9 -6 -11 -17 -11c-17 0 -45 3 -66 3c-10 0 -17 1 -27 1h-8c-18 0 -38 0 -46 -3c-3 -1 -3 -2 -3 -2h-1c-4 0 -5 4 -5 11v2c0 28 2 55 2 83c0 24 -1 56.75 -2 82.75c0 6 2 8 6 8c16 1 40 2.5 69 2.5h12c14 0 29 0 43 -0.75
c12.0244 -0.644531 23 -0.75 34 -0.75c9 0 9 -8 9 -15v-20.75c0 -24 -1 -50 -1 -76z" />
    <glyph glyph-name="chantPunctumBlack" unicode="&#xe990;" 
d="M170 -19c0 -21 1 -53 1 -64c0 -9 -6 -11 -17 -11c-17 0 -45 3 -66 3c-10 0 -17 1 -27 1h-8c-18 0 -38 0 -46 -3c-3 -1 -3 -2 -3 -2h-1c-4 0 -5 4 -5 11v2c0 28 2 55 2 83c0 24 -1 56.75 -2 82.75c0 6 2 8 6 8c16 1 40 2.5 69 2.5h12c14 0 29 0 43 -0.75
c12.0244 -0.644531 23 -0.75 34 -0.75c9 0 9 -8 9 -15v-20.75c0 -24 -1 -50 -1 -76z" />
    <glyph glyph-name="virgaShortBlack" unicode="Y" 
d="M170 -19c0 -21 1 -53 1 -64c0 -9 -6 -11 -17 -11c-17 0 -45 3 -66 3c-10 0 -17 1 -27 1h-8c-18 0 -38 0 -46 -3c-3 -1 -3 -2 -3 -2h-1c-4 0 -5 4 -5 11v2c0 28 2 55 2 83c0 24 -1 56.75 -2 82.75c0 6 2 8 6 8c16 1 40 2.5 69 2.5h12c14 0 29 0 43 -0.75
c12.0244 -0.644531 23 -0.75 34 -0.75c9 0 9 -8 9 -15v-20.75c0 -24 -1 -50 -1 -76zM153.997 -335.062c0 4.02832 2 8.18359 2 12.0713c1.99707 81.959 2 82.4307 2 174.515v0.810547c0 84.7275 -0.00292969 157.272 -0.99707 229.281c1 4.02441 5 5.63379 8 5.63379
c4.12988 0 6 -0.950195 6 -4.02344c0 -7.21875 -0.00292969 -10.46 -0.00292969 -18.5078c0 -142.448 1.52734 -253.248 2.75 -331.373c0.381836 -24.4102 0.220703 -37.7363 0.633789 -55.5332c0.0419922 -1.8252 1.3252 -3.69727 1.3457 -5.63379
c0.0185547 -1.67188 0.77832 -4.19727 0.77832 -5.97559c0 -6.17676 -2.6709 -7.70312 -11.5078 -7.70312c-6 0 -11 2.41406 -11 6.43848z" />
    <glyph glyph-name="virgaShortBlack" unicode="&#xf701;" 
d="M170 -19c0 -21 1 -53 1 -64c0 -9 -6 -11 -17 -11c-17 0 -45 3 -66 3c-10 0 -17 1 -27 1h-8c-18 0 -38 0 -46 -3c-3 -1 -3 -2 -3 -2h-1c-4 0 -5 4 -5 11v2c0 28 2 55 2 83c0 24 -1 56.75 -2 82.75c0 6 2 8 6 8c16 1 40 2.5 69 2.5h12c14 0 29 0 43 -0.75
c12.0244 -0.644531 23 -0.75 34 -0.75c9 0 9 -8 9 -15v-20.75c0 -24 -1 -50 -1 -76zM153.997 -335.062c0 4.02832 2 8.18359 2 12.0713c1.99707 81.959 2 82.4307 2 174.515v0.810547c0 84.7275 -0.00292969 157.272 -0.99707 229.281c1 4.02441 5 5.63379 8 5.63379
c4.12988 0 6 -0.950195 6 -4.02344c0 -7.21875 -0.00292969 -10.46 -0.00292969 -18.5078c0 -142.448 1.52734 -253.248 2.75 -331.373c0.381836 -24.4102 0.220703 -37.7363 0.633789 -55.5332c0.0419922 -1.8252 1.3252 -3.69727 1.3457 -5.63379
c0.0185547 -1.67188 0.77832 -4.19727 0.77832 -5.97559c0 -6.17676 -2.6709 -7.70312 -11.5078 -7.70312c-6 0 -11 2.41406 -11 6.43848z" />
    <glyph glyph-name="virgaShortBlack" unicode="&#xf059;" 
d="M170 -19c0 -21 1 -53 1 -64c0 -9 -6 -11 -17 -11c-17 0 -45 3 -66 3c-10 0 -17 1 -27 1h-8c-18 0 -38 0 -46 -3c-3 -1 -3 -2 -3 -2h-1c-4 0 -5 4 -5 11v2c0 28 2 55 2 83c0 24 -1 56.75 -2 82.75c0 6 2 8 6 8c16 1 40 2.5 69 2.5h12c14 0 29 0 43 -0.75
c12.0244 -0.644531 23 -0.75 34 -0.75c9 0 9 -8 9 -15v-20.75c0 -24 -1 -50 -1 -76zM153.997 -335.062c0 4.02832 2 8.18359 2 12.0713c1.99707 81.959 2 82.4307 2 174.515v0.810547c0 84.7275 -0.00292969 157.272 -0.99707 229.281c1 4.02441 5 5.63379 8 5.63379
c4.12988 0 6 -0.950195 6 -4.02344c0 -7.21875 -0.00292969 -10.46 -0.00292969 -18.5078c0 -142.448 1.52734 -253.248 2.75 -331.373c0.381836 -24.4102 0.220703 -37.7363 0.633789 -55.5332c0.0419922 -1.8252 1.3252 -3.69727 1.3457 -5.63379
c0.0185547 -1.67188 0.77832 -4.19727 0.77832 -5.97559c0 -6.17676 -2.6709 -7.70312 -11.5078 -7.70312c-6 0 -11 2.41406 -11 6.43848z" />
    <glyph glyph-name="virgaBlack" unicode="Z" 
d="M170 -19c0 -21 1 -53 1 -64c0 -9 -6 -11 -17 -11c-17 0 -45 3 -66 3c-10 0 -17 1 -27 1h-8c-18 0 -38 0 -46 -3c-3 -1 -3 -2 -3 -2h-1c-4 0 -5 4 -5 11v2c0 28 2 55 2 83c0 24 -1 56.75 -2 82.75c0 6 2 8 6 8c16 1 40 2.5 69 2.5h12c14 0 29 0 43 -0.75
c12.0244 -0.644531 23 -0.75 34 -0.75c9 0 9 -8 9 -15v-20.75c0 -24 -1 -50 -1 -76zM153.747 -461.938c0 1.63965 1 4.9209 1 6.56152c0 1.63965 1 4.10059 1 5.74121c2 83.6582 2 200.945 2 295.267v1.51855c0 86.3477 -0.00292969 160.69 -0.99707 234.077
c0.0947266 4.08887 4.25 4.71582 7.25 4.71582c4.12988 0 6.75 -0.763672 6.75 -3.07617c0 -7.35547 -0.00292969 -10.6592 -0.00292969 -18.8613c0 -145.173 0.227539 -378.67 1.5 -458.278c0.473633 -29.6367 2.75781 -43.8525 4.25781 -65.5566
c0.0195312 -0.285156 0.0292969 -0.5625 0.0292969 -0.832031c0 -5.66406 -4.35156 -7.83789 -12.7871 -7.83789c-6 0 -10 2.45996 -10 6.56152z" />
    <glyph glyph-name="virgaBlack" unicode="&#xf05a;" 
d="M170 -19c0 -21 1 -53 1 -64c0 -9 -6 -11 -17 -11c-17 0 -45 3 -66 3c-10 0 -17 1 -27 1h-8c-18 0 -38 0 -46 -3c-3 -1 -3 -2 -3 -2h-1c-4 0 -5 4 -5 11v2c0 28 2 55 2 83c0 24 -1 56.75 -2 82.75c0 6 2 8 6 8c16 1 40 2.5 69 2.5h12c14 0 29 0 43 -0.75
c12.0244 -0.644531 23 -0.75 34 -0.75c9 0 9 -8 9 -15v-20.75c0 -24 -1 -50 -1 -76zM153.747 -461.938c0 1.63965 1 4.9209 1 6.56152c0 1.63965 1 4.10059 1 5.74121c2 83.6582 2 200.945 2 295.267v1.51855c0 86.3477 -0.00292969 160.69 -0.99707 234.077
c0.0947266 4.08887 4.25 4.71582 7.25 4.71582c4.12988 0 6.75 -0.763672 6.75 -3.07617c0 -7.35547 -0.00292969 -10.6592 -0.00292969 -18.8613c0 -145.173 0.227539 -378.67 1.5 -458.278c0.473633 -29.6367 2.75781 -43.8525 4.25781 -65.5566
c0.0195312 -0.285156 0.0292969 -0.5625 0.0292969 -0.832031c0 -5.66406 -4.35156 -7.83789 -12.7871 -7.83789c-6 0 -10 2.45996 -10 6.56152z" />
    <glyph glyph-name="virgaBlack" unicode="&#xe996;" 
d="M170 -19c0 -21 1 -53 1 -64c0 -9 -6 -11 -17 -11c-17 0 -45 3 -66 3c-10 0 -17 1 -27 1h-8c-18 0 -38 0 -46 -3c-3 -1 -3 -2 -3 -2h-1c-4 0 -5 4 -5 11v2c0 28 2 55 2 83c0 24 -1 56.75 -2 82.75c0 6 2 8 6 8c16 1 40 2.5 69 2.5h12c14 0 29 0 43 -0.75
c12.0244 -0.644531 23 -0.75 34 -0.75c9 0 9 -8 9 -15v-20.75c0 -24 -1 -50 -1 -76zM153.747 -461.938c0 1.63965 1 4.9209 1 6.56152c0 1.63965 1 4.10059 1 5.74121c2 83.6582 2 200.945 2 295.267v1.51855c0 86.3477 -0.00292969 160.69 -0.99707 234.077
c0.0947266 4.08887 4.25 4.71582 7.25 4.71582c4.12988 0 6.75 -0.763672 6.75 -3.07617c0 -7.35547 -0.00292969 -10.6592 -0.00292969 -18.8613c0 -145.173 0.227539 -378.67 1.5 -458.278c0.473633 -29.6367 2.75781 -43.8525 4.25781 -65.5566
c0.0195312 -0.285156 0.0292969 -0.5625 0.0292969 -0.832031c0 -5.66406 -4.35156 -7.83789 -12.7871 -7.83789c-6 0 -10 2.45996 -10 6.56152z" />
    <glyph glyph-name="virgaLongBlack" unicode="[" horiz-adv-x="179" 
d="M170 -592.25c-9 0 -10 5 -10 14c0 2 3 19 4 35c2 37 2 113.25 2 174.25v99c0 73 0 127 -3 150c-1 10 0 21 -11 24c-10 3 -26 5 -66 5c-28 0 -46 -1 -73 -2h-1c-8 0 -13 2 -13 11c0 28 1 53 1 82v3c0 25 -1 54 -1 82c0 6 5 8 11 8c31 1 33 1 83 1c28 0 39 -1 65 -2
c4 0 9 0 13 -1c7 -2 9 -9 9 -16v-72v-88v-187v-38c0 -69 -1 -155.25 -1 -195.25v-5c0 -23 2 -41 2 -57c0 -5 0 -11 -1 -15c-2 -9 -1 -10 -10 -10z" />
    <glyph glyph-name="virgaLongBlack" unicode="&#xf05b;" horiz-adv-x="179" 
d="M170 -592.25c-9 0 -10 5 -10 14c0 2 3 19 4 35c2 37 2 113.25 2 174.25v99c0 73 0 127 -3 150c-1 10 0 21 -11 24c-10 3 -26 5 -66 5c-28 0 -46 -1 -73 -2h-1c-8 0 -13 2 -13 11c0 28 1 53 1 82v3c0 25 -1 54 -1 82c0 6 5 8 11 8c31 1 33 1 83 1c28 0 39 -1 65 -2
c4 0 9 0 13 -1c7 -2 9 -9 9 -16v-72v-88v-187v-38c0 -69 -1 -155.25 -1 -195.25v-5c0 -23 2 -41 2 -57c0 -5 0 -11 -1 -15c-2 -9 -1 -10 -10 -10z" />
    <glyph glyph-name="plicaLongaAscBlack" unicode="]" horiz-adv-x="161" 
d="M144.5 456.958c0 5.02734 5.25 8.04395 11.25 8.04395c8.67383 0 11.7715 -2.81152 11.7715 -10.207c0 -2.69727 -0.515625 -5.32324 -0.544922 -7.89258c-0.0302734 -2.65039 -0.575195 -5.24219 -0.631836 -7.79297
c-0.507812 -22.9873 -0.980469 -42.7119 -1.59473 -72.6504c-1.47179 -71.7768 -2.94357 -164.246 -3.61833 -279.011c0.196002 -1.66821 0.229178 -3.45568 0.229178 -5.21855c0 -0.455188 -0.00221188 -0.908736 -0.00440369 -1.35817
c-0.0292969 -6.00781 -0.0537109 -11.0137 -0.0839844 -17.0215c-0.0397458 -8.1502 -0.188233 -16.5355 -0.37208 -25.0746c-0.0973778 -26.7529 -0.150381 -54.6077 -0.150381 -83.5816v-33.9375c-0.118164 -0.0593707 -0.236329 -0.116113 -0.354494 -0.170331
c-1.06719 -6.87073 -6.54203 -8.72667 -15.7676 -9.1451c-2.74476 -0.124195 -5.79554 -0.172815 -9.06596 -0.172815c-11.7978 0 -26.4539 0.632717 -39.9128 0.632717c-4.43119 0 -8.73262 -0.0685852 -12.7595 -0.250917
c-2.34316 -0.106141 -4.50999 -0.14148 -6.58881 -0.14148c-4.14327 0 -7.93692 0.140381 -12.0802 0.140381c-2.07882 0 -4.24565 -0.0353393 -6.58881 -0.14148c-2.80762 -0.126953 -3.74316 -0.168945 -7.48535 -0.338867
c-16.8418 -0.762695 -35.5547 -1.60938 -43.0547 -4.95215c-2.8125 -1.12793 -2.81738 -2.12988 -2.81738 -2.12988l-0.935547 -0.0419922c-0.0767311 -0.00346411 -0.152274 -0.00519149 -0.226645 -0.00519149c-3.48859 0 -4.39829 3.80088 -4.39829 10.4381
c0 0.121985 0.000307281 0.244928 0.00091148 0.368824c0 0 0.00488281 1.00195 0.00976562 2.00293c0.0760891 15.6026 0.730509 30.9212 1.31953 46.2719c0.190843 26.4085 0.233201 51.4597 0.233201 79.2525l-2e-11 0.0010517
c0 13.3118 -0.111328 27.3389 -0.495117 39.6807c0.0107422 2.125 0.00235999 3.75939 0.476426 4.99199c-0.00480675 9.56403 -0.00865242 19.5685 -0.00865242 30.1267l6.4e-11 0.00236044c0 91.6387 0 122.717 -2 203.996c0 3.79102 -1.25 7.87012 -1.25 11.9531
c0 3.98438 5.25 6.375 11.25 6.375c8.67383 0 11.7715 -2.22754 11.7715 -8.08887c0 -2.1377 -0.515625 -4.21777 -0.544922 -6.25488c-0.0302734 -2.09961 -0.575195 -4.15332 -0.631836 -6.17578c-0.507812 -18.2158 -0.980469 -33.8477 -1.59473 -57.5732
c-1.16063 -44.8554 -2.32126 -99.9085 -3.09228 -165.992c0 -3.03436 0.815214 -3.83657 3.13096 -3.83657c0.530586 0 1.13994 0.0421134 1.83632 0.109141c13.9482 1.3418 30.1446 2.63181 50.6299 3.55664c3.74219 0.168945 7.48535 0.338867 11.2275 0.507812
c4.94378 0.223712 10.02 0.310975 15.1284 0.310975c8.42741 0 16.9425 -0.237492 25.0953 -0.491639c8.18219 -0.359555 13.8672 -0.741211 21.4199 -0.741211c4.49781 0 5.1505 2.93859 5.1505 6.99732l-4.65e-07 0.00593393
c-0.00389069 24.8624 -0.0264746 51.6661 -0.0264746 82.1227c0 115.638 0 154.854 -2 257.419c0 4.7832 -1.25 9.93066 -1.25 15.083z" />
    <glyph glyph-name="plicaLongaAscBlack" unicode="&#xf05d;" horiz-adv-x="161" 
d="M144.5 456.958c0 5.02734 5.25 8.04395 11.25 8.04395c8.67383 0 11.7715 -2.81152 11.7715 -10.207c0 -2.69727 -0.515625 -5.32324 -0.544922 -7.89258c-0.0302734 -2.65039 -0.575195 -5.24219 -0.631836 -7.79297
c-0.507812 -22.9873 -0.980469 -42.7119 -1.59473 -72.6504c-1.47179 -71.7768 -2.94357 -164.246 -3.61833 -279.011c0.196002 -1.66821 0.229178 -3.45568 0.229178 -5.21855c0 -0.455188 -0.00221188 -0.908736 -0.00440369 -1.35817
c-0.0292969 -6.00781 -0.0537109 -11.0137 -0.0839844 -17.0215c-0.0397458 -8.1502 -0.188233 -16.5355 -0.37208 -25.0746c-0.0973778 -26.7529 -0.150381 -54.6077 -0.150381 -83.5816v-33.9375c-0.118164 -0.0593707 -0.236329 -0.116113 -0.354494 -0.170331
c-1.06719 -6.87073 -6.54203 -8.72667 -15.7676 -9.1451c-2.74476 -0.124195 -5.79554 -0.172815 -9.06596 -0.172815c-11.7978 0 -26.4539 0.632717 -39.9128 0.632717c-4.43119 0 -8.73262 -0.0685852 -12.7595 -0.250917
c-2.34316 -0.106141 -4.50999 -0.14148 -6.58881 -0.14148c-4.14327 0 -7.93692 0.140381 -12.0802 0.140381c-2.07882 0 -4.24565 -0.0353393 -6.58881 -0.14148c-2.80762 -0.126953 -3.74316 -0.168945 -7.48535 -0.338867
c-16.8418 -0.762695 -35.5547 -1.60938 -43.0547 -4.95215c-2.8125 -1.12793 -2.81738 -2.12988 -2.81738 -2.12988l-0.935547 -0.0419922c-0.0767311 -0.00346411 -0.152274 -0.00519149 -0.226645 -0.00519149c-3.48859 0 -4.39829 3.80088 -4.39829 10.4381
c0 0.121985 0.000307281 0.244928 0.00091148 0.368824c0 0 0.00488281 1.00195 0.00976562 2.00293c0.0760891 15.6026 0.730509 30.9212 1.31953 46.2719c0.190843 26.4085 0.233201 51.4597 0.233201 79.2525l-2e-11 0.0010517
c0 13.3118 -0.111328 27.3389 -0.495117 39.6807c0.0107422 2.125 0.00235999 3.75939 0.476426 4.99199c-0.00480675 9.56403 -0.00865242 19.5685 -0.00865242 30.1267l6.4e-11 0.00236044c0 91.6387 0 122.717 -2 203.996c0 3.79102 -1.25 7.87012 -1.25 11.9531
c0 3.98438 5.25 6.375 11.25 6.375c8.67383 0 11.7715 -2.22754 11.7715 -8.08887c0 -2.1377 -0.515625 -4.21777 -0.544922 -6.25488c-0.0302734 -2.09961 -0.575195 -4.15332 -0.631836 -6.17578c-0.507812 -18.2158 -0.980469 -33.8477 -1.59473 -57.5732
c-1.16063 -44.8554 -2.32126 -99.9085 -3.09228 -165.992c0 -3.03436 0.815214 -3.83657 3.13096 -3.83657c0.530586 0 1.13994 0.0421134 1.83632 0.109141c13.9482 1.3418 30.1446 2.63181 50.6299 3.55664c3.74219 0.168945 7.48535 0.338867 11.2275 0.507812
c4.94378 0.223712 10.02 0.310975 15.1284 0.310975c8.42741 0 16.9425 -0.237492 25.0953 -0.491639c8.18219 -0.359555 13.8672 -0.741211 21.4199 -0.741211c4.49781 0 5.1505 2.93859 5.1505 6.99732l-4.65e-07 0.00593393
c-0.00389069 24.8624 -0.0264746 51.6661 -0.0264746 82.1227c0 115.638 0 154.854 -2 257.419c0 4.7832 -1.25 9.93066 -1.25 15.083z" />
    <glyph glyph-name="plicaLongaDescBlack" unicode="^" horiz-adv-x="162" 
d="M-4.75293 -333.521c0 4.05469 2 8.23633 2 12.1494c1.99707 82.4844 2 82.959 2 175.634v0.81543c0 15.5767 -0.0372901 30.7443 -0.0372901 45.5742c0 5.69843 0.00550589 11.347 0.020749 16.9497c0.0133673 4.91329 0.0336105 9.97296 0.0336105 15.0367
c0 4.59244 -0.0166502 9.18825 -0.0701799 13.6813c-0.415469 34.8725 -0.201367 68.1653 -0.503912 100.93c-0.523661 13.635 -1.15002 27.4273 -1.75841 39.8547c-0.00167823 0.125909 -0.00251911 0.250089 -0.00251911 0.372554
c0 5.34198 1.59995 7.42223 5.09181 7.42223c0.122839 0 0.248019 -0.00257439 0.375554 -0.00767175c6.24303 0.171261 13.7999 0.290015 22.4645 0.290015c11.9381 0 25.9791 -0.225437 41.5833 -0.849586c3.71484 -0.149414 7.42969 -0.297852 11.1436 -0.446289
c13.001 -0.519531 26.9434 -2.07812 39.957 -3.59961c10.6911 -1.3868 26.4725 -3.00471 35.444 -4.18476c3.67051 -0.482794 6.01104 -0.923543 6.01104 -3.16094c0 -7.58105 -0.00292969 -10.9863 -0.00292969 -19.4385c0 -37.8366 0.514648 -80.1973 0.556641 -123.701
c0.203988 -6.20483 0.232135 -11.971 0.232135 -16.7669c0 -1.82793 -0.00408893 -3.51491 -0.00408893 -5.03149l0.00344139 -105.908c0 -83.419 0.0894662 -160.468 0.711872 -200.597c0.473633 -30.543 2.75781 -45.1943 4.25781 -67.5615
c0.0197418 -0.29422 0.0295983 -0.580148 0.0295983 -0.857931c0 -5.83697 -4.35194 -8.07762 -12.7874 -8.07762c-6 0 -10 2.53613 -10 6.7627c0 1.69043 1 5.07129 1 6.76172c0 1.69043 1 4.22656 1 5.91699c2 86.2168 2 186.804 2 284.009v1.56543
c0 20.2578 -0.0120945 39.8745 -0.0152613 58.9844c-0.000589143 3.55508 -0.0815287 4.61535 -5.32361 5.07422c-15.7861 1.38184 -38.3271 4.67578 -57.8281 5.45508c-9.28613 0.37207 -15.7998 1.63281 -25.0859 2.00488
c-2.78613 0.111328 -3.71484 0.148438 -7.42871 0.296875c-7.64147 0.305802 -15.6709 0.626909 -22.8425 0.626909c-5.58527 0 -10.6503 -0.194761 -14.6066 -0.743192c0.557276 -70.4388 1.39862 -129.309 2.13073 -176.39
c0.381836 -24.5664 0.220703 -37.9775 0.633789 -55.8887c0.0419922 -1.83691 1.3252 -3.72168 1.3457 -5.66992c0.0185547 -1.68262 0.77832 -4.22461 0.77832 -6.01465c0 -6.21582 -2.6709 -7.75195 -11.5078 -7.75195c-6 0 -11 2.42969 -11 6.47949z" />
    <glyph glyph-name="plicaLongaDescBlack" unicode="&#xf05e;" horiz-adv-x="162" 
d="M-4.75293 -333.521c0 4.05469 2 8.23633 2 12.1494c1.99707 82.4844 2 82.959 2 175.634v0.81543c0 15.5767 -0.0372901 30.7443 -0.0372901 45.5742c0 5.69843 0.00550589 11.347 0.020749 16.9497c0.0133673 4.91329 0.0336105 9.97296 0.0336105 15.0367
c0 4.59244 -0.0166502 9.18825 -0.0701799 13.6813c-0.415469 34.8725 -0.201367 68.1653 -0.503912 100.93c-0.523661 13.635 -1.15002 27.4273 -1.75841 39.8547c-0.00167823 0.125909 -0.00251911 0.250089 -0.00251911 0.372554
c0 5.34198 1.59995 7.42223 5.09181 7.42223c0.122839 0 0.248019 -0.00257439 0.375554 -0.00767175c6.24303 0.171261 13.7999 0.290015 22.4645 0.290015c11.9381 0 25.9791 -0.225437 41.5833 -0.849586c3.71484 -0.149414 7.42969 -0.297852 11.1436 -0.446289
c13.001 -0.519531 26.9434 -2.07812 39.957 -3.59961c10.6911 -1.3868 26.4725 -3.00471 35.444 -4.18476c3.67051 -0.482794 6.01104 -0.923543 6.01104 -3.16094c0 -7.58105 -0.00292969 -10.9863 -0.00292969 -19.4385c0 -37.8366 0.514648 -80.1973 0.556641 -123.701
c0.203988 -6.20483 0.232135 -11.971 0.232135 -16.7669c0 -1.82793 -0.00408893 -3.51491 -0.00408893 -5.03149l0.00344139 -105.908c0 -83.419 0.0894662 -160.468 0.711872 -200.597c0.473633 -30.543 2.75781 -45.1943 4.25781 -67.5615
c0.0197418 -0.29422 0.0295983 -0.580148 0.0295983 -0.857931c0 -5.83697 -4.35194 -8.07762 -12.7874 -8.07762c-6 0 -10 2.53613 -10 6.7627c0 1.69043 1 5.07129 1 6.76172c0 1.69043 1 4.22656 1 5.91699c2 86.2168 2 186.804 2 284.009v1.56543
c0 20.2578 -0.0120945 39.8745 -0.0152613 58.9844c-0.000589143 3.55508 -0.0815287 4.61535 -5.32361 5.07422c-15.7861 1.38184 -38.3271 4.67578 -57.8281 5.45508c-9.28613 0.37207 -15.7998 1.63281 -25.0859 2.00488
c-2.78613 0.111328 -3.71484 0.148438 -7.42871 0.296875c-7.64147 0.305802 -15.6709 0.626909 -22.8425 0.626909c-5.58527 0 -10.6503 -0.194761 -14.6066 -0.743192c0.557276 -70.4388 1.39862 -129.309 2.13073 -176.39
c0.381836 -24.5664 0.220703 -37.9775 0.633789 -55.8887c0.0419922 -1.83691 1.3252 -3.72168 1.3457 -5.66992c0.0185547 -1.68262 0.77832 -4.22461 0.77832 -6.01465c0 -6.21582 -2.6709 -7.75195 -11.5078 -7.75195c-6 0 -11 2.42969 -11 6.47949z" />

<!--
plicaBrevisAscBlack
-->
    <glyph glyph-name="plicaBrevisAscBlack" unicode="_" horiz-adv-x="161" 
d="M159.966 -12.2881c-0.103516 -21.0264 0.675781 -53.0234 0.62207 -64.0371c-0.0439453 -9.01172 -5.66797 -11.2676 -15.96 -11.7344c-15.9062 -0.719727 -42.0898 1.09863 -61.7383 0.208984c-9.35645 -0.423828 -15.9014 0.28125 -25.2578 -0.142578
c-2.80762 -0.126953 -3.74316 -0.168945 -7.48535 -0.338867c-16.8418 -0.762695 -35.5547 -1.60938 -43.0547 -4.95215c-2.8125 -1.12793 -2.81738 -2.12988 -2.81738 -2.12988l-0.935547 -0.0419922c-3.74219 -0.168945 -4.6582 3.79297 -4.62402 10.8018
c0 0 0.00488281 1.00195 0.00976562 2.00293c0.136719 28.0352 2.14062 55.1533 2.27734 83.1885c0.117188 24.0303 -0.662109 56.0273 -1.46973 82.0176c0.0292969 6.00781 1.91016 8.09473 5.65234 8.26465c14.9756 1.67871 37.4365 3.69629 64.5703 4.9248
c3.74219 0.168945 7.48535 0.338867 11.2275 0.507812c13.0996 0.592773 27.1289 0.227539 40.2236 -0.180664c11.2227 -0.493164 21.5107 -1.02832 31.8027 -0.5625c8.4209 0.380859 8.38184 -7.62891 8.34766 -14.6377
c-0.0292969 -6.00781 -0.0537109 -11.0137 -0.0839844 -17.0215c-0.117188 -24.0303 -1.17969 -50.1045 -1.30664 -76.1377zM144.75 333.882c0 3.82324 5.25 6.11816 11.25 6.11816c8.67383 0 11.7715 -2.13867 11.7715 -7.76367
c0 -2.05078 -0.515625 -4.04785 -0.544922 -6.00195c-0.0302734 -2.01562 -0.575195 -3.9873 -0.631836 -5.92676c-0.507812 -17.4834 -0.980469 -32.4854 -1.59473 -55.2539c-2 -74.1826 -4 -177.425 -4 -312.787v-25.8105c-2 -0.764648 -4 -0.956055 -6 -0.956055
c-3 0 -6.41992 0.257812 -7.75 4.20605c0.666992 45.8857 0.777344 82.084 0.777344 125.138c0 21.5264 -0.0273438 44.7666 -0.0273438 71.7881c0 87.9473 0 117.772 -2 195.778c0 3.63867 -1.25 7.55273 -1.25 11.4717zM-3.75 456.847
c0 5.0957 5.25 8.15234 11.25 8.15234c8.67383 0 11.7715 -2.84863 11.7715 -10.3447c0 -2.7334 -0.515625 -5.39355 -0.544922 -7.99805c-0.0302734 -2.68555 -0.575195 -5.31152 -0.631836 -7.89746c-0.507812 -23.2949 -0.980469 -43.2852 -1.59473 -73.625
c-2 -98.8457 -4 -236.415 -4 -416.783v-34.3916c-2 -1.01953 -4 -1.27441 -6 -1.27441c-3 0 -6.41992 0.344727 -7.75 5.60449c0.666992 61.1426 0.777344 109.376 0.777344 166.744c0 28.6836 -0.0273438 59.6514 -0.0273438 95.6562c0 117.188 0 156.931 -2 260.872
c0 4.84766 -1.25 10.0645 -1.25 15.2852z" />

<!--
plicaBrevisAscBlack
-->
    <glyph glyph-name="plicaBrevisAscBlack" unicode="&#xf05f;" horiz-adv-x="161" 
d="M159.966 -12.2881c-0.103516 -21.0264 0.675781 -53.0234 0.62207 -64.0371c-0.0439453 -9.01172 -5.66797 -11.2676 -15.96 -11.7344c-15.9062 -0.719727 -42.0898 1.09863 -61.7383 0.208984c-9.35645 -0.423828 -15.9014 0.28125 -25.2578 -0.142578
c-2.80762 -0.126953 -3.74316 -0.168945 -7.48535 -0.338867c-16.8418 -0.762695 -35.5547 -1.60938 -43.0547 -4.95215c-2.8125 -1.12793 -2.81738 -2.12988 -2.81738 -2.12988l-0.935547 -0.0419922c-3.74219 -0.168945 -4.6582 3.79297 -4.62402 10.8018
c0 0 0.00488281 1.00195 0.00976562 2.00293c0.136719 28.0352 2.14062 55.1533 2.27734 83.1885c0.117188 24.0303 -0.662109 56.0273 -1.46973 82.0176c0.0292969 6.00781 1.91016 8.09473 5.65234 8.26465c14.9756 1.67871 37.4365 3.69629 64.5703 4.9248
c3.74219 0.168945 7.48535 0.338867 11.2275 0.507812c13.0996 0.592773 27.1289 0.227539 40.2236 -0.180664c11.2227 -0.493164 21.5107 -1.02832 31.8027 -0.5625c8.4209 0.380859 8.38184 -7.62891 8.34766 -14.6377
c-0.0292969 -6.00781 -0.0537109 -11.0137 -0.0839844 -17.0215c-0.117188 -24.0303 -1.17969 -50.1045 -1.30664 -76.1377zM144.75 333.882c0 3.82324 5.25 6.11816 11.25 6.11816c8.67383 0 11.7715 -2.13867 11.7715 -7.76367
c0 -2.05078 -0.515625 -4.04785 -0.544922 -6.00195c-0.0302734 -2.01562 -0.575195 -3.9873 -0.631836 -5.92676c-0.507812 -17.4834 -0.980469 -32.4854 -1.59473 -55.2539c-2 -74.1826 -4 -177.425 -4 -312.787v-25.8105c-2 -0.764648 -4 -0.956055 -6 -0.956055
c-3 0 -6.41992 0.257812 -7.75 4.20605c0.666992 45.8857 0.777344 82.084 0.777344 125.138c0 21.5264 -0.0273438 44.7666 -0.0273438 71.7881c0 87.9473 0 117.772 -2 195.778c0 3.63867 -1.25 7.55273 -1.25 11.4717zM-3.75 456.847
c0 5.0957 5.25 8.15234 11.25 8.15234c8.67383 0 11.7715 -2.84863 11.7715 -10.3447c0 -2.7334 -0.515625 -5.39355 -0.544922 -7.99805c-0.0302734 -2.68555 -0.575195 -5.31152 -0.631836 -7.89746c-0.507812 -23.2949 -0.980469 -43.2852 -1.59473 -73.625
c-2 -98.8457 -4 -236.415 -4 -416.783v-34.3916c-2 -1.01953 -4 -1.27441 -6 -1.27441c-3 0 -6.41992 0.344727 -7.75 5.60449c0.666992 61.1426 0.777344 109.376 0.777344 166.744c0 28.6836 -0.0273438 59.6514 -0.0273438 95.6562c0 117.188 0 156.931 -2 260.872
c0 4.84766 -1.25 10.0645 -1.25 15.2852z" />
    <glyph glyph-name="plicaBrevisDescBlack" unicode="`" horiz-adv-x="161" 
d="M158.766 -21.4209c0.280273 -21.0273 1.63574 -53.1074 1.78223 -64.1221c0.120117 -9.01172 -5.4248 -10.791 -15.6396 -10.3828c-15.7861 0.631836 -41.8271 4.67578 -61.3281 5.45508c-9.28613 0.37207 -15.7998 1.63281 -25.0859 2.00488
c-2.78613 0.111328 -3.71484 0.148438 -7.42871 0.296875c-16.7158 0.668945 -35.2881 1.41113 -42.6768 -1.29492c-2.77246 -0.890625 -2.75879 -1.8916 -2.75879 -1.8916l-0.928711 0.0371094c-3.71484 0.148438 -4.69629 4.19141 -4.79004 11.2002
c0 0 -0.0136719 1.00195 -0.0263672 2.00293c-0.374023 28.0371 1.12305 54.999 0.749023 83.0361c-0.320312 24.0322 -1.67578 56.1113 -2.95215 82.1836c-0.0800781 6.00781 1.75098 7.93555 5.46484 7.78711c14.8447 0.407227 37.1182 0.517578 64.0479 -0.55957
c3.71484 -0.149414 7.42969 -0.297852 11.1436 -0.446289c13.001 -0.519531 26.9434 -2.07812 39.957 -3.59961c11.1572 -1.44727 21.3848 -2.85742 31.5996 -3.26562c8.35742 -0.333984 8.46484 -8.34473 8.55762 -15.3545
c0.0810547 -6.00781 0.147461 -11.0146 0.227539 -17.0225c0.320312 -24.0322 -0.261719 -50.0293 0.0859375 -76.0645zM142.997 -333.588c0 4.01172 2 8.15039 2 12.0225c1.99707 81.624 2 82.0938 2 173.803v0.806641c0 84.3809 -0.00292969 156.631 -0.99707 228.346
c1 4.00781 5 5.61035 8 5.61035c4.12988 0 6 -0.946289 6 -4.00781c0 -7.18848 -0.00292969 -10.417 -0.00292969 -18.4316c0 -141.867 1.52734 -252.214 2.75 -330.021c0.381836 -24.3105 0.220703 -37.583 0.633789 -55.3066
c0.0419922 -1.81738 1.3252 -3.68262 1.3457 -5.61035c0.0185547 -1.66602 0.77832 -4.18066 0.77832 -5.95215c0 -6.15137 -2.6709 -7.6709 -11.5078 -7.6709c-6 0 -11 2.4043 -11 6.41211zM-4.00293 -458.194c0 1.70215 1 5.10449 1 6.80664
c0 1.70117 1 4.25391 1 5.95508c2 86.7764 2 188.016 2 285.852v1.5752c0 89.5654 -0.00292969 166.679 -0.99707 242.801c0.0947266 4.24121 4.25 4.8916 7.25 4.8916c4.12988 0 6.75 -0.791992 6.75 -3.19043c0 -7.62988 -0.00292969 -11.0576 -0.00292969 -19.5645
c0 -150.583 0.227539 -372.363 1.5 -454.938c0.473633 -30.7412 2.75781 -45.4873 4.25781 -68c0.43457 -6.51855 -3.9209 -8.99316 -12.7578 -8.99316c-6 0 -10 2.55176 -10 6.80566z" />
    <glyph glyph-name="plicaBrevisDescBlack" unicode="&#xf060;" horiz-adv-x="161" 
d="M158.766 -21.4209c0.280273 -21.0273 1.63574 -53.1074 1.78223 -64.1221c0.120117 -9.01172 -5.4248 -10.791 -15.6396 -10.3828c-15.7861 0.631836 -41.8271 4.67578 -61.3281 5.45508c-9.28613 0.37207 -15.7998 1.63281 -25.0859 2.00488
c-2.78613 0.111328 -3.71484 0.148438 -7.42871 0.296875c-16.7158 0.668945 -35.2881 1.41113 -42.6768 -1.29492c-2.77246 -0.890625 -2.75879 -1.8916 -2.75879 -1.8916l-0.928711 0.0371094c-3.71484 0.148438 -4.69629 4.19141 -4.79004 11.2002
c0 0 -0.0136719 1.00195 -0.0263672 2.00293c-0.374023 28.0371 1.12305 54.999 0.749023 83.0361c-0.320312 24.0322 -1.67578 56.1113 -2.95215 82.1836c-0.0800781 6.00781 1.75098 7.93555 5.46484 7.78711c14.8447 0.407227 37.1182 0.517578 64.0479 -0.55957
c3.71484 -0.149414 7.42969 -0.297852 11.1436 -0.446289c13.001 -0.519531 26.9434 -2.07812 39.957 -3.59961c11.1572 -1.44727 21.3848 -2.85742 31.5996 -3.26562c8.35742 -0.333984 8.46484 -8.34473 8.55762 -15.3545
c0.0810547 -6.00781 0.147461 -11.0146 0.227539 -17.0225c0.320312 -24.0322 -0.261719 -50.0293 0.0859375 -76.0645zM142.997 -333.588c0 4.01172 2 8.15039 2 12.0225c1.99707 81.624 2 82.0938 2 173.803v0.806641c0 84.3809 -0.00292969 156.631 -0.99707 228.346
c1 4.00781 5 5.61035 8 5.61035c4.12988 0 6 -0.946289 6 -4.00781c0 -7.18848 -0.00292969 -10.417 -0.00292969 -18.4316c0 -141.867 1.52734 -252.214 2.75 -330.021c0.381836 -24.3105 0.220703 -37.583 0.633789 -55.3066
c0.0419922 -1.81738 1.3252 -3.68262 1.3457 -5.61035c0.0185547 -1.66602 0.77832 -4.18066 0.77832 -5.95215c0 -6.15137 -2.6709 -7.6709 -11.5078 -7.6709c-6 0 -11 2.4043 -11 6.41211zM-4.00293 -458.194c0 1.70215 1 5.10449 1 6.80664
c0 1.70117 1 4.25391 1 5.95508c2 86.7764 2 188.016 2 285.852v1.5752c0 89.5654 -0.00292969 166.679 -0.99707 242.801c0.0947266 4.24121 4.25 4.8916 7.25 4.8916c4.12988 0 6.75 -0.791992 6.75 -3.19043c0 -7.62988 -0.00292969 -11.0576 -0.00292969 -19.5645
c0 -150.583 0.227539 -372.363 1.5 -454.938c0.473633 -30.7412 2.75781 -45.4873 4.25781 -68c0.43457 -6.51855 -3.9209 -8.99316 -12.7578 -8.99316c-6 0 -10 2.55176 -10 6.80566z" />
    <glyph glyph-name="accidentalSharpParens" unicode="a" horiz-adv-x="161" 
d="M-6.5 568.569c0 5.06543 4 8.10352 10 8.10352c9 0 16 -3.03809 16 -11.1416c0 -30.3877 -2 -51.6592 -3 -88.124c-4 -98.2539 -6 -346.419 -6 -525.706v-30.3877v-3.79785c-2 -1.0127 -4 -1.2666 -6 -1.2666c-3 0 -6.66992 1.8623 -8 7.09082
c1 91.1631 1 182.325 1 289.695c0 116.485 0 237.022 -2 340.341c0 2.02539 -1 5.06445 -1 7.09082c0 2.02539 -1 6.07715 -1 8.10254zM159.966 -12.2881c-0.103516 -21.0264 0.675781 -53.0234 0.62207 -64.0371c-0.0439453 -9.01172 -5.66797 -11.2676 -15.96 -11.7344
c-15.9062 -0.719727 -42.0898 1.09863 -61.7383 0.208984c-9.35645 -0.423828 -15.9014 0.28125 -25.2578 -0.142578c-2.80762 -0.126953 -3.74316 -0.168945 -7.48535 -0.338867c-16.8418 -0.762695 -35.5547 -1.60938 -43.0547 -4.95215
c-2.8125 -1.12793 -2.81738 -2.12988 -2.81738 -2.12988l-0.935547 -0.0419922c-3.74219 -0.168945 -4.6582 3.79297 -4.62402 10.8018c0 0 0.00488281 1.00195 0.00976562 2.00293c0.136719 28.0352 2.14062 55.1533 2.27734 83.1885
c0.117188 24.0303 -0.658203 56.7783 -1.4668 82.7686c0.0292969 6.00781 1.91113 8.09473 5.65332 8.26465c14.9756 1.67871 37.4385 4.19727 64.5723 5.4248c3.74316 0.169922 7.48535 0.338867 11.2285 0.508789c13.0986 0.592773 27.1338 1.22852 40.2295 1.07031
c11.2471 -0.135742 21.5156 0.222656 31.8086 0.688477c8.4209 0.381836 8.38086 -7.62793 8.34668 -14.6367c-0.0292969 -6.00781 -0.0712891 -14.7686 -0.101562 -20.7764c-0.117188 -24.0303 -1.17969 -50.1045 -1.30664 -76.1377zM143.349 567.33
c0 5.01562 3.73535 8.02539 9.33887 8.02539c8.40527 0 14.9424 -3.00977 14.9424 -11.0352c0 -30.0967 -1.86719 -51.165 -2.80078 -87.2812c-3.73633 -97.3135 -5.60352 -343.104 -5.60352 -520.676v-30.0977v-3.76172
c-1.86816 -1.00293 -3.73633 -1.25391 -5.60352 -1.25391c-2.80176 0 -6.22949 1.84375 -7.47168 7.02246c0.933594 90.291 0.933594 180.581 0.933594 286.924c0 115.371 0 234.756 -1.86719 337.085c0 2.00684 -0.93457 5.0166 -0.93457 7.02246
c0 2.00684 -0.933594 6.01953 -0.933594 8.02637z" />
    <glyph glyph-name="accidentalSharpParens" unicode="&#xf061;" horiz-adv-x="161" 
d="M-6.5 568.569c0 5.06543 4 8.10352 10 8.10352c9 0 16 -3.03809 16 -11.1416c0 -30.3877 -2 -51.6592 -3 -88.124c-4 -98.2539 -6 -346.419 -6 -525.706v-30.3877v-3.79785c-2 -1.0127 -4 -1.2666 -6 -1.2666c-3 0 -6.66992 1.8623 -8 7.09082
c1 91.1631 1 182.325 1 289.695c0 116.485 0 237.022 -2 340.341c0 2.02539 -1 5.06445 -1 7.09082c0 2.02539 -1 6.07715 -1 8.10254zM159.966 -12.2881c-0.103516 -21.0264 0.675781 -53.0234 0.62207 -64.0371c-0.0439453 -9.01172 -5.66797 -11.2676 -15.96 -11.7344
c-15.9062 -0.719727 -42.0898 1.09863 -61.7383 0.208984c-9.35645 -0.423828 -15.9014 0.28125 -25.2578 -0.142578c-2.80762 -0.126953 -3.74316 -0.168945 -7.48535 -0.338867c-16.8418 -0.762695 -35.5547 -1.60938 -43.0547 -4.95215
c-2.8125 -1.12793 -2.81738 -2.12988 -2.81738 -2.12988l-0.935547 -0.0419922c-3.74219 -0.168945 -4.6582 3.79297 -4.62402 10.8018c0 0 0.00488281 1.00195 0.00976562 2.00293c0.136719 28.0352 2.14062 55.1533 2.27734 83.1885
c0.117188 24.0303 -0.658203 56.7783 -1.4668 82.7686c0.0292969 6.00781 1.91113 8.09473 5.65332 8.26465c14.9756 1.67871 37.4385 4.19727 64.5723 5.4248c3.74316 0.169922 7.48535 0.338867 11.2285 0.508789c13.0986 0.592773 27.1338 1.22852 40.2295 1.07031
c11.2471 -0.135742 21.5156 0.222656 31.8086 0.688477c8.4209 0.381836 8.38086 -7.62793 8.34668 -14.6367c-0.0292969 -6.00781 -0.0712891 -14.7686 -0.101562 -20.7764c-0.117188 -24.0303 -1.17969 -50.1045 -1.30664 -76.1377zM143.349 567.33
c0 5.01562 3.73535 8.02539 9.33887 8.02539c8.40527 0 14.9424 -3.00977 14.9424 -11.0352c0 -30.0967 -1.86719 -51.165 -2.80078 -87.2812c-3.73633 -97.3135 -5.60352 -343.104 -5.60352 -520.676v-30.0977v-3.76172
c-1.86816 -1.00293 -3.73633 -1.25391 -5.60352 -1.25391c-2.80176 0 -6.22949 1.84375 -7.47168 7.02246c0.933594 90.291 0.933594 180.581 0.933594 286.924c0 115.371 0 234.756 -1.86719 337.085c0 2.00684 -0.93457 5.0166 -0.93457 7.02246
c0 2.00684 -0.933594 6.01953 -0.933594 8.02637z" />
    <glyph glyph-name="accidentalFlat" unicode="b" horiz-adv-x="161" 
d="M-4.00293 -478.612c0 1.70117 1 5.10449 1 6.80566s1 4.25391 1 5.95508c2 86.7764 2 208.435 2 306.271v1.5752c0 89.5654 -0.00292969 166.679 -0.99707 242.801c0.0947266 4.24121 4.25 4.8916 7.25 4.8916c4.12988 0 6.75 -0.791992 6.75 -3.19043
c0 -7.62988 -0.00292969 -11.0566 -0.00292969 -19.5645c0 -150.583 0.227539 -392.782 1.5 -475.357c0.473633 -30.7402 2.75781 -45.4863 4.25781 -67.999c0.0195312 -0.295898 0.0292969 -0.583984 0.0292969 -0.863281c0 -5.875 -4.35156 -8.13086 -12.7871 -8.13086
c-6 0 -10 2.55273 -10 6.80664zM158.766 -21.4463c0.280273 -20.8799 1.63574 -52.7334 1.78223 -63.6699c0.120117 -8.94824 -5.4248 -10.7158 -15.6396 -10.3096c-15.7861 0.626953 -41.8271 4.64258 -61.3281 5.41699
c-9.28613 0.368164 -15.7998 1.62109 -25.0859 1.99023c-2.78613 0.110352 -3.71484 0.147461 -7.42871 0.294922c-16.7158 0.663086 -35.2881 1.40137 -42.6768 -1.28613c-2.77246 -0.883789 -2.75879 -1.87793 -2.75879 -1.87793l-0.928711 0.0361328
c-3.71484 0.147461 -4.69629 4.16211 -4.79004 11.1221c0 0 -0.0136719 0.994141 -0.0263672 1.98828c-0.374023 27.8398 1.12305 54.6104 0.749023 82.4502c-0.320312 23.8623 -1.68652 56.4619 -2.96191 82.3496c-0.0800781 5.96582 1.75098 7.87988 5.46484 7.73242
c14.8447 0.404297 37.1113 1.01074 64.041 -0.0585938c3.71484 -0.147461 7.42871 -0.295898 11.1436 -0.443359c13.001 -0.515625 26.9297 -1.06934 39.9404 -2.33105c11.1748 -1.08398 21.3682 -1.59375 31.583 -2c8.35742 -0.332031 8.46484 -8.28613 8.55762 -15.2461
c0.0800781 -5.96582 0.197266 -14.665 0.277344 -20.6309c0.320312 -23.8623 -0.261719 -49.6768 0.0859375 -75.5273zM142.997 -479.62c0 1.70215 1 5.10742 1 6.80957c0 1.70312 1 4.25684 1 5.95898c2 86.8252 2 208.552 2 306.443v1.57617
c0 89.6162 -0.00292969 166.773 -0.99707 242.938c0.0947266 4.24414 4.25 4.89453 7.25 4.89453c4.12988 0 6.75 -0.791992 6.75 -3.19141c0 -7.63477 -0.00292969 -11.0635 -0.00292969 -19.5762c0 -150.668 0.227539 -393.004 1.5 -475.626
c0.473633 -30.7578 2.75781 -45.5127 4.25781 -68.0381c0.0195312 -0.295898 0.0292969 -0.583984 0.0292969 -0.863281c0 -5.87891 -4.35156 -8.13477 -12.7871 -8.13477c-6 0 -10 2.55371 -10 6.80957z" />
    <glyph glyph-name="accidentalFlat" unicode="&#xf062;" horiz-adv-x="161" 
d="M-4.00293 -478.612c0 1.70117 1 5.10449 1 6.80566s1 4.25391 1 5.95508c2 86.7764 2 208.435 2 306.271v1.5752c0 89.5654 -0.00292969 166.679 -0.99707 242.801c0.0947266 4.24121 4.25 4.8916 7.25 4.8916c4.12988 0 6.75 -0.791992 6.75 -3.19043
c0 -7.62988 -0.00292969 -11.0566 -0.00292969 -19.5645c0 -150.583 0.227539 -392.782 1.5 -475.357c0.473633 -30.7402 2.75781 -45.4863 4.25781 -67.999c0.0195312 -0.295898 0.0292969 -0.583984 0.0292969 -0.863281c0 -5.875 -4.35156 -8.13086 -12.7871 -8.13086
c-6 0 -10 2.55273 -10 6.80664zM158.766 -21.4463c0.280273 -20.8799 1.63574 -52.7334 1.78223 -63.6699c0.120117 -8.94824 -5.4248 -10.7158 -15.6396 -10.3096c-15.7861 0.626953 -41.8271 4.64258 -61.3281 5.41699
c-9.28613 0.368164 -15.7998 1.62109 -25.0859 1.99023c-2.78613 0.110352 -3.71484 0.147461 -7.42871 0.294922c-16.7158 0.663086 -35.2881 1.40137 -42.6768 -1.28613c-2.77246 -0.883789 -2.75879 -1.87793 -2.75879 -1.87793l-0.928711 0.0361328
c-3.71484 0.147461 -4.69629 4.16211 -4.79004 11.1221c0 0 -0.0136719 0.994141 -0.0263672 1.98828c-0.374023 27.8398 1.12305 54.6104 0.749023 82.4502c-0.320312 23.8623 -1.68652 56.4619 -2.96191 82.3496c-0.0800781 5.96582 1.75098 7.87988 5.46484 7.73242
c14.8447 0.404297 37.1113 1.01074 64.041 -0.0585938c3.71484 -0.147461 7.42871 -0.295898 11.1436 -0.443359c13.001 -0.515625 26.9297 -1.06934 39.9404 -2.33105c11.1748 -1.08398 21.3682 -1.59375 31.583 -2c8.35742 -0.332031 8.46484 -8.28613 8.55762 -15.2461
c0.0800781 -5.96582 0.197266 -14.665 0.277344 -20.6309c0.320312 -23.8623 -0.261719 -49.6768 0.0859375 -75.5273zM142.997 -479.62c0 1.70215 1 5.10742 1 6.80957c0 1.70312 1 4.25684 1 5.95898c2 86.8252 2 208.552 2 306.443v1.57617
c0 89.6162 -0.00292969 166.773 -0.99707 242.938c0.0947266 4.24414 4.25 4.89453 7.25 4.89453c4.12988 0 6.75 -0.791992 6.75 -3.19141c0 -7.63477 -0.00292969 -11.0635 -0.00292969 -19.5762c0 -150.668 0.227539 -393.004 1.5 -475.626
c0.473633 -30.7578 2.75781 -45.5127 4.25781 -68.0381c0.0195312 -0.295898 0.0292969 -0.583984 0.0292969 -0.863281c0 -5.87891 -4.35156 -8.13477 -12.7871 -8.13477c-6 0 -10 2.55371 -10 6.80957z" />
    <glyph glyph-name="mensuralMaximaBlack" unicode="c" horiz-adv-x="389" 
d="M380.858 -591.605c-7.18848 0 -10.7168 4.49902 -10.7168 11.6973c0 10.75 3.35938 22.6846 4.15527 41.9082c2.87402 69.3779 4.41504 199.625 4.41504 298.212c0 60.2832 -0.881836 92.5723 -3.52832 113.268c-1.76367 9.89648 -0.555664 18.7441 -12.9033 20.5439
c-44.1006 5.39844 -115.716 4.71973 -165.108 5.62012h-19.4043c-46.7451 0 -108.971 -0.0712891 -165.42 -1.87109h-1.76367c-7.9375 0 -12.3477 2.69922 -12.3477 11.6973c0 27.8916 1.76367 65.7852 1.76367 95.4766c0 24.293 -0.882812 60.5859 -1.76367 87.5781
v0.900391c0 6.29785 7.9375 7.19824 14.9941 7.19824c5.29199 0 11.4658 -1.7998 29.1055 -1.7998c49.3916 0 83.3945 2.12109 131.022 2.12109c69.6777 0 125.369 -0.243164 196.812 -5.56348c14.9355 -1.11133 20.1406 -1.24121 20.1406 -8.59766
c0 -47.7646 -0.371094 -127.295 -0.371094 -204.702c0 -66.9492 0.135742 -133.62 0.516602 -180.354c0.25293 -30.9766 0.361328 -68.6484 0.361328 -106.435c0 -74.3975 -0.422852 -149.239 -1.00684 -174.301c0 -10.7969 -2.01367 -12.5967 -8.95215 -12.5967z" />
    <glyph glyph-name="mensuralMaximaBlack" unicode="&#xf063;" horiz-adv-x="389" 
d="M380.858 -591.605c-7.18848 0 -10.7168 4.49902 -10.7168 11.6973c0 10.75 3.35938 22.6846 4.15527 41.9082c2.87402 69.3779 4.41504 199.625 4.41504 298.212c0 60.2832 -0.881836 92.5723 -3.52832 113.268c-1.76367 9.89648 -0.555664 18.7441 -12.9033 20.5439
c-44.1006 5.39844 -115.716 4.71973 -165.108 5.62012h-19.4043c-46.7451 0 -108.971 -0.0712891 -165.42 -1.87109h-1.76367c-7.9375 0 -12.3477 2.69922 -12.3477 11.6973c0 27.8916 1.76367 65.7852 1.76367 95.4766c0 24.293 -0.882812 60.5859 -1.76367 87.5781
v0.900391c0 6.29785 7.9375 7.19824 14.9941 7.19824c5.29199 0 11.4658 -1.7998 29.1055 -1.7998c49.3916 0 83.3945 2.12109 131.022 2.12109c69.6777 0 125.369 -0.243164 196.812 -5.56348c14.9355 -1.11133 20.1406 -1.24121 20.1406 -8.59766
c0 -47.7646 -0.371094 -127.295 -0.371094 -204.702c0 -66.9492 0.135742 -133.62 0.516602 -180.354c0.25293 -30.9766 0.361328 -68.6484 0.361328 -106.435c0 -74.3975 -0.422852 -149.239 -1.00684 -174.301c0 -10.7969 -2.01367 -12.5967 -8.95215 -12.5967z" />
    <glyph glyph-name="mensuralMaximaStemlessBlack" unicode="d" horiz-adv-x="392" 
d="M393.707 -88.7344c-0.863281 -6.29883 -7.26465 -8.09766 -15.8896 -8.09766c-8.62598 0 -18.9775 0.149414 -26.7412 1.04883c-43.1289 2.69922 -112.137 1.33789 -160.442 2.2373c-6.03906 0 -36.2822 0.166016 -43.1836 0.166016
c-46.1758 0 -81.4805 -0.382812 -137.1 -0.382812c-7.7627 0 -12.0762 2.7002 -12.0762 11.6973c0 27.8926 1.72559 57.2627 1.72559 86.9551c0 24.2939 -0.863281 56.2363 -1.72559 83.2305v1.79883c0 4.49902 6.90137 5.54883 12.9395 5.54883
c38.8174 1.7998 100.061 1.95312 162.168 1.95312h30.1914c50.0303 -0.899414 117.734 0.50293 171.655 -2.50781c14.6719 -0.819336 17.2529 -1.99805 17.2529 -10.0957c0 -25.7578 -0.182617 -46.167 -0.182617 -70.5059c0 -31.9961 1.47168 -62.1729 1.47168 -96.8467
c0 -2.59961 -0.0634766 -4.39941 -0.0634766 -6.19922z" />
    <glyph glyph-name="mensuralMaximaStemlessBlack" unicode="&#xf064;" horiz-adv-x="392" 
d="M393.707 -88.7344c-0.863281 -6.29883 -7.26465 -8.09766 -15.8896 -8.09766c-8.62598 0 -18.9775 0.149414 -26.7412 1.04883c-43.1289 2.69922 -112.137 1.33789 -160.442 2.2373c-6.03906 0 -36.2822 0.166016 -43.1836 0.166016
c-46.1758 0 -81.4805 -0.382812 -137.1 -0.382812c-7.7627 0 -12.0762 2.7002 -12.0762 11.6973c0 27.8926 1.72559 57.2627 1.72559 86.9551c0 24.2939 -0.863281 56.2363 -1.72559 83.2305v1.79883c0 4.49902 6.90137 5.54883 12.9395 5.54883
c38.8174 1.7998 100.061 1.95312 162.168 1.95312h30.1914c50.0303 -0.899414 117.734 0.50293 171.655 -2.50781c14.6719 -0.819336 17.2529 -1.99805 17.2529 -10.0957c0 -25.7578 -0.182617 -46.167 -0.182617 -70.5059c0 -31.9961 1.47168 -62.1729 1.47168 -96.8467
c0 -2.59961 -0.0634766 -4.39941 -0.0634766 -6.19922z" />
    <glyph glyph-name="mensuralLongaBlack" unicode="e" horiz-adv-x="180" 
d="M170 -592.25c-9 0 -10 5 -10 14c0 2 3 19 4 35c2 37 2 113.25 2 174.25v99c0 73 0 127 -3 150c-1 10 0 21 -11 24c-10 3 -26 5 -66 5c-28 0 -46 -1 -73 -2h-1c-8 0 -13 2 -13 11c0 28 1 53 1 82v3c0 25 -1 54 -1 82c0 6 5 8 11 8c31 1 33 1 83 1c28 0 39 -1 65 -2
c4 0 9 0 13 -1c7 -2 9 -9 9 -16v-72v-88v-187v-38c0 -69 -1 -155.25 -1 -195.25v-5c0 -23 2 -41 2 -57c0 -5 0 -11 -1 -15c-2 -9 -1 -10 -10 -10z" />
    <glyph glyph-name="mensuralLongaBlack" unicode="&#xf065;" horiz-adv-x="180" 
d="M170 -592.25c-9 0 -10 5 -10 14c0 2 3 19 4 35c2 37 2 113.25 2 174.25v99c0 73 0 127 -3 150c-1 10 0 21 -11 24c-10 3 -26 5 -66 5c-28 0 -46 -1 -73 -2h-1c-8 0 -13 2 -13 11c0 28 1 53 1 82v3c0 25 -1 54 -1 82c0 6 5 8 11 8c31 1 33 1 83 1c28 0 39 -1 65 -2
c4 0 9 0 13 -1c7 -2 9 -9 9 -16v-72v-88v-187v-38c0 -69 -1 -155.25 -1 -195.25v-5c0 -23 2 -41 2 -57c0 -5 0 -11 -1 -15c-2 -9 -1 -10 -10 -10z" />
    <glyph glyph-name="mensuralLongaBlack" unicode="&#xe951;" horiz-adv-x="180" 
d="M170 -592.25c-9 0 -10 5 -10 14c0 2 3 19 4 35c2 37 2 113.25 2 174.25v99c0 73 0 127 -3 150c-1 10 0 21 -11 24c-10 3 -26 5 -66 5c-28 0 -46 -1 -73 -2h-1c-8 0 -13 2 -13 11c0 28 1 53 1 82v3c0 25 -1 54 -1 82c0 6 5 8 11 8c31 1 33 1 83 1c28 0 39 -1 65 -2
c4 0 9 0 13 -1c7 -2 9 -9 9 -16v-72v-88v-187v-38c0 -69 -1 -155.25 -1 -195.25v-5c0 -23 2 -41 2 -57c0 -5 0 -11 -1 -15c-2 -9 -1 -10 -10 -10z" />
    <glyph glyph-name="mensuralLongaStemUpRightBlack" unicode="f" horiz-adv-x="174" 
d="M85 94.25c22.6963 0 46.7881 -1.47461 68.8877 -1.47461c2.44531 0 4.0625 0.628906 4.06738 2.84961c0.0410156 20.0576 0.0488281 40.5605 0.0488281 61.6494c0 15.0107 -0.00390625 30.3184 -0.00390625 45.9756c0 115 0 256.5 -2 358.5c0 2 -1 5 -1 7s-1 6 -1 8
c0 5 4 8 10 8c8.73242 0 16.0205 -2.83691 16.0205 -10.3008c0 -30.2812 -2.76562 -51.5098 -3.77051 -87.6992c-4 -97 -5.25 -364.5 -5.25 -541.5v-28.25c0 -10.2344 -4.87695 -11 -17 -11c-29.0703 0 -68.9365 4 -101 4c-18 0 -35.5 -1 -43.5 -3
c-4.20508 -1.05176 -4.31836 -2 -6.5 -2c-4 0 -5 4 -5 11v2c0 28 2 55 2 83c0 24 -1 56.75 -2 82.75c0 6 2 8 6 8c16 1 40 2.5 69 2.5h12z" />
    <glyph glyph-name="mensuralLongaStemUpRightBlack" unicode="&#xf066;" horiz-adv-x="174" 
d="M85 94.25c22.6963 0 46.7881 -1.47461 68.8877 -1.47461c2.44531 0 4.0625 0.628906 4.06738 2.84961c0.0410156 20.0576 0.0488281 40.5605 0.0488281 61.6494c0 15.0107 -0.00390625 30.3184 -0.00390625 45.9756c0 115 0 256.5 -2 358.5c0 2 -1 5 -1 7s-1 6 -1 8
c0 5 4 8 10 8c8.73242 0 16.0205 -2.83691 16.0205 -10.3008c0 -30.2812 -2.76562 -51.5098 -3.77051 -87.6992c-4 -97 -5.25 -364.5 -5.25 -541.5v-28.25c0 -10.2344 -4.87695 -11 -17 -11c-29.0703 0 -68.9365 4 -101 4c-18 0 -35.5 -1 -43.5 -3
c-4.20508 -1.05176 -4.31836 -2 -6.5 -2c-4 0 -5 4 -5 11v2c0 28 2 55 2 83c0 24 -1 56.75 -2 82.75c0 6 2 8 6 8c16 1 40 2.5 69 2.5h12z" />
    <glyph glyph-name="mensuralSemibrevisBlack" unicode="h" horiz-adv-x="170" 
d="M92 161c39 -67 62 -119 78 -164c-24 -69 -61 -119 -90 -156v4c0 40 -51 107 -80 154c38 52 60 94 92 162z" />
    <glyph glyph-name="mensuralSemibrevisBlack" unicode="&#xe938;" horiz-adv-x="170" 
d="M92 161c39 -67 62 -119 78 -164c-24 -69 -61 -119 -90 -156v4c0 40 -51 107 -80 154c38 52 60 94 92 162z" />
    <glyph glyph-name="mensuralSemibrevisBlack" unicode="&#xf068;" horiz-adv-x="170" 
d="M92 161c39 -67 62 -119 78 -164c-24 -69 -61 -119 -90 -156v4c0 40 -51 107 -80 154c38 52 60 94 92 162z" />
    <glyph glyph-name="mensuralSemibrevisBlack" unicode="&#xe953;" horiz-adv-x="170" 
d="M92 161c39 -67 62 -119 78 -164c-24 -69 -61 -119 -90 -156v4c0 40 -51 107 -80 154c38 52 60 94 92 162z" />
    <glyph glyph-name="mensuralMinimaBlack" unicode="i" horiz-adv-x="170" 
d="M92 161c39 -67 62 -119 78 -164c-24 -69 -61 -119 -90 -156v4c0 40 -51 107 -80 154c38 52 60 94 92 162zM84.75 598.5c0 5 4 8 10 8c9 0 16 -3 16 -11c0 -30 -2 -51 -3 -87c-4 -97 -6 -342 -6 -519v-30v-3.75c-2 -1 -4 -1.25 -6 -1.25c-3 0 -6.66992 1.83789 -8 7
c1 90 1 180 1 286c0 115 0 234 -2 336c0 2 -1 5 -1 7s-1 6 -1 8z" />
    <glyph glyph-name="mensuralMinimaBlack" unicode="&#xf069;" horiz-adv-x="170" 
d="M92 161c39 -67 62 -119 78 -164c-24 -69 -61 -119 -90 -156v4c0 40 -51 107 -80 154c38 52 60 94 92 162zM84.75 598.5c0 5 4 8 10 8c9 0 16 -3 16 -11c0 -30 -2 -51 -3 -87c-4 -97 -6 -342 -6 -519v-30v-3.75c-2 -1 -4 -1.25 -6 -1.25c-3 0 -6.66992 1.83789 -8 7
c1 90 1 180 1 286c0 115 0 234 -2 336c0 2 -1 5 -1 7s-1 6 -1 8z" />
    <glyph glyph-name="mensuralMinimaBlack" unicode="&#xe954;" horiz-adv-x="170" 
d="M92 161c39 -67 62 -119 78 -164c-24 -69 -61 -119 -90 -156v4c0 40 -51 107 -80 154c38 52 60 94 92 162zM84.75 598.5c0 5 4 8 10 8c9 0 16 -3 16 -11c0 -30 -2 -51 -3 -87c-4 -97 -6 -342 -6 -519v-30v-3.75c-2 -1 -4 -1.25 -6 -1.25c-3 0 -6.66992 1.83789 -8 7
c1 90 1 180 1 286c0 115 0 234 -2 336c0 2 -1 5 -1 7s-1 6 -1 8z" />
    <glyph glyph-name="mensuralSemibrevisCaudataBlack" unicode="j" horiz-adv-x="170" 
d="M92 161c39 -67 62 -119 78 -164c-24 -69 -61 -119 -90 -156v4c0 40 -51 107 -80 154c38 52 60 94 92 162zM75.9971 -416.372c0 3.52051 2 7.15234 2 10.5508c1.99707 71.6367 2 72.0488 2 152.535v0.708008c0 74.0566 -0.00292969 137.465 -0.99707 200.404
c1 3.5166 5 4.92383 8 4.92383c4.12988 0 6 -0.830078 6 -3.51758c0 -6.30859 -0.00292969 -9.1416 -0.00292969 -16.1768c0 -124.507 1.52734 -221.351 2.75 -289.637c0.381836 -21.3359 0.220703 -32.9834 0.633789 -48.5381
c0.0419922 -1.5957 1.3252 -3.23242 1.3457 -4.9248c0.0185547 -1.46094 0.77832 -3.66895 0.77832 -5.22266c0 -5.39941 -2.6709 -6.7334 -11.5078 -6.7334c-6 0 -11 2.11035 -11 5.62793z" />
    <glyph glyph-name="mensuralSemibrevisCaudataBlack" unicode="&#xf06a;" horiz-adv-x="170" 
d="M92 161c39 -67 62 -119 78 -164c-24 -69 -61 -119 -90 -156v4c0 40 -51 107 -80 154c38 52 60 94 92 162zM75.9971 -416.372c0 3.52051 2 7.15234 2 10.5508c1.99707 71.6367 2 72.0488 2 152.535v0.708008c0 74.0566 -0.00292969 137.465 -0.99707 200.404
c1 3.5166 5 4.92383 8 4.92383c4.12988 0 6 -0.830078 6 -3.51758c0 -6.30859 -0.00292969 -9.1416 -0.00292969 -16.1768c0 -124.507 1.52734 -221.351 2.75 -289.637c0.381836 -21.3359 0.220703 -32.9834 0.633789 -48.5381
c0.0419922 -1.5957 1.3252 -3.23242 1.3457 -4.9248c0.0185547 -1.46094 0.77832 -3.66895 0.77832 -5.22266c0 -5.39941 -2.6709 -6.7334 -11.5078 -6.7334c-6 0 -11 2.11035 -11 5.62793z" />
    <glyph glyph-name="mensuralSemibrevisCaudataBlack" unicode="&#xe959;" horiz-adv-x="170" 
d="M92 161c39 -67 62 -119 78 -164c-24 -69 -61 -119 -90 -156v4c0 40 -51 107 -80 154c38 52 60 94 92 162zM75.9971 -416.372c0 3.52051 2 7.15234 2 10.5508c1.99707 71.6367 2 72.0488 2 152.535v0.708008c0 74.0566 -0.00292969 137.465 -0.99707 200.404
c1 3.5166 5 4.92383 8 4.92383c4.12988 0 6 -0.830078 6 -3.51758c0 -6.30859 -0.00292969 -9.1416 -0.00292969 -16.1768c0 -124.507 1.52734 -221.351 2.75 -289.637c0.381836 -21.3359 0.220703 -32.9834 0.633789 -48.5381
c0.0419922 -1.5957 1.3252 -3.23242 1.3457 -4.9248c0.0185547 -1.46094 0.77832 -3.66895 0.77832 -5.22266c0 -5.39941 -2.6709 -6.7334 -11.5078 -6.7334c-6 0 -11 2.11035 -11 5.62793z" />
    <glyph glyph-name="mensuralDragmaBlack" unicode="k" horiz-adv-x="186" 
d="M104.97 720.887v-566.65l81.1299 -149.207c-11.9688 -16.7637 -39.8994 -63.7061 -81.1299 -139.147v-580.062c-5.31934 -6.70605 -11.9697 -8.38184 -18.6201 -5.0293v580.062c-13.2998 30.1768 -42.5596 77.1191 -86.4492 139.148
c19.9492 33.5303 47.8799 82.1475 86.4492 145.853v570.004c5.32031 10.0596 11.9697 11.7363 18.6201 5.03027z" />
    <glyph glyph-name="mensuralDragmaBlack" unicode="&#xf06b;" horiz-adv-x="186" 
d="M104.97 720.887v-566.65l81.1299 -149.207c-11.9688 -16.7637 -39.8994 -63.7061 -81.1299 -139.147v-580.062c-5.31934 -6.70605 -11.9697 -8.38184 -18.6201 -5.0293v580.062c-13.2998 30.1768 -42.5596 77.1191 -86.4492 139.148
c19.9492 33.5303 47.8799 82.1475 86.4492 145.853v570.004c5.32031 10.0596 11.9697 11.7363 18.6201 5.03027z" />
    <glyph glyph-name="mensuralDragmaBlack" unicode="&#xe95a;" horiz-adv-x="186" 
d="M104.97 720.887v-566.65l81.1299 -149.207c-11.9688 -16.7637 -39.8994 -63.7061 -81.1299 -139.147v-580.062c-5.31934 -6.70605 -11.9697 -8.38184 -18.6201 -5.0293v580.062c-13.2998 30.1768 -42.5596 77.1191 -86.4492 139.148
c19.9492 33.5303 47.8799 82.1475 86.4492 145.853v570.004c5.32031 10.0596 11.9697 11.7363 18.6201 5.03027z" />
    <glyph glyph-name="mensuralSemibrevisObliqueBlack" unicode="m" horiz-adv-x="178" 
d="M-207 -381c70 126 166 307 289 540c25.912 -38.625 65.8222 -98.1027 96 -164c-22.104 -61.2153 -48.0726 -110.1 -84 -158c-2.35165 31.9992 -28.342 71.9994 -72 130c-4.03423 5.35957 -5 9 -8 9c-2 0 -4 -2 -7 -7c-34 -57 -69 -120 -107 -189
c-24 -44 -49 -91 -75 -140c-2 -5 -5 -11 -7 -16c-4 -7 -6 -11 -11 -18c-2 -1 -3 -1 -5 -1l-5 1c-2 2 -4 6 -4 13z" />
    <glyph glyph-name="mensuralSemibrevisObliqueBlack" unicode="&#xf06d;" horiz-adv-x="178" 
d="M-207 -381c70 126 166 307 289 540c25.912 -38.625 65.8222 -98.1027 96 -164c-22.104 -61.2153 -48.0726 -110.1 -84 -158c-2.35165 31.9992 -28.342 71.9994 -72 130c-4.03423 5.35957 -5 9 -8 9c-2 0 -4 -2 -7 -7c-34 -57 -69 -120 -107 -189
c-24 -44 -49 -91 -75 -140c-2 -5 -5 -11 -7 -16c-4 -7 -6 -11 -11 -18c-2 -1 -3 -1 -5 -1l-5 1c-2 2 -4 6 -4 13z" />
    <glyph glyph-name="mensuralSemibrevisObliqueBlack" unicode="&#xe95b;" horiz-adv-x="178" 
d="M-207 -381c70 126 166 307 289 540c25.912 -38.625 65.8222 -98.1027 96 -164c-22.104 -61.2153 -48.0726 -110.1 -84 -158c-2.35165 31.9992 -28.342 71.9994 -72 130c-4.03423 5.35957 -5 9 -8 9c-2 0 -4 -2 -7 -7c-34 -57 -69 -120 -107 -189
c-24 -44 -49 -91 -75 -140c-2 -5 -5 -11 -7 -16c-4 -7 -6 -11 -11 -18c-2 -1 -3 -1 -5 -1l-5 1c-2 2 -4 6 -4 13z" />
    <glyph glyph-name="ascii6e" unicode="n" horiz-adv-x="186" 
d="M186.199 -5.0293c-31.5137 -69.4551 -60.6484 -113.441 -95 -164.971c11.9834 40.6934 -33.4717 94.7764 -91.1992 170c22.9883 28.291 51.6875 71.4111 86.4492 139.148c2.53809 131.551 6.80859 244.654 1.30469 422.679
c-25.127 -8.84473 -42.3857 -10.8379 -51.75 -7.65625c-13.3818 4.78418 -20.2256 16.3945 -20.5586 36.5107c-0.27832 16.7617 4.7627 33.6221 15.123 50.5801c24.416 40.3135 45.3828 67.0254 63.0762 79.2383c8.24902 5.69434 11.0947 0.0517578 11.373 -5
c3.00488 -54.4756 3.77148 -140.347 3.77148 -140.347c11.9131 3.07324 29.5234 9.9873 38.7773 13.5117c-4.91309 -3.00098 -21.5449 -11.8408 -38.6934 -19.79c4.44336 -203.545 -1.63574 -309.487 -3.80371 -431.757c28.7334 -36.7812 60.0186 -86.9785 81.1299 -142.147
zM87.8809 569.782c-0.855469 32.084 -1.73926 75.5371 -3.49023 93.7168c-0.761719 7.91113 -3.27246 10.0342 -6.96582 6.66797c-8.4043 -7.6582 -12.4473 -12.1562 -19.042 -19.9385c-17.333 -20.457 -28.6719 -37.4883 -29.8066 -49.2461
c-1.10742 -13.4346 1.71875 -23.4434 8.47949 -30.0264c6.78809 -8.25781 24.3125 -6.69043 50.8252 -1.17383z" />
    <glyph glyph-name="ascii6e" unicode="&#xf06e;" horiz-adv-x="186" 
d="M186.199 -5.0293c-31.5137 -69.4551 -60.6484 -113.441 -95 -164.971c11.9834 40.6934 -33.4717 94.7764 -91.1992 170c22.9883 28.291 51.6875 71.4111 86.4492 139.148c2.53809 131.551 6.80859 244.654 1.30469 422.679
c-25.127 -8.84473 -42.3857 -10.8379 -51.75 -7.65625c-13.3818 4.78418 -20.2256 16.3945 -20.5586 36.5107c-0.27832 16.7617 4.7627 33.6221 15.123 50.5801c24.416 40.3135 45.3828 67.0254 63.0762 79.2383c8.24902 5.69434 11.0947 0.0517578 11.373 -5
c3.00488 -54.4756 3.77148 -140.347 3.77148 -140.347c11.9131 3.07324 29.5234 9.9873 38.7773 13.5117c-4.91309 -3.00098 -21.5449 -11.8408 -38.6934 -19.79c4.44336 -203.545 -1.63574 -309.487 -3.80371 -431.757c28.7334 -36.7812 60.0186 -86.9785 81.1299 -142.147
zM87.8809 569.782c-0.855469 32.084 -1.73926 75.5371 -3.49023 93.7168c-0.761719 7.91113 -3.27246 10.0342 -6.96582 6.66797c-8.4043 -7.6582 -12.4473 -12.1562 -19.042 -19.9385c-17.333 -20.457 -28.6719 -37.4883 -29.8066 -49.2461
c-1.10742 -13.4346 1.71875 -23.4434 8.47949 -30.0264c6.78809 -8.25781 24.3125 -6.69043 50.8252 -1.17383z" />
    <glyph glyph-name="mensuralSemiminimaBlack" unicode="o" horiz-adv-x="170" 
d="M92 161c39 -67 62 -119 78 -164c-24 -69 -61 -119 -90 -156v4c0 40 -51 107 -80 154c38 52 60 94 92 162zM91.5049 124.998c-6.77441 0.0185547 -8.79395 3.95508 -8.79395 10.5664c0 0.223633 0.00195312 0.449219 0.00683594 0.678711
c1.58691 80.6133 2.60938 161.858 2.60938 231.157c0 60.1074 -0.769531 120.631 -2.60938 189.677c-0.0117188 0.449219 -0.0166016 0.898438 -0.0166016 1.34668c0 1.0957 0.0253906 2.18359 0.0253906 3.24219c0 4.35547 -0.428711 8.2207 -4.82227 10.124
c-10.0283 4.34473 -24.5273 10.6895 -32.5693 15.0361c3.6582 -1.53809 16.7051 -5.98438 31.54 -9.58887c1.33203 -0.323242 2.37207 -0.551758 3.18164 -0.551758c1.87305 0 2.50879 1.22168 2.66113 5.30762c0.193359 5.18945 0.279297 11.2656 0.279297 17.8857
c0 36.4141 -2.60352 89.3135 -4.31641 101.864c-0.442383 3.23828 -0.84082 7.66992 -0.84082 11.918c0 6.91602 1.05566 13.3447 4.69434 13.3447c0.773438 0 1.66406 -0.291016 2.68555 -0.928711c21.1113 -13.1836 43.5322 -40.708 69.3652 -82.5742
c10.6396 -16.7656 18.5723 -33.5303 18.5723 -50.2949c0 -20.1191 -6.65039 -31.8535 -19.9502 -36.8828c-2.94727 -1.06152 -6.55176 -1.61914 -10.9121 -1.61914c-8.16602 0 -18.9854 1.95508 -33.1152 6.21484c-1.0498 0.316406 -1.93652 0.458984 -2.68652 0.458984
c-3.55078 0 -4.02246 -3.20312 -4.02246 -6.36426c0 -0.896484 0.0380859 -1.79004 0.0546875 -2.60547c0.942383 -47.1738 1.31152 -92.8672 1.31152 -138.18c0 -83.917 -1.26562 -179.028 -2.49902 -267.32c-0.0126953 -0.866211 -0.0195312 -9.2207 -0.0195312 -10.0625
c0 -9.96094 -2.9248 -11.8496 -9.70801 -11.8496h-0.105469zM157.244 603.267c-2.5293 15.9453 -18.8008 39.4736 -51.4688 69.1436c-1.22168 1.10938 -2.16602 1.55176 -2.89258 1.55176c-1.83691 0 -2.27832 -2.82617 -2.27832 -4.82324
c0 -0.259766 0.0078125 -0.504883 0.0205078 -0.728516c1.10449 -19.2852 1.27734 -34.4062 1.27734 -48.0693c0 -6.21875 -0.0361328 -12.1357 -0.0361328 -18.0059c0 -5.93457 0.0371094 -11.8223 0.183594 -17.9248
c0.00683594 -0.275391 0.00976562 -0.551758 0.00976562 -0.829102c0 -1.83301 -0.125977 -3.70996 -0.125977 -5.49316c0 -4.58496 0.831055 -8.54883 6.7666 -9.53516c9.4502 -1.57031 17.4316 -2.40137 23.9717 -2.40137c9.26758 0 15.6426 1.66797 19.2061 5.26172
c4.61719 5.82031 6.05078 12.4482 6.05078 20.4463c0 3.52148 -0.277344 7.30762 -0.68457 11.4072z" />
    <glyph glyph-name="mensuralSemiminimaBlack" unicode="&#xf06f;" horiz-adv-x="170" 
d="M92 161c39 -67 62 -119 78 -164c-24 -69 -61 -119 -90 -156v4c0 40 -51 107 -80 154c38 52 60 94 92 162zM91.5049 124.998c-6.77441 0.0185547 -8.79395 3.95508 -8.79395 10.5664c0 0.223633 0.00195312 0.449219 0.00683594 0.678711
c1.58691 80.6133 2.60938 161.858 2.60938 231.157c0 60.1074 -0.769531 120.631 -2.60938 189.677c-0.0117188 0.449219 -0.0166016 0.898438 -0.0166016 1.34668c0 1.0957 0.0253906 2.18359 0.0253906 3.24219c0 4.35547 -0.428711 8.2207 -4.82227 10.124
c-10.0283 4.34473 -24.5273 10.6895 -32.5693 15.0361c3.6582 -1.53809 16.7051 -5.98438 31.54 -9.58887c1.33203 -0.323242 2.37207 -0.551758 3.18164 -0.551758c1.87305 0 2.50879 1.22168 2.66113 5.30762c0.193359 5.18945 0.279297 11.2656 0.279297 17.8857
c0 36.4141 -2.60352 89.3135 -4.31641 101.864c-0.442383 3.23828 -0.84082 7.66992 -0.84082 11.918c0 6.91602 1.05566 13.3447 4.69434 13.3447c0.773438 0 1.66406 -0.291016 2.68555 -0.928711c21.1113 -13.1836 43.5322 -40.708 69.3652 -82.5742
c10.6396 -16.7656 18.5723 -33.5303 18.5723 -50.2949c0 -20.1191 -6.65039 -31.8535 -19.9502 -36.8828c-2.94727 -1.06152 -6.55176 -1.61914 -10.9121 -1.61914c-8.16602 0 -18.9854 1.95508 -33.1152 6.21484c-1.0498 0.316406 -1.93652 0.458984 -2.68652 0.458984
c-3.55078 0 -4.02246 -3.20312 -4.02246 -6.36426c0 -0.896484 0.0380859 -1.79004 0.0546875 -2.60547c0.942383 -47.1738 1.31152 -92.8672 1.31152 -138.18c0 -83.917 -1.26562 -179.028 -2.49902 -267.32c-0.0126953 -0.866211 -0.0195312 -9.2207 -0.0195312 -10.0625
c0 -9.96094 -2.9248 -11.8496 -9.70801 -11.8496h-0.105469zM157.244 603.267c-2.5293 15.9453 -18.8008 39.4736 -51.4688 69.1436c-1.22168 1.10938 -2.16602 1.55176 -2.89258 1.55176c-1.83691 0 -2.27832 -2.82617 -2.27832 -4.82324
c0 -0.259766 0.0078125 -0.504883 0.0205078 -0.728516c1.10449 -19.2852 1.27734 -34.4062 1.27734 -48.0693c0 -6.21875 -0.0361328 -12.1357 -0.0361328 -18.0059c0 -5.93457 0.0371094 -11.8223 0.183594 -17.9248
c0.00683594 -0.275391 0.00976562 -0.551758 0.00976562 -0.829102c0 -1.83301 -0.125977 -3.70996 -0.125977 -5.49316c0 -4.58496 0.831055 -8.54883 6.7666 -9.53516c9.4502 -1.57031 17.4316 -2.40137 23.9717 -2.40137c9.26758 0 15.6426 1.66797 19.2061 5.26172
c4.61719 5.82031 6.05078 12.4482 6.05078 20.4463c0 3.52148 -0.277344 7.30762 -0.68457 11.4072z" />
    <glyph glyph-name="mensuralSemiminimaBlack" unicode="&#xe955;" horiz-adv-x="170" 
d="M92 161c39 -67 62 -119 78 -164c-24 -69 -61 -119 -90 -156v4c0 40 -51 107 -80 154c38 52 60 94 92 162zM91.5049 124.998c-6.77441 0.0185547 -8.79395 3.95508 -8.79395 10.5664c0 0.223633 0.00195312 0.449219 0.00683594 0.678711
c1.58691 80.6133 2.60938 161.858 2.60938 231.157c0 60.1074 -0.769531 120.631 -2.60938 189.677c-0.0117188 0.449219 -0.0166016 0.898438 -0.0166016 1.34668c0 1.0957 0.0253906 2.18359 0.0253906 3.24219c0 4.35547 -0.428711 8.2207 -4.82227 10.124
c-10.0283 4.34473 -24.5273 10.6895 -32.5693 15.0361c3.6582 -1.53809 16.7051 -5.98438 31.54 -9.58887c1.33203 -0.323242 2.37207 -0.551758 3.18164 -0.551758c1.87305 0 2.50879 1.22168 2.66113 5.30762c0.193359 5.18945 0.279297 11.2656 0.279297 17.8857
c0 36.4141 -2.60352 89.3135 -4.31641 101.864c-0.442383 3.23828 -0.84082 7.66992 -0.84082 11.918c0 6.91602 1.05566 13.3447 4.69434 13.3447c0.773438 0 1.66406 -0.291016 2.68555 -0.928711c21.1113 -13.1836 43.5322 -40.708 69.3652 -82.5742
c10.6396 -16.7656 18.5723 -33.5303 18.5723 -50.2949c0 -20.1191 -6.65039 -31.8535 -19.9502 -36.8828c-2.94727 -1.06152 -6.55176 -1.61914 -10.9121 -1.61914c-8.16602 0 -18.9854 1.95508 -33.1152 6.21484c-1.0498 0.316406 -1.93652 0.458984 -2.68652 0.458984
c-3.55078 0 -4.02246 -3.20312 -4.02246 -6.36426c0 -0.896484 0.0380859 -1.79004 0.0546875 -2.60547c0.942383 -47.1738 1.31152 -92.8672 1.31152 -138.18c0 -83.917 -1.26562 -179.028 -2.49902 -267.32c-0.0126953 -0.866211 -0.0195312 -9.2207 -0.0195312 -10.0625
c0 -9.96094 -2.9248 -11.8496 -9.70801 -11.8496h-0.105469zM157.244 603.267c-2.5293 15.9453 -18.8008 39.4736 -51.4688 69.1436c-1.22168 1.10938 -2.16602 1.55176 -2.89258 1.55176c-1.83691 0 -2.27832 -2.82617 -2.27832 -4.82324
c0 -0.259766 0.0078125 -0.504883 0.0205078 -0.728516c1.10449 -19.2852 1.27734 -34.4062 1.27734 -48.0693c0 -6.21875 -0.0361328 -12.1357 -0.0361328 -18.0059c0 -5.93457 0.0371094 -11.8223 0.183594 -17.9248
c0.00683594 -0.275391 0.00976562 -0.551758 0.00976562 -0.829102c0 -1.83301 -0.125977 -3.70996 -0.125977 -5.49316c0 -4.58496 0.831055 -8.54883 6.7666 -9.53516c9.4502 -1.57031 17.4316 -2.40137 23.9717 -2.40137c9.26758 0 15.6426 1.66797 19.2061 5.26172
c4.61719 5.82031 6.05078 12.4482 6.05078 20.4463c0 3.52148 -0.277344 7.30762 -0.68457 11.4072z" />
    <glyph glyph-name="p" unicode="p" horiz-adv-x="186" 
d="M186.1 5.0293c-11.9688 -16.7637 -39.8994 -63.7061 -81.1299 -139.147v-434.208c11.9707 -5.0293 22.6104 -10.0586 31.9209 -15.0898c-3.99023 1.67773 -14.6309 5.03125 -31.9209 10.0605v-152.561c-19.9502 6.70605 -43.8896 35.207 -74.4795 83.8232
c-10.6406 16.7656 -15.96 33.5303 -15.96 50.2949c0 20.1191 6.65039 31.8535 19.9502 36.8828c9.30957 3.35254 26.5996 1.67676 51.8691 -6.70508v422.472c-13.2998 30.1768 -42.5596 77.1191 -86.4492 139.148c21.2803 38.5596 54.5303 92.207 98.4189 164.296z
M86.3496 -675.622v107.296c-26.5996 5.0293 -43.8896 5.0293 -50.54 -1.67676c-6.64941 -8.38184 -9.30957 -18.4414 -7.97949 -31.8535c2.66016 -16.7646 22.6104 -41.9121 58.5195 -73.7656z" />
    <glyph glyph-name="p" unicode="&#xf070;" horiz-adv-x="186" 
d="M186.1 5.0293c-11.9688 -16.7637 -39.8994 -63.7061 -81.1299 -139.147v-434.208c11.9707 -5.0293 22.6104 -10.0586 31.9209 -15.0898c-3.99023 1.67773 -14.6309 5.03125 -31.9209 10.0605v-152.561c-19.9502 6.70605 -43.8896 35.207 -74.4795 83.8232
c-10.6406 16.7656 -15.96 33.5303 -15.96 50.2949c0 20.1191 6.65039 31.8535 19.9502 36.8828c9.30957 3.35254 26.5996 1.67676 51.8691 -6.70508v422.472c-13.2998 30.1768 -42.5596 77.1191 -86.4492 139.148c21.2803 38.5596 54.5303 92.207 98.4189 164.296z
M86.3496 -675.622v107.296c-26.5996 5.0293 -43.8896 5.0293 -50.54 -1.67676c-6.64941 -8.38184 -9.30957 -18.4414 -7.97949 -31.8535c2.66016 -16.7646 22.6104 -41.9121 58.5195 -73.7656z" />
    <glyph glyph-name="q" unicode="q" horiz-adv-x="186" 
d="M86.3496 -570.003c-26.5996 5.03027 -43.8896 5.03027 -50.54 -1.67578c-6.64941 -8.38379 -9.30957 -18.4424 -7.97949 -31.8545c2.66016 -16.7646 22.6104 -41.9121 58.5195 -73.7646v107.295zM30.4902 -643.769c-10.6406 16.7646 -15.96 33.5293 -15.96 50.2939
c0 20.1191 6.65039 31.8545 19.9502 36.8838c9.30957 3.35254 26.5996 1.67578 51.8691 -6.70605v424.148c-13.2998 30.1768 -42.5596 77.1191 -86.4492 139.148c19.9492 33.5303 47.8799 82.1475 86.4492 145.853v570.004c5.32031 10.0596 11.9697 11.7363 18.6201 5.03027
v-566.65l81.1299 -149.207c-11.9688 -16.7637 -39.8994 -63.7061 -81.1299 -139.147v-435.885c11.9707 -5.0293 22.6104 -10.0596 31.9209 -15.0889c-3.99023 1.67578 -14.6309 5.0293 -31.9209 10.0596v-154.236c-15.96 1.67578 -41.2295 30.1777 -74.4795 85.5z" />
    <glyph glyph-name="q" unicode="&#xf071;" horiz-adv-x="186" 
d="M86.3496 -570.003c-26.5996 5.03027 -43.8896 5.03027 -50.54 -1.67578c-6.64941 -8.38379 -9.30957 -18.4424 -7.97949 -31.8545c2.66016 -16.7646 22.6104 -41.9121 58.5195 -73.7646v107.295zM30.4902 -643.769c-10.6406 16.7646 -15.96 33.5293 -15.96 50.2939
c0 20.1191 6.65039 31.8545 19.9502 36.8838c9.30957 3.35254 26.5996 1.67578 51.8691 -6.70605v424.148c-13.2998 30.1768 -42.5596 77.1191 -86.4492 139.148c19.9492 33.5303 47.8799 82.1475 86.4492 145.853v570.004c5.32031 10.0596 11.9697 11.7363 18.6201 5.03027
v-566.65l81.1299 -149.207c-11.9688 -16.7637 -39.8994 -63.7061 -81.1299 -139.147v-435.885c11.9707 -5.0293 22.6104 -10.0596 31.9209 -15.0889c-3.99023 1.67578 -14.6309 5.0293 -31.9209 10.0596v-154.236c-15.96 1.67578 -41.2295 30.1777 -74.4795 85.5z" />
    <glyph glyph-name="r" unicode="r" horiz-adv-x="186" 
d="M99.6504 -570.003v-107.295c35.9092 31.8525 55.8594 57 58.5195 73.7646c1.33008 13.4121 -1.33008 23.4707 -7.97949 31.8545c-6.65039 6.70605 -23.9404 6.70605 -50.54 1.67578zM155.51 -643.769c-33.25 -55.3223 -58.5195 -83.8242 -74.4795 -85.5v154.236
c-17.29 -5.03027 -27.9307 -8.38379 -31.9209 -10.0596c9.31055 5.0293 19.9502 10.0596 31.9209 15.0889v435.885c-41.2305 75.4414 -69.1602 122.384 -81.1299 139.147l81.1299 149.207v566.65c6.65039 6.70605 13.2998 5.0293 18.6201 -5.03027v-570.004
c38.5693 -63.7051 66.5 -112.322 86.4492 -145.853c-43.8896 -62.0293 -73.1494 -108.972 -86.4492 -139.148v-424.148c25.2695 8.38184 42.5596 10.0586 51.8691 6.70605c13.2998 -5.0293 19.9502 -16.7646 19.9502 -36.8838c0 -16.7646 -5.31934 -33.5293 -15.96 -50.2939
z" />
    <glyph glyph-name="r" unicode="&#xf072;" horiz-adv-x="186" 
d="M99.6504 -570.003v-107.295c35.9092 31.8525 55.8594 57 58.5195 73.7646c1.33008 13.4121 -1.33008 23.4707 -7.97949 31.8545c-6.65039 6.70605 -23.9404 6.70605 -50.54 1.67578zM155.51 -643.769c-33.25 -55.3223 -58.5195 -83.8242 -74.4795 -85.5v154.236
c-17.29 -5.03027 -27.9307 -8.38379 -31.9209 -10.0596c9.31055 5.0293 19.9502 10.0596 31.9209 15.0889v435.885c-41.2305 75.4414 -69.1602 122.384 -81.1299 139.147l81.1299 149.207v566.65c6.65039 6.70605 13.2998 5.0293 18.6201 -5.03027v-570.004
c38.5693 -63.7051 66.5 -112.322 86.4492 -145.853c-43.8896 -62.0293 -73.1494 -108.972 -86.4492 -139.148v-424.148c25.2695 8.38184 42.5596 10.0586 51.8691 6.70605c13.2998 -5.0293 19.9502 -16.7646 19.9502 -36.8838c0 -16.7646 -5.31934 -33.5293 -15.96 -50.2939
z" />
    <glyph glyph-name="s" unicode="s" horiz-adv-x="186" 
d="M186.1 0c-22.6094 -30.1777 -50.54 -77.1172 -86.4492 -139.148v-424.148c25.2695 8.38184 42.5596 10.0586 51.8691 6.70605c13.2998 -5.0293 19.9502 -16.7646 19.9502 -36.8838c0 -16.7646 -5.31934 -33.5293 -15.96 -50.2939
c-33.25 -55.3223 -58.5195 -83.8242 -74.4795 -85.5v154.236c-11.9707 -3.35254 -22.6104 -6.70605 -31.9209 -10.0596c3.99023 1.67578 14.6309 6.70703 31.9209 15.0889v435.885c-15.9609 31.8525 -42.5605 77.1172 -81.1299 139.147
c13.2998 23.4697 39.8994 70.4121 81.1299 139.147v425.826c-11.9707 5.0293 -22.6104 10.0596 -31.9209 15.0889c3.99023 -1.67578 14.6309 -5.0293 31.9209 -10.0596v154.236c15.96 -1.67578 41.2295 -30.1777 74.4795 -85.5
c10.6406 -16.7646 15.96 -33.5293 15.96 -50.2939c0 -20.1191 -6.65039 -31.8545 -19.9502 -36.8838c-9.30957 -3.35254 -26.5996 -1.67578 -51.8691 6.70605v-424.148c18.6191 -31.8535 47.8799 -77.1191 86.4492 -139.148zM158.17 613.592
c-2.66016 16.7637 -22.6104 41.9121 -58.5195 73.7646v-107.294c26.5996 -5.03027 43.8896 -5.03027 50.54 1.67578c6.64941 8.38281 9.30957 18.4424 7.97949 31.8535zM158.17 -603.533c1.33008 13.4121 -1.33008 23.4707 -7.97949 30.1777
c-6.65039 8.38281 -23.9404 8.38281 -50.54 3.35254v-107.295c10.6396 8.38184 19.9492 18.4404 27.9297 26.8232c18.6201 20.1191 29.2598 35.207 30.5898 46.9414z" />
    <glyph glyph-name="s" unicode="&#xf073;" horiz-adv-x="186" 
d="M186.1 0c-22.6094 -30.1777 -50.54 -77.1172 -86.4492 -139.148v-424.148c25.2695 8.38184 42.5596 10.0586 51.8691 6.70605c13.2998 -5.0293 19.9502 -16.7646 19.9502 -36.8838c0 -16.7646 -5.31934 -33.5293 -15.96 -50.2939
c-33.25 -55.3223 -58.5195 -83.8242 -74.4795 -85.5v154.236c-11.9707 -3.35254 -22.6104 -6.70605 -31.9209 -10.0596c3.99023 1.67578 14.6309 6.70703 31.9209 15.0889v435.885c-15.9609 31.8525 -42.5605 77.1172 -81.1299 139.147
c13.2998 23.4697 39.8994 70.4121 81.1299 139.147v425.826c-11.9707 5.0293 -22.6104 10.0596 -31.9209 15.0889c3.99023 -1.67578 14.6309 -5.0293 31.9209 -10.0596v154.236c15.96 -1.67578 41.2295 -30.1777 74.4795 -85.5
c10.6406 -16.7646 15.96 -33.5293 15.96 -50.2939c0 -20.1191 -6.65039 -31.8545 -19.9502 -36.8838c-9.30957 -3.35254 -26.5996 -1.67578 -51.8691 6.70605v-424.148c18.6191 -31.8535 47.8799 -77.1191 86.4492 -139.148zM158.17 613.592
c-2.66016 16.7637 -22.6104 41.9121 -58.5195 73.7646v-107.294c26.5996 -5.03027 43.8896 -5.03027 50.54 1.67578c6.64941 8.38281 9.30957 18.4424 7.97949 31.8535zM158.17 -603.533c1.33008 13.4121 -1.33008 23.4707 -7.97949 30.1777
c-6.65039 8.38281 -23.9404 8.38281 -50.54 3.35254v-107.295c10.6396 8.38184 19.9492 18.4404 27.9297 26.8232c18.6201 20.1191 29.2598 35.207 30.5898 46.9414z" />
    <glyph glyph-name="semibrevisSquareStemUpLeftBlack" unicode="t" horiz-adv-x="172" 
d="M-4.5 557.669c0 5.0498 4 8.0791 10 8.0791c9 0 16 -3.0293 16 -11.1094c0 -30.2988 -2 -21.5088 -3 -57.8672c-2.91211 -71.332 -4.4761 -251.911 -5.55701 -397.661c0 -4.45622 1.61245 -6.57204 5.29753 -6.57204c15.2425 0 34.1351 1.71155 56.2595 1.71155h12
c14 0 29 0 43 -0.75c12.0244 -0.644531 23 -0.75 34 -0.75c9 0 9 -8 9 -15v-20.75c0 -24 -1 -50 -1 -76c0 -21 1 -53 1 -64c0 -9 -6 -11 -17 -11c-17 0 -45 3 -66 3c-10 0 -17 1 -27 1h-8c-18 0 -35.5188 -0.289877 -43 -2.3125
c-3.31295 -0.89569 -5.06836 -1.1875 -7.25 -1.1875c-3.94273 0 -5.75058 4.21984 -5.75 7.81738c0.974893 90.9001 1 181.795 1 288.852c0 116.146 0 236.333 -2 339.351c0 2.01953 -1 5.0498 -1 7.06934c0 2.02051 -1 6.05957 -1 8.08008z" />
    <glyph glyph-name="semibrevisSquareStemUpLeftBlack" unicode="&#xf074;" horiz-adv-x="172" 
d="M-4.5 557.669c0 5.0498 4 8.0791 10 8.0791c9 0 16 -3.0293 16 -11.1094c0 -30.2988 -2 -21.5088 -3 -57.8672c-2.91211 -71.332 -4.4761 -251.911 -5.55701 -397.661c0 -4.45622 1.61245 -6.57204 5.29753 -6.57204c15.2425 0 34.1351 1.71155 56.2595 1.71155h12
c14 0 29 0 43 -0.75c12.0244 -0.644531 23 -0.75 34 -0.75c9 0 9 -8 9 -15v-20.75c0 -24 -1 -50 -1 -76c0 -21 1 -53 1 -64c0 -9 -6 -11 -17 -11c-17 0 -45 3 -66 3c-10 0 -17 1 -27 1h-8c-18 0 -35.5188 -0.289877 -43 -2.3125
c-3.31295 -0.89569 -5.06836 -1.1875 -7.25 -1.1875c-3.94273 0 -5.75058 4.21984 -5.75 7.81738c0.974893 90.9001 1 181.795 1 288.852c0 116.146 0 236.333 -2 339.351c0 2.01953 -1 5.0498 -1 7.06934c0 2.02051 -1 6.05957 -1 8.08008z" />
    <glyph glyph-name="semibrevisSquareStemUpLeftBlack" unicode="&#xf708;" horiz-adv-x="172" 
d="M-4.5 557.669c0 5.0498 4 8.0791 10 8.0791c9 0 16 -3.0293 16 -11.1094c0 -30.2988 -2 -21.5088 -3 -57.8672c-2.91211 -71.332 -4.4761 -251.911 -5.55701 -397.661c0 -4.45622 1.61245 -6.57204 5.29753 -6.57204c15.2425 0 34.1351 1.71155 56.2595 1.71155h12
c14 0 29 0 43 -0.75c12.0244 -0.644531 23 -0.75 34 -0.75c9 0 9 -8 9 -15v-20.75c0 -24 -1 -50 -1 -76c0 -21 1 -53 1 -64c0 -9 -6 -11 -17 -11c-17 0 -45 3 -66 3c-10 0 -17 1 -27 1h-8c-18 0 -35.5188 -0.289877 -43 -2.3125
c-3.31295 -0.89569 -5.06836 -1.1875 -7.25 -1.1875c-3.94273 0 -5.75058 4.21984 -5.75 7.81738c0.974893 90.9001 1 181.795 1 288.852c0 116.146 0 236.333 -2 339.351c0 2.01953 -1 5.0498 -1 7.06934c0 2.02051 -1 6.05957 -1 8.08008z" />
    <glyph glyph-name="clivisInitial2Black" unicode="y" horiz-adv-x="170" 
d="M169.75 -19c0 -21 1 -53 1 -64c0 -9 -6 -11 -17 -11c-17 0 -45 3 -66 3c-10 0 -17 1 -27 1h-8c-18 0 -38 0 -46 -3c-3 -1 -3 -2 -3 -2h-1c-4 0 -5 4 -5 11v2c0 28 2 55 2 83c0 24 -1 56.75 -2 82.75c0 6 2 8 6 8c16 1 40 2.5 69 2.5h12c14 0 29 0 43 -0.75
c12.0244 -0.644531 23 -0.75 34 -0.75c9 0 9 -8 9 -15v-20.75c0 -24 -1 -50 -1 -76zM-5.74316 -339.337c0 1.29004 0.834961 3.87012 0.834961 5.16113s0.835938 3.22559 0.835938 4.5166c1.66992 65.8057 1.66992 158.064 1.66992 232.258v1.19531
c0 67.9219 -0.00195312 126.4 -0.833008 184.126c0.0791016 3.2168 3.55078 3.70996 6.05664 3.70996c3.4502 0 5.63867 -0.600586 5.63867 -2.41895c0 -5.78613 -0.00195312 -8.38574 -0.00195312 -14.8369c0 -114.193 0.189453 -297.864 1.25293 -360.485
c0.395508 -23.3115 2.30371 -34.4951 3.55664 -51.5664c0.0166016 -0.225586 0.0244141 -0.443359 0.0244141 -0.655273c0 -4.45508 -3.63477 -6.16504 -10.6816 -6.16504c-5.0127 0 -8.35352 1.93457 -8.35352 5.16113z" />
    <glyph glyph-name="clivisInitial2Black" unicode="&#xf079;" horiz-adv-x="170" 
d="M169.75 -19c0 -21 1 -53 1 -64c0 -9 -6 -11 -17 -11c-17 0 -45 3 -66 3c-10 0 -17 1 -27 1h-8c-18 0 -38 0 -46 -3c-3 -1 -3 -2 -3 -2h-1c-4 0 -5 4 -5 11v2c0 28 2 55 2 83c0 24 -1 56.75 -2 82.75c0 6 2 8 6 8c16 1 40 2.5 69 2.5h12c14 0 29 0 43 -0.75
c12.0244 -0.644531 23 -0.75 34 -0.75c9 0 9 -8 9 -15v-20.75c0 -24 -1 -50 -1 -76zM-5.74316 -339.337c0 1.29004 0.834961 3.87012 0.834961 5.16113s0.835938 3.22559 0.835938 4.5166c1.66992 65.8057 1.66992 158.064 1.66992 232.258v1.19531
c0 67.9219 -0.00195312 126.4 -0.833008 184.126c0.0791016 3.2168 3.55078 3.70996 6.05664 3.70996c3.4502 0 5.63867 -0.600586 5.63867 -2.41895c0 -5.78613 -0.00195312 -8.38574 -0.00195312 -14.8369c0 -114.193 0.189453 -297.864 1.25293 -360.485
c0.395508 -23.3115 2.30371 -34.4951 3.55664 -51.5664c0.0166016 -0.225586 0.0244141 -0.443359 0.0244141 -0.655273c0 -4.45508 -3.63477 -6.16504 -10.6816 -6.16504c-5.0127 0 -8.35352 1.93457 -8.35352 5.16113z" />
    <glyph glyph-name="clivisInitial3Black" unicode="z" horiz-adv-x="170" 
d="M170 -19c0 -21 1 -53 1 -64c0 -9 -6 -11 -17 -11c-17 0 -45 3 -66 3c-10 0 -17 1 -27 1h-8c-18 0 -38 0 -46 -3c-3 -1 -3 -2 -3 -2h-1c-4 0 -5 4 -5 11v2c0 28 2 55 2 83c0 24 -1 56.75 -2 82.75c0 6 2 8 6 8c16 1 40 2.5 69 2.5h12c14 0 29 0 43 -0.75
c12.0244 -0.644531 23 -0.75 34 -0.75c9 0 9 -8 9 -15v-20.75c0 -24 -1 -50 -1 -76zM-5.72461 -464.341c0 1.66504 0.910156 4.99414 0.910156 6.6582c0 1.66602 0.90918 4.16309 0.90918 5.82715c1.81934 84.8936 1.81934 203.912 1.81934 299.625v1.54102
c0 87.623 -0.00292969 163.063 -0.907227 237.533c0.0859375 4.14941 3.86523 4.78516 6.59375 4.78516c3.75586 0 6.13867 -0.774414 6.13867 -3.12109c0 -7.46387 -0.00292969 -10.8174 -0.00292969 -19.1396c0 -147.315 0.207031 -384.261 1.36426 -465.044
c0.430664 -30.0742 2.50879 -44.5 3.87305 -66.5244c0.0175781 -0.290039 0.0263672 -0.571289 0.0263672 -0.844727c0 -5.74707 -3.95801 -7.9541 -11.6299 -7.9541c-5.45605 0 -9.09473 2.49707 -9.09473 6.6582z" />
    <glyph glyph-name="clivisInitial3Black" unicode="&#xf07a;" horiz-adv-x="170" 
d="M170 -19c0 -21 1 -53 1 -64c0 -9 -6 -11 -17 -11c-17 0 -45 3 -66 3c-10 0 -17 1 -27 1h-8c-18 0 -38 0 -46 -3c-3 -1 -3 -2 -3 -2h-1c-4 0 -5 4 -5 11v2c0 28 2 55 2 83c0 24 -1 56.75 -2 82.75c0 6 2 8 6 8c16 1 40 2.5 69 2.5h12c14 0 29 0 43 -0.75
c12.0244 -0.644531 23 -0.75 34 -0.75c9 0 9 -8 9 -15v-20.75c0 -24 -1 -50 -1 -76zM-5.72461 -464.341c0 1.66504 0.910156 4.99414 0.910156 6.6582c0 1.66602 0.90918 4.16309 0.90918 5.82715c1.81934 84.8936 1.81934 203.912 1.81934 299.625v1.54102
c0 87.623 -0.00292969 163.063 -0.907227 237.533c0.0859375 4.14941 3.86523 4.78516 6.59375 4.78516c3.75586 0 6.13867 -0.774414 6.13867 -3.12109c0 -7.46387 -0.00292969 -10.8174 -0.00292969 -19.1396c0 -147.315 0.207031 -384.261 1.36426 -465.044
c0.430664 -30.0742 2.50879 -44.5 3.87305 -66.5244c0.0175781 -0.290039 0.0263672 -0.571289 0.0263672 -0.844727c0 -5.74707 -3.95801 -7.9541 -11.6299 -7.9541c-5.45605 0 -9.09473 2.49707 -9.09473 6.6582z" />
    <glyph glyph-name="clivisInitial4Black" unicode="{" horiz-adv-x="170" 
d="M-5.33984 -586.143c0 2.02734 0.892578 5.08008 1.14258 7.10742c0.248047 2.01172 0.642578 6.06738 0.642578 8.09375c1.78516 103.362 1.78516 248.774 1.78516 365.311v1.87598c0 106.686 -0.00292969 198.538 -0.890625 289.209
c0.0859375 5.05273 3.79395 5.82715 6.47168 5.82715c3.68652 0 6.02539 -0.943359 6.02539 -3.80078c0 -9.08789 -0.00292969 -13.1699 -0.00292969 -23.3037c0 -179.365 0.203125 -482.858 1.33887 -581.216c0.427734 -37.0586 3.82715 -47.6006 3.82715 -67.5176
c0 -6.14453 -3.88477 -7.69238 -11.4141 -7.69238c-5.35547 0 -8.92578 1.54004 -8.92578 6.10645zM170.5 -19c0 -21 1 -53 1 -64c0 -9 -6 -11 -17 -11c-17 0 -45 3 -66 3c-10 0 -17 1 -27 1h-8c-18 0 -38 0 -46 -3c-3 -1 -3 -2 -3 -2h-1c-4 0 -5 4 -5 11v2c0 28 2 55 2 83
c0 24 -1 56.75 -2 82.75c0 6 2 8 6 8c16 1 40 2.5 69 2.5h12c14 0 29 0 43 -0.75c12.0244 -0.644531 23 -0.75 34 -0.75c9 0 9 -8 9 -15v-20.75c0 -24 -1 -50 -1 -76z" />
    <glyph glyph-name="clivisInitial4Black" unicode="&#xf07b;" horiz-adv-x="170" 
d="M-5.33984 -586.143c0 2.02734 0.892578 5.08008 1.14258 7.10742c0.248047 2.01172 0.642578 6.06738 0.642578 8.09375c1.78516 103.362 1.78516 248.774 1.78516 365.311v1.87598c0 106.686 -0.00292969 198.538 -0.890625 289.209
c0.0859375 5.05273 3.79395 5.82715 6.47168 5.82715c3.68652 0 6.02539 -0.943359 6.02539 -3.80078c0 -9.08789 -0.00292969 -13.1699 -0.00292969 -23.3037c0 -179.365 0.203125 -482.858 1.33887 -581.216c0.427734 -37.0586 3.82715 -47.6006 3.82715 -67.5176
c0 -6.14453 -3.88477 -7.69238 -11.4141 -7.69238c-5.35547 0 -8.92578 1.54004 -8.92578 6.10645zM170.5 -19c0 -21 1 -53 1 -64c0 -9 -6 -11 -17 -11c-17 0 -45 3 -66 3c-10 0 -17 1 -27 1h-8c-18 0 -38 0 -46 -3c-3 -1 -3 -2 -3 -2h-1c-4 0 -5 4 -5 11v2c0 28 2 55 2 83
c0 24 -1 56.75 -2 82.75c0 6 2 8 6 8c16 1 40 2.5 69 2.5h12c14 0 29 0 43 -0.75c12.0244 -0.644531 23 -0.75 34 -0.75c9 0 9 -8 9 -15v-20.75c0 -24 -1 -50 -1 -76z" />
    <glyph glyph-name="clivisInitial4Black" unicode="&#xf709;" horiz-adv-x="170" 
d="M-5.33984 -586.143c0 2.02734 0.892578 5.08008 1.14258 7.10742c0.248047 2.01172 0.642578 6.06738 0.642578 8.09375c1.78516 103.362 1.78516 248.774 1.78516 365.311v1.87598c0 106.686 -0.00292969 198.538 -0.890625 289.209
c0.0859375 5.05273 3.79395 5.82715 6.47168 5.82715c3.68652 0 6.02539 -0.943359 6.02539 -3.80078c0 -9.08789 -0.00292969 -13.1699 -0.00292969 -23.3037c0 -179.365 0.203125 -482.858 1.33887 -581.216c0.427734 -37.0586 3.82715 -47.6006 3.82715 -67.5176
c0 -6.14453 -3.88477 -7.69238 -11.4141 -7.69238c-5.35547 0 -8.92578 1.54004 -8.92578 6.10645zM170.5 -19c0 -21 1 -53 1 -64c0 -9 -6 -11 -17 -11c-17 0 -45 3 -66 3c-10 0 -17 1 -27 1h-8c-18 0 -38 0 -46 -3c-3 -1 -3 -2 -3 -2h-1c-4 0 -5 4 -5 11v2c0 28 2 55 2 83
c0 24 -1 56.75 -2 82.75c0 6 2 8 6 8c16 1 40 2.5 69 2.5h12c14 0 29 0 43 -0.75c12.0244 -0.644531 23 -0.75 34 -0.75c9 0 9 -8 9 -15v-20.75c0 -24 -1 -50 -1 -76z" />
    <glyph glyph-name="clivisInitial5Black" unicode="|" horiz-adv-x="170" 
d="M-4.74512 -710.661c0 2.39746 0.538086 5.7041 0.786133 8.08789c0.25 2.39844 0.787109 5.99414 0.787109 8.39062c1.57422 122.248 1.57422 296.387 1.57422 434.216v2.21875c0 126.179 -0.00195312 234.814 -0.785156 342.052
c0.0751953 5.97559 3.34473 6.8916 5.70508 6.8916c3.24902 0 5.31152 -1.11621 5.31152 -4.49512c0 -10.749 -0.00195312 -15.5771 -0.00195312 -27.5615c0 -212.138 0.178711 -578.342 1.17871 -694.672c0.376953 -43.7656 3.37398 -46.9492 3.37398 -72.0149
c0 -8.27482 -3.42487 -11.451 -10.0615 -11.451c-4.7207 0 -7.86816 2.3457 -7.86816 8.33789zM170.5 -19c0 -21 1 -53 1 -64c0 -9 -6 -11 -17 -11c-17 0 -45 3 -66 3c-10 0 -17 1 -27 1h-8c-18 0 -38 0 -46 -3c-3 -1 -3 -2 -3 -2h-1c-4 0 -5 4 -5 11v2c0 28 2 55 2 83
c0 24 -1 56.75 -2 82.75c0 6 2 8 6 8c16 1 40 2.5 69 2.5h12c14 0 29 0 43 -0.75c12.0244 -0.644531 23 -0.75 34 -0.75c9 0 9 -8 9 -15v-20.75c0 -24 -1 -50 -1 -76z" />
    <glyph glyph-name="clivisInitial5Black" unicode="&#xf07c;" horiz-adv-x="170" 
d="M-4.74512 -710.661c0 2.39746 0.538086 5.7041 0.786133 8.08789c0.25 2.39844 0.787109 5.99414 0.787109 8.39062c1.57422 122.248 1.57422 296.387 1.57422 434.216v2.21875c0 126.179 -0.00195312 234.814 -0.785156 342.052
c0.0751953 5.97559 3.34473 6.8916 5.70508 6.8916c3.24902 0 5.31152 -1.11621 5.31152 -4.49512c0 -10.749 -0.00195312 -15.5771 -0.00195312 -27.5615c0 -212.138 0.178711 -578.342 1.17871 -694.672c0.376953 -43.7656 3.37398 -46.9492 3.37398 -72.0149
c0 -8.27482 -3.42487 -11.451 -10.0615 -11.451c-4.7207 0 -7.86816 2.3457 -7.86816 8.33789zM170.5 -19c0 -21 1 -53 1 -64c0 -9 -6 -11 -17 -11c-17 0 -45 3 -66 3c-10 0 -17 1 -27 1h-8c-18 0 -38 0 -46 -3c-3 -1 -3 -2 -3 -2h-1c-4 0 -5 4 -5 11v2c0 28 2 55 2 83
c0 24 -1 56.75 -2 82.75c0 6 2 8 6 8c16 1 40 2.5 69 2.5h12c14 0 29 0 43 -0.75c12.0244 -0.644531 23 -0.75 34 -0.75c9 0 9 -8 9 -15v-20.75c0 -24 -1 -50 -1 -76z" />
    <glyph glyph-name="clivisInitial6Black" unicode="}" horiz-adv-x="170" 
d="M-4.24512 -836.411c0 2.39746 0.538086 6.4541 0.786133 8.83789c0.249576 2.39848 0.287109 7.74414 0.287109 10.1406c1.57422 122.248 1.57422 419.637 1.57422 557.466v2.21875c0 126.179 -0.00195312 234.814 -0.785156 342.052
c0.0751953 5.97559 3.34473 6.8916 5.70508 6.8916c3.24902 0 5.31152 -1.11621 5.31152 -4.49512c0 -10.749 -0.00195312 -15.5771 -0.00195312 -27.5615c0 -212.138 0.0481474 -708.843 1.17871 -825.172c0.379883 -39.0879 3.37245 -45.6908 3.37245 -64.8127
c0 -8.17203 -2.93742 -10.6532 -9.55995 -10.6532c-4.7207 0 -7.86816 0.845703 -7.86816 5.08789zM170.5 -19c0 -21 1 -53 1 -64c0 -9 -6 -11 -17 -11c-17 0 -45 3 -66 3c-10 0 -17 1 -27 1h-8c-18 0 -38 0 -46 -3c-3 -1 -3 -2 -3 -2h-1c-4 0 -5 4 -5 11v2c0 28 2 55 2 83
c0 24 -1 56.75 -2 82.75c0 6 2 8 6 8c16 1 40 2.5 69 2.5h12c14 0 29 0 43 -0.75c12.0244 -0.644531 23 -0.75 34 -0.75c9 0 9 -8 9 -15v-20.75c0 -24 -1 -50 -1 -76z" />
    <glyph glyph-name="clivisInitial6Black" unicode="&#xf07d;" horiz-adv-x="170" 
d="M-4.24512 -836.411c0 2.39746 0.538086 6.4541 0.786133 8.83789c0.249576 2.39848 0.287109 7.74414 0.287109 10.1406c1.57422 122.248 1.57422 419.637 1.57422 557.466v2.21875c0 126.179 -0.00195312 234.814 -0.785156 342.052
c0.0751953 5.97559 3.34473 6.8916 5.70508 6.8916c3.24902 0 5.31152 -1.11621 5.31152 -4.49512c0 -10.749 -0.00195312 -15.5771 -0.00195312 -27.5615c0 -212.138 0.0481474 -708.843 1.17871 -825.172c0.379883 -39.0879 3.37245 -45.6908 3.37245 -64.8127
c0 -8.17203 -2.93742 -10.6532 -9.55995 -10.6532c-4.7207 0 -7.86816 0.845703 -7.86816 5.08789zM170.5 -19c0 -21 1 -53 1 -64c0 -9 -6 -11 -17 -11c-17 0 -45 3 -66 3c-10 0 -17 1 -27 1h-8c-18 0 -38 0 -46 -3c-3 -1 -3 -2 -3 -2h-1c-4 0 -5 4 -5 11v2c0 28 2 55 2 83
c0 24 -1 56.75 -2 82.75c0 6 2 8 6 8c16 1 40 2.5 69 2.5h12c14 0 29 0 43 -0.75c12.0244 -0.644531 23 -0.75 34 -0.75c9 0 9 -8 9 -15v-20.75c0 -24 -1 -50 -1 -76z" />
    <glyph glyph-name="clivisInitial7Black" unicode="~" horiz-adv-x="170" 
d="M-4.49512 -962.161c0 2.39746 0.788086 6.4541 1.03613 8.83789c0.25 2.39844 0.287109 7.74414 0.287109 10.1406c1.57422 122.248 1.57422 545.387 1.57422 683.216v2.21875c0 126.179 -0.00195312 234.814 -0.785156 342.052
c0.0751953 5.97559 3.34473 6.8916 5.70508 6.8916c3.24902 0 5.31152 -1.11621 5.31152 -4.49512c0 -10.749 -0.00195312 -15.5771 -0.00195312 -27.5615c0 -11.0308 -8.987e-05 -23.1711 -8.987e-05 -36.2919c0 -239.211 0.0298712 -804.351 1.1788 -914.63
c0.380643 -36.5358 3.37608 -49.818 3.37608 -64.899c0 -8.10234 -2.96446 -10.5668 -9.56358 -10.5668c-4.7207 0 -8.11816 0.845703 -8.11816 5.08789zM170.5 -19c0 -21 1 -53 1 -64c0 -9 -6 -11 -17 -11c-17 0 -45 3 -66 3c-10 0 -17 1 -27 1h-8c-18 0 -38 0 -46 -3
c-3 -1 -3 -2 -3 -2h-1c-4 0 -5 4 -5 11v2c0 28 2 55 2 83c0 24 -1 56.75 -2 82.75c0 6 2 8 6 8c16 1 40 2.5 69 2.5h12c14 0 29 0 43 -0.75c12.0244 -0.644531 23 -0.75 34 -0.75c9 0 9 -8 9 -15v-20.75c0 -24 -1 -50 -1 -76z" />
    <glyph glyph-name="clivisInitial7Black" unicode="&#xf07e;" horiz-adv-x="170" 
d="M-4.49512 -962.161c0 2.39746 0.788086 6.4541 1.03613 8.83789c0.25 2.39844 0.287109 7.74414 0.287109 10.1406c1.57422 122.248 1.57422 545.387 1.57422 683.216v2.21875c0 126.179 -0.00195312 234.814 -0.785156 342.052
c0.0751953 5.97559 3.34473 6.8916 5.70508 6.8916c3.24902 0 5.31152 -1.11621 5.31152 -4.49512c0 -10.749 -0.00195312 -15.5771 -0.00195312 -27.5615c0 -11.0308 -8.987e-05 -23.1711 -8.987e-05 -36.2919c0 -239.211 0.0298712 -804.351 1.1788 -914.63
c0.380643 -36.5358 3.37608 -49.818 3.37608 -64.899c0 -8.10234 -2.96446 -10.5668 -9.56358 -10.5668c-4.7207 0 -8.11816 0.845703 -8.11816 5.08789zM170.5 -19c0 -21 1 -53 1 -64c0 -9 -6 -11 -17 -11c-17 0 -45 3 -66 3c-10 0 -17 1 -27 1h-8c-18 0 -38 0 -46 -3
c-3 -1 -3 -2 -3 -2h-1c-4 0 -5 4 -5 11v2c0 28 2 55 2 83c0 24 -1 56.75 -2 82.75c0 6 2 8 6 8c16 1 40 2.5 69 2.5h12c14 0 29 0 43 -0.75c12.0244 -0.644531 23 -0.75 34 -0.75c9 0 9 -8 9 -15v-20.75c0 -24 -1 -50 -1 -76z" />
    <glyph glyph-name="clivisFinal3rdBlack" unicode="&#xc7;" horiz-adv-x="169" 
d="M-3.55957 215.266v101.475v23.1943c1.7002 0.966797 3.39941 0.966797 5.9502 0.966797c1.69922 0 4.25 -0.966797 6.7998 -1.93359v-24.1602v-107.273v-78.2812v-86.0117v-72.2402v-30.9258v-15.4629c-1.7002 -0.966797 -3.40039 -1.93262 -5.10059 -1.93262h-2.5498
c-1.7002 0 -3.39941 0 -5.09961 1.93262v24.1602v105.1v55.0859v48.3213v57.9863zM168.25 -21c0 -21 1 -53 1 -64c0 -9 -6 -11 -17 -11c-17 0 -45 3 -66 3c-10 0 -17 1 -27 1h-8c-18 0 -38 0 -46 -3c-3 -1 -3 -2 -3 -2h-1c-4 0 -5 4 -5 11v2c0 28 2 55 2 83
c0 24 -1 56.75 -2 82.75c0 6 2 8 6 8c16 1 40 2.5 69 2.5h12c14 0 29 0 43 -0.75c12.0244 -0.644531 23 -0.75 34 -0.75c9 0 9 -8 9 -15v-20.75c0 -24 -1 -50 -1 -76z" />
    <glyph glyph-name="clivisFinal3rdBlack" unicode="&#xf082;" horiz-adv-x="169" 
d="M-3.55957 215.266v101.475v23.1943c1.7002 0.966797 3.39941 0.966797 5.9502 0.966797c1.69922 0 4.25 -0.966797 6.7998 -1.93359v-24.1602v-107.273v-78.2812v-86.0117v-72.2402v-30.9258v-15.4629c-1.7002 -0.966797 -3.40039 -1.93262 -5.10059 -1.93262h-2.5498
c-1.7002 0 -3.39941 0 -5.09961 1.93262v24.1602v105.1v55.0859v48.3213v57.9863zM168.25 -21c0 -21 1 -53 1 -64c0 -9 -6 -11 -17 -11c-17 0 -45 3 -66 3c-10 0 -17 1 -27 1h-8c-18 0 -38 0 -46 -3c-3 -1 -3 -2 -3 -2h-1c-4 0 -5 4 -5 11v2c0 28 2 55 2 83
c0 24 -1 56.75 -2 82.75c0 6 2 8 6 8c16 1 40 2.5 69 2.5h12c14 0 29 0 43 -0.75c12.0244 -0.644531 23 -0.75 34 -0.75c9 0 9 -8 9 -15v-20.75c0 -24 -1 -50 -1 -76z" />
    <glyph glyph-name="clivisFinal4thBlack" unicode="&#xc9;" horiz-adv-x="169" 
d="M-3.83008 464.972c1.90625 0.373047 3.99316 1.02832 6.44531 1.02832c1.98047 0 4.20117 -0.427734 6.75488 -1.77734v-76.2051v-124.926v-115.932v-149.161v-78.4541v-8.49512c-1.21484 -2.2998 -3.42383 -3.87207 -5.76953 -3.87207
c-2.75098 0 -5.69043 2.16602 -7.43066 7.87012v7.49609v98.4414v152.159v121.929v103.938v65.9609zM168 -20.333c0 -21 1 -53 1 -64c0 -9 -6 -11 -17 -11c-17 0 -45 3 -66 3c-10 0 -17 1 -27 1h-8c-18 0 -38 0 -46 -3c-3 -1 -3 -2 -3 -2h-1c-4 0 -5 4 -5 11v2
c0 28 2 55 2 83c0 24 -1 56.75 -2 82.75c0 6 2 8 6 8c16 1 40 2.5 69 2.5h12c14 0 29 0 43 -0.75c12.0244 -0.644531 23 -0.75 34 -0.75c9 0 9 -8 9 -15v-20.75c0 -24 -1 -50 -1 -76z" />
    <glyph glyph-name="clivisFinal4thBlack" unicode="&#xf083;" horiz-adv-x="169" 
d="M-3.83008 464.972c1.90625 0.373047 3.99316 1.02832 6.44531 1.02832c1.98047 0 4.20117 -0.427734 6.75488 -1.77734v-76.2051v-124.926v-115.932v-149.161v-78.4541v-8.49512c-1.21484 -2.2998 -3.42383 -3.87207 -5.76953 -3.87207
c-2.75098 0 -5.69043 2.16602 -7.43066 7.87012v7.49609v98.4414v152.159v121.929v103.938v65.9609zM168 -20.333c0 -21 1 -53 1 -64c0 -9 -6 -11 -17 -11c-17 0 -45 3 -66 3c-10 0 -17 1 -27 1h-8c-18 0 -38 0 -46 -3c-3 -1 -3 -2 -3 -2h-1c-4 0 -5 4 -5 11v2
c0 28 2 55 2 83c0 24 -1 56.75 -2 82.75c0 6 2 8 6 8c16 1 40 2.5 69 2.5h12c14 0 29 0 43 -0.75c12.0244 -0.644531 23 -0.75 34 -0.75c9 0 9 -8 9 -15v-20.75c0 -24 -1 -50 -1 -76z" />
    <glyph glyph-name="clivisFinal5thBlack" unicode="&#xd1;" horiz-adv-x="167" 
d="M-5.83984 588.492c1.90625 0.456055 3.99316 1.25781 6.44531 1.25781c1.98047 0 4.2002 -0.523438 6.75488 -2.17383v-91.7227v-152.821v-141.82v-182.469v-95.9727v-10.3916c-1.21484 -2.81348 -3.42383 -4.73828 -5.76953 -4.73828
c-2.75195 0 -5.69043 2.65137 -7.43066 9.62793v9.16992v120.423v186.138v149.155v127.147v79.1904zM166.25 -20.333c0 -21 1 -53 1 -64c0 -9 -6 -11 -17 -11c-17 0 -45 3 -66 3c-10 0 -17 1 -27 1h-8c-18 0 -38 0 -46 -3c-3 -1 -3 -2 -3 -2h-1c-4 0 -5 4 -5 11v2
c0 28 2 55 2 83c0 24 -1 56.75 -2 82.75c0 6 2 8 6 8c16 1 40 2.5 69 2.5h12c14 0 29 0 43 -0.75c12.0244 -0.644531 23 -0.75 34 -0.75c9 0 9 -8 9 -15v-20.75c0 -24 -1 -50 -1 -76z" />
    <glyph glyph-name="clivisFinal5thBlack" unicode="&#xf084;" horiz-adv-x="167" 
d="M-5.83984 588.492c1.90625 0.456055 3.99316 1.25781 6.44531 1.25781c1.98047 0 4.2002 -0.523438 6.75488 -2.17383v-91.7227v-152.821v-141.82v-182.469v-95.9727v-10.3916c-1.21484 -2.81348 -3.42383 -4.73828 -5.76953 -4.73828
c-2.75195 0 -5.69043 2.65137 -7.43066 9.62793v9.16992v120.423v186.138v149.155v127.147v79.1904zM166.25 -20.333c0 -21 1 -53 1 -64c0 -9 -6 -11 -17 -11c-17 0 -45 3 -66 3c-10 0 -17 1 -27 1h-8c-18 0 -38 0 -46 -3c-3 -1 -3 -2 -3 -2h-1c-4 0 -5 4 -5 11v2
c0 28 2 55 2 83c0 24 -1 56.75 -2 82.75c0 6 2 8 6 8c16 1 40 2.5 69 2.5h12c14 0 29 0 43 -0.75c12.0244 -0.644531 23 -0.75 34 -0.75c9 0 9 -8 9 -15v-20.75c0 -24 -1 -50 -1 -76z" />
    <glyph glyph-name="pesInitial3rdBlack" unicode="&#xe2;" 
d="M158.69 212.531v103.322v21.8662c2.05548 1.19007 4.61428 1.84062 7.96806 1.84062c1.43289 0 3.10937 -0.178953 4.78194 -0.824023v-24.8506v-109.227v-79.7061v-87.5781v-73.5557v-31.4883v-15.7441c-1.7002 -0.984375 -3.40039 -1.96875 -5.10059 -1.96875h-2.5498
c-1.7002 0 -3.39941 0 -5.09961 1.96875v24.6006v107.012v56.0898v49.2012v59.041zM170.5 -21c0 -21 1 -53 1 -64c0 -9 -6 -11 -17 -11c-17 0 -45 3 -66 3c-10 0 -17 1 -27 1h-8c-18 0 -38 0 -46 -3c-3 -1 -3 -2 -3 -2h-1c-4 0 -5 4 -5 11v2c0 28 2 55 2 83
c0 24 -1 56.75 -2 82.75c0 6 2 8 6 8c16 1 40 2.5 69 2.5h12c14 0 29 0 43 -0.75c12.0244 -0.644531 23 -0.75 34 -0.75c9 0 9 -8 9 -15v-20.75c0 -24 -1 -50 -1 -76z" />
    <glyph glyph-name="pesInitial3rdBlack" unicode="&#xf089;" 
d="M158.69 212.531v103.322v21.8662c2.05548 1.19007 4.61428 1.84062 7.96806 1.84062c1.43289 0 3.10937 -0.178953 4.78194 -0.824023v-24.8506v-109.227v-79.7061v-87.5781v-73.5557v-31.4883v-15.7441c-1.7002 -0.984375 -3.40039 -1.96875 -5.10059 -1.96875h-2.5498
c-1.7002 0 -3.39941 0 -5.09961 1.96875v24.6006v107.012v56.0898v49.2012v59.041zM170.5 -21c0 -21 1 -53 1 -64c0 -9 -6 -11 -17 -11c-17 0 -45 3 -66 3c-10 0 -17 1 -27 1h-8c-18 0 -38 0 -46 -3c-3 -1 -3 -2 -3 -2h-1c-4 0 -5 4 -5 11v2c0 28 2 55 2 83
c0 24 -1 56.75 -2 82.75c0 6 2 8 6 8c16 1 40 2.5 69 2.5h12c14 0 29 0 43 -0.75c12.0244 -0.644531 23 -0.75 34 -0.75c9 0 9 -8 9 -15v-20.75c0 -24 -1 -50 -1 -76z" />
    <glyph glyph-name="pesInitial4thBlack" unicode="&#xe4;" 
d="M156.25 462.471c2.16602 0.374023 4.53809 1.53027 7.32422 2.03027c2.21582 0.397461 6.71094 0.914062 9.61328 -0.438477c0.380859 -1.17285 0.525391 -2.45605 0.525391 -3.72363c0 -0.973633 -0.0849609 -1.93848 -0.212891 -2.83887
c-0.574219 -4.0332 -0.572266 -14.0625 -0.75 -17.917c-0.692383 -15.0293 -0.752077 -26.7901 -0.752077 -40.39c0 -2.85215 0.00263852 -5.81818 0.00263852 -8.95902c0 -0.775054 -0.000160669 -1.56075 -0.000561302 -2.35801l-0.75 -125.153v-116.143v-149.434
v-78.5967v-8.51074c-1.37988 -2.30371 -3.89062 -3.87988 -6.55566 -3.87988c-3.12695 0 -6.4668 2.1709 -8.44434 7.88477v7.50977v98.6211v152.437v122.15v104.128v63.5811zM170.5 -20.333c0 -21 1 -53 1 -64c0 -9 -6 -11 -17 -11c-17 0 -45 3 -66 3c-10 0 -17 1 -27 1h-8
c-18 0 -38 0 -46 -3c-3 -1 -3 -2 -3 -2h-1c-4 0 -5 4 -5 11v2c0 28 2 55 2 83c0 24 -1 56.75 -2 82.75c0 6 2 8 6 8c16 1 40 2.5 69 2.5h12c14 0 29 0 43 -0.75c12.0244 -0.644531 23 -0.75 34 -0.75c9 0 9 -8 9 -15v-20.75c0 -24 -1 -50 -1 -76z" />
    <glyph glyph-name="pesInitial4thBlack" unicode="&#xf08a;" 
d="M156.25 462.471c2.16602 0.374023 4.53809 1.53027 7.32422 2.03027c2.21582 0.397461 6.71094 0.914062 9.61328 -0.438477c0.380859 -1.17285 0.525391 -2.45605 0.525391 -3.72363c0 -0.973633 -0.0849609 -1.93848 -0.212891 -2.83887
c-0.574219 -4.0332 -0.572266 -14.0625 -0.75 -17.917c-0.692383 -15.0293 -0.752077 -26.7901 -0.752077 -40.39c0 -2.85215 0.00263852 -5.81818 0.00263852 -8.95902c0 -0.775054 -0.000160669 -1.56075 -0.000561302 -2.35801l-0.75 -125.153v-116.143v-149.434
v-78.5967v-8.51074c-1.37988 -2.30371 -3.89062 -3.87988 -6.55566 -3.87988c-3.12695 0 -6.4668 2.1709 -8.44434 7.88477v7.50977v98.6211v152.437v122.15v104.128v63.5811zM170.5 -20.333c0 -21 1 -53 1 -64c0 -9 -6 -11 -17 -11c-17 0 -45 3 -66 3c-10 0 -17 1 -27 1h-8
c-18 0 -38 0 -46 -3c-3 -1 -3 -2 -3 -2h-1c-4 0 -5 4 -5 11v2c0 28 2 55 2 83c0 24 -1 56.75 -2 82.75c0 6 2 8 6 8c16 1 40 2.5 69 2.5h12c14 0 29 0 43 -0.75c12.0244 -0.644531 23 -0.75 34 -0.75c9 0 9 -8 9 -15v-20.75c0 -24 -1 -50 -1 -76z" />
    <glyph glyph-name="mensuralBrevisBlack" unicode="&#xe8;" horiz-adv-x="170" 
d="M170.5 -19c0 -21 1 -53 1 -64c0 -9 -6 -11 -17 -11c-17 0 -45 3 -66 3c-10 0 -17 1 -27 1h-8c-18 0 -38 0 -46 -3c-3 -1 -3 -2 -3 -2h-1c-4 0 -5 4 -5 11v2c0 28 2 55 2 83c0 24 -1 56.75 -2 82.75c0 6 2 8 6 8c16 1 40 2.5 69 2.5h12c14 0 29 0 43 -0.75
c12.0244 -0.644531 23 -0.75 34 -0.75c9 0 9 -8 9 -15v-20.75c0 -24 -1 -50 -1 -76z" />
    <glyph glyph-name="mensuralBrevisBlack" unicode="&#xf08f;" horiz-adv-x="170" 
d="M170.5 -19c0 -21 1 -53 1 -64c0 -9 -6 -11 -17 -11c-17 0 -45 3 -66 3c-10 0 -17 1 -27 1h-8c-18 0 -38 0 -46 -3c-3 -1 -3 -2 -3 -2h-1c-4 0 -5 4 -5 11v2c0 28 2 55 2 83c0 24 -1 56.75 -2 82.75c0 6 2 8 6 8c16 1 40 2.5 69 2.5h12c14 0 29 0 43 -0.75
c12.0244 -0.644531 23 -0.75 34 -0.75c9 0 9 -8 9 -15v-20.75c0 -24 -1 -50 -1 -76z" />
    <glyph glyph-name="porrectusObl2ndCrushedBlack" unicode="&#xf2;" horiz-adv-x="523" 
d="M523 -125.477c-8.49512 -3.49902 -17.6709 -4.10645 -26.4814 -4.10645c-88.1338 0 -185.48 43.457 -255.618 74.083c-68.7959 30.04 -136.297 65.0859 -240.9 90v181.5c120.629 -22.9648 202.093 -68.156 260.7 -95.25
c73.9844 -34.2031 162.648 -79.3975 223.384 -79.3975c12.1006 0 25.3369 0.871094 38.916 7.6709v-174.5z" />
    <glyph glyph-name="porrectusObl2ndCrushedBlack" unicode="&#xf098;" horiz-adv-x="523" 
d="M523 -125.477c-8.49512 -3.49902 -17.6709 -4.10645 -26.4814 -4.10645c-88.1338 0 -185.48 43.457 -255.618 74.083c-68.7959 30.04 -136.297 65.0859 -240.9 90v181.5c120.629 -22.9648 202.093 -68.156 260.7 -95.25
c73.9844 -34.2031 162.648 -79.3975 223.384 -79.3975c12.1006 0 25.3369 0.871094 38.916 7.6709v-174.5z" />
    <glyph glyph-name="porrectusObl3rdCrushedBlack" unicode="&#xf4;" horiz-adv-x="628" 
d="M627.997 -125.549c-10.1934 -3.72852 -21.6025 -5.56055 -32.1748 -5.56055c-105.761 0 -222.576 95.3525 -306.742 143.129c-82.5547 46.8633 -163.556 97.4746 -289.08 147v180.641c144.755 -43.7549 242.807 -106.445 312.84 -150.12
c88.7812 -55.3672 202.679 -148.93 268.061 -148.93c14.5215 0 30.8018 1.35254 47.0967 9.16016v-175.319z" />
    <glyph glyph-name="porrectusObl3rdCrushedBlack" unicode="&#xf099;" horiz-adv-x="628" 
d="M627.997 -125.549c-10.1934 -3.72852 -21.6025 -5.56055 -32.1748 -5.56055c-105.761 0 -222.576 95.3525 -306.742 143.129c-82.5547 46.8633 -163.556 97.4746 -289.08 147v180.641c144.755 -43.7549 242.807 -106.445 312.84 -150.12
c88.7812 -55.3672 202.679 -148.93 268.061 -148.93c14.5215 0 30.8018 1.35254 47.0967 9.16016v-175.319z" />
    <glyph glyph-name="porrectusObl4thCrushedBlack" unicode="&#xf6;" horiz-adv-x="725" 
d="M725 -124c-14.8607 -5.34192 -35 -7.5 -49.5 -7.5c-121 0 -278 132.5 -370 211.5c-88 75 -162.5 130 -305.5 203v182c165 -69 256.519 -140.435 335.25 -205.25c101.576 -83.6219 243.25 -221.5 323.25 -221.5c1.36 0 12.8066 -0.00292969 14.3262 -0.00292969
c17.4805 0 34.6938 0.42293 52.1738 11.0029v-173.25z" />
    <glyph glyph-name="porrectusObl4thCrushedBlack" unicode="&#xf09a;" horiz-adv-x="725" 
d="M725 -124c-14.8607 -5.34192 -35 -7.5 -49.5 -7.5c-121 0 -278 132.5 -370 211.5c-88 75 -162.5 130 -305.5 203v182c165 -69 256.519 -140.435 335.25 -205.25c101.576 -83.6219 243.25 -221.5 323.25 -221.5c1.36 0 12.8066 -0.00292969 14.3262 -0.00292969
c17.4805 0 34.6938 0.42293 52.1738 11.0029v-173.25z" />
    <glyph glyph-name="porrectusObl5thCrushedBlack" unicode="&#xf5;" horiz-adv-x="819" 
d="M819 -124c-13 -5 -48 -9.75 -62 -9.75c-137 0 -310.5 157.5 -416 254.25c-102.677 94.1612 -198 196.5 -341 289.5v180c170.5 -100 280.396 -193.583 372 -276.5c117.17 -106.059 274.5 -273 366 -273c29 0 47.2705 1.94141 81 13v-177.5z" />
    <glyph glyph-name="porrectusObl5thCrushedBlack" unicode="&#xf09b;" horiz-adv-x="819" 
d="M819 -124c-13 -5 -48 -9.75 -62 -9.75c-137 0 -310.5 157.5 -416 254.25c-102.677 94.1612 -198 196.5 -341 289.5v180c170.5 -100 280.396 -193.583 372 -276.5c117.17 -106.059 274.5 -273 366 -273c29 0 47.2705 1.94141 81 13v-177.5z" />
    <glyph glyph-name="porrectusObl6thCrushedBlack" unicode="&#xfa;" horiz-adv-x="917" 
d="M917 -127.25c-30.9049 -10.9479 -73 -12.75 -89 -12.75c-140.5 0 -330.5 210.5 -446 336c-111.157 120.781 -216.743 227.096 -382 337.5v182c195.263 -122.367 328.863 -229.013 426 -333c126.128 -135.023 293 -343 381 -343
c4.60726 0 10.9575 -0.137726 18.3999 -0.137726c26.4802 0 66.7861 1.74354 91.6001 17.6377v-184.25z" />
    <glyph glyph-name="porrectusObl6thCrushedBlack" unicode="&#xf09c;" horiz-adv-x="917" 
d="M917 -127.25c-30.9049 -10.9479 -73 -12.75 -89 -12.75c-140.5 0 -330.5 210.5 -446 336c-111.157 120.781 -216.743 227.096 -382 337.5v182c195.263 -122.367 328.863 -229.013 426 -333c126.128 -135.023 293 -343 381 -343
c4.60726 0 10.9575 -0.137726 18.3999 -0.137726c26.4802 0 66.7861 1.74354 91.6001 17.6377v-184.25z" />
    <glyph glyph-name="porrectusObl7thCrushedBlack" unicode="&#xf9;" horiz-adv-x="1018" 
d="M1018 -127.25c-23.2676 -10.4622 -41.3951 -15.1353 -64.8206 -15.1353c-8.11313 0 -16.8617 0.560538 -26.6794 1.63525c-44.291 4.84668 -97.0497 24.5038 -152 60.6361c-123.463 81.1823 -259.847 228.639 -350.5 330.364
c-125.926 141.307 -242.283 269.711 -424 409.5v181.5c216.028 -155.658 376.506 -313.757 487.5 -433.25c141.178 -151.987 315.376 -359.34 416 -368.75c17.9221 -1.67604 31.7433 -2.67506 43.9284 -2.67506c23.6744 0 41.1726 3.77115 70.5716 13.6751v-177.5z" />
    <glyph glyph-name="porrectusObl7thCrushedBlack" unicode="&#xf09d;" horiz-adv-x="1018" 
d="M1018 -127.25c-23.2676 -10.4622 -41.3951 -15.1353 -64.8206 -15.1353c-8.11313 0 -16.8617 0.560538 -26.6794 1.63525c-44.291 4.84668 -97.0497 24.5038 -152 60.6361c-123.463 81.1823 -259.847 228.639 -350.5 330.364
c-125.926 141.307 -242.283 269.711 -424 409.5v181.5c216.028 -155.658 376.506 -313.757 487.5 -433.25c141.178 -151.987 315.376 -359.34 416 -368.75c17.9221 -1.67604 31.7433 -2.67506 43.9284 -2.67506c23.6744 0 41.1726 3.77115 70.5716 13.6751v-177.5z" />
    <glyph glyph-name="porrectusObl8vaCrushedBlack" unicode="&#xfb;" horiz-adv-x="1120" 
d="M1120 -127.25c-29.0677 -14.9602 -71.75 -16 -100 -16c-128 0 -371 262.75 -515 428.25c-141.371 162.479 -309.5 342.75 -505 508.75v176.25c229 -178 424.5 -370.5 543.5 -506.5c160.157 -183.037 354 -418.5 450.5 -426
c9.12768 -0.709405 21.379 -1.65673 35.838 -1.65673c25.024 0 56.6607 2.83751 90.162 14.6567v-177.75z" />
    <glyph glyph-name="porrectusObl8vaCrushedBlack" unicode="&#xf09e;" horiz-adv-x="1120" 
d="M1120 -127.25c-29.0677 -14.9602 -71.75 -16 -100 -16c-128 0 -371 262.75 -515 428.25c-141.371 162.479 -309.5 342.75 -505 508.75v176.25c229 -178 424.5 -370.5 543.5 -506.5c160.157 -183.037 354 -418.5 450.5 -426
c9.12768 -0.709405 21.379 -1.65673 35.838 -1.65673c25.024 0 56.6607 2.83751 90.162 14.6567v-177.75z" />
    <glyph glyph-name="obliqueDesc2ndBlack" unicode="&#x2020;" horiz-adv-x="463" 
d="M399.041 -62.501c-27 11 -58 24 -90 35c-40 13 -73 23 -118 34c-34 8 -72 16 -107 21c-25.3711 4.05957 -52.8887 5.75293 -81.3945 5.75293c-2.31641 0 -2.6875 0.0712891 -2.6875 1.93359c0 0.875 0.0820312 2.59961 0.0820312 4.31348v174.25c0 1 1 1 2 1
c29 -1 59 -1.25 85 -4.25c44 -5 84 -13 112 -20c29 -7 60 -16 93 -27c58 -20 113 -39 155 -62c7 -4 16 -7 16 -14v-7v-42v-120v-8.75c0 -0.709961 -0.413086 -1.12891 -1.27539 -1.12891c-0.353516 0 -0.78125 0.111328 -1.28711 0.378906
c-14.4521 7.63574 -45.5117 22.0117 -61.4375 28.5z" />
    <glyph glyph-name="obliqueDesc2ndBlack" unicode="&#xf0a0;" horiz-adv-x="463" 
d="M399.041 -62.501c-27 11 -58 24 -90 35c-40 13 -73 23 -118 34c-34 8 -72 16 -107 21c-25.3711 4.05957 -52.8887 5.75293 -81.3945 5.75293c-2.31641 0 -2.6875 0.0712891 -2.6875 1.93359c0 0.875 0.0820312 2.59961 0.0820312 4.31348v174.25c0 1 1 1 2 1
c29 -1 59 -1.25 85 -4.25c44 -5 84 -13 112 -20c29 -7 60 -16 93 -27c58 -20 113 -39 155 -62c7 -4 16 -7 16 -14v-7v-42v-120v-8.75c0 -0.709961 -0.413086 -1.12891 -1.27539 -1.12891c-0.353516 0 -0.78125 0.111328 -1.28711 0.378906
c-14.4521 7.63574 -45.5117 22.0117 -61.4375 28.5z" />
    <glyph glyph-name="obliqueDesc3rdBlack" unicode="&#xb0;" horiz-adv-x="489" 
d="M489 -92.5c-27 20 -43 31 -65 47c-56 40 -101 67.75 -159 100.75c-34 19 -63 33 -111 56c-46 22 -99 35 -154 47v181c60 -13 137 -32 190 -55c107 -47 161 -82 268 -160c9 -7 31 -20.75 31 -36.25v-180.5z" />
    <glyph glyph-name="obliqueDesc3rdBlack" unicode="&#xf0a1;" horiz-adv-x="489" 
d="M489 -92.5c-27 20 -43 31 -65 47c-56 40 -101 67.75 -159 100.75c-34 19 -63 33 -111 56c-46 22 -99 35 -154 47v181c60 -13 137 -32 190 -55c107 -47 161 -82 268 -160c9 -7 31 -20.75 31 -36.25v-180.5z" />
    <glyph glyph-name="obliqueDesc4thBlack" unicode="&#xa2;" horiz-adv-x="538" 
d="M0 467.37c91.9248 -27.916 202.748 -90.6748 319.5 -177.064c102.445 -75.8037 160.731 -126.571 209.167 -187.122c5.81348 -7.26855 9.33301 -9.68848 9.33301 -23.6006v-172.953c-59.21 70.0244 -138.9 133.891 -242.5 212.37
c-92.3809 69.9805 -148.928 105.82 -295.5 167.71v180.66z" />
    <glyph glyph-name="obliqueDesc4thBlack" unicode="&#xf0a2;" horiz-adv-x="538" 
d="M0 467.37c91.9248 -27.916 202.748 -90.6748 319.5 -177.064c102.445 -75.8037 160.731 -126.571 209.167 -187.122c5.81348 -7.26855 9.33301 -9.68848 9.33301 -23.6006v-172.953c-59.21 70.0244 -138.9 133.891 -242.5 212.37
c-92.3809 69.9805 -148.928 105.82 -295.5 167.71v180.66z" />
    <glyph glyph-name="obliqueDesc5thBlack" unicode="&#xa3;" horiz-adv-x="676" 
d="M0 589.277c63.9639 -10.9043 107.489 -27.3223 207.87 -77.0273c95.6133 -47.3447 201.257 -122.514 263.22 -178c94.0713 -84.2383 141.11 -137.802 194.243 -220.667c4.77734 -7.4502 11.167 -17.6455 11.167 -30.583v-173.453
c-87.7021 103.67 -181.724 196.314 -300.12 287.703c-122.318 94.417 -239.828 162.723 -376.38 212.957v179.07z" />
    <glyph glyph-name="obliqueDesc5thBlack" unicode="&#xf0a3;" horiz-adv-x="676" 
d="M0 589.277c63.9639 -10.9043 107.489 -27.3223 207.87 -77.0273c95.6133 -47.3447 201.257 -122.514 263.22 -178c94.0713 -84.2383 141.11 -137.802 194.243 -220.667c4.77734 -7.4502 11.167 -17.6455 11.167 -30.583v-173.453
c-87.7021 103.67 -181.724 196.314 -300.12 287.703c-122.318 94.417 -239.828 162.723 -376.38 212.957v179.07z" />
    <glyph glyph-name="obliqueDesc6thBlack" unicode="&#xa7;" horiz-adv-x="668" 
d="M0 716.5c79.2157 -17.8978 277.721 -165.968 396.5 -280.25c108.484 -104.377 196.421 -219.298 264.484 -330c4.0127 -6.52539 7.01562 -10.6768 7.01562 -21.75v-175.25c-79 128 -215.298 277.206 -302 362.75c-96.2471 94.9609 -273.262 225.881 -366 259.75v184.75z
" />
    <glyph glyph-name="obliqueDesc6thBlack" unicode="&#xf730;" horiz-adv-x="668" 
d="M0 716.5c79.2157 -17.8978 277.721 -165.968 396.5 -280.25c108.484 -104.377 196.421 -219.298 264.484 -330c4.0127 -6.52539 7.01562 -10.6768 7.01562 -21.75v-175.25c-79 128 -215.298 277.206 -302 362.75c-96.2471 94.9609 -273.262 225.881 -366 259.75v184.75z
" />
    <glyph glyph-name="obliqueDesc6thBlack" unicode="&#xf0a4;" horiz-adv-x="668" 
d="M0 716.5c79.2157 -17.8978 277.721 -165.968 396.5 -280.25c108.484 -104.377 196.421 -219.298 264.484 -330c4.0127 -6.52539 7.01562 -10.6768 7.01562 -21.75v-175.25c-79 128 -215.298 277.206 -302 362.75c-96.2471 94.9609 -273.262 225.881 -366 259.75v184.75z
" />
    <glyph glyph-name="obliqueDesc7thBlack" unicode="&#x2022;" horiz-adv-x="764" 
d="M0 842.25c144.598 -59.1335 310.453 -187.634 455 -339.292c124.344 -130.462 232.566 -279.886 298.629 -391.125c5.92902 -9.98345 10.3711 -15.5762 10.3711 -31.75v-171.583c-85 127 -196.193 265.733 -309 381.5c-134.23 137.754 -332.522 305.698 -455 366.5
v185.75z" />
    <glyph glyph-name="obliqueDesc7thBlack" unicode="&#xf0a5;" horiz-adv-x="764" 
d="M0 842.25c144.598 -59.1335 310.453 -187.634 455 -339.292c124.344 -130.462 232.566 -279.886 298.629 -391.125c5.92902 -9.98345 10.3711 -15.5762 10.3711 -31.75v-171.583c-85 127 -196.193 265.733 -309 381.5c-134.23 137.754 -332.522 305.698 -455 366.5
v185.75z" />
    <glyph glyph-name="obliqueDesc8vaBlack" unicode="&#xb6;" horiz-adv-x="868" 
d="M0 970.25c187.245 -97.9056 377.77 -258.679 516 -400.5c168.386 -170.311 283.074 -335.391 344.953 -460.25c4.03613 -8.14355 7.04688 -12.3652 7.04688 -25v-177.5c-85.5067 137.239 -259 352.675 -379 479.675c-137 146 -374.994 338.026 -489 399.825v183.75z" />
    <glyph glyph-name="obliqueDesc8vaBlack" unicode="&#xf0a6;" horiz-adv-x="868" 
d="M0 970.25c187.245 -97.9056 377.77 -258.679 516 -400.5c168.386 -170.311 283.074 -335.391 344.953 -460.25c4.03613 -8.14355 7.04688 -12.3652 7.04688 -25v-177.5c-85.5067 137.239 -259 352.675 -379 479.675c-137 146 -374.994 338.026 -489 399.825v183.75z" />
    <glyph glyph-name="chantPunctumWhite" unicode="&#xae;" 
d="M79 88c26 0 62 1 84 2l3 1c3 0 5 -1 5 -5v-4c-1 -15 -1 -56 -1 -88c0 -29 1 -63 1 -77v-5c0 -5 0 -5 -3 -5c-1 0 -3 1 -4 1c-26 1 -50 3 -80 3c-24 0 -55 -2 -76 -3c-2 0 -3 -2 -5 -2c-5 0 -5 2 -5 9c0 17 1 35 1 53v38c0 26 -1 51 -1 79v1c0 4 1 5 4 5c1 0 2 -1 2 -1
c25 -2 50 -2 75 -2zM79 53.5c-18 0 -27 0 -39 -1c-16 -1 -29 -11 -29 -23v-30.5v-8.5c0 -13 0 -19 1 -32c0 -6 3 -14 12 -15c14 -1 37.5 -2 53.5 -2h11.5c14 0 26 1 43 3c14 2 26 13 26 29v39v25c0 9 -7 14 -16 14c-16 1 -44 2 -63 2z" />
    <glyph glyph-name="chantPunctumWhite" unicode="&#xf0a8;" 
d="M79 88c26 0 62 1 84 2l3 1c3 0 5 -1 5 -5v-4c-1 -15 -1 -56 -1 -88c0 -29 1 -63 1 -77v-5c0 -5 0 -5 -3 -5c-1 0 -3 1 -4 1c-26 1 -50 3 -80 3c-24 0 -55 -2 -76 -3c-2 0 -3 -2 -5 -2c-5 0 -5 2 -5 9c0 17 1 35 1 53v38c0 26 -1 51 -1 79v1c0 4 1 5 4 5c1 0 2 -1 2 -1
c25 -2 50 -2 75 -2zM79 53.5c-18 0 -27 0 -39 -1c-16 -1 -29 -11 -29 -23v-30.5v-8.5c0 -13 0 -19 1 -32c0 -6 3 -14 12 -15c14 -1 37.5 -2 53.5 -2h11.5c14 0 26 1 43 3c14 2 26 13 26 29v39v25c0 9 -7 14 -16 14c-16 1 -44 2 -63 2z" />
    <glyph glyph-name="copyright" unicode="&#xa9;" horiz-adv-x="128" 
d="M107.5 -16.9482v33.8887c0 10.9043 -2.94238 19.46 -9.91797 22.666c-10.8213 4.97363 -22.3965 7.74902 -33.9082 7.74902c-10.6592 0 -21.2646 -2.37891 -31.168 -7.5957c-6.96094 -3.66602 -12.0059 -13.333 -12.0059 -25.082v-32.5176
c0 -14.1582 11.21 -16.9971 20.7119 -18.1992c7.88574 -0.998047 15.3223 -1.52637 22.8477 -1.52637c7.47266 0 15.0322 0.521484 23.2041 1.62402c10.0449 1.35547 20.2363 5.46191 20.2363 18.9932zM128 -32v-38v-106
c-2.59573 -3.11488 -5.19146 -4.88219 -7.64728 -4.88219c-2.27467 0 -4.42931 1.51621 -6.35272 4.88219v97.6455c0 13.2627 -6.31081 16.102 -15.3333 19.4172c-10.2535 3.7676 -20.7619 5.93725 -28.6667 5.93725c-20 0 -50 -4 -70 -17v127
c33.1053 15.2105 49.3984 16.5107 68.2207 16.5107c25.0674 0 39.1539 -5.05221 59.7793 -16.5107v-89z" />
    <glyph glyph-name="copyright" unicode="&#xf0a9;" horiz-adv-x="128" 
d="M107.5 -16.9482v33.8887c0 10.9043 -2.94238 19.46 -9.91797 22.666c-10.8213 4.97363 -22.3965 7.74902 -33.9082 7.74902c-10.6592 0 -21.2646 -2.37891 -31.168 -7.5957c-6.96094 -3.66602 -12.0059 -13.333 -12.0059 -25.082v-32.5176
c0 -14.1582 11.21 -16.9971 20.7119 -18.1992c7.88574 -0.998047 15.3223 -1.52637 22.8477 -1.52637c7.47266 0 15.0322 0.521484 23.2041 1.62402c10.0449 1.35547 20.2363 5.46191 20.2363 18.9932zM128 -32v-38v-106
c-2.59573 -3.11488 -5.19146 -4.88219 -7.64728 -4.88219c-2.27467 0 -4.42931 1.51621 -6.35272 4.88219v97.6455c0 13.2627 -6.31081 16.102 -15.3333 19.4172c-10.2535 3.7676 -20.7619 5.93725 -28.6667 5.93725c-20 0 -50 -4 -70 -17v127
c33.1053 15.2105 49.3984 16.5107 68.2207 16.5107c25.0674 0 39.1539 -5.05221 59.7793 -16.5107v-89z" />
    <glyph glyph-name="mensuralLongaWhite" unicode="&#x2122;" horiz-adv-x="180" 
d="M79 53.5c-18 0 -24.5 0 -36.5 -1c-16 -1 -29 -11 -29 -23v-30.5v-8.5c0 -13 0 -19 1 -32c0 -6 3 -14 12 -15c14 -1 37.5 -2 53.5 -2h6.5c14 0 26 1 43 3c14 2 26 13 26 29v39v25c0 9 -7 14 -16 14c-16 1 -41.5 2 -60.5 2zM8.76172 -97.375zM169.237 -560.394
c-9.5 0 -10.4502 5.86719 -10.4502 14.6699c0 1.95605 2.85059 18.582 3.80078 34.2295c1.89941 37.1641 2.84961 82.1523 2.84961 142.788v98.7783c0 73.3496 -2.13477 126.028 -2.5498 149.634c-0.328125 18.6338 0.881836 24.2295 -11.3877 26.7939
c-10.7939 2.25586 -34.7842 3.8623 -72.0127 3.8623h-0.546875c-21.959 -0.00878906 -45.3594 -0.71875 -64.0459 -2.90332c-4.43555 -0.518555 -5.54199 -6.76465 -9.46094 -6.76465c-0.5 0 -1.0459 0.101562 -1.64941 0.329102
c-1.82324 0.6875 -3.05469 1.95508 -4.39941 3.19434c-1.99023 1.83398 -3.03613 4.76855 -3.03613 9.17383c0 28.3623 1.71582 57.2686 1.71582 86.6084c0 26.7734 -1.71582 60.0195 -1.71582 89.5645c0 3.64844 1.61621 7.43359 4.24609 8.81641
c1.56152 0.822266 3.47949 1.23633 5.62988 1.23633c0.0517578 0 0.103516 -0.000976562 0.15625 -0.000976562c1.75879 -0.0166016 3.41895 -6.24512 4.99316 -6.30957c21.9434 -0.899414 30.2529 -4.21289 74.2539 -4.21289c26.002 0 43.666 2.79395 71.2598 3.29395
c3.49805 0.0634766 10.7832 4.88574 14.6045 4.88574c0.328125 0 0.644531 -0.0361328 0.945312 -0.113281c2.14746 -0.552734 3.82715 -1.57422 5.13574 -2.91016c3.32031 -3.39062 3.99805 -9.55566 4.11426 -14.4658
c0.305664 -12.9229 0.360352 -29.4326 0.360352 -47.0342c0 -9.70508 -0.0166016 -19.7432 -0.0166016 -29.6934c0 -27.9961 -0.119141 -56.3027 -0.119141 -87.5986v-187.342v-38.1426c0 -69.4375 -1.4248 -123.228 -1.4248 -163.325v-4.89062
c0 -23.4717 1.90039 -41.0762 1.90039 -56.7236c0 -1.86523 0.03125 -3.95312 0.03125 -6.03613c0 -3.37793 -0.0810547 -6.74316 -0.506836 -9.12305c-1.60938 -9.00781 -3.1748 -10.2686 -12.6748 -10.2686z" />
    <glyph glyph-name="mensuralLongaWhite" unicode="&#xe95d;" horiz-adv-x="180" 
d="M79 53.5c-18 0 -24.5 0 -36.5 -1c-16 -1 -29 -11 -29 -23v-30.5v-8.5c0 -13 0 -19 1 -32c0 -6 3 -14 12 -15c14 -1 37.5 -2 53.5 -2h6.5c14 0 26 1 43 3c14 2 26 13 26 29v39v25c0 9 -7 14 -16 14c-16 1 -41.5 2 -60.5 2zM8.76172 -97.375zM169.237 -560.394
c-9.5 0 -10.4502 5.86719 -10.4502 14.6699c0 1.95605 2.85059 18.582 3.80078 34.2295c1.89941 37.1641 2.84961 82.1523 2.84961 142.788v98.7783c0 73.3496 -2.13477 126.028 -2.5498 149.634c-0.328125 18.6338 0.881836 24.2295 -11.3877 26.7939
c-10.7939 2.25586 -34.7842 3.8623 -72.0127 3.8623h-0.546875c-21.959 -0.00878906 -45.3594 -0.71875 -64.0459 -2.90332c-4.43555 -0.518555 -5.54199 -6.76465 -9.46094 -6.76465c-0.5 0 -1.0459 0.101562 -1.64941 0.329102
c-1.82324 0.6875 -3.05469 1.95508 -4.39941 3.19434c-1.99023 1.83398 -3.03613 4.76855 -3.03613 9.17383c0 28.3623 1.71582 57.2686 1.71582 86.6084c0 26.7734 -1.71582 60.0195 -1.71582 89.5645c0 3.64844 1.61621 7.43359 4.24609 8.81641
c1.56152 0.822266 3.47949 1.23633 5.62988 1.23633c0.0517578 0 0.103516 -0.000976562 0.15625 -0.000976562c1.75879 -0.0166016 3.41895 -6.24512 4.99316 -6.30957c21.9434 -0.899414 30.2529 -4.21289 74.2539 -4.21289c26.002 0 43.666 2.79395 71.2598 3.29395
c3.49805 0.0634766 10.7832 4.88574 14.6045 4.88574c0.328125 0 0.644531 -0.0361328 0.945312 -0.113281c2.14746 -0.552734 3.82715 -1.57422 5.13574 -2.91016c3.32031 -3.39062 3.99805 -9.55566 4.11426 -14.4658
c0.305664 -12.9229 0.360352 -29.4326 0.360352 -47.0342c0 -9.70508 -0.0166016 -19.7432 -0.0166016 -29.6934c0 -27.9961 -0.119141 -56.3027 -0.119141 -87.5986v-187.342v-38.1426c0 -69.4375 -1.4248 -123.228 -1.4248 -163.325v-4.89062
c0 -23.4717 1.90039 -41.0762 1.90039 -56.7236c0 -1.86523 0.03125 -3.95312 0.03125 -6.03613c0 -3.37793 -0.0810547 -6.74316 -0.506836 -9.12305c-1.60938 -9.00781 -3.1748 -10.2686 -12.6748 -10.2686z" />
    <glyph glyph-name="mensuralLongaWhite" unicode="&#xf0aa;" horiz-adv-x="180" 
d="M79 53.5c-18 0 -24.5 0 -36.5 -1c-16 -1 -29 -11 -29 -23v-30.5v-8.5c0 -13 0 -19 1 -32c0 -6 3 -14 12 -15c14 -1 37.5 -2 53.5 -2h6.5c14 0 26 1 43 3c14 2 26 13 26 29v39v25c0 9 -7 14 -16 14c-16 1 -41.5 2 -60.5 2zM8.76172 -97.375zM169.237 -560.394
c-9.5 0 -10.4502 5.86719 -10.4502 14.6699c0 1.95605 2.85059 18.582 3.80078 34.2295c1.89941 37.1641 2.84961 82.1523 2.84961 142.788v98.7783c0 73.3496 -2.13477 126.028 -2.5498 149.634c-0.328125 18.6338 0.881836 24.2295 -11.3877 26.7939
c-10.7939 2.25586 -34.7842 3.8623 -72.0127 3.8623h-0.546875c-21.959 -0.00878906 -45.3594 -0.71875 -64.0459 -2.90332c-4.43555 -0.518555 -5.54199 -6.76465 -9.46094 -6.76465c-0.5 0 -1.0459 0.101562 -1.64941 0.329102
c-1.82324 0.6875 -3.05469 1.95508 -4.39941 3.19434c-1.99023 1.83398 -3.03613 4.76855 -3.03613 9.17383c0 28.3623 1.71582 57.2686 1.71582 86.6084c0 26.7734 -1.71582 60.0195 -1.71582 89.5645c0 3.64844 1.61621 7.43359 4.24609 8.81641
c1.56152 0.822266 3.47949 1.23633 5.62988 1.23633c0.0517578 0 0.103516 -0.000976562 0.15625 -0.000976562c1.75879 -0.0166016 3.41895 -6.24512 4.99316 -6.30957c21.9434 -0.899414 30.2529 -4.21289 74.2539 -4.21289c26.002 0 43.666 2.79395 71.2598 3.29395
c3.49805 0.0634766 10.7832 4.88574 14.6045 4.88574c0.328125 0 0.644531 -0.0361328 0.945312 -0.113281c2.14746 -0.552734 3.82715 -1.57422 5.13574 -2.91016c3.32031 -3.39062 3.99805 -9.55566 4.11426 -14.4658
c0.305664 -12.9229 0.360352 -29.4326 0.360352 -47.0342c0 -9.70508 -0.0166016 -19.7432 -0.0166016 -29.6934c0 -27.9961 -0.119141 -56.3027 -0.119141 -87.5986v-187.342v-38.1426c0 -69.4375 -1.4248 -123.228 -1.4248 -163.325v-4.89062
c0 -23.4717 1.90039 -41.0762 1.90039 -56.7236c0 -1.86523 0.03125 -3.95312 0.03125 -6.03613c0 -3.37793 -0.0810547 -6.74316 -0.506836 -9.12305c-1.60938 -9.00781 -3.1748 -10.2686 -12.6748 -10.2686z" />
    <glyph glyph-name="acute" unicode="&#xb4;" horiz-adv-x="128" 
d="M107.5 -18.9482v33.8887c0 10.9043 -2.94238 19.46 -9.91797 22.666c-10.8213 4.97363 -22.3965 7.74902 -33.9082 7.74902c-10.6592 0 -21.2646 -2.37891 -31.168 -7.5957c-6.96094 -3.66602 -12.0059 -13.333 -12.0059 -25.082v-32.5176
c0 -14.1582 11.21 -16.9971 20.7119 -18.1992c7.88574 -0.998047 15.3223 -1.52637 22.8477 -1.52637c7.47266 0 15.0322 0.521484 23.2041 1.62402c10.0449 1.35547 20.2363 5.46191 20.2363 18.9932zM128 -450c-1.67945 -1.67945 -3.98569 -3.0455 -6.74327 -3.0455
c-2.16829 0 -4.61563 0.844587 -7.25673 3.0455v364c0 14.0898 -5.86372 18.2537 -16 20.3116c-10.9338 2.21986 -20.7326 2.68839 -31 2.68839c-20 0 -46 -6 -67 -13v135c19 12 48 16.75 70 16.75s35 -3.75 58 -13.75v-512z" />
    <glyph glyph-name="acute" unicode="&#xf0ab;" horiz-adv-x="128" 
d="M107.5 -18.9482v33.8887c0 10.9043 -2.94238 19.46 -9.91797 22.666c-10.8213 4.97363 -22.3965 7.74902 -33.9082 7.74902c-10.6592 0 -21.2646 -2.37891 -31.168 -7.5957c-6.96094 -3.66602 -12.0059 -13.333 -12.0059 -25.082v-32.5176
c0 -14.1582 11.21 -16.9971 20.7119 -18.1992c7.88574 -0.998047 15.3223 -1.52637 22.8477 -1.52637c7.47266 0 15.0322 0.521484 23.2041 1.62402c10.0449 1.35547 20.2363 5.46191 20.2363 18.9932zM128 -450c-1.67945 -1.67945 -3.98569 -3.0455 -6.74327 -3.0455
c-2.16829 0 -4.61563 0.844587 -7.25673 3.0455v364c0 14.0898 -5.86372 18.2537 -16 20.3116c-10.9338 2.21986 -20.7326 2.68839 -31 2.68839c-20 0 -46 -6 -67 -13v135c19 12 48 16.75 70 16.75s35 -3.75 58 -13.75v-512z" />
    <glyph glyph-name="dieresis" unicode="&#xa8;" horiz-adv-x="128" 
d="M107.5 -20.6982v33.8887c0 10.9043 -2.94238 19.46 -9.91797 22.666c-10.8213 4.97363 -22.3965 7.74902 -33.9082 7.74902c-10.6592 0 -21.2646 -2.37891 -31.168 -7.5957c-6.96094 -3.66602 -12.0059 -13.333 -12.0059 -25.082v-32.5176
c0 -14.1582 11.21 -16.9971 20.7119 -18.1992c7.88574 -0.998047 15.3223 -1.52637 22.8477 -1.52637c7.47266 0 15.0322 0.521484 23.2041 1.62402c10.0449 1.35547 20.2363 5.46191 20.2363 18.9932zM128 -75c-18 6 -46 12 -61 12c-20 0 -43 -5 -67 -13v135
c26 14 48 16 70 16c13.615 0 24.0229 -1.28282 35.3333 -4.36216c1.02079 -0.277916 1.92522 -0.409847 2.72625 -0.409847c5.29807 0 6.07275 5.77147 6.07275 13.248c0 3.09009 -0.132329 6.47144 -0.132329 9.85697v336.667
c2.6411 2.20092 5.08844 3.0455 7.25673 3.0455c2.75758 0 5.06382 -1.36605 6.74327 -3.0455v-505z" />
    <glyph glyph-name="dieresis" unicode="&#xf0ac;" horiz-adv-x="128" 
d="M107.5 -20.6982v33.8887c0 10.9043 -2.94238 19.46 -9.91797 22.666c-10.8213 4.97363 -22.3965 7.74902 -33.9082 7.74902c-10.6592 0 -21.2646 -2.37891 -31.168 -7.5957c-6.96094 -3.66602 -12.0059 -13.333 -12.0059 -25.082v-32.5176
c0 -14.1582 11.21 -16.9971 20.7119 -18.1992c7.88574 -0.998047 15.3223 -1.52637 22.8477 -1.52637c7.47266 0 15.0322 0.521484 23.2041 1.62402c10.0449 1.35547 20.2363 5.46191 20.2363 18.9932zM128 -75c-18 6 -46 12 -61 12c-20 0 -43 -5 -67 -13v135
c26 14 48 16 70 16c13.615 0 24.0229 -1.28282 35.3333 -4.36216c1.02079 -0.277916 1.92522 -0.409847 2.72625 -0.409847c5.29807 0 6.07275 5.77147 6.07275 13.248c0 3.09009 -0.132329 6.47144 -0.132329 9.85697v336.667
c2.6411 2.20092 5.08844 3.0455 7.25673 3.0455c2.75758 0 5.06382 -1.36605 6.74327 -3.0455v-505z" />
    <glyph glyph-name="plicaLongaDescWhite" unicode="&#xc6;" horiz-adv-x="161" 
d="M-4.75293 -333.521c0 4.05469 2 8.23633 2 12.1494c1.99707 82.4844 2 82.959 2 175.634v0.81543c0 15.5767 -0.0372901 30.7443 -0.0372901 45.5742c0 5.69843 0.00550589 11.347 0.020749 16.9497c0.0133673 4.91329 0.0336105 9.97296 0.0336105 15.0367
c0 4.59244 -0.0166502 9.18825 -0.0701799 13.6813c-0.415469 34.8725 -0.201367 68.1653 -0.503912 100.93c-0.523661 13.635 -1.15002 27.4273 -1.75841 39.8547c-0.00167823 0.125909 -0.00251911 0.250089 -0.00251911 0.372554
c0 5.34198 1.59995 7.42223 5.09181 7.42223c0.122839 0 0.248019 -0.00257439 0.375554 -0.00767175c6.24303 0.171261 13.7999 0.290015 22.4645 0.290015c11.9381 0 25.9791 -0.225437 41.5833 -0.849586c3.71484 -0.149414 7.42969 -0.297852 11.1436 -0.446289
c13.001 -0.519531 26.9434 -2.07812 39.957 -3.59961c10.6911 -1.3868 26.4725 -3.00471 35.444 -4.18476c3.67051 -0.482794 6.01104 -0.923543 6.01104 -3.16094c0 -7.58105 -0.00292969 -10.9863 -0.00292969 -19.4385c0 -37.8366 0.514648 -80.1973 0.556641 -123.701
c0.203988 -6.20483 0.232135 -11.971 0.232135 -16.7669c0 -1.82793 -0.00408893 -3.51491 -0.00408893 -5.03149l0.00344139 -105.908c0 -83.419 0.0894662 -160.468 0.711872 -200.597c0.473633 -30.543 2.75781 -45.1943 4.25781 -67.5615
c0.0197418 -0.29422 0.0295983 -0.580148 0.0295983 -0.857931c0 -5.83697 -4.35194 -8.07762 -12.7874 -8.07762c-6 0 -10 2.53613 -10 6.7627c0 1.69043 1 5.07129 1 6.76172c0 1.69043 1 4.22656 1 5.91699c2 86.2168 2 186.804 2 284.009v1.56543
c0 20.2578 -0.0120945 39.8745 -0.0152613 58.9844c-0.000589143 3.55508 -0.0815287 4.61535 -5.32361 5.07422c-15.7861 1.38184 -38.3271 4.67578 -57.8281 5.45508c-9.28613 0.37207 -15.7998 1.63281 -25.0859 2.00488
c-2.78613 0.111328 -3.71484 0.148438 -7.42871 0.296875c-7.64147 0.305802 -15.6709 0.626909 -22.8425 0.626909c-5.58527 0 -10.6503 -0.194761 -14.6066 -0.743192c0.557276 -70.4388 1.39862 -129.309 2.13073 -176.39
c0.381836 -24.5664 0.220703 -37.9775 0.633789 -55.8887c0.0419922 -1.83691 1.3252 -3.72168 1.3457 -5.66992c0.0185547 -1.68262 0.77832 -4.22461 0.77832 -6.01465c0 -6.21582 -2.6709 -7.75195 -11.5078 -7.75195c-6 0 -11 2.42969 -11 6.47949zM84.0645 56
c-19 0 -42 -1 -58 -2c-9 0 -10.5 -5 -10.5 -14v-25v-32.2588c0.0195312 -3.12305 0.0410156 -6.26465 0.0634766 -9.42773c0.702148 -14.5381 7.23438 -24.4277 20.4365 -26.3135c17 -2 29 -3 43 -3h4c16 0 37 1 51 2c9 1 12 9 12 15c1 13 1 19 1 32v6
c0 7.33301 0.435547 13.4619 0.435547 20.2773c0 3.40723 -0.109375 6.98633 -0.435547 10.9727c-0.983398 12 -13.0361 20.9307 -29 23.25c-12.0186 1.74609 -16 2.5 -34 2.5z" />
    <glyph glyph-name="plicaLongaDescWhite" unicode="&#xf0ae;" horiz-adv-x="161" 
d="M-4.75293 -333.521c0 4.05469 2 8.23633 2 12.1494c1.99707 82.4844 2 82.959 2 175.634v0.81543c0 15.5767 -0.0372901 30.7443 -0.0372901 45.5742c0 5.69843 0.00550589 11.347 0.020749 16.9497c0.0133673 4.91329 0.0336105 9.97296 0.0336105 15.0367
c0 4.59244 -0.0166502 9.18825 -0.0701799 13.6813c-0.415469 34.8725 -0.201367 68.1653 -0.503912 100.93c-0.523661 13.635 -1.15002 27.4273 -1.75841 39.8547c-0.00167823 0.125909 -0.00251911 0.250089 -0.00251911 0.372554
c0 5.34198 1.59995 7.42223 5.09181 7.42223c0.122839 0 0.248019 -0.00257439 0.375554 -0.00767175c6.24303 0.171261 13.7999 0.290015 22.4645 0.290015c11.9381 0 25.9791 -0.225437 41.5833 -0.849586c3.71484 -0.149414 7.42969 -0.297852 11.1436 -0.446289
c13.001 -0.519531 26.9434 -2.07812 39.957 -3.59961c10.6911 -1.3868 26.4725 -3.00471 35.444 -4.18476c3.67051 -0.482794 6.01104 -0.923543 6.01104 -3.16094c0 -7.58105 -0.00292969 -10.9863 -0.00292969 -19.4385c0 -37.8366 0.514648 -80.1973 0.556641 -123.701
c0.203988 -6.20483 0.232135 -11.971 0.232135 -16.7669c0 -1.82793 -0.00408893 -3.51491 -0.00408893 -5.03149l0.00344139 -105.908c0 -83.419 0.0894662 -160.468 0.711872 -200.597c0.473633 -30.543 2.75781 -45.1943 4.25781 -67.5615
c0.0197418 -0.29422 0.0295983 -0.580148 0.0295983 -0.857931c0 -5.83697 -4.35194 -8.07762 -12.7874 -8.07762c-6 0 -10 2.53613 -10 6.7627c0 1.69043 1 5.07129 1 6.76172c0 1.69043 1 4.22656 1 5.91699c2 86.2168 2 186.804 2 284.009v1.56543
c0 20.2578 -0.0120945 39.8745 -0.0152613 58.9844c-0.000589143 3.55508 -0.0815287 4.61535 -5.32361 5.07422c-15.7861 1.38184 -38.3271 4.67578 -57.8281 5.45508c-9.28613 0.37207 -15.7998 1.63281 -25.0859 2.00488
c-2.78613 0.111328 -3.71484 0.148438 -7.42871 0.296875c-7.64147 0.305802 -15.6709 0.626909 -22.8425 0.626909c-5.58527 0 -10.6503 -0.194761 -14.6066 -0.743192c0.557276 -70.4388 1.39862 -129.309 2.13073 -176.39
c0.381836 -24.5664 0.220703 -37.9775 0.633789 -55.8887c0.0419922 -1.83691 1.3252 -3.72168 1.3457 -5.66992c0.0185547 -1.68262 0.77832 -4.22461 0.77832 -6.01465c0 -6.21582 -2.6709 -7.75195 -11.5078 -7.75195c-6 0 -11 2.42969 -11 6.47949zM84.0645 56
c-19 0 -42 -1 -58 -2c-9 0 -10.5 -5 -10.5 -14v-25v-32.2588c0.0195312 -3.12305 0.0410156 -6.26465 0.0634766 -9.42773c0.702148 -14.5381 7.23438 -24.4277 20.4365 -26.3135c17 -2 29 -3 43 -3h4c16 0 37 1 51 2c9 1 12 9 12 15c1 13 1 19 1 32v6
c0 7.33301 0.435547 13.4619 0.435547 20.2773c0 3.40723 -0.109375 6.98633 -0.435547 10.9727c-0.983398 12 -13.0361 20.9307 -29 23.25c-12.0186 1.74609 -16 2.5 -34 2.5z" />
    <glyph glyph-name="plicaBrevisAscWhite" unicode="&#xd8;" horiz-adv-x="161" 
d="M79 56c-18 0 -21.9814 -0.753906 -34 -2.5c-15.9639 -2.31934 -28.0166 -11.25 -29 -23.25c-0.326497 -3.98665 -0.43533 -7.56554 -0.43533 -10.9729c0 -6.81481 0.43533 -12.9437 0.43533 -20.2771v-6c0 -13 0 -19 1 -32c0 -6 3 -14 12 -15c14 -1 35 -2 51 -2h4
c14 0 26 1 43 3c13.202 1.886 19.7346 11.7753 20.4365 26.3135c0.0225862 3.16329 0.0437377 6.30437 0.0635389 9.4274v32.2591v25c0 9 -1.5 14 -10.5 14c-16 1 -39 2 -58 2zM159.966 -12.2881c-0.103516 -21.0264 0.675781 -53.0234 0.62207 -64.0371
c-0.0439453 -9.01172 -5.66797 -11.2676 -15.96 -11.7344c-15.9062 -0.719727 -42.0898 1.09863 -61.7383 0.208984c-9.35645 -0.423828 -15.9014 0.28125 -25.2578 -0.142578c-2.80762 -0.126953 -3.74316 -0.168945 -7.48535 -0.338867
c-16.8418 -0.762695 -35.5547 -1.60938 -43.0547 -4.95215c-2.8125 -1.12793 -2.81738 -2.12988 -2.81738 -2.12988l-0.935547 -0.0419922c-3.74219 -0.168945 -4.6582 3.79297 -4.62402 10.8018c0 0 0.00488281 1.00195 0.00976562 2.00293
c0.136719 28.0352 2.14062 55.1533 2.27734 83.1885c0.117188 24.0303 -0.662109 56.0273 -1.46973 82.0176c0.0292969 6.00781 1.91016 8.09473 5.65234 8.26465c14.9756 1.67871 37.4365 3.69629 64.5703 4.9248c3.74219 0.168945 7.48535 0.338867 11.2275 0.507812
c13.0996 0.592773 27.1289 0.227539 40.2236 -0.180664c11.2227 -0.493164 21.5107 -1.02832 31.8027 -0.5625c8.4209 0.380859 8.38184 -7.62891 8.34766 -14.6377c-0.0292969 -6.00781 -0.0537109 -11.0137 -0.0839844 -17.0215
c-0.117188 -24.0303 -1.17969 -50.1045 -1.30664 -76.1377zM144.75 333.882c0 3.82324 5.25 6.11816 11.25 6.11816c8.67383 0 11.7715 -2.13867 11.7715 -7.76367c0 -2.05078 -0.515625 -4.04785 -0.544922 -6.00195
c-0.0302734 -2.01562 -0.575195 -3.9873 -0.631836 -5.92676c-0.507812 -17.4834 -0.980469 -32.4854 -1.59473 -55.2539c-2 -74.1826 -4 -177.425 -4 -312.787v-25.8105c-2 -0.764648 -4 -0.956055 -6 -0.956055c-3 0 -6.41992 0.257812 -7.75 4.20605
c0.666992 45.8857 0.777344 82.084 0.777344 125.138c0 21.5264 -0.0273438 44.7666 -0.0273438 71.7881c0 87.9473 0 117.772 -2 195.778c0 3.63867 -1.25 7.55273 -1.25 11.4717zM-3.75 456.847c0 5.0957 5.25 8.15234 11.25 8.15234
c8.67383 0 11.7715 -2.84863 11.7715 -10.3447c0 -2.7334 -0.515625 -5.39355 -0.544922 -7.99805c-0.0302734 -2.68555 -0.575195 -5.31152 -0.631836 -7.89746c-0.507812 -23.2949 -0.980469 -43.2852 -1.59473 -73.625c-2 -98.8457 -4 -236.415 -4 -416.783v-34.3916
c-2 -1.01953 -4 -1.27441 -6 -1.27441c-3 0 -6.41992 0.344727 -7.75 5.60449c0.666992 61.1426 0.777344 109.376 0.777344 166.744c0 28.6836 -0.0273438 59.6514 -0.0273438 95.6562c0 117.188 0 156.931 -2 260.872c0 4.84766 -1.25 10.0645 -1.25 15.2852z" />
    <glyph glyph-name="plicaBrevisAscWhite" unicode="&#xf0af;" horiz-adv-x="161" 
d="M79 56c-18 0 -21.9814 -0.753906 -34 -2.5c-15.9639 -2.31934 -28.0166 -11.25 -29 -23.25c-0.326497 -3.98665 -0.43533 -7.56554 -0.43533 -10.9729c0 -6.81481 0.43533 -12.9437 0.43533 -20.2771v-6c0 -13 0 -19 1 -32c0 -6 3 -14 12 -15c14 -1 35 -2 51 -2h4
c14 0 26 1 43 3c13.202 1.886 19.7346 11.7753 20.4365 26.3135c0.0225862 3.16329 0.0437377 6.30437 0.0635389 9.4274v32.2591v25c0 9 -1.5 14 -10.5 14c-16 1 -39 2 -58 2zM159.966 -12.2881c-0.103516 -21.0264 0.675781 -53.0234 0.62207 -64.0371
c-0.0439453 -9.01172 -5.66797 -11.2676 -15.96 -11.7344c-15.9062 -0.719727 -42.0898 1.09863 -61.7383 0.208984c-9.35645 -0.423828 -15.9014 0.28125 -25.2578 -0.142578c-2.80762 -0.126953 -3.74316 -0.168945 -7.48535 -0.338867
c-16.8418 -0.762695 -35.5547 -1.60938 -43.0547 -4.95215c-2.8125 -1.12793 -2.81738 -2.12988 -2.81738 -2.12988l-0.935547 -0.0419922c-3.74219 -0.168945 -4.6582 3.79297 -4.62402 10.8018c0 0 0.00488281 1.00195 0.00976562 2.00293
c0.136719 28.0352 2.14062 55.1533 2.27734 83.1885c0.117188 24.0303 -0.662109 56.0273 -1.46973 82.0176c0.0292969 6.00781 1.91016 8.09473 5.65234 8.26465c14.9756 1.67871 37.4365 3.69629 64.5703 4.9248c3.74219 0.168945 7.48535 0.338867 11.2275 0.507812
c13.0996 0.592773 27.1289 0.227539 40.2236 -0.180664c11.2227 -0.493164 21.5107 -1.02832 31.8027 -0.5625c8.4209 0.380859 8.38184 -7.62891 8.34766 -14.6377c-0.0292969 -6.00781 -0.0537109 -11.0137 -0.0839844 -17.0215
c-0.117188 -24.0303 -1.17969 -50.1045 -1.30664 -76.1377zM144.75 333.882c0 3.82324 5.25 6.11816 11.25 6.11816c8.67383 0 11.7715 -2.13867 11.7715 -7.76367c0 -2.05078 -0.515625 -4.04785 -0.544922 -6.00195
c-0.0302734 -2.01562 -0.575195 -3.9873 -0.631836 -5.92676c-0.507812 -17.4834 -0.980469 -32.4854 -1.59473 -55.2539c-2 -74.1826 -4 -177.425 -4 -312.787v-25.8105c-2 -0.764648 -4 -0.956055 -6 -0.956055c-3 0 -6.41992 0.257812 -7.75 4.20605
c0.666992 45.8857 0.777344 82.084 0.777344 125.138c0 21.5264 -0.0273438 44.7666 -0.0273438 71.7881c0 87.9473 0 117.772 -2 195.778c0 3.63867 -1.25 7.55273 -1.25 11.4717zM-3.75 456.847c0 5.0957 5.25 8.15234 11.25 8.15234
c8.67383 0 11.7715 -2.84863 11.7715 -10.3447c0 -2.7334 -0.515625 -5.39355 -0.544922 -7.99805c-0.0302734 -2.68555 -0.575195 -5.31152 -0.631836 -7.89746c-0.507812 -23.2949 -0.980469 -43.2852 -1.59473 -73.625c-2 -98.8457 -4 -236.415 -4 -416.783v-34.3916
c-2 -1.01953 -4 -1.27441 -6 -1.27441c-3 0 -6.41992 0.344727 -7.75 5.60449c0.666992 61.1426 0.777344 109.376 0.777344 166.744c0 28.6836 -0.0273438 59.6514 -0.0273438 95.6562c0 117.188 0 156.931 -2 260.872c0 4.84766 -1.25 10.0645 -1.25 15.2852z" />
    <glyph glyph-name="plicaBrevisDescWhite" unicode="&#x221e;" horiz-adv-x="161" 
d="M84.0645 56c-19 0 -42 -1 -58 -2c-9 0 -10.5 -5 -10.5 -14v-25v-32.2588c0.0195312 -3.12305 0.0410156 -6.26465 0.0634766 -9.42773c0.702148 -14.5381 7.23438 -24.4277 20.4365 -26.3135c17 -2 29 -3 43 -3h4c16 0 37 1 51 2c9 1 12 9 12 15c1 13 1 19 1 32v6
c0 7.33301 0.435547 13.4619 0.435547 20.2773c0 3.40723 -0.109375 6.98633 -0.435547 10.9727c-0.983398 12 -13.0361 20.9307 -29 23.25c-12.0186 1.74609 -16 2.5 -34 2.5zM158.766 -21.4209c0.280273 -21.0273 1.63574 -53.1074 1.78223 -64.1221
c0.120117 -9.01172 -5.4248 -10.791 -15.6396 -10.3828c-15.7861 0.631836 -41.8271 4.67578 -61.3281 5.45508c-9.28613 0.37207 -15.7998 1.63281 -25.0859 2.00488c-2.78613 0.111328 -3.71484 0.148438 -7.42871 0.296875
c-16.7158 0.668945 -35.2881 1.41113 -42.6768 -1.29492c-2.77246 -0.890625 -2.75879 -1.8916 -2.75879 -1.8916l-0.928711 0.0371094c-3.71484 0.148438 -4.69629 4.19141 -4.79004 11.2002c0 0 -0.0136719 1.00195 -0.0263672 2.00293
c-0.374023 28.0371 1.12305 54.999 0.749023 83.0361c-0.320312 24.0322 -1.67578 56.1113 -2.95215 82.1836c-0.0800781 6.00781 1.75098 7.93555 5.46484 7.78711c14.8447 0.407227 37.1182 0.517578 64.0479 -0.55957
c3.71484 -0.149414 7.42969 -0.297852 11.1436 -0.446289c13.001 -0.519531 26.9434 -2.07812 39.957 -3.59961c11.1572 -1.44727 21.3848 -2.85742 31.5996 -3.26562c8.35742 -0.333984 8.46484 -8.34473 8.55762 -15.3545
c0.0810547 -6.00781 0.147461 -11.0146 0.227539 -17.0225c0.320312 -24.0322 -0.261719 -50.0293 0.0859375 -76.0645zM142.997 -333.588c0 4.01172 2 8.15039 2 12.0225c1.99707 81.624 2 82.0938 2 173.803v0.806641c0 84.3809 -0.00292969 156.631 -0.99707 228.346
c1 4.00781 5 5.61035 8 5.61035c4.12988 0 6 -0.946289 6 -4.00781c0 -7.18848 -0.00292969 -10.417 -0.00292969 -18.4316c0 -141.867 1.52734 -252.214 2.75 -330.021c0.381836 -24.3105 0.220703 -37.583 0.633789 -55.3066
c0.0419922 -1.81738 1.3252 -3.68262 1.3457 -5.61035c0.0185547 -1.66602 0.77832 -4.18066 0.77832 -5.95215c0 -6.15137 -2.6709 -7.6709 -11.5078 -7.6709c-6 0 -11 2.4043 -11 6.41211zM-4.00293 -458.194c0 1.70215 1 5.10449 1 6.80664
c0 1.70117 1 4.25391 1 5.95508c2 86.7764 2 188.016 2 285.852v1.5752c0 89.5654 -0.00292969 166.679 -0.99707 242.801c0.0947266 4.24121 4.25 4.8916 7.25 4.8916c4.12988 0 6.75 -0.791992 6.75 -3.19043c0 -7.62988 -0.00292969 -11.0576 -0.00292969 -19.5645
c0 -150.583 0.227539 -372.363 1.5 -454.938c0.473633 -30.7412 2.75781 -45.4873 4.25781 -68c0.43457 -6.51855 -3.9209 -8.99316 -12.7578 -8.99316c-6 0 -10 2.55176 -10 6.80566z" />
    <glyph glyph-name="plicaBrevisDescWhite" unicode="&#xf0b0;" horiz-adv-x="161" 
d="M84.0645 56c-19 0 -42 -1 -58 -2c-9 0 -10.5 -5 -10.5 -14v-25v-32.2588c0.0195312 -3.12305 0.0410156 -6.26465 0.0634766 -9.42773c0.702148 -14.5381 7.23438 -24.4277 20.4365 -26.3135c17 -2 29 -3 43 -3h4c16 0 37 1 51 2c9 1 12 9 12 15c1 13 1 19 1 32v6
c0 7.33301 0.435547 13.4619 0.435547 20.2773c0 3.40723 -0.109375 6.98633 -0.435547 10.9727c-0.983398 12 -13.0361 20.9307 -29 23.25c-12.0186 1.74609 -16 2.5 -34 2.5zM158.766 -21.4209c0.280273 -21.0273 1.63574 -53.1074 1.78223 -64.1221
c0.120117 -9.01172 -5.4248 -10.791 -15.6396 -10.3828c-15.7861 0.631836 -41.8271 4.67578 -61.3281 5.45508c-9.28613 0.37207 -15.7998 1.63281 -25.0859 2.00488c-2.78613 0.111328 -3.71484 0.148438 -7.42871 0.296875
c-16.7158 0.668945 -35.2881 1.41113 -42.6768 -1.29492c-2.77246 -0.890625 -2.75879 -1.8916 -2.75879 -1.8916l-0.928711 0.0371094c-3.71484 0.148438 -4.69629 4.19141 -4.79004 11.2002c0 0 -0.0136719 1.00195 -0.0263672 2.00293
c-0.374023 28.0371 1.12305 54.999 0.749023 83.0361c-0.320312 24.0322 -1.67578 56.1113 -2.95215 82.1836c-0.0800781 6.00781 1.75098 7.93555 5.46484 7.78711c14.8447 0.407227 37.1182 0.517578 64.0479 -0.55957
c3.71484 -0.149414 7.42969 -0.297852 11.1436 -0.446289c13.001 -0.519531 26.9434 -2.07812 39.957 -3.59961c11.1572 -1.44727 21.3848 -2.85742 31.5996 -3.26562c8.35742 -0.333984 8.46484 -8.34473 8.55762 -15.3545
c0.0810547 -6.00781 0.147461 -11.0146 0.227539 -17.0225c0.320312 -24.0322 -0.261719 -50.0293 0.0859375 -76.0645zM142.997 -333.588c0 4.01172 2 8.15039 2 12.0225c1.99707 81.624 2 82.0938 2 173.803v0.806641c0 84.3809 -0.00292969 156.631 -0.99707 228.346
c1 4.00781 5 5.61035 8 5.61035c4.12988 0 6 -0.946289 6 -4.00781c0 -7.18848 -0.00292969 -10.417 -0.00292969 -18.4316c0 -141.867 1.52734 -252.214 2.75 -330.021c0.381836 -24.3105 0.220703 -37.583 0.633789 -55.3066
c0.0419922 -1.81738 1.3252 -3.68262 1.3457 -5.61035c0.0185547 -1.66602 0.77832 -4.18066 0.77832 -5.95215c0 -6.15137 -2.6709 -7.6709 -11.5078 -7.6709c-6 0 -11 2.4043 -11 6.41211zM-4.00293 -458.194c0 1.70215 1 5.10449 1 6.80664
c0 1.70117 1 4.25391 1 5.95508c2 86.7764 2 188.016 2 285.852v1.5752c0 89.5654 -0.00292969 166.679 -0.99707 242.801c0.0947266 4.24121 4.25 4.8916 7.25 4.8916c4.12988 0 6.75 -0.791992 6.75 -3.19043c0 -7.62988 -0.00292969 -11.0576 -0.00292969 -19.5645
c0 -150.583 0.227539 -372.363 1.5 -454.938c0.473633 -30.7412 2.75781 -45.4873 4.25781 -68c0.43457 -6.51855 -3.9209 -8.99316 -12.7578 -8.99316c-6 0 -10 2.55176 -10 6.80566z" />
    <glyph glyph-name="plusminus" unicode="&#xb1;" horiz-adv-x="128" 
d="M107.5 -20.6982v33.8887c0 10.9043 -2.94238 19.46 -9.91797 22.666c-10.8213 4.97363 -22.3965 7.74902 -33.9082 7.74902c-10.6592 0 -21.2646 -2.37891 -31.168 -7.5957c-6.96094 -3.66602 -12.0059 -13.333 -12.0059 -25.082v-32.5176
c0 -14.1582 11.21 -16.9971 20.7119 -18.1992c7.88574 -0.998047 15.3223 -1.52637 22.8477 -1.52637c7.47266 0 15.0322 0.521484 23.2041 1.62402c10.0449 1.35547 20.2363 5.46191 20.2363 18.9932zM128 -75c-18 6 -46 12 -61 12c-20 0 -43 -5 -67 -13v501
c2.25708 1.35425 4.51416 1.89339 6.67926 1.89339c2.63113 0 5.12641 -0.796223 7.32074 -1.89339v-341.667c0 -11.0395 1.96249 -14.0705 6.46026 -14.0705c2.28084 0 5.21363 0.779431 8.87308 1.6892c14.0919 3.50337 27.3793 4.04829 40.6667 4.04829
c9.14243 0 16.8388 -0.578436 24.3333 -1.89085c4.41043 -0.772334 8.27992 -1.77292 11.3935 -1.77292c5.18459 0 8.27318 2.77438 8.27318 13.9968v344.667c2.6411 2.20092 5.08844 3.0455 7.25673 3.0455c2.75758 0 5.06382 -1.36605 6.74327 -3.0455v-505z" />
    <glyph glyph-name="plusminus" unicode="&#xf0b1;" horiz-adv-x="128" 
d="M107.5 -20.6982v33.8887c0 10.9043 -2.94238 19.46 -9.91797 22.666c-10.8213 4.97363 -22.3965 7.74902 -33.9082 7.74902c-10.6592 0 -21.2646 -2.37891 -31.168 -7.5957c-6.96094 -3.66602 -12.0059 -13.333 -12.0059 -25.082v-32.5176
c0 -14.1582 11.21 -16.9971 20.7119 -18.1992c7.88574 -0.998047 15.3223 -1.52637 22.8477 -1.52637c7.47266 0 15.0322 0.521484 23.2041 1.62402c10.0449 1.35547 20.2363 5.46191 20.2363 18.9932zM128 -75c-18 6 -46 12 -61 12c-20 0 -43 -5 -67 -13v501
c2.25708 1.35425 4.51416 1.89339 6.67926 1.89339c2.63113 0 5.12641 -0.796223 7.32074 -1.89339v-341.667c0 -11.0395 1.96249 -14.0705 6.46026 -14.0705c2.28084 0 5.21363 0.779431 8.87308 1.6892c14.0919 3.50337 27.3793 4.04829 40.6667 4.04829
c9.14243 0 16.8388 -0.578436 24.3333 -1.89085c4.41043 -0.772334 8.27992 -1.77292 11.3935 -1.77292c5.18459 0 8.27318 2.77438 8.27318 13.9968v344.667c2.6411 2.20092 5.08844 3.0455 7.25673 3.0455c2.75758 0 5.06382 -1.36605 6.74327 -3.0455v-505z" />
    <glyph glyph-name="ascii178" unicode="&#x2264;" horiz-adv-x="128" 
d="M107.5 -20.6982v33.8887c0 10.9043 -2.94238 19.46 -9.91797 22.666c-10.8213 4.97363 -22.3965 7.74902 -33.9082 7.74902c-10.6592 0 -21.2646 -2.37891 -31.168 -7.5957c-6.96094 -3.66602 -12.0059 -13.333 -12.0059 -25.082v-32.5176
c0 -14.1582 11.21 -16.9971 20.7119 -18.1992c7.88574 -0.998047 15.3223 -1.52637 22.8477 -1.52637c7.47266 0 15.0322 0.521484 23.2041 1.62402c10.0449 1.35547 20.2363 5.46191 20.2363 18.9932zM128 -450c-1.67945 -1.67945 -3.98569 -3.0455 -6.74327 -3.0455
c-2.16829 0 -4.61563 0.844587 -7.25673 3.0455v363.333c0 14.0488 -4.30647 18.4798 -14.6667 20.7004c-11.4747 2.45941 -21.6504 2.96663 -32.3333 2.96663c-12.9738 0 -27.2626 -1.9725 -42.3333 -5.38436c-9.69508 -2.19487 -10.6667 -7.22892 -10.6667 -19.6156v-361
c-2.74292 -1.09717 -5.48584 -1.89339 -8.06366 -1.89339c-2.12123 0 -4.13067 0.539142 -5.93634 1.89339v373v28v107c26 14 48 16 70 16s35 -3 58 -13v-512z" />
    </font>
</defs>
</svg>
