<?xml version="1.0" standalone="no"?>
<!DOCTYPE svg PUBLIC "-//W3C//DTD SVG 1.1//EN" "http://www.w3.org/Graphics/SVG/1.1/DTD/svg11.dtd" >
<svg xmlns="http://www.w3.org/2000/svg" xmlns:xlink="http://www.w3.org/1999/xlink" version="1.1">
<metadata>
Created by FontForge 20200314 at Wed Oct  7 17:18:08 2020
 By Robert Piechaud
(c) Robert Piechaud 2020. Machaut font is dedicated to medieval music and designed for the package MEDIEVAL for FINALE. It cannot be sold separately.
</metadata>
<defs>
<font id="Machaut" horiz-adv-x="171" >
  <font-face 
    font-family="Machaut"
    font-weight="400"
    font-stretch="normal"
    units-per-em="1000"
    panose-1="2 0 5 3 0 0 0 0 0 0"
    ascent="800"
    descent="-200"
    x-height="38"
    cap-height="464.163"
    bbox="-231 -936.668 968 1250"
    underline-thickness="9"
    underline-position="-82"
    stemh=" 19 "
    stemv=" 26 "
    unicode-range="U+0020-FB02"
  />
    <missing-glyph />
    <glyph glyph-name="zeroWidthSpace" unicode=" " horiz-adv-x="0" 
 />
    <glyph glyph-name="zeroWidthSpace" unicode="&#xf020;" horiz-adv-x="0" 
 />
    <glyph glyph-name="mensuralRestFusa" unicode="!" horiz-adv-x="98" 
d="M89 127.2c3 0 8 -4 8 -6.40039v-116.934c0 -2.61426 -0.464844 -3.93457 -4.2666 -4.19727c-4.88965 -0.338867 -9.7793 -0.533203 -14.6689 -0.533203c-4.53223 0 -9.07715 0.0400391 -13.5977 0.539062c-2.6416 0.291992 -3.4668 1.55859 -3.4668 4.05859v88.2666
c0 2.40039 2 6.40039 -8 6.40039h-45c-5 0 -8 0.799805 -8 5.59961v18.4004c0 1.59961 1 4.7998 8 4.7998h81z" />
    <glyph glyph-name="mensuralRestFusa" unicode="&#xf021;" horiz-adv-x="98" 
d="M89 127.2c3 0 8 -4 8 -6.40039v-116.934c0 -2.61426 -0.464844 -3.93457 -4.2666 -4.19727c-4.88965 -0.338867 -9.7793 -0.533203 -14.6689 -0.533203c-4.53223 0 -9.07715 0.0400391 -13.5977 0.539062c-2.6416 0.291992 -3.4668 1.55859 -3.4668 4.05859v88.2666
c0 2.40039 2 6.40039 -8 6.40039h-45c-5 0 -8 0.799805 -8 5.59961v18.4004c0 1.59961 1 4.7998 8 4.7998h81z" />

<!--
plicaSemibrevisAsc
-->
    <glyph glyph-name="plicaSemibrevisAscBlack" unicode="&#x22;" horiz-adv-x="160" 
d="M359 355c-30 -51 -65 -111 -102 -182c-48 -93 -105 -203 -168 -329c-21 32 -52 83 -88 156c21 33 46 82 77 150c14 -31 35 -68 66 -123c3 -5 4 -9 7 -9c2 0 4 2 7 6c31 54 63 115 98 180c22 42 47 84 73 131c3 4 3 11 6 15c3 6 6 10 10 17c2 1 3 2 5 2l5 -2
c3 -2 4 -6 4 -12z" />

<!--
plicaSemibrevisAsc
-->
    <glyph glyph-name="plicaSemibrevisAscBlack" unicode="&#xe998;" horiz-adv-x="160" 
d="M359 355c-30 -51 -65 -111 -102 -182c-48 -93 -105 -203 -168 -329c-21 32 -52 83 -88 156c21 33 46 82 77 150c14 -31 35 -68 66 -123c3 -5 4 -9 7 -9c2 0 4 2 7 6c31 54 63 115 98 180c22 42 47 84 73 131c3 4 3 11 6 15c3 6 6 10 10 17c2 1 3 2 5 2l5 -2
c3 -2 4 -6 4 -12z" />

<!--
plicaSemibrevisAsc
-->
    <glyph glyph-name="plicaSemibrevisAscBlack" unicode="&#xf022;" horiz-adv-x="160" 
d="M359 355c-30 -51 -65 -111 -102 -182c-48 -93 -105 -203 -168 -329c-21 32 -52 83 -88 156c21 33 46 82 77 150c14 -31 35 -68 66 -123c3 -5 4 -9 7 -9c2 0 4 2 7 6c31 54 63 115 98 180c22 42 47 84 73 131c3 4 3 11 6 15c3 6 6 10 10 17c2 1 3 2 5 2l5 -2
c3 -2 4 -6 4 -12z" />

<!--
plicaSemibrevisDesc
-->
    <glyph glyph-name="plicaSemibrevisDescBlack" unicode="#" horiz-adv-x="167" 
d="M372 -343c-68 114 -160 281 -279 493c-20 -31 -55 -80 -93 -150c22 -32 49 -79 81 -144c14 30 37 65 69 118c4 5 5 9 8 9c2 0 4 -2 7 -6c34 -53 68 -109 105 -172c23 -40 46 -84 70 -129c3 -4 3 -10 6 -14c4 -6 7 -9 11 -16c2 -1 4 -2 6 -2l5 2c3 2 4 5 4 11z" />

<!--
plicaSemibrevisDesc
-->
    <glyph glyph-name="plicaSemibrevisDescBlack" unicode="&#xf023;" horiz-adv-x="167" 
d="M372 -343c-68 114 -160 281 -279 493c-20 -31 -55 -80 -93 -150c22 -32 49 -79 81 -144c14 30 37 65 69 118c4 5 5 9 8 9c2 0 4 -2 7 -6c34 -53 68 -109 105 -172c23 -40 46 -84 70 -129c3 -4 3 -10 6 -14c4 -6 7 -9 11 -16c2 -1 4 -2 6 -2l5 2c3 2 4 5 4 11z" />
    <glyph glyph-name="mensuralRest3FullSpaceUp" unicode="$" horiz-adv-x="135" 
d="M95.1562 500h10.6426h11.5117c2.07617 0 2.32812 -1.49805 2.32812 -3.81152c0 -0.737305 -0.0263672 -1.55762 -0.0263672 -2.43848l0.53125 -106.75l-1.23926 -144.5l0.53125 -185l0.176758 -52c0 -0.860352 0.0273438 -1.63965 0.0273438 -2.32227
c0 -2.00098 -0.242188 -3.17773 -2.15234 -3.17773h-10.2715h-12.4131c-2.07715 0 -2.3291 1.6416 -2.3291 4.02441c0 0.759766 0.0263672 1.59473 0.0263672 2.47559v44l-0.532227 179l1.24023 147l-0.708008 118c0 0.495117 -0.00390625 0.952148 -0.00390625 1.37402
c0 2.91309 0.158203 4.12598 2.66016 4.12598zM3.40625 500h10.6426h11.5117c2.07617 0 2.32812 -1.49805 2.32812 -3.81152c0 -0.737305 -0.0263672 -1.55762 -0.0263672 -2.43848l0.53125 -106.75l-1.23926 -144.5l0.53125 -185l0.176758 -52
c0 -0.860352 0.0273438 -1.63965 0.0273438 -2.32227c0 -2.00098 -0.242188 -3.17773 -2.15234 -3.17773h-10.2715h-12.4131c-2.07715 0 -2.3291 1.6416 -2.3291 4.02441c0 0.759766 0.0263672 1.59473 0.0263672 2.47559v44l-0.532227 179l1.24023 147l-0.708008 118
c0 0.495117 -0.00390625 0.952148 -0.00390625 1.37402c0 2.91309 0.158203 4.12598 2.66016 4.12598z" />
    <glyph glyph-name="mensuralRest3FullSpaceUp" unicode="&#xf024;" horiz-adv-x="135" 
d="M95.1562 500h10.6426h11.5117c2.07617 0 2.32812 -1.49805 2.32812 -3.81152c0 -0.737305 -0.0263672 -1.55762 -0.0263672 -2.43848l0.53125 -106.75l-1.23926 -144.5l0.53125 -185l0.176758 -52c0 -0.860352 0.0273438 -1.63965 0.0273438 -2.32227
c0 -2.00098 -0.242188 -3.17773 -2.15234 -3.17773h-10.2715h-12.4131c-2.07715 0 -2.3291 1.6416 -2.3291 4.02441c0 0.759766 0.0263672 1.59473 0.0263672 2.47559v44l-0.532227 179l1.24023 147l-0.708008 118c0 0.495117 -0.00390625 0.952148 -0.00390625 1.37402
c0 2.91309 0.158203 4.12598 2.66016 4.12598zM3.40625 500h10.6426h11.5117c2.07617 0 2.32812 -1.49805 2.32812 -3.81152c0 -0.737305 -0.0263672 -1.55762 -0.0263672 -2.43848l0.53125 -106.75l-1.23926 -144.5l0.53125 -185l0.176758 -52
c0 -0.860352 0.0273438 -1.63965 0.0273438 -2.32227c0 -2.00098 -0.242188 -3.17773 -2.15234 -3.17773h-10.2715h-12.4131c-2.07715 0 -2.3291 1.6416 -2.3291 4.02441c0 0.759766 0.0263672 1.59473 0.0263672 2.47559v44l-0.532227 179l1.24023 147l-0.708008 118
c0 0.495117 -0.00390625 0.952148 -0.00390625 1.37402c0 2.91309 0.158203 4.12598 2.66016 4.12598z" />
    <glyph glyph-name="percent" unicode="%" horiz-adv-x="192" 
d="M14 -101c-7 2 -12 7 -14 14l72 72c3.63482 3.63482 5.38222 7 5.38222 10.2356c0 2.99555 -1.49777 5.87999 -4.38222 8.76444l-75 74c4 8 9 13 14 15l72 -72c4 -4 8 -6 12 -6l12 6l72 72c6 -3 11 -7 15 -14l-76 -75
c-3.13665 -3.13665 -4.63353 -6.27329 -4.63353 -9.26707c0 -2.73293 1.24741 -5.3468 3.63353 -7.73293l75 -75c-3 -6 -8 -11 -14 -14l-76 76c-2.16118 2.16118 -4.32236 3.20139 -6.56429 3.20139c-2.9449 0 -6.02913 -1.7948 -9.43571 -5.20139z" />
    <glyph glyph-name="percent" unicode="&#xf025;" horiz-adv-x="192" 
d="M14 -101c-7 2 -12 7 -14 14l72 72c3.63482 3.63482 5.38222 7 5.38222 10.2356c0 2.99555 -1.49777 5.87999 -4.38222 8.76444l-75 74c4 8 9 13 14 15l72 -72c4 -4 8 -6 12 -6l12 6l72 72c6 -3 11 -7 15 -14l-76 -75
c-3.13665 -3.13665 -4.63353 -6.27329 -4.63353 -9.26707c0 -2.73293 1.24741 -5.3468 3.63353 -7.73293l75 -75c-3 -6 -8 -11 -14 -14l-76 76c-2.16118 2.16118 -4.32236 3.20139 -6.56429 3.20139c-2.9449 0 -6.02913 -1.7948 -9.43571 -5.20139z" />
    <glyph glyph-name="mensuralProlation1" unicode="&#x26;" horiz-adv-x="302" 
d="M176 -23c-6 -7 -14 -10 -24 -10c-8 0 -15 3 -21 7c-8 6 -12 13 -12 25c0 10 3 17 9 24c6 6 13 10 23 10c8 0 16 -3 22 -8c7 -6 11 -15 11 -26c0 -9 -3 -17 -8 -22zM246 -86c18 20 30 49 30 82c0 43 -18 76 -42 99c-24 20 -52 32 -84 32c-39 0 -66 -14 -89 -38
c-24 -25 -35 -53 -35 -91c0 -45 17 -75 47 -98c23 -17 51 -27 80 -27c39 0 70 17 93 41zM255 -112c-27 -25 -63 -40 -102 -40c-40 0 -78 16 -106 42s-47 60 -47 98c0 58 16 96 52 128c26 23 60 36 95 36c46 0 84 -16 113 -47c25 -26 42 -63 42 -107s-21 -86 -47 -110z" />
    <glyph glyph-name="mensuralProlation1" unicode="&#xe910;" horiz-adv-x="302" 
d="M176 -23c-6 -7 -14 -10 -24 -10c-8 0 -15 3 -21 7c-8 6 -12 13 -12 25c0 10 3 17 9 24c6 6 13 10 23 10c8 0 16 -3 22 -8c7 -6 11 -15 11 -26c0 -9 -3 -17 -8 -22zM246 -86c18 20 30 49 30 82c0 43 -18 76 -42 99c-24 20 -52 32 -84 32c-39 0 -66 -14 -89 -38
c-24 -25 -35 -53 -35 -91c0 -45 17 -75 47 -98c23 -17 51 -27 80 -27c39 0 70 17 93 41zM255 -112c-27 -25 -63 -40 -102 -40c-40 0 -78 16 -106 42s-47 60 -47 98c0 58 16 96 52 128c26 23 60 36 95 36c46 0 84 -16 113 -47c25 -26 42 -63 42 -107s-21 -86 -47 -110z" />
    <glyph glyph-name="mensuralProlation1" unicode="&#xf026;" horiz-adv-x="302" 
d="M176 -23c-6 -7 -14 -10 -24 -10c-8 0 -15 3 -21 7c-8 6 -12 13 -12 25c0 10 3 17 9 24c6 6 13 10 23 10c8 0 16 -3 22 -8c7 -6 11 -15 11 -26c0 -9 -3 -17 -8 -22zM246 -86c18 20 30 49 30 82c0 43 -18 76 -42 99c-24 20 -52 32 -84 32c-39 0 -66 -14 -89 -38
c-24 -25 -35 -53 -35 -91c0 -45 17 -75 47 -98c23 -17 51 -27 80 -27c39 0 70 17 93 41zM255 -112c-27 -25 -63 -40 -102 -40c-40 0 -78 16 -106 42s-47 60 -47 98c0 58 16 96 52 128c26 23 60 36 95 36c46 0 84 -16 113 -47c25 -26 42 -63 42 -107s-21 -86 -47 -110z" />
    <glyph glyph-name="mensuralProlation2" unicode="'" horiz-adv-x="302" 
d="M246 -86c18 20 30 49 30 82c0 43 -18 76 -42 99c-24 20 -52 32 -84 32c-39 0 -66 -14 -89 -38c-24 -25 -35 -53 -35 -91c0 -45 17 -75 47 -98c23 -17 51 -27 80 -27c39 0 70 17 93 41zM255 -112c-27 -25 -63 -40 -102 -40c-40 0 -78 16 -106 42s-47 60 -47 98
c0 58 16 96 52 128c26 23 60 36 95 36c46 0 84 -16 113 -47c25 -26 42 -63 42 -107s-21 -86 -47 -110z" />
    <glyph glyph-name="mensuralProlation2" unicode="&#xe911;" horiz-adv-x="302" 
d="M246 -86c18 20 30 49 30 82c0 43 -18 76 -42 99c-24 20 -52 32 -84 32c-39 0 -66 -14 -89 -38c-24 -25 -35 -53 -35 -91c0 -45 17 -75 47 -98c23 -17 51 -27 80 -27c39 0 70 17 93 41zM255 -112c-27 -25 -63 -40 -102 -40c-40 0 -78 16 -106 42s-47 60 -47 98
c0 58 16 96 52 128c26 23 60 36 95 36c46 0 84 -16 113 -47c25 -26 42 -63 42 -107s-21 -86 -47 -110z" />
    <glyph glyph-name="mensuralProlation2" unicode="&#xf027;" horiz-adv-x="302" 
d="M246 -86c18 20 30 49 30 82c0 43 -18 76 -42 99c-24 20 -52 32 -84 32c-39 0 -66 -14 -89 -38c-24 -25 -35 -53 -35 -91c0 -45 17 -75 47 -98c23 -17 51 -27 80 -27c39 0 70 17 93 41zM255 -112c-27 -25 -63 -40 -102 -40c-40 0 -78 16 -106 42s-47 60 -47 98
c0 58 16 96 52 128c26 23 60 36 95 36c46 0 84 -16 113 -47c25 -26 42 -63 42 -107s-21 -86 -47 -110z" />
    <glyph glyph-name="mensuralRest2FullSpaceUp" unicode="(" horiz-adv-x="134" 
d="M92.4297 250l21.2793 -0.25l10.626 0.25c1.82129 0 1.97949 -0.900391 1.97949 -2.53613c0 -0.344727 -0.00683594 -0.722656 -0.00683594 -1.13086l-0.455078 -51.833l0.683594 -65.25l-0.683594 -74.75l0.455078 -50.583
c0 -0.613281 0.0214844 -1.15527 0.0214844 -1.62598c0 -1.51758 -0.227539 -2.29102 -2.14648 -2.29102l-16.0908 -0.5l-16.2695 0.5c-1.65723 0 -1.83594 0.724609 -1.83594 2.11328c0 0.383789 0.0136719 0.819336 0.0136719 1.30371l-0.455078 51.583l0.683594 78.5
l-0.683594 68.25l0.455078 43.25c0 1.12402 -0.100586 2.06641 -0.100586 2.81836c0 1.4375 0.370117 2.18164 2.53027 2.18164zM2.42969 250l21.2793 -0.25l10.626 0.25c1.82129 0 1.97949 -0.900391 1.97949 -2.53613
c0 -0.344727 -0.00683594 -0.722656 -0.00683594 -1.13086l-0.455078 -51.833l0.683594 -65.25l-0.683594 -74.75l0.455078 -50.583c0 -0.613281 0.0214844 -1.15527 0.0214844 -1.62598c0 -1.51758 -0.227539 -2.29102 -2.14648 -2.29102l-16.0908 -0.5l-16.2695 0.5
c-1.65723 0 -1.83594 0.724609 -1.83594 2.11328c0 0.383789 0.0136719 0.819336 0.0136719 1.30371l-0.455078 51.583l0.683594 78.5l-0.683594 68.25l0.455078 43.25c0 1.12402 -0.100586 2.06641 -0.100586 2.81836c0 1.4375 0.370117 2.18164 2.53027 2.18164z" />
    <glyph glyph-name="mensuralRest2FullSpaceUp" unicode="&#xf028;" horiz-adv-x="134" 
d="M92.4297 250l21.2793 -0.25l10.626 0.25c1.82129 0 1.97949 -0.900391 1.97949 -2.53613c0 -0.344727 -0.00683594 -0.722656 -0.00683594 -1.13086l-0.455078 -51.833l0.683594 -65.25l-0.683594 -74.75l0.455078 -50.583
c0 -0.613281 0.0214844 -1.15527 0.0214844 -1.62598c0 -1.51758 -0.227539 -2.29102 -2.14648 -2.29102l-16.0908 -0.5l-16.2695 0.5c-1.65723 0 -1.83594 0.724609 -1.83594 2.11328c0 0.383789 0.0136719 0.819336 0.0136719 1.30371l-0.455078 51.583l0.683594 78.5
l-0.683594 68.25l0.455078 43.25c0 1.12402 -0.100586 2.06641 -0.100586 2.81836c0 1.4375 0.370117 2.18164 2.53027 2.18164zM2.42969 250l21.2793 -0.25l10.626 0.25c1.82129 0 1.97949 -0.900391 1.97949 -2.53613
c0 -0.344727 -0.00683594 -0.722656 -0.00683594 -1.13086l-0.455078 -51.833l0.683594 -65.25l-0.683594 -74.75l0.455078 -50.583c0 -0.613281 0.0214844 -1.15527 0.0214844 -1.62598c0 -1.51758 -0.227539 -2.29102 -2.14648 -2.29102l-16.0908 -0.5l-16.2695 0.5
c-1.65723 0 -1.83594 0.724609 -1.83594 2.11328c0 0.383789 0.0136719 0.819336 0.0136719 1.30371l-0.455078 51.583l0.683594 78.5l-0.683594 68.25l0.455078 43.25c0 1.12402 -0.100586 2.06641 -0.100586 2.81836c0 1.4375 0.370117 2.18164 2.53027 2.18164z" />
    <glyph glyph-name="mensuralProlation6" unicode=")" horiz-adv-x="283" 
d="M283 96c0 -9 -5 -12 -12 -12c-2 0 -5 0 -7 2c-19 33 -67 41 -115 41c-69 0 -123 -52 -123 -123c0 -75 55 -131 126 -131c38 0 62 6 85 23c9 7 19 10 24 22c3 2 6 3 8 3c8 0 14 -7 14 -14v-1c-8 -15 -22 -28 -37 -38c-26 -18 -56 -20 -91 -20c-87 0 -155 64 -155 154
c0 85 67 150 149 150c40 0 75 -5 106 -27c12 -9 24 -17 28 -29z" />
    <glyph glyph-name="mensuralProlation6" unicode="&#xe915;" horiz-adv-x="283" 
d="M283 96c0 -9 -5 -12 -12 -12c-2 0 -5 0 -7 2c-19 33 -67 41 -115 41c-69 0 -123 -52 -123 -123c0 -75 55 -131 126 -131c38 0 62 6 85 23c9 7 19 10 24 22c3 2 6 3 8 3c8 0 14 -7 14 -14v-1c-8 -15 -22 -28 -37 -38c-26 -18 -56 -20 -91 -20c-87 0 -155 64 -155 154
c0 85 67 150 149 150c40 0 75 -5 106 -27c12 -9 24 -17 28 -29z" />
    <glyph glyph-name="mensuralProlation6" unicode="&#xf029;" horiz-adv-x="283" 
d="M283 96c0 -9 -5 -12 -12 -12c-2 0 -5 0 -7 2c-19 33 -67 41 -115 41c-69 0 -123 -52 -123 -123c0 -75 55 -131 126 -131c38 0 62 6 85 23c9 7 19 10 24 22c3 2 6 3 8 3c8 0 14 -7 14 -14v-1c-8 -15 -22 -28 -37 -38c-26 -18 -56 -20 -91 -20c-87 0 -155 64 -155 154
c0 85 67 150 149 150c40 0 75 -5 106 -27c12 -9 24 -17 28 -29z" />
    <glyph glyph-name="mensuralProlation7" unicode="*" horiz-adv-x="284" 
d="M22 -64c8 -14 18 -26 32 -36c23 -17 52 -27 81 -27c39 0 70 17 93 41c19 20 30 49 30 82c0 44 -18 76 -42 99c-24 21 -52 32 -84 32c-38 0 -66 -14 -89 -38c-8 -8 -15 -16 -20 -25c-3 -2 -6 -3 -8 -3c-6 0 -15 9 -15 13c0 1 0 1 1 2c8 15 19 28 33 40c26 23 60 36 95 36
c46 0 84 -16 113 -47c25 -26 42 -63 42 -107s-21 -86 -47 -110c-27 -25 -63 -40 -102 -40c-40 0 -78 16 -106 42c-11 10 -18 23 -26 36c2 7 8 10 13 10c2 0 4 1 6 0z" />
    <glyph glyph-name="mensuralProlation7" unicode="&#xe916;" horiz-adv-x="284" 
d="M22 -64c8 -14 18 -26 32 -36c23 -17 52 -27 81 -27c39 0 70 17 93 41c19 20 30 49 30 82c0 44 -18 76 -42 99c-24 21 -52 32 -84 32c-38 0 -66 -14 -89 -38c-8 -8 -15 -16 -20 -25c-3 -2 -6 -3 -8 -3c-6 0 -15 9 -15 13c0 1 0 1 1 2c8 15 19 28 33 40c26 23 60 36 95 36
c46 0 84 -16 113 -47c25 -26 42 -63 42 -107s-21 -86 -47 -110c-27 -25 -63 -40 -102 -40c-40 0 -78 16 -106 42c-11 10 -18 23 -26 36c2 7 8 10 13 10c2 0 4 1 6 0z" />
    <glyph glyph-name="mensuralProlation7" unicode="&#xf02a;" horiz-adv-x="284" 
d="M22 -64c8 -14 18 -26 32 -36c23 -17 52 -27 81 -27c39 0 70 17 93 41c19 20 30 49 30 82c0 44 -18 76 -42 99c-24 21 -52 32 -84 32c-38 0 -66 -14 -89 -38c-8 -8 -15 -16 -20 -25c-3 -2 -6 -3 -8 -3c-6 0 -15 9 -15 13c0 1 0 1 1 2c8 15 19 28 33 40c26 23 60 36 95 36
c46 0 84 -16 113 -47c25 -26 42 -63 42 -107s-21 -86 -47 -110c-27 -25 -63 -40 -102 -40c-40 0 -78 16 -106 42c-11 10 -18 23 -26 36c2 7 8 10 13 10c2 0 4 1 6 0z" />

<!--
chantCustosStemUpPosMiddle
-->
    <glyph glyph-name="chantCustosStemUpPosMiddle" unicode="+" horiz-adv-x="53" 
d="M41 187c1.60275 0.961652 3.10275 1.40954 4.5 1.40954c2.96165 0 5.46165 -2.01229 7.5 -5.40954v-265c-16.4779 6.40809 -32.9559 17.0063 -48.6667 31.0276c-4.11395 3.67154 -4.33334 6.07874 -4.33334 14.3057v86.9167
c0 1.8676 -0.0641435 3.61036 -0.0641435 5.13426c0 3.53947 0.346032 5.89825 2.64551 5.89825c0.773266 0 1.76743 -0.266738 3.04363 -0.845014l28 -12.6875c1.90247 -0.859811 3.41719 -1.33523 4.60224 -1.33523c2.65291 0 3.65363 2.38259 3.65363 8.16901
c0 0.256996 -0.001974 0.520707 -0.00586491 0.791221c-0.873047 60.6982 -0.875 102.948 -0.875 131.625z" />

<!--
chantCustosStemUpPosMiddle
-->
    <glyph glyph-name="chantCustosStemUpPosMiddle" unicode="&#xea06;" horiz-adv-x="53" 
d="M41 187c1.60275 0.961652 3.10275 1.40954 4.5 1.40954c2.96165 0 5.46165 -2.01229 7.5 -5.40954v-265c-16.4779 6.40809 -32.9559 17.0063 -48.6667 31.0276c-4.11395 3.67154 -4.33334 6.07874 -4.33334 14.3057v86.9167
c0 1.8676 -0.0641435 3.61036 -0.0641435 5.13426c0 3.53947 0.346032 5.89825 2.64551 5.89825c0.773266 0 1.76743 -0.266738 3.04363 -0.845014l28 -12.6875c1.90247 -0.859811 3.41719 -1.33523 4.60224 -1.33523c2.65291 0 3.65363 2.38259 3.65363 8.16901
c0 0.256996 -0.001974 0.520707 -0.00586491 0.791221c-0.873047 60.6982 -0.875 102.948 -0.875 131.625z" />

<!--
chantCustosStemUpPosMiddle
-->
    <glyph glyph-name="chantCustosStemUpPosMiddle" unicode="&#xf02b;" horiz-adv-x="53" 
d="M41 187c1.60275 0.961652 3.10275 1.40954 4.5 1.40954c2.96165 0 5.46165 -2.01229 7.5 -5.40954v-265c-16.4779 6.40809 -32.9559 17.0063 -48.6667 31.0276c-4.11395 3.67154 -4.33334 6.07874 -4.33334 14.3057v86.9167
c0 1.8676 -0.0641435 3.61036 -0.0641435 5.13426c0 3.53947 0.346032 5.89825 2.64551 5.89825c0.773266 0 1.76743 -0.266738 3.04363 -0.845014l28 -12.6875c1.90247 -0.859811 3.41719 -1.33523 4.60224 -1.33523c2.65291 0 3.65363 2.38259 3.65363 8.16901
c0 0.256996 -0.001974 0.520707 -0.00586491 0.791221c-0.873047 60.6982 -0.875 102.948 -0.875 131.625z" />

<!--
chantCustosStemUpPosLow
-->
    <glyph glyph-name="chantCustosStemUpPosLow" unicode="," horiz-adv-x="53" 
d="M41 296c0.885622 0.177124 1.73987 0.26013 2.56275 0.26013c3.82288 0 6.96863 -1.7915 9.43725 -4.26013v-374c-15.6974 4.61687 -31.3947 14.3495 -48.6667 30.7724c-3.62469 3.44651 -4.33333 4.98083 -4.33333 12.561v93.3333
c0 5.06917 0.23236 7.21294 1.59577 7.21294c0.886594 0 2.25146 -0.906512 4.34173 -2.50461c9.98535 -7.63281 18.9365 -11.7856 30.0625 -14.2987c1.04669 -0.236417 1.91131 -0.353164 2.6252 -0.353164c3.004 0 3.33894 2.06722 3.33894 5.98388
c0 0.9993 -0.0218036 2.11899 -0.026644 3.35546z" />

<!--
chantCustosStemUpPosLow
-->
    <glyph glyph-name="chantCustosStemUpPosLow" unicode="&#xea05;" horiz-adv-x="53" 
d="M41 296c0.885622 0.177124 1.73987 0.26013 2.56275 0.26013c3.82288 0 6.96863 -1.7915 9.43725 -4.26013v-374c-15.6974 4.61687 -31.3947 14.3495 -48.6667 30.7724c-3.62469 3.44651 -4.33333 4.98083 -4.33333 12.561v93.3333
c0 5.06917 0.23236 7.21294 1.59577 7.21294c0.886594 0 2.25146 -0.906512 4.34173 -2.50461c9.98535 -7.63281 18.9365 -11.7856 30.0625 -14.2987c1.04669 -0.236417 1.91131 -0.353164 2.6252 -0.353164c3.004 0 3.33894 2.06722 3.33894 5.98388
c0 0.9993 -0.0218036 2.11899 -0.026644 3.35546z" />

<!--
chantCustosStemUpPosLow
-->
    <glyph glyph-name="chantCustosStemUpPosLow" unicode="&#xf02c;" horiz-adv-x="53" 
d="M41 296c0.885622 0.177124 1.73987 0.26013 2.56275 0.26013c3.82288 0 6.96863 -1.7915 9.43725 -4.26013v-374c-15.6974 4.61687 -31.3947 14.3495 -48.6667 30.7724c-3.62469 3.44651 -4.33333 4.98083 -4.33333 12.561v93.3333
c0 5.06917 0.23236 7.21294 1.59577 7.21294c0.886594 0 2.25146 -0.906512 4.34173 -2.50461c9.98535 -7.63281 18.9365 -11.7856 30.0625 -14.2987c1.04669 -0.236417 1.91131 -0.353164 2.6252 -0.353164c3.004 0 3.33894 2.06722 3.33894 5.98388
c0 0.9993 -0.0218036 2.11899 -0.026644 3.35546z" />
    <glyph glyph-name="hyphen" unicode="-" horiz-adv-x="154" 
d="M49 -22c-19 3 -28 13 -28 32c0 4 1 7 3 10c27 35 67 79 121 130v-13c-37 -35 -61 -61 -71 -76c-1 -1 -1 -3 -1 -5c0 -13 6 -19 17 -18c93 98 212 222 357 371c1 -9 2 -14 1 -15c-171 -173 -304 -311 -399 -416z" />
    <glyph glyph-name="hyphen" unicode="&#xf02d;" horiz-adv-x="154" 
d="M49 -22c-19 3 -28 13 -28 32c0 4 1 7 3 10c27 35 67 79 121 130v-13c-37 -35 -61 -61 -71 -76c-1 -1 -1 -3 -1 -5c0 -13 6 -19 17 -18c93 98 212 222 357 371c1 -9 2 -14 1 -15c-171 -173 -304 -311 -399 -416z" />

<!--
mensuralCustosUp
-->
    <glyph glyph-name="mensuralCustosUp" unicode="." horiz-adv-x="154" 
d="M0 -6l0.25 8.5459c0 1.61035 1.1709 2.89551 1.9375 3.6416l35.8125 34.8125c2.24089 2.17832 4.23724 3.65212 5.54545 4.79838c0.705742 0.618368 1.35554 0.896764 1.98988 0.896764c0.818301 0 1.61088 -0.463275 2.46466 -1.25764
c2.24707 -2.09082 6.47207 -7.1343 15 -16.4375c5.34929 -5.83559 9.59342 -10.1773 12.5006 -13.25c1.6631 -1.75784 3.26633 -2.59244 4.87441 -2.59244c1.51915 0 3.04264 0.744849 4.62502 2.15983c5.52006 4.93607 15.997 14.706 31.6364 28.5881
c1.15927 1.02902 2.00572 1.58319 2.81 1.58319c0.848441 0 1.64995 -0.616707 2.72227 -1.94326c0.938218 -1.16066 2.26897 -2.59247 3.83136 -4.54545c9.88839 -11.6334 17.4084 -19.8834 22.1664 -24.75c3.32866 -3.40462 4.68484 -5.38503 6.29238 -5.38503
c1.13108 0 2.3866 0.980429 4.5412 3.13503c37 39 108 111 214 218c101.576 101.576 168.005 167.104 201 198.296c1.71455 1.62089 3.08536 3.02716 4.00809 3.02716c0.609452 0 1.34022 -0.654188 1.34022 -2.20024c0 -0.24132 -0.017804 -0.504368 -0.0566524 -0.790049
c0.125209 -0.291697 0.179206 -0.592535 0.179206 -0.91001c0 -1.99147 -2.12469 -4.63762 -2.12469 -9.78897c0 -0.765725 0.0469462 -1.5868 0.154795 -2.46931c-204 -195 -345.453 -341.117 -439.501 -435.165c-1.58635 -1.58635 -3.10755 -2.92362 -4.36364 -3.9439
c-1.04221 -0.846562 -2.04591 -1.51251 -2.94258 -1.51251c-0.478931 0 -0.927329 0.189985 -1.33476 0.643908c-2.61001 2.90787 -10.6142 11.7311 -27.4508 27.9033c-2.16349 2.07853 -3.95185 3.20833 -5.73213 3.20833c-1.26853 0 -2.53296 -0.573622 -3.92608 -1.78637
c-3.17279 -2.76201 -7.76631 -7.02908 -13.25 -12.5128c-8.40418 -7.70383 -13.9558 -12.8537 -16.7273 -15.4107c-0.710088 -0.655137 -1.29505 -0.982472 -1.88834 -0.982472c-0.751586 0 -1.51655 0.525301 -2.5662 1.57496l-3.81818 3.81818l-23 25
c-2.98546 3.24507 -4.9495 5.51781 -7.79241 5.51781c-1.31743 0 -2.82359 -0.488068 -4.70759 -1.59362c-5.23876 -3.07415 -9.66909 -6.97507 -18.5 -15.9242z" />

<!--
mensuralCustosUp
-->
    <glyph glyph-name="mensuralCustosUp" unicode="&#xea02;" horiz-adv-x="154" 
d="M0 -6l0.25 8.5459c0 1.61035 1.1709 2.89551 1.9375 3.6416l35.8125 34.8125c2.24089 2.17832 4.23724 3.65212 5.54545 4.79838c0.705742 0.618368 1.35554 0.896764 1.98988 0.896764c0.818301 0 1.61088 -0.463275 2.46466 -1.25764
c2.24707 -2.09082 6.47207 -7.1343 15 -16.4375c5.34929 -5.83559 9.59342 -10.1773 12.5006 -13.25c1.6631 -1.75784 3.26633 -2.59244 4.87441 -2.59244c1.51915 0 3.04264 0.744849 4.62502 2.15983c5.52006 4.93607 15.997 14.706 31.6364 28.5881
c1.15927 1.02902 2.00572 1.58319 2.81 1.58319c0.848441 0 1.64995 -0.616707 2.72227 -1.94326c0.938218 -1.16066 2.26897 -2.59247 3.83136 -4.54545c9.88839 -11.6334 17.4084 -19.8834 22.1664 -24.75c3.32866 -3.40462 4.68484 -5.38503 6.29238 -5.38503
c1.13108 0 2.3866 0.980429 4.5412 3.13503c37 39 108 111 214 218c101.576 101.576 168.005 167.104 201 198.296c1.71455 1.62089 3.08536 3.02716 4.00809 3.02716c0.609452 0 1.34022 -0.654188 1.34022 -2.20024c0 -0.24132 -0.017804 -0.504368 -0.0566524 -0.790049
c0.125209 -0.291697 0.179206 -0.592535 0.179206 -0.91001c0 -1.99147 -2.12469 -4.63762 -2.12469 -9.78897c0 -0.765725 0.0469462 -1.5868 0.154795 -2.46931c-204 -195 -345.453 -341.117 -439.501 -435.165c-1.58635 -1.58635 -3.10755 -2.92362 -4.36364 -3.9439
c-1.04221 -0.846562 -2.04591 -1.51251 -2.94258 -1.51251c-0.478931 0 -0.927329 0.189985 -1.33476 0.643908c-2.61001 2.90787 -10.6142 11.7311 -27.4508 27.9033c-2.16349 2.07853 -3.95185 3.20833 -5.73213 3.20833c-1.26853 0 -2.53296 -0.573622 -3.92608 -1.78637
c-3.17279 -2.76201 -7.76631 -7.02908 -13.25 -12.5128c-8.40418 -7.70383 -13.9558 -12.8537 -16.7273 -15.4107c-0.710088 -0.655137 -1.29505 -0.982472 -1.88834 -0.982472c-0.751586 0 -1.51655 0.525301 -2.5662 1.57496l-3.81818 3.81818l-23 25
c-2.98546 3.24507 -4.9495 5.51781 -7.79241 5.51781c-1.31743 0 -2.82359 -0.488068 -4.70759 -1.59362c-5.23876 -3.07415 -9.66909 -6.97507 -18.5 -15.9242z" />

<!--
mensuralCustosUp
-->
    <glyph glyph-name="mensuralCustosUp" unicode="&#xf02e;" horiz-adv-x="154" 
d="M0 -6l0.25 8.5459c0 1.61035 1.1709 2.89551 1.9375 3.6416l35.8125 34.8125c2.24089 2.17832 4.23724 3.65212 5.54545 4.79838c0.705742 0.618368 1.35554 0.896764 1.98988 0.896764c0.818301 0 1.61088 -0.463275 2.46466 -1.25764
c2.24707 -2.09082 6.47207 -7.1343 15 -16.4375c5.34929 -5.83559 9.59342 -10.1773 12.5006 -13.25c1.6631 -1.75784 3.26633 -2.59244 4.87441 -2.59244c1.51915 0 3.04264 0.744849 4.62502 2.15983c5.52006 4.93607 15.997 14.706 31.6364 28.5881
c1.15927 1.02902 2.00572 1.58319 2.81 1.58319c0.848441 0 1.64995 -0.616707 2.72227 -1.94326c0.938218 -1.16066 2.26897 -2.59247 3.83136 -4.54545c9.88839 -11.6334 17.4084 -19.8834 22.1664 -24.75c3.32866 -3.40462 4.68484 -5.38503 6.29238 -5.38503
c1.13108 0 2.3866 0.980429 4.5412 3.13503c37 39 108 111 214 218c101.576 101.576 168.005 167.104 201 198.296c1.71455 1.62089 3.08536 3.02716 4.00809 3.02716c0.609452 0 1.34022 -0.654188 1.34022 -2.20024c0 -0.24132 -0.017804 -0.504368 -0.0566524 -0.790049
c0.125209 -0.291697 0.179206 -0.592535 0.179206 -0.91001c0 -1.99147 -2.12469 -4.63762 -2.12469 -9.78897c0 -0.765725 0.0469462 -1.5868 0.154795 -2.46931c-204 -195 -345.453 -341.117 -439.501 -435.165c-1.58635 -1.58635 -3.10755 -2.92362 -4.36364 -3.9439
c-1.04221 -0.846562 -2.04591 -1.51251 -2.94258 -1.51251c-0.478931 0 -0.927329 0.189985 -1.33476 0.643908c-2.61001 2.90787 -10.6142 11.7311 -27.4508 27.9033c-2.16349 2.07853 -3.95185 3.20833 -5.73213 3.20833c-1.26853 0 -2.53296 -0.573622 -3.92608 -1.78637
c-3.17279 -2.76201 -7.76631 -7.02908 -13.25 -12.5128c-8.40418 -7.70383 -13.9558 -12.8537 -16.7273 -15.4107c-0.710088 -0.655137 -1.29505 -0.982472 -1.88834 -0.982472c-0.751586 0 -1.51655 0.525301 -2.5662 1.57496l-3.81818 3.81818l-23 25
c-2.98546 3.24507 -4.9495 5.51781 -7.79241 5.51781c-1.31743 0 -2.82359 -0.488068 -4.70759 -1.59362c-5.23876 -3.07415 -9.66909 -6.97507 -18.5 -15.9242z" />
    <glyph glyph-name="mensuralRestOneThirdSpaceUp" unicode="/" horiz-adv-x="40" 
d="M1.82031 82h30.5098c0.544922 0 0.996094 0.015625 1.36914 0.015625c1.38379 0 1.69727 -0.219727 1.75293 -2.28809c0.366211 -13.6807 0.568359 -27.2197 0.568359 -40.584c0 -12.3262 -0.171875 -24.5039 -0.545898 -36.5068
c-0.0712891 -2.29102 0.183594 -2.63672 -2.24414 -2.63672h-31.5c-1.64844 0 -1.97266 0.348633 -1.97266 1.2207c0 0.464844 0.0927734 1.08008 0.125 1.87012c0.507812 12.3457 0.508789 24.7227 0.508789 37.2764c0 13.459 -0.584961 26.9639 -0.584961 40.4619
c0 1.08594 0.235352 1.17383 1.29883 1.17383c0.205078 0 0.442383 -0.00292969 0.714844 -0.00292969z" />
    <glyph glyph-name="mensuralRestOneThirdSpaceUp" unicode="&#xf02f;" horiz-adv-x="40" 
d="M1.82031 82h30.5098c0.544922 0 0.996094 0.015625 1.36914 0.015625c1.38379 0 1.69727 -0.219727 1.75293 -2.28809c0.366211 -13.6807 0.568359 -27.2197 0.568359 -40.584c0 -12.3262 -0.171875 -24.5039 -0.545898 -36.5068
c-0.0712891 -2.29102 0.183594 -2.63672 -2.24414 -2.63672h-31.5c-1.64844 0 -1.97266 0.348633 -1.97266 1.2207c0 0.464844 0.0927734 1.08008 0.125 1.87012c0.507812 12.3457 0.508789 24.7227 0.508789 37.2764c0 13.459 -0.584961 26.9639 -0.584961 40.4619
c0 1.08594 0.235352 1.17383 1.29883 1.17383c0.205078 0 0.442383 -0.00292969 0.714844 -0.00292969z" />
    <glyph glyph-name="mensuralRestHalfSpaceDown" unicode="0" horiz-adv-x="36" 
d="M3.46484 127.5l13.6123 -0.25l15.7578 0.25c2.41602 0 2.80469 -0.942383 2.80469 -3.4834l-0.495117 -31.5166l0.743164 -63.75l-0.248047 -25.833c0 -2.5752 0.652344 -4.41699 -2.14453 -4.41699h-16.2939h-14.2314c-2.55176 0 -2.96973 0.0908203 -2.96973 2.66699
l0.495117 32.958l-0.743164 53.625l0.248047 37.5166c0 2.38379 1.16504 2.2334 3.46484 2.2334z" />
    <glyph glyph-name="mensuralRestHalfSpaceDown" unicode="&#xf030;" horiz-adv-x="36" 
d="M3.46484 127.5l13.6123 -0.25l15.7578 0.25c2.41602 0 2.80469 -0.942383 2.80469 -3.4834l-0.495117 -31.5166l0.743164 -63.75l-0.248047 -25.833c0 -2.5752 0.652344 -4.41699 -2.14453 -4.41699h-16.2939h-14.2314c-2.55176 0 -2.96973 0.0908203 -2.96973 2.66699
l0.495117 32.958l-0.743164 53.625l0.248047 37.5166c0 2.38379 1.16504 2.2334 3.46484 2.2334z" />
    <glyph glyph-name="mensuralRestHalfSpaceUp" unicode="1" horiz-adv-x="36" 
d="M3.38281 252.25l14.2715 -0.5l15.5107 0.5c2.29395 0 2.47461 -1.08984 2.47461 -3.4834l-0.495117 -32.5166l0.991211 -54.5l-0.496094 -34.833c0 -2.33887 0.260742 -3.66699 -2.14453 -3.66699l-14.6846 -0.5l-15.0977 0.5
c-2.65918 0 -3.71289 0.21875 -3.71289 2.83301l0.495117 39.167l-0.990234 55l0.495117 29.9336c0 2.11133 1.29102 2.06641 3.38281 2.06641z" />
    <glyph glyph-name="mensuralRestHalfSpaceUp" unicode="&#xf031;" horiz-adv-x="36" 
d="M3.38281 252.25l14.2715 -0.5l15.5107 0.5c2.29395 0 2.47461 -1.08984 2.47461 -3.4834l-0.495117 -32.5166l0.991211 -54.5l-0.496094 -34.833c0 -2.33887 0.260742 -3.66699 -2.14453 -3.66699l-14.6846 -0.5l-15.0977 0.5
c-2.65918 0 -3.71289 0.21875 -3.71289 2.83301l0.495117 39.167l-0.990234 55l0.495117 29.9336c0 2.11133 1.29102 2.06641 3.38281 2.06641z" />
    <glyph glyph-name="mensuralRest2HalfSpacesUp" unicode="2" horiz-adv-x="128" 
d="M95.8828 252.25l14.2715 -0.5l15.5107 0.5c2.29395 0 2.47461 -1.08984 2.47461 -3.4834l-0.495117 -32.5166l0.991211 -54.5l-0.496094 -34.833c0 -2.33887 0.260742 -3.66699 -2.14453 -3.66699l-14.6846 -0.5l-15.0977 0.5
c-2.65918 0 -3.71289 0.21875 -3.71289 2.83301l0.495117 39.167l-0.990234 55l0.495117 29.9336c0 2.11133 1.29102 2.06641 3.38281 2.06641zM3.38281 252.25l14.2715 -0.5l15.5107 0.5c2.29395 0 2.47461 -1.08984 2.47461 -3.4834l-0.495117 -32.5166l0.991211 -54.5
l-0.496094 -34.833c0 -2.33887 0.260742 -3.66699 -2.14453 -3.66699l-14.6846 -0.5l-15.0977 0.5c-2.65918 0 -3.71289 0.21875 -3.71289 2.83301l0.495117 39.167l-0.990234 55l0.495117 29.9336c0 2.11133 1.29102 2.06641 3.38281 2.06641z" />
    <glyph glyph-name="mensuralRest2HalfSpacesUp" unicode="&#xf032;" horiz-adv-x="128" 
d="M95.8828 252.25l14.2715 -0.5l15.5107 0.5c2.29395 0 2.47461 -1.08984 2.47461 -3.4834l-0.495117 -32.5166l0.991211 -54.5l-0.496094 -34.833c0 -2.33887 0.260742 -3.66699 -2.14453 -3.66699l-14.6846 -0.5l-15.0977 0.5
c-2.65918 0 -3.71289 0.21875 -3.71289 2.83301l0.495117 39.167l-0.990234 55l0.495117 29.9336c0 2.11133 1.29102 2.06641 3.38281 2.06641zM3.38281 252.25l14.2715 -0.5l15.5107 0.5c2.29395 0 2.47461 -1.08984 2.47461 -3.4834l-0.495117 -32.5166l0.991211 -54.5
l-0.496094 -34.833c0 -2.33887 0.260742 -3.66699 -2.14453 -3.66699l-14.6846 -0.5l-15.0977 0.5c-2.65918 0 -3.71289 0.21875 -3.71289 2.83301l0.495117 39.167l-0.990234 55l0.495117 29.9336c0 2.11133 1.29102 2.06641 3.38281 2.06641z" />
    <glyph glyph-name="mensuralRest1Space" unicode="3" horiz-adv-x="43" 
d="M2.42969 250l21.2793 -0.25l10.626 0.25c1.82129 0 1.97949 -0.900391 1.97949 -2.53613c0 -0.344727 -0.00683594 -0.722656 -0.00683594 -1.13086l-0.455078 -51.833l0.683594 -65.25l-0.683594 -74.75l0.455078 -50.583
c0 -0.613281 0.0214844 -1.15527 0.0214844 -1.62598c0 -1.51758 -0.227539 -2.29102 -2.14648 -2.29102l-16.0908 -0.5l-16.2695 0.5c-1.65723 0 -1.83594 0.724609 -1.83594 2.11328c0 0.383789 0.0136719 0.819336 0.0136719 1.30371l-0.455078 51.583l0.683594 78.5
l-0.683594 68.25l0.455078 43.25c0 1.12402 -0.100586 2.06641 -0.100586 2.81836c0 1.4375 0.370117 2.18164 2.53027 2.18164z" />
    <glyph glyph-name="mensuralRest1Space" unicode="&#xf033;" horiz-adv-x="43" 
d="M2.42969 250l21.2793 -0.25l10.626 0.25c1.82129 0 1.97949 -0.900391 1.97949 -2.53613c0 -0.344727 -0.00683594 -0.722656 -0.00683594 -1.13086l-0.455078 -51.833l0.683594 -65.25l-0.683594 -74.75l0.455078 -50.583
c0 -0.613281 0.0214844 -1.15527 0.0214844 -1.62598c0 -1.51758 -0.227539 -2.29102 -2.14648 -2.29102l-16.0908 -0.5l-16.2695 0.5c-1.65723 0 -1.83594 0.724609 -1.83594 2.11328c0 0.383789 0.0136719 0.819336 0.0136719 1.30371l-0.455078 51.583l0.683594 78.5
l-0.683594 68.25l0.455078 43.25c0 1.12402 -0.100586 2.06641 -0.100586 2.81836c0 1.4375 0.370117 2.18164 2.53027 2.18164z" />
    <glyph glyph-name="mensuralRest2Spaces" unicode="4" horiz-adv-x="44" 
d="M2.65625 500h10.6426h11.5117c2.07617 0 2.32812 -1.49805 2.32812 -3.81152c0 -0.737305 -0.0263672 -1.55762 -0.0263672 -2.43848l0.53125 -106.75l-1.23926 -144.5l0.53125 -185l0.176758 -52c0 -0.860352 0.0273438 -1.63965 0.0273438 -2.32227
c0 -2.00098 -0.242188 -3.17773 -2.15234 -3.17773h-10.2715h-12.4131c-2.07715 0 -2.3291 1.6416 -2.3291 4.02441c0 0.759766 0.0263672 1.59473 0.0263672 2.47559v44l-0.532227 179l1.24023 147l-0.708008 118c0 0.495117 -0.00390625 0.952148 -0.00390625 1.37402
c0 2.91309 0.158203 4.12598 2.66016 4.12598z" />
    <glyph glyph-name="mensuralRest2Spaces" unicode="&#xf034;" horiz-adv-x="44" 
d="M2.65625 500h10.6426h11.5117c2.07617 0 2.32812 -1.49805 2.32812 -3.81152c0 -0.737305 -0.0263672 -1.55762 -0.0263672 -2.43848l0.53125 -106.75l-1.23926 -144.5l0.53125 -185l0.176758 -52c0 -0.860352 0.0273438 -1.63965 0.0273438 -2.32227
c0 -2.00098 -0.242188 -3.17773 -2.15234 -3.17773h-10.2715h-12.4131c-2.07715 0 -2.3291 1.6416 -2.3291 4.02441c0 0.759766 0.0263672 1.59473 0.0263672 2.47559v44l-0.532227 179l1.24023 147l-0.708008 118c0 0.495117 -0.00390625 0.952148 -0.00390625 1.37402
c0 2.91309 0.158203 4.12598 2.66016 4.12598z" />
    <glyph glyph-name="mensuralRest3Spaces" unicode="5" horiz-adv-x="43" 
d="M2.83398 750h20.5645c2.97363 0 3.07031 -1.0332 3.07031 -4.83105c0 -0.264648 -0.000976562 -0.542969 -0.000976562 -0.835938l0.355469 -145.333l-0.708984 -254l0.708984 -231l-0.355469 -107.667c0 -1.22559 0.0341797 -2.22656 0.0341797 -3.04004
c0 -2.62109 -0.352539 -3.29297 -3.33887 -3.29297h-20.0928c-2.76953 0 -3.10449 0.65625 -3.10449 3.0918c0 0.776367 0.0341797 1.7334 0.0341797 2.9082l0.353516 107l-0.707031 201l0.885742 261l-0.532227 169.917
c0 0.311523 -0.000976562 0.605469 -0.000976562 0.881836c0 3.39062 0.103516 4.20117 2.83496 4.20117z" />
    <glyph glyph-name="mensuralRest3Spaces" unicode="&#xf035;" horiz-adv-x="43" 
d="M2.83398 750h20.5645c2.97363 0 3.07031 -1.0332 3.07031 -4.83105c0 -0.264648 -0.000976562 -0.542969 -0.000976562 -0.835938l0.355469 -145.333l-0.708984 -254l0.708984 -231l-0.355469 -107.667c0 -1.22559 0.0341797 -2.22656 0.0341797 -3.04004
c0 -2.62109 -0.352539 -3.29297 -3.33887 -3.29297h-20.0928c-2.76953 0 -3.10449 0.65625 -3.10449 3.0918c0 0.776367 0.0341797 1.7334 0.0341797 2.9082l0.353516 107l-0.707031 201l0.885742 261l-0.532227 169.917
c0 0.311523 -0.000976562 0.605469 -0.000976562 0.881836c0 3.39062 0.103516 4.20117 2.83496 4.20117z" />
    <glyph glyph-name="mensuralRest4Spaces" unicode="6" horiz-adv-x="141" 
d="M3.36426 1000h18.7734c3.12012 0 3.36426 -1.44922 3.36426 -6l-0.53125 -201l1.0625 -320l-1.0625 -316l0.53125 -149c0 -5.59863 0.604492 -8 -3.54102 -8h-18.9502c-3.44531 0 -3.01074 2.30371 -3.01074 7l-0.532227 150l1.06445 312l-1.06445 315l0.532227 212
c0 3.84961 0.617188 4 3.36426 4z" />
    <glyph glyph-name="mensuralRest4Spaces" unicode="&#xf036;" horiz-adv-x="141" 
d="M3.36426 1000h18.7734c3.12012 0 3.36426 -1.44922 3.36426 -6l-0.53125 -201l1.0625 -320l-1.0625 -316l0.53125 -149c0 -5.59863 0.604492 -8 -3.54102 -8h-18.9502c-3.44531 0 -3.01074 2.30371 -3.01074 7l-0.532227 150l1.06445 312l-1.06445 315l0.532227 212
c0 3.84961 0.617188 4 3.36426 4z" />
    <glyph glyph-name="verticalBar5Spaces" unicode="7" horiz-adv-x="40" 
d="M3.54199 1250h18.7725c3.08105 0 3.1875 -2.12109 3.1875 -6.5l-0.353516 -216.5l0.708984 -268l-0.708984 -276l0.708984 -272l-0.355469 -205.25c0 -5.4541 -0.881836 -5.75 -4.78125 -5.75h-17.3564c-3.29102 0 -3.36426 1.49316 -3.36426 5.86719v0.632812
l0.353516 214.5l-0.707031 266l0.707031 276l-0.707031 266l0.353516 217c0 3.84961 0.793945 4 3.54199 4z" />
    <glyph glyph-name="verticalBar5Spaces" unicode="&#xf037;" horiz-adv-x="40" 
d="M3.54199 1250h18.7725c3.08105 0 3.1875 -2.12109 3.1875 -6.5l-0.353516 -216.5l0.708984 -268l-0.708984 -276l0.708984 -272l-0.355469 -205.25c0 -5.4541 -0.881836 -5.75 -4.78125 -5.75h-17.3564c-3.29102 0 -3.36426 1.49316 -3.36426 5.86719v0.632812
l0.353516 214.5l-0.707031 266l0.707031 276l-0.707031 266l0.353516 217c0 3.84961 0.793945 4 3.54199 4z" />

<!--
mensuralFusa
-->
    <glyph glyph-name="mensuralFusaBlack" unicode="8" horiz-adv-x="198" 
d="M163.85 601.856c-2.66309 15.9453 -19.791 34.4736 -54.1777 64.1436c-1.28613 1.10938 -2.28027 1.55176 -3.04492 1.55176c-1.93359 0 -2.39844 -2.82617 -2.39844 -4.82324c0 -0.259766 0.0078125 -0.504883 0.0214844 -0.728516
c0.481812 -7.99565 0.795182 -14.416 0.996961 -20.1667c0.136144 -3.88005 0.698794 -4.27268 2.72939 -6c22.5514 -19.1833 36.0293 -34.645 51.2767 -57.3333c0.747362 -1.11208 1.36424 -1.87809 1.98684 -1.87809c0.54528 0 1.09496 0.587554 1.74054 2.04476
c1.52786 3.44868 1.58976 7.4896 1.58976 11.783c0 3.52094 -0.292555 7.30727 -0.720599 11.4068zM196 0c-23.8125 -55.6172 -52.0605 -97.2051 -105 -164.296c0.641602 1.70312 0.448242 6.94043 0.448242 9.18262c0 29.3809 -52.0723 99.3271 -91.4482 150.084
c19.0283 23.1289 56.0059 75.8271 80.6875 129.446c2.43652 5.29395 4.56738 15.8965 4.71289 22.916c1.66992 80.6133 2.74707 149.358 2.74707 218.657c0 40.2805 -0.364258 79.2764 -1.18652 122.343c-0.0693359 3.58984 -0.210938 3.80371 -2.79395 4.82812
c-16.3232 6.47266 -32.3555 14.6627 -32.3174 15.0391c0.12207 0 0.542969 -0.119141 1.30078 -0.373047c3.33982 -1.12142 17.8707 -5.49538 30.6829 -8.92025c1.02177 -0.27313 1.70073 -0.528457 2.14381 -0.528457c0.600843 0 0.767941 0.469513 0.767941 2.00083
c0 0.190159 -0.00257678 0.396692 -0.00721971 0.620732c-0.366798 17.6995 -0.8104 35.8674 -1.33748 54.667c-0.0123745 0.437868 -0.0167718 0.881305 -0.0167718 1.32664c0 1.09403 0.0265375 2.19954 0.0265375 3.26222c0 4.35547 -0.452148 8.2207 -5.07715 10.124
c-10.5557 4.34473 -25.8174 10.6895 -34.2832 15.0361c3.85059 -1.53809 17.584 -5.98438 33.2002 -9.58887c1.40234 -0.323242 2.49707 -0.551758 3.34863 -0.551758c1.97266 0 2.6416 1.22168 2.80176 5.30762c0.203125 5.18945 0.293945 11.2656 0.293945 17.8857
c0 36.4141 -1.39062 87.7305 -3.19434 100.281c-0.46582 3.23828 -2.23438 9.25293 -2.23438 13.501c0 6.91602 1.11133 13.3447 4.94141 13.3447c0.814453 0 1.75195 -0.291016 2.82715 -0.928711c22.2227 -13.1836 45.8232 -40.708 73.0156 -82.5742
c11.2002 -16.7656 19.5498 -33.5303 19.5498 -50.2949c0 -13.3203 -3.06863 -22.9655 -9.20589 -29.4229c-0.714327 -0.75158 -1.05229 -1.09243 -1.05229 -1.5351c0 -0.364984 0.229747 -0.799188 0.667722 -1.5899c9.04513 -16.3299 13.4908 -29.8075 13.4908 -43.75
c0 -20.1191 -5.75 -31.1035 -19.75 -36.1328c-3.10254 -1.06152 -8.14648 -2.36914 -12.7363 -2.36914c-8.62079 0 -23.1702 2.53163 -37.6865 6.67383c-1.09237 0.311694 -2.38018 0.714143 -3.82715 1.19211c-1.09407 0.361394 -1.87489 0.809113 -2.39209 0.809113
c-0.56557 0 -0.815908 -0.535376 -0.815908 -2.30445c0 -0.0656157 0.000344387 -0.132929 0.00102985 -0.201974c0.234784 -23.6494 0.337827 -47.048 0.337827 -70.3464c0 -83.917 -1.33301 -166.528 -2.63086 -254.82
c-0.0126953 -0.866211 -0.0195312 -1.7207 -0.0195312 -2.5625c0 -10.0127 1.02734 -18.3125 6.08203 -25.4375c20.4121 -28.7686 52.3916 -71.3584 84.9375 -130zM148.113 553.296c-8.596 0 -19.9845 1.95496 -34.858 6.21464
c-1.1045 0.31638 -2.03854 0.459279 -2.82799 0.459279c-3.73766 0 -4.23409 -3.2032 -4.23409 -6.36407c0 -0.896761 0.0399574 -1.79012 0.0571933 -2.60595c0.38761 -18.4262 0.683101 -36.6266 0.899298 -54.6667
c0.0351569 -2.93359 0.250174 -2.86186 2.68403 -3.33046c12.3298 -2.37389 25.6358 -4.46917 32.0505 -4.55951c0.344727 -0.00488281 0.685547 -0.00683594 1.02246 -0.00683594c9.20312 0 15.5762 1.80176 19.1943 5.26855
c3.65039 4.37109 5.8877 9.35547 5.8877 14.8369c0 1.81641 -0.246094 3.6875 -0.767578 5.60938c-2.8121 10.3578 -8.16073 23.5375 -16.8144 37.9736c-0.602811 1.00562 -0.640892 1.17111 -2.2934 1.17111zM105.557 600.925
c0 -5.93506 0.0385012 -11.8222 0.193361 -17.925c0.0069941 -0.275035 0.0100311 -0.551581 0.0100311 -0.829155c0 -1.83258 -0.132379 -3.70998 -0.132379 -5.49344c0 -4.58476 0.87483 -8.54876 7.12235 -9.53482c9.94826 -1.5705 18.3494 -2.40111 25.2338 -2.40111
c0.444953 0 0.844738 -0.00202773 1.20127 -0.00202773c1.63529 0 2.36061 0.0426587 2.36061 0.5193c0 0.337447 -0.363543 0.892415 -1.02511 1.80376c-8.633 11.8926 -19.4752 24.2376 -32.9017 36.2708c-0.880018 0.788703 -1.38887 1.21285 -1.68162 1.21285
c-0.339873 0 -0.388487 -0.571675 -0.388487 -1.80828c0 -0.495519 0.00780589 -1.0978 0.00780589 -1.81285z" />

<!--
mensuralFusa
-->
    <glyph glyph-name="mensuralFusaBlack" unicode="&#xf702;" horiz-adv-x="198" 
d="M163.85 601.856c-2.66309 15.9453 -19.791 34.4736 -54.1777 64.1436c-1.28613 1.10938 -2.28027 1.55176 -3.04492 1.55176c-1.93359 0 -2.39844 -2.82617 -2.39844 -4.82324c0 -0.259766 0.0078125 -0.504883 0.0214844 -0.728516
c0.481812 -7.99565 0.795182 -14.416 0.996961 -20.1667c0.136144 -3.88005 0.698794 -4.27268 2.72939 -6c22.5514 -19.1833 36.0293 -34.645 51.2767 -57.3333c0.747362 -1.11208 1.36424 -1.87809 1.98684 -1.87809c0.54528 0 1.09496 0.587554 1.74054 2.04476
c1.52786 3.44868 1.58976 7.4896 1.58976 11.783c0 3.52094 -0.292555 7.30727 -0.720599 11.4068zM196 0c-23.8125 -55.6172 -52.0605 -97.2051 -105 -164.296c0.641602 1.70312 0.448242 6.94043 0.448242 9.18262c0 29.3809 -52.0723 99.3271 -91.4482 150.084
c19.0283 23.1289 56.0059 75.8271 80.6875 129.446c2.43652 5.29395 4.56738 15.8965 4.71289 22.916c1.66992 80.6133 2.74707 149.358 2.74707 218.657c0 40.2805 -0.364258 79.2764 -1.18652 122.343c-0.0693359 3.58984 -0.210938 3.80371 -2.79395 4.82812
c-16.3232 6.47266 -32.3555 14.6627 -32.3174 15.0391c0.12207 0 0.542969 -0.119141 1.30078 -0.373047c3.33982 -1.12142 17.8707 -5.49538 30.6829 -8.92025c1.02177 -0.27313 1.70073 -0.528457 2.14381 -0.528457c0.600843 0 0.767941 0.469513 0.767941 2.00083
c0 0.190159 -0.00257678 0.396692 -0.00721971 0.620732c-0.366798 17.6995 -0.8104 35.8674 -1.33748 54.667c-0.0123745 0.437868 -0.0167718 0.881305 -0.0167718 1.32664c0 1.09403 0.0265375 2.19954 0.0265375 3.26222c0 4.35547 -0.452148 8.2207 -5.07715 10.124
c-10.5557 4.34473 -25.8174 10.6895 -34.2832 15.0361c3.85059 -1.53809 17.584 -5.98438 33.2002 -9.58887c1.40234 -0.323242 2.49707 -0.551758 3.34863 -0.551758c1.97266 0 2.6416 1.22168 2.80176 5.30762c0.203125 5.18945 0.293945 11.2656 0.293945 17.8857
c0 36.4141 -1.39062 87.7305 -3.19434 100.281c-0.46582 3.23828 -2.23438 9.25293 -2.23438 13.501c0 6.91602 1.11133 13.3447 4.94141 13.3447c0.814453 0 1.75195 -0.291016 2.82715 -0.928711c22.2227 -13.1836 45.8232 -40.708 73.0156 -82.5742
c11.2002 -16.7656 19.5498 -33.5303 19.5498 -50.2949c0 -13.3203 -3.06863 -22.9655 -9.20589 -29.4229c-0.714327 -0.75158 -1.05229 -1.09243 -1.05229 -1.5351c0 -0.364984 0.229747 -0.799188 0.667722 -1.5899c9.04513 -16.3299 13.4908 -29.8075 13.4908 -43.75
c0 -20.1191 -5.75 -31.1035 -19.75 -36.1328c-3.10254 -1.06152 -8.14648 -2.36914 -12.7363 -2.36914c-8.62079 0 -23.1702 2.53163 -37.6865 6.67383c-1.09237 0.311694 -2.38018 0.714143 -3.82715 1.19211c-1.09407 0.361394 -1.87489 0.809113 -2.39209 0.809113
c-0.56557 0 -0.815908 -0.535376 -0.815908 -2.30445c0 -0.0656157 0.000344387 -0.132929 0.00102985 -0.201974c0.234784 -23.6494 0.337827 -47.048 0.337827 -70.3464c0 -83.917 -1.33301 -166.528 -2.63086 -254.82
c-0.0126953 -0.866211 -0.0195312 -1.7207 -0.0195312 -2.5625c0 -10.0127 1.02734 -18.3125 6.08203 -25.4375c20.4121 -28.7686 52.3916 -71.3584 84.9375 -130zM148.113 553.296c-8.596 0 -19.9845 1.95496 -34.858 6.21464
c-1.1045 0.31638 -2.03854 0.459279 -2.82799 0.459279c-3.73766 0 -4.23409 -3.2032 -4.23409 -6.36407c0 -0.896761 0.0399574 -1.79012 0.0571933 -2.60595c0.38761 -18.4262 0.683101 -36.6266 0.899298 -54.6667
c0.0351569 -2.93359 0.250174 -2.86186 2.68403 -3.33046c12.3298 -2.37389 25.6358 -4.46917 32.0505 -4.55951c0.344727 -0.00488281 0.685547 -0.00683594 1.02246 -0.00683594c9.20312 0 15.5762 1.80176 19.1943 5.26855
c3.65039 4.37109 5.8877 9.35547 5.8877 14.8369c0 1.81641 -0.246094 3.6875 -0.767578 5.60938c-2.8121 10.3578 -8.16073 23.5375 -16.8144 37.9736c-0.602811 1.00562 -0.640892 1.17111 -2.2934 1.17111zM105.557 600.925
c0 -5.93506 0.0385012 -11.8222 0.193361 -17.925c0.0069941 -0.275035 0.0100311 -0.551581 0.0100311 -0.829155c0 -1.83258 -0.132379 -3.70998 -0.132379 -5.49344c0 -4.58476 0.87483 -8.54876 7.12235 -9.53482c9.94826 -1.5705 18.3494 -2.40111 25.2338 -2.40111
c0.444953 0 0.844738 -0.00202773 1.20127 -0.00202773c1.63529 0 2.36061 0.0426587 2.36061 0.5193c0 0.337447 -0.363543 0.892415 -1.02511 1.80376c-8.633 11.8926 -19.4752 24.2376 -32.9017 36.2708c-0.880018 0.788703 -1.38887 1.21285 -1.68162 1.21285
c-0.339873 0 -0.388487 -0.571675 -0.388487 -1.80828c0 -0.495519 0.00780589 -1.0978 0.00780589 -1.81285z" />

<!--
mensuralFusa
-->
    <glyph glyph-name="mensuralFusaBlack" unicode="&#xf038;" horiz-adv-x="198" 
d="M163.85 601.856c-2.66309 15.9453 -19.791 34.4736 -54.1777 64.1436c-1.28613 1.10938 -2.28027 1.55176 -3.04492 1.55176c-1.93359 0 -2.39844 -2.82617 -2.39844 -4.82324c0 -0.259766 0.0078125 -0.504883 0.0214844 -0.728516
c0.481812 -7.99565 0.795182 -14.416 0.996961 -20.1667c0.136144 -3.88005 0.698794 -4.27268 2.72939 -6c22.5514 -19.1833 36.0293 -34.645 51.2767 -57.3333c0.747362 -1.11208 1.36424 -1.87809 1.98684 -1.87809c0.54528 0 1.09496 0.587554 1.74054 2.04476
c1.52786 3.44868 1.58976 7.4896 1.58976 11.783c0 3.52094 -0.292555 7.30727 -0.720599 11.4068zM196 0c-23.8125 -55.6172 -52.0605 -97.2051 -105 -164.296c0.641602 1.70312 0.448242 6.94043 0.448242 9.18262c0 29.3809 -52.0723 99.3271 -91.4482 150.084
c19.0283 23.1289 56.0059 75.8271 80.6875 129.446c2.43652 5.29395 4.56738 15.8965 4.71289 22.916c1.66992 80.6133 2.74707 149.358 2.74707 218.657c0 40.2805 -0.364258 79.2764 -1.18652 122.343c-0.0693359 3.58984 -0.210938 3.80371 -2.79395 4.82812
c-16.3232 6.47266 -32.3555 14.6627 -32.3174 15.0391c0.12207 0 0.542969 -0.119141 1.30078 -0.373047c3.33982 -1.12142 17.8707 -5.49538 30.6829 -8.92025c1.02177 -0.27313 1.70073 -0.528457 2.14381 -0.528457c0.600843 0 0.767941 0.469513 0.767941 2.00083
c0 0.190159 -0.00257678 0.396692 -0.00721971 0.620732c-0.366798 17.6995 -0.8104 35.8674 -1.33748 54.667c-0.0123745 0.437868 -0.0167718 0.881305 -0.0167718 1.32664c0 1.09403 0.0265375 2.19954 0.0265375 3.26222c0 4.35547 -0.452148 8.2207 -5.07715 10.124
c-10.5557 4.34473 -25.8174 10.6895 -34.2832 15.0361c3.85059 -1.53809 17.584 -5.98438 33.2002 -9.58887c1.40234 -0.323242 2.49707 -0.551758 3.34863 -0.551758c1.97266 0 2.6416 1.22168 2.80176 5.30762c0.203125 5.18945 0.293945 11.2656 0.293945 17.8857
c0 36.4141 -1.39062 87.7305 -3.19434 100.281c-0.46582 3.23828 -2.23438 9.25293 -2.23438 13.501c0 6.91602 1.11133 13.3447 4.94141 13.3447c0.814453 0 1.75195 -0.291016 2.82715 -0.928711c22.2227 -13.1836 45.8232 -40.708 73.0156 -82.5742
c11.2002 -16.7656 19.5498 -33.5303 19.5498 -50.2949c0 -13.3203 -3.06863 -22.9655 -9.20589 -29.4229c-0.714327 -0.75158 -1.05229 -1.09243 -1.05229 -1.5351c0 -0.364984 0.229747 -0.799188 0.667722 -1.5899c9.04513 -16.3299 13.4908 -29.8075 13.4908 -43.75
c0 -20.1191 -5.75 -31.1035 -19.75 -36.1328c-3.10254 -1.06152 -8.14648 -2.36914 -12.7363 -2.36914c-8.62079 0 -23.1702 2.53163 -37.6865 6.67383c-1.09237 0.311694 -2.38018 0.714143 -3.82715 1.19211c-1.09407 0.361394 -1.87489 0.809113 -2.39209 0.809113
c-0.56557 0 -0.815908 -0.535376 -0.815908 -2.30445c0 -0.0656157 0.000344387 -0.132929 0.00102985 -0.201974c0.234784 -23.6494 0.337827 -47.048 0.337827 -70.3464c0 -83.917 -1.33301 -166.528 -2.63086 -254.82
c-0.0126953 -0.866211 -0.0195312 -1.7207 -0.0195312 -2.5625c0 -10.0127 1.02734 -18.3125 6.08203 -25.4375c20.4121 -28.7686 52.3916 -71.3584 84.9375 -130zM148.113 553.296c-8.596 0 -19.9845 1.95496 -34.858 6.21464
c-1.1045 0.31638 -2.03854 0.459279 -2.82799 0.459279c-3.73766 0 -4.23409 -3.2032 -4.23409 -6.36407c0 -0.896761 0.0399574 -1.79012 0.0571933 -2.60595c0.38761 -18.4262 0.683101 -36.6266 0.899298 -54.6667
c0.0351569 -2.93359 0.250174 -2.86186 2.68403 -3.33046c12.3298 -2.37389 25.6358 -4.46917 32.0505 -4.55951c0.344727 -0.00488281 0.685547 -0.00683594 1.02246 -0.00683594c9.20312 0 15.5762 1.80176 19.1943 5.26855
c3.65039 4.37109 5.8877 9.35547 5.8877 14.8369c0 1.81641 -0.246094 3.6875 -0.767578 5.60938c-2.8121 10.3578 -8.16073 23.5375 -16.8144 37.9736c-0.602811 1.00562 -0.640892 1.17111 -2.2934 1.17111zM105.557 600.925
c0 -5.93506 0.0385012 -11.8222 0.193361 -17.925c0.0069941 -0.275035 0.0100311 -0.551581 0.0100311 -0.829155c0 -1.83258 -0.132379 -3.70998 -0.132379 -5.49344c0 -4.58476 0.87483 -8.54876 7.12235 -9.53482c9.94826 -1.5705 18.3494 -2.40111 25.2338 -2.40111
c0.444953 0 0.844738 -0.00202773 1.20127 -0.00202773c1.63529 0 2.36061 0.0426587 2.36061 0.5193c0 0.337447 -0.363543 0.892415 -1.02511 1.80376c-8.633 11.8926 -19.4752 24.2376 -32.9017 36.2708c-0.880018 0.788703 -1.38887 1.21285 -1.68162 1.21285
c-0.339873 0 -0.388487 -0.571675 -0.388487 -1.80828c0 -0.495519 0.00780589 -1.0978 0.00780589 -1.81285z" />
    <glyph glyph-name="pesAnticusFinal2ndBlack" unicode="9" horiz-adv-x="8" 
d="M7 -21c0 -21 1 -53 1 -64c0 -9 -6 -11 -17 -11c-17 0 -45 3 -66 3c-10 0 -17 1 -27 1h-8c-18 0 -38 0 -46 -3c-3 -1 -3 -2 -3 -2h-1c-4 0 -5 4 -5 11v2c0 28 2 55 2 83c0 24 -1 56 -2 82c0 6 2 8 6 8c16 1 40 2 69 2h12c14 0 29 -1 43 -2c12 -1 23 -2 34 -2
c9 0 9 -8 9 -15v-17c0 -24 -1 -50 -1 -76zM-4.74609 -308.24c0 1.18945 0.716797 3.56934 0.716797 4.75977s0.71582 2.97559 0.71582 4.16504c1.43262 60.6904 1.43262 131.497 1.43262 199.923v1.10156c0 62.6416 -0.00292969 116.574 -0.714844 169.812
c0.716797 2.97559 3.58105 4.16504 5.72949 4.16504c2.95703 0 4.2959 -0.702148 4.2959 -2.97461c0 -5.33691 -0.00195312 -7.7334 -0.00195312 -13.6836c0 -105.316 1.95312 -260.428 3.40137 -318.181c0.539062 -21.4961 3.04883 -29.8799 3.04883 -47.5586
c0 -4.56543 -5.13477 -6.28906 -11.4629 -6.28906c-4.2959 0 -7.16113 1.78418 -7.16113 4.75977z" />
    <glyph glyph-name="pesAnticusFinal2ndBlack" unicode="&#xf039;" horiz-adv-x="8" 
d="M7 -21c0 -21 1 -53 1 -64c0 -9 -6 -11 -17 -11c-17 0 -45 3 -66 3c-10 0 -17 1 -27 1h-8c-18 0 -38 0 -46 -3c-3 -1 -3 -2 -3 -2h-1c-4 0 -5 4 -5 11v2c0 28 2 55 2 83c0 24 -1 56 -2 82c0 6 2 8 6 8c16 1 40 2 69 2h12c14 0 29 -1 43 -2c12 -1 23 -2 34 -2
c9 0 9 -8 9 -15v-17c0 -24 -1 -50 -1 -76zM-4.74609 -308.24c0 1.18945 0.716797 3.56934 0.716797 4.75977s0.71582 2.97559 0.71582 4.16504c1.43262 60.6904 1.43262 131.497 1.43262 199.923v1.10156c0 62.6416 -0.00292969 116.574 -0.714844 169.812
c0.716797 2.97559 3.58105 4.16504 5.72949 4.16504c2.95703 0 4.2959 -0.702148 4.2959 -2.97461c0 -5.33691 -0.00195312 -7.7334 -0.00195312 -13.6836c0 -105.316 1.95312 -260.428 3.40137 -318.181c0.539062 -21.4961 3.04883 -29.8799 3.04883 -47.5586
c0 -4.56543 -5.13477 -6.28906 -11.4629 -6.28906c-4.2959 0 -7.16113 1.78418 -7.16113 4.75977z" />
    <glyph glyph-name="pesAnticusFinal4thBlack_" unicode=";" horiz-adv-x="8" 
d="M6.25 -19c0 -21 1 -53 1 -64c0 -9 -6 -11 -17 -11c-17 0 -45 3 -66 3c-10 0 -17 1 -27 1h-8c-18 0 -38 0 -46 -3c-3 -1 -3 -2 -3 -2h-1c-4 0 -5 4 -5 11v2c0 28 2 55 2 83c0 24 -1 56 -2 82c0 6 2 8 6 8c16 1 40 2 69 2h12c14 0 29 -1 43 -2c12 -1 23 -2 34 -2
c9 0 9 -8 9 -15v-17c0 -24 -1 -50 -1 -76zM-5.94043 -474.585c0 1.68652 0.759766 5.06152 0.759766 6.74805c0 1.6875 0.759766 4.21875 0.759766 5.90527c1.51855 86.0469 1.51855 186.435 1.51855 283.447v1.5625c0 88.8125 -0.00195312 165.276 -0.756836 240.758
c0.758789 4.21777 3.79688 5.90527 6.0752 5.90527c3.13574 0 4.55664 -0.996094 4.55664 -4.21875c0 -7.56543 -0.00292969 -10.9639 -0.00292969 -19.3994c0 -149.316 2.07129 -369.231 3.60742 -451.111c0.572266 -30.4785 3.2334 -42.3633 3.2334 -67.4277
c0 -6.47461 -5.44531 -8.91797 -12.1562 -8.91797c-4.55664 0 -7.59473 2.53027 -7.59473 6.74902z" />
    <glyph glyph-name="pesAnticusFinal4thBlack_" unicode="&#xf03b;" horiz-adv-x="8" 
d="M6.25 -19c0 -21 1 -53 1 -64c0 -9 -6 -11 -17 -11c-17 0 -45 3 -66 3c-10 0 -17 1 -27 1h-8c-18 0 -38 0 -46 -3c-3 -1 -3 -2 -3 -2h-1c-4 0 -5 4 -5 11v2c0 28 2 55 2 83c0 24 -1 56 -2 82c0 6 2 8 6 8c16 1 40 2 69 2h12c14 0 29 -1 43 -2c12 -1 23 -2 34 -2
c9 0 9 -8 9 -15v-17c0 -24 -1 -50 -1 -76zM-5.94043 -474.585c0 1.68652 0.759766 5.06152 0.759766 6.74805c0 1.6875 0.759766 4.21875 0.759766 5.90527c1.51855 86.0469 1.51855 186.435 1.51855 283.447v1.5625c0 88.8125 -0.00195312 165.276 -0.756836 240.758
c0.758789 4.21777 3.79688 5.90527 6.0752 5.90527c3.13574 0 4.55664 -0.996094 4.55664 -4.21875c0 -7.56543 -0.00292969 -10.9639 -0.00292969 -19.3994c0 -149.316 2.07129 -369.231 3.60742 -451.111c0.572266 -30.4785 3.2334 -42.3633 3.2334 -67.4277
c0 -6.47461 -5.44531 -8.91797 -12.1562 -8.91797c-4.55664 0 -7.59473 2.53027 -7.59473 6.74902z" />
    <glyph glyph-name="pesAnticusFinal5thBlack_" unicode="&#x3c;" horiz-adv-x="8" 
d="M6 -19.167c0 -21 1 -53 1 -64c0 -9 -6 -11 -17 -11c-17 0 -45 3 -66 3c-10 0 -17 1 -27 1h-8c-18 0 -38 0 -46 -3c-3 -1 -3 -2 -3 -2h-1c-4 0 -5 4 -5 11v2c0 28 2 55 2 83c0 24 -1 56 -2 82c0 6 2 8 6 8c16 1 40 2 69 2h12c14 0 29 -1 43 -2c12 -1 23 -2 34 -2
c9 0 9 -8 9 -15v-17c0 -24 -1 -50 -1 -76zM-5.94824 -597.761c0 2.05859 0.758789 6.17578 0.758789 8.2334c0 2.05859 0.759766 5.14746 0.759766 7.20605c1.51855 104.985 1.51855 227.469 1.51855 345.835v1.90625c0 108.36 -0.00195312 201.655 -0.756836 293.75
c0.759766 5.14648 3.79688 7.20508 6.0752 7.20508c3.13672 0 4.55664 -1.21484 4.55664 -5.14648c0 -9.23145 -0.00195312 -13.3779 -0.00195312 -23.6699c0 -182.182 2.07129 -450.501 3.60742 -550.404c0.571289 -37.1865 3.2334 -51.6875 3.2334 -82.2686
c0 -7.89941 -5.44629 -10.8809 -12.1572 -10.8809c-4.55664 0 -7.59375 3.08789 -7.59375 8.23438z" />
    <glyph glyph-name="pesAnticusFinal5thBlack_" unicode="&#xf03c;" horiz-adv-x="8" 
d="M6 -19.167c0 -21 1 -53 1 -64c0 -9 -6 -11 -17 -11c-17 0 -45 3 -66 3c-10 0 -17 1 -27 1h-8c-18 0 -38 0 -46 -3c-3 -1 -3 -2 -3 -2h-1c-4 0 -5 4 -5 11v2c0 28 2 55 2 83c0 24 -1 56 -2 82c0 6 2 8 6 8c16 1 40 2 69 2h12c14 0 29 -1 43 -2c12 -1 23 -2 34 -2
c9 0 9 -8 9 -15v-17c0 -24 -1 -50 -1 -76zM-5.94824 -597.761c0 2.05859 0.758789 6.17578 0.758789 8.2334c0 2.05859 0.759766 5.14746 0.759766 7.20605c1.51855 104.985 1.51855 227.469 1.51855 345.835v1.90625c0 108.36 -0.00195312 201.655 -0.756836 293.75
c0.759766 5.14648 3.79688 7.20508 6.0752 7.20508c3.13672 0 4.55664 -1.21484 4.55664 -5.14648c0 -9.23145 -0.00195312 -13.3779 -0.00195312 -23.6699c0 -182.182 2.07129 -450.501 3.60742 -550.404c0.571289 -37.1865 3.2334 -51.6875 3.2334 -82.2686
c0 -7.89941 -5.44629 -10.8809 -12.1572 -10.8809c-4.55664 0 -7.59375 3.08789 -7.59375 8.23438z" />
    <glyph glyph-name="pesAnticusFinal6thBlack" unicode="=" horiz-adv-x="8" 
d="M6.25 -19c0 -21 1 -53 1 -64c0 -9 -6 -11 -17 -11c-17 0 -45 3 -66 3c-10 0 -17 1 -27 1h-8c-18 0 -38 0 -46 -3c-3 -1 -3 -2 -3 -2h-1c-4 0 -5 4 -5 11v2c0 28 2 55 2 83c0 24 -1 56 -2 82c0 6 2 8 6 8c16 1 40 2 69 2h12c14 0 29 -1 43 -2c12 -1 23 -2 34 -2
c9 0 9 -8 9 -15v-17c0 -24 -1 -50 -1 -76zM-5.94824 -721.262c0 2.43555 0.758789 7.30664 0.758789 9.74219s0.759766 6.08984 0.759766 8.52539c1.51855 124.221 1.51855 269.146 1.51855 409.197v2.25488c0 128.215 -0.00195312 238.603 -0.756836 347.57
c0.759766 6.08887 3.79688 8.52441 6.0752 8.52441c3.13672 0 4.55664 -1.4375 4.55664 -6.08887c0 -10.9229 -0.00195312 -15.8291 -0.00195312 -28.0068c0 -215.561 2.07129 -533.039 3.60742 -651.246c0.571289 -43.999 3.2334 -61.1572 3.2334 -97.3418
c0 -9.3457 -5.44629 -12.873 -12.1572 -12.873c-4.55664 0 -7.59375 3.65234 -7.59375 9.74219z" />
    <glyph glyph-name="pesAnticusFinal6thBlack" unicode="&#xf03d;" horiz-adv-x="8" 
d="M6.25 -19c0 -21 1 -53 1 -64c0 -9 -6 -11 -17 -11c-17 0 -45 3 -66 3c-10 0 -17 1 -27 1h-8c-18 0 -38 0 -46 -3c-3 -1 -3 -2 -3 -2h-1c-4 0 -5 4 -5 11v2c0 28 2 55 2 83c0 24 -1 56 -2 82c0 6 2 8 6 8c16 1 40 2 69 2h12c14 0 29 -1 43 -2c12 -1 23 -2 34 -2
c9 0 9 -8 9 -15v-17c0 -24 -1 -50 -1 -76zM-5.94824 -721.262c0 2.43555 0.758789 7.30664 0.758789 9.74219s0.759766 6.08984 0.759766 8.52539c1.51855 124.221 1.51855 269.146 1.51855 409.197v2.25488c0 128.215 -0.00195312 238.603 -0.756836 347.57
c0.759766 6.08887 3.79688 8.52441 6.0752 8.52441c3.13672 0 4.55664 -1.4375 4.55664 -6.08887c0 -10.9229 -0.00195312 -15.8291 -0.00195312 -28.0068c0 -215.561 2.07129 -533.039 3.60742 -651.246c0.571289 -43.999 3.2334 -61.1572 3.2334 -97.3418
c0 -9.3457 -5.44629 -12.873 -12.1572 -12.873c-4.55664 0 -7.59375 3.65234 -7.59375 9.74219z" />
    <glyph glyph-name="pesAnticusFinal7thBlack" unicode="&#x3e;" horiz-adv-x="8" 
d="M7 -19c0 -21 1 -53 1 -64c0 -9 -6 -11 -17 -11c-17 0 -45 3 -66 3c-10 0 -17 1 -27 1h-8c-18 0 -38 0 -46 -3c-3 -1 -3 -2 -3 -2h-1c-4 0 -5 4 -5 11v2c0 28 2 55 2 83c0 24 -1 56 -2 82c0 6 2 8 6 8c16 1 40 2 69 2h12c14 0 29 -1 43 -2c12 -1 23 -2 34 -2
c9 0 9 -8 9 -15v-17c0 -24 -1 -50 -1 -76zM-5.28223 -844.725c0 2.81836 0.759766 8.45605 0.759766 11.2744c0 2.81934 0.759766 7.04785 0.759766 9.86621c1.51855 143.758 1.51855 311.478 1.51855 473.558v2.60938c0 148.38 -0.00195312 276.13 -0.756836 402.236
c0.758789 7.04785 3.79688 9.86621 6.0752 9.86621c3.13574 0 4.55664 -1.66406 4.55664 -7.04785c0 -12.6396 -0.00292969 -18.3174 -0.00292969 -32.4111c0 -249.464 2.07129 -616.878 3.60742 -753.676c0.572266 -50.9199 3.2334 -70.7764 3.2334 -112.652
c0 -10.8154 -5.44531 -14.8984 -12.1562 -14.8984c-4.55664 0 -7.59473 4.22754 -7.59473 11.2754z" />
    <glyph glyph-name="pesAnticusFinal7thBlack" unicode="&#xf03e;" horiz-adv-x="8" 
d="M7 -19c0 -21 1 -53 1 -64c0 -9 -6 -11 -17 -11c-17 0 -45 3 -66 3c-10 0 -17 1 -27 1h-8c-18 0 -38 0 -46 -3c-3 -1 -3 -2 -3 -2h-1c-4 0 -5 4 -5 11v2c0 28 2 55 2 83c0 24 -1 56 -2 82c0 6 2 8 6 8c16 1 40 2 69 2h12c14 0 29 -1 43 -2c12 -1 23 -2 34 -2
c9 0 9 -8 9 -15v-17c0 -24 -1 -50 -1 -76zM-5.28223 -844.725c0 2.81836 0.759766 8.45605 0.759766 11.2744c0 2.81934 0.759766 7.04785 0.759766 9.86621c1.51855 143.758 1.51855 311.478 1.51855 473.558v2.60938c0 148.38 -0.00195312 276.13 -0.756836 402.236
c0.758789 7.04785 3.79688 9.86621 6.0752 9.86621c3.13574 0 4.55664 -1.66406 4.55664 -7.04785c0 -12.6396 -0.00292969 -18.3174 -0.00292969 -32.4111c0 -249.464 2.07129 -616.878 3.60742 -753.676c0.572266 -50.9199 3.2334 -70.7764 3.2334 -112.652
c0 -10.8154 -5.44531 -14.8984 -12.1562 -14.8984c-4.55664 0 -7.59473 4.22754 -7.59473 11.2754z" />
    <glyph glyph-name="connectingStem2ndUp" unicode="?" horiz-adv-x="0" 
d="M-7.25 213.333c2.33691 1.4209 4.46094 2.04395 6.43457 2.04395c3.14941 0 5.91797 -1.58594 8.56543 -4.04395v-4.16602c0 -11.0605 -0.03125 -24.3252 -0.03125 -33.7803c0 -4.72656 0.0078125 -9.37598 0.03125 -14.0703
c0.135742 -27.2891 0.227539 -56.1416 0.227539 -82.9111c0 -22.6846 -0.0664062 -42.0586 -0.227539 -64.8389c-0.0527344 -7.46582 -0.0722656 -14.8965 -0.0722656 -22.3291c0 -20.3076 0.144531 -33.6357 0.144531 -54.7627
c0 -7.73242 -0.0195312 -13.0732 -0.0722656 -21.0576v-4.16699c-1.85645 -2.9043 -4.90234 -4.40527 -7.84668 -4.40527c-2.88281 0 -5.66992 1.4375 -7.15332 4.40527v6.83301c0.242188 9.59277 0.333984 16.8369 0.333984 26.6719
c0 12.8262 -0.155273 18.8076 -0.333984 31.8115c-0.211914 15.4277 -0.282227 32.21 -0.282227 52.0615c0 39.7041 0.282227 78.6885 0.282227 78.6885c0 21.1006 -0.207031 44.4824 -0.207031 66.293c0 10.9062 0.0517578 25.4189 0.207031 36.5576v5.16602z" />
    <glyph glyph-name="connectingStem2ndUp" unicode="&#xf03f;" horiz-adv-x="0" 
d="M-7.25 213.333c2.33691 1.4209 4.46094 2.04395 6.43457 2.04395c3.14941 0 5.91797 -1.58594 8.56543 -4.04395v-4.16602c0 -11.0605 -0.03125 -24.3252 -0.03125 -33.7803c0 -4.72656 0.0078125 -9.37598 0.03125 -14.0703
c0.135742 -27.2891 0.227539 -56.1416 0.227539 -82.9111c0 -22.6846 -0.0664062 -42.0586 -0.227539 -64.8389c-0.0527344 -7.46582 -0.0722656 -14.8965 -0.0722656 -22.3291c0 -20.3076 0.144531 -33.6357 0.144531 -54.7627
c0 -7.73242 -0.0195312 -13.0732 -0.0722656 -21.0576v-4.16699c-1.85645 -2.9043 -4.90234 -4.40527 -7.84668 -4.40527c-2.88281 0 -5.66992 1.4375 -7.15332 4.40527v6.83301c0.242188 9.59277 0.333984 16.8369 0.333984 26.6719
c0 12.8262 -0.155273 18.8076 -0.333984 31.8115c-0.211914 15.4277 -0.282227 32.21 -0.282227 52.0615c0 39.7041 0.282227 78.6885 0.282227 78.6885c0 21.1006 -0.207031 44.4824 -0.207031 66.293c0 10.9062 0.0517578 25.4189 0.207031 36.5576v5.16602z" />
    <glyph glyph-name="connectingStem3rdUp" unicode="@" horiz-adv-x="0" 
d="M-7.6543 165.297c0 35.4717 0.241211 71.4551 0.241211 106.558c0 17.9912 -0.396484 32.207 -0.396484 50.4072c0 5.87402 0.208008 10.998 0.30957 16.876c1.74609 0.75 4.00098 1.52539 7.05859 1.52539c2.19727 0 5.30762 -0.400391 7.94141 -2.52539
c0.244141 -8.63379 0.326172 -16.3887 0.326172 -24.8379c0 -30.7559 -0.275391 -57.9053 -0.275391 -88.792c0 -14.7939 0.133789 -29.6221 0.133789 -44.3496c0 -25.3838 -0.451172 -51.0635 -0.451172 -76.9531c0 -24.6738 0.452148 -49.8867 0.452148 -74.2949
c0 -9.79785 0.00683594 -19.5195 0.00683594 -29.1777c0 -20.3809 -0.210938 -32.1133 -0.210938 -52.0889c0 -9.31934 0.241211 -18.376 0.241211 -27.3398c0 -5.15918 -0.0556641 -6.78711 -0.222656 -11.916c-2.15332 -1.07617 -3.91992 -1.6377 -5.57812 -1.6377
c-1.27734 0 -2.49023 -0.271484 -3.76465 -0.271484c-1.68066 0 -3.46973 0.47168 -5.65723 2.65918c0.0361328 7.53906 0.0478516 11.9219 0.0478516 19.8389c0 29.0381 -0.329102 48.0566 -0.329102 75.9941c0 19.9619 0.352539 40.7158 0.352539 60.9141
c0 10.457 -0.0439453 20.9307 -0.0439453 31.3906c0 9.16895 0.0429688 18.4746 0.0429688 27.8711c0 13.3086 -0.224609 26.8018 -0.224609 40.1504z" />
    <glyph glyph-name="connectingStem3rdUp" unicode="&#xf040;" horiz-adv-x="0" 
d="M-7.6543 165.297c0 35.4717 0.241211 71.4551 0.241211 106.558c0 17.9912 -0.396484 32.207 -0.396484 50.4072c0 5.87402 0.208008 10.998 0.30957 16.876c1.74609 0.75 4.00098 1.52539 7.05859 1.52539c2.19727 0 5.30762 -0.400391 7.94141 -2.52539
c0.244141 -8.63379 0.326172 -16.3887 0.326172 -24.8379c0 -30.7559 -0.275391 -57.9053 -0.275391 -88.792c0 -14.7939 0.133789 -29.6221 0.133789 -44.3496c0 -25.3838 -0.451172 -51.0635 -0.451172 -76.9531c0 -24.6738 0.452148 -49.8867 0.452148 -74.2949
c0 -9.79785 0.00683594 -19.5195 0.00683594 -29.1777c0 -20.3809 -0.210938 -32.1133 -0.210938 -52.0889c0 -9.31934 0.241211 -18.376 0.241211 -27.3398c0 -5.15918 -0.0556641 -6.78711 -0.222656 -11.916c-2.15332 -1.07617 -3.91992 -1.6377 -5.57812 -1.6377
c-1.27734 0 -2.49023 -0.271484 -3.76465 -0.271484c-1.68066 0 -3.46973 0.47168 -5.65723 2.65918c0.0361328 7.53906 0.0478516 11.9219 0.0478516 19.8389c0 29.0381 -0.329102 48.0566 -0.329102 75.9941c0 19.9619 0.352539 40.7158 0.352539 60.9141
c0 10.457 -0.0439453 20.9307 -0.0439453 31.3906c0 9.16895 0.0429688 18.4746 0.0429688 27.8711c0 13.3086 -0.224609 26.8018 -0.224609 40.1504z" />
    <glyph glyph-name="connectingStem4thUp" unicode="A" horiz-adv-x="0" 
d="M-8.91113 331.707c0 38.0312 -0.0283203 69.1299 -0.27832 106.994c-0.0107422 1.54688 -0.0146484 3.09375 -0.0146484 4.6416c0 6.67969 0.0878906 13.3604 0.204102 20.0449c1.74609 0 4.00098 0.775391 7.05859 0.775391
c2.19727 0 4.80762 -0.400391 7.94141 -1.77539c0.244141 -8.63379 0.326172 -17.1387 0.326172 -25.5879c0 -39.3135 -0.199219 -73.7715 -0.199219 -113.001c0 -27.2803 -0.330078 -53.2637 -0.330078 -80.7607c0 -24.377 0.446289 -137.495 0.446289 -190.925
c0 -10.457 -0.0166016 -18.627 -0.0576172 -23.3984c-0.166016 -19.3574 -0.303711 -38.4219 -0.303711 -57.2744c0 -9.48438 0.0341797 -5.41602 0.118164 -14.8027c0.0966797 -10.8232 0.222656 -21.2656 0.222656 -31.584
c0 -5.15918 -0.0556641 -10.2871 -0.222656 -15.416c-2.15332 -1.07617 -3.91992 -1.6377 -5.57812 -1.6377c-1.27734 0 -2.49023 -0.271484 -3.76465 -0.271484c-1.68066 0 -3.46973 0.47168 -5.65723 2.65918c0.0361328 7.53906 0.0478516 15.4219 0.0478516 23.3389
c0 40.8389 -0.12207 64.6729 -0.12207 105.297c0 19.168 0.101562 38.4844 0.101562 57.752c0 16.2988 -0.0761719 158.525 -0.0761719 175.432c0 19.8037 0.137695 39.6914 0.137695 59.5z" />
    <glyph glyph-name="connectingStem4thUp" unicode="&#xf041;" horiz-adv-x="0" 
d="M-8.91113 331.707c0 38.0312 -0.0283203 69.1299 -0.27832 106.994c-0.0107422 1.54688 -0.0146484 3.09375 -0.0146484 4.6416c0 6.67969 0.0878906 13.3604 0.204102 20.0449c1.74609 0 4.00098 0.775391 7.05859 0.775391
c2.19727 0 4.80762 -0.400391 7.94141 -1.77539c0.244141 -8.63379 0.326172 -17.1387 0.326172 -25.5879c0 -39.3135 -0.199219 -73.7715 -0.199219 -113.001c0 -27.2803 -0.330078 -53.2637 -0.330078 -80.7607c0 -24.377 0.446289 -137.495 0.446289 -190.925
c0 -10.457 -0.0166016 -18.627 -0.0576172 -23.3984c-0.166016 -19.3574 -0.303711 -38.4219 -0.303711 -57.2744c0 -9.48438 0.0341797 -5.41602 0.118164 -14.8027c0.0966797 -10.8232 0.222656 -21.2656 0.222656 -31.584
c0 -5.15918 -0.0556641 -10.2871 -0.222656 -15.416c-2.15332 -1.07617 -3.91992 -1.6377 -5.57812 -1.6377c-1.27734 0 -2.49023 -0.271484 -3.76465 -0.271484c-1.68066 0 -3.46973 0.47168 -5.65723 2.65918c0.0361328 7.53906 0.0478516 15.4219 0.0478516 23.3389
c0 40.8389 -0.12207 64.6729 -0.12207 105.297c0 19.168 0.101562 38.4844 0.101562 57.752c0 16.2988 -0.0761719 158.525 -0.0761719 175.432c0 19.8037 0.137695 39.6914 0.137695 59.5z" />
    <glyph glyph-name="connectingStem5thUp" unicode="B" horiz-adv-x="0" 
d="M-7.91113 456.707c0 38.0312 -0.0283203 74.6299 -0.27832 112.494c-0.0107422 1.54688 -0.0146484 3.09375 -0.0146484 4.6416c0 6.67969 0.0878906 13.3604 0.204102 20.0449c1.74609 0 4.00098 0.775391 7.05859 0.775391
c2.19727 0 4.80762 -0.400391 7.94141 -1.77539c0.244141 -8.63379 0.326172 -17.1387 0.326172 -25.5879c0 -39.3135 -0.199219 -79.2715 -0.199219 -118.501c0 -27.2803 -0.330078 -53.2637 -0.330078 -80.7607c0 -24.377 0.446289 -90.2842 0.446289 -128.258
c0 -7.43164 -0.0166016 -13.7939 -0.0576172 -18.5654c-0.166016 -19.3574 -0.303711 -56.126 -0.303711 -86.8291c0 -15.4482 0.0341797 -29.3613 0.118164 -38.748c0.0966797 -10.8232 0.222656 -162.266 0.222656 -172.584
c0 -5.15918 -0.0556641 -10.2871 -0.222656 -15.416c-2.15332 -1.07617 -3.91992 -1.6377 -5.57812 -1.6377c-1.27734 0 -2.49023 -0.271484 -3.76465 -0.271484c-1.68066 0 -3.46973 0.47168 -5.65723 2.65918c0.0361328 7.53906 0.0478516 15.4219 0.0478516 23.3389
c0 40.8389 -0.12207 151.673 -0.12207 192.297c0 19.168 0.101562 145.984 0.101562 165.252c0 16.2988 -0.0761719 91.0254 -0.0761719 107.932c0 19.8037 0.137695 39.6914 0.137695 59.5z" />
    <glyph glyph-name="connectingStem5thUp" unicode="&#xf042;" horiz-adv-x="0" 
d="M-7.91113 456.707c0 38.0312 -0.0283203 74.6299 -0.27832 112.494c-0.0107422 1.54688 -0.0146484 3.09375 -0.0146484 4.6416c0 6.67969 0.0878906 13.3604 0.204102 20.0449c1.74609 0 4.00098 0.775391 7.05859 0.775391
c2.19727 0 4.80762 -0.400391 7.94141 -1.77539c0.244141 -8.63379 0.326172 -17.1387 0.326172 -25.5879c0 -39.3135 -0.199219 -79.2715 -0.199219 -118.501c0 -27.2803 -0.330078 -53.2637 -0.330078 -80.7607c0 -24.377 0.446289 -90.2842 0.446289 -128.258
c0 -7.43164 -0.0166016 -13.7939 -0.0576172 -18.5654c-0.166016 -19.3574 -0.303711 -56.126 -0.303711 -86.8291c0 -15.4482 0.0341797 -29.3613 0.118164 -38.748c0.0966797 -10.8232 0.222656 -162.266 0.222656 -172.584
c0 -5.15918 -0.0556641 -10.2871 -0.222656 -15.416c-2.15332 -1.07617 -3.91992 -1.6377 -5.57812 -1.6377c-1.27734 0 -2.49023 -0.271484 -3.76465 -0.271484c-1.68066 0 -3.46973 0.47168 -5.65723 2.65918c0.0361328 7.53906 0.0478516 15.4219 0.0478516 23.3389
c0 40.8389 -0.12207 151.673 -0.12207 192.297c0 19.168 0.101562 145.984 0.101562 165.252c0 16.2988 -0.0761719 91.0254 -0.0761719 107.932c0 19.8037 0.137695 39.6914 0.137695 59.5z" />

<!--
obliqueDesc2ndWhiteBlack
-->
    <glyph glyph-name="oblDesc2ndWB" unicode="H" horiz-adv-x="372" 
d="M211.051 16.3711c0.928711 -0.484375 1.81934 -0.0244141 1.81934 0.845703c0 1.69043 0.00488281 -0.569336 0.00488281 3.6582c0 18.6016 -0.00488281 39.2646 -0.00488281 73.082v35.7559v10.4053c0 6.2168 -3.11914 8 -9.71387 10.0391
c-41.1016 12.7041 -66.1553 19.2383 -117.656 27.7119c-18.5479 3.05176 -42.3213 5.41797 -64 5.92773c-2.71289 0.0634766 -3.89258 0.0966797 -6.52539 0.0966797c-3.06836 0 -4.31934 -4.125 -4.31934 -9.39355v-113.85c0 -5.07227 0.910156 -5.91797 5.45996 -5.91797
c22.75 -0.845703 43.4951 -2.48535 63.6299 -5.18945c25.3477 -3.40332 40.3311 -7.26855 81.2549 -16.9863c17.9805 -4.26953 34.5781 -8.11035 50.0508 -16.1855zM407 -89.8086c-17 10.791 -36 21.3213 -55 28.6562c-25.5918 9.87988 -50 19.0713 -79 29.8291
c-35 12.7139 -64.5 22.9824 -104 33.9854c-30.123 8.39062 -64 14.6699 -95 20.5381c-22 3.91211 -43 4.15625 -68 5.13477c-5 0 -6 0.977539 -6 6.8457v176.284c0 0.978516 1 0.978516 2 0.978516c26 -0.978516 51.8838 -2.19141 75 -4.89062
c39.1084 -4.56641 74 -14.1807 99 -21.0264c26 -6.84668 53.2354 -15.5371 82 -26.6504c51.2969 -19.8203 100.147 -38.876 137 -63.0928c6.37012 -4.18555 14 -6.49902 14 -13.6914v-7.09082v-41.3594v-114.67v-8.80176c0 -0.978516 0 -0.978516 -1 -0.978516
c0 0 -0.15918 -0.533203 -1 0z" />

<!--
obliqueDesc2ndWhiteBlack
-->
    <glyph glyph-name="oblDesc2ndWB" unicode="&#xf048;" horiz-adv-x="372" 
d="M211.051 16.3711c0.928711 -0.484375 1.81934 -0.0244141 1.81934 0.845703c0 1.69043 0.00488281 -0.569336 0.00488281 3.6582c0 18.6016 -0.00488281 39.2646 -0.00488281 73.082v35.7559v10.4053c0 6.2168 -3.11914 8 -9.71387 10.0391
c-41.1016 12.7041 -66.1553 19.2383 -117.656 27.7119c-18.5479 3.05176 -42.3213 5.41797 -64 5.92773c-2.71289 0.0634766 -3.89258 0.0966797 -6.52539 0.0966797c-3.06836 0 -4.31934 -4.125 -4.31934 -9.39355v-113.85c0 -5.07227 0.910156 -5.91797 5.45996 -5.91797
c22.75 -0.845703 43.4951 -2.48535 63.6299 -5.18945c25.3477 -3.40332 40.3311 -7.26855 81.2549 -16.9863c17.9805 -4.26953 34.5781 -8.11035 50.0508 -16.1855zM407 -89.8086c-17 10.791 -36 21.3213 -55 28.6562c-25.5918 9.87988 -50 19.0713 -79 29.8291
c-35 12.7139 -64.5 22.9824 -104 33.9854c-30.123 8.39062 -64 14.6699 -95 20.5381c-22 3.91211 -43 4.15625 -68 5.13477c-5 0 -6 0.977539 -6 6.8457v176.284c0 0.978516 1 0.978516 2 0.978516c26 -0.978516 51.8838 -2.19141 75 -4.89062
c39.1084 -4.56641 74 -14.1807 99 -21.0264c26 -6.84668 53.2354 -15.5371 82 -26.6504c51.2969 -19.8203 100.147 -38.876 137 -63.0928c6.37012 -4.18555 14 -6.49902 14 -13.6914v-7.09082v-41.3594v-114.67v-8.80176c0 -0.978516 0 -0.978516 -1 -0.978516
c0 0 -0.15918 -0.533203 -1 0z" />

<!--
obliqueDesc2ndBlackWhite
-->
    <glyph glyph-name="oblDesc2ndBW" unicode="L" horiz-adv-x="372" 
d="M390.434 -52.293c0.683594 -0.357422 1.37207 -0.517578 2.03906 -0.517578c2.90039 0 5.39746 3.04395 5.39746 6.22168v51.6318v43.2559v10.4053c0 6.2168 -6.26465 9.39062 -12.1201 13.0459c-38.8828 24.2715 -69.0703 36.7637 -115.25 54.7051
c-17.5215 6.80762 -26.9365 14.3506 -48.6152 15.8594c-1.27832 0.0888672 -2.25098 0.200195 -3.18359 0.200195c-1.04199 0 -2.03223 -0.138672 -3.3418 -0.603516c-2.81836 -1 -4.31934 -4.125 -4.31934 -9.39355v-108.85c0 -5.07227 1.2168 -4.27539 5.45996 -5.91797
c21.4648 -8.30859 29.127 -10.751 48.2451 -17.6211c33.959 -12.2031 88.7783 -33.1475 125.688 -52.4219zM407 -90.0586c-17 10.791 -36 21.3213 -55 28.6562c-25.5918 9.87988 -50 19.0713 -79 29.8291c-35 12.7139 -64.5 22.9824 -104 33.9854
c-30.123 8.39062 -64 14.6699 -95 20.5381c-22 3.91211 -43 4.15625 -68 5.13477c-5 0 -6 0.977539 -6 6.8457v176.284c0 0.978516 1 0.978516 2 0.978516c26 -0.978516 51.8838 -2.19141 75 -4.89062c39.1084 -4.56641 74 -14.1807 99 -21.0264
c26 -6.84668 53.2354 -15.5371 82 -26.6504c51.2969 -19.8203 100.147 -38.876 137 -63.0928c6.37012 -4.18555 14 -6.49902 14 -13.6914v-7.09082v-41.3594v-114.67v-8.80176c0 -0.978516 0 -0.978516 -1 -0.978516c0 0 -0.0712891 -0.237305 -0.367188 -0.237305
c-0.148438 0 -0.352539 0.0595703 -0.632812 0.237305z" />

<!--
obliqueDesc2ndBlackWhite
-->
    <glyph glyph-name="oblDesc2ndBW" unicode="&#xf04c;" horiz-adv-x="372" 
d="M390.434 -52.293c0.683594 -0.357422 1.37207 -0.517578 2.03906 -0.517578c2.90039 0 5.39746 3.04395 5.39746 6.22168v51.6318v43.2559v10.4053c0 6.2168 -6.26465 9.39062 -12.1201 13.0459c-38.8828 24.2715 -69.0703 36.7637 -115.25 54.7051
c-17.5215 6.80762 -26.9365 14.3506 -48.6152 15.8594c-1.27832 0.0888672 -2.25098 0.200195 -3.18359 0.200195c-1.04199 0 -2.03223 -0.138672 -3.3418 -0.603516c-2.81836 -1 -4.31934 -4.125 -4.31934 -9.39355v-108.85c0 -5.07227 1.2168 -4.27539 5.45996 -5.91797
c21.4648 -8.30859 29.127 -10.751 48.2451 -17.6211c33.959 -12.2031 88.7783 -33.1475 125.688 -52.4219zM407 -90.0586c-17 10.791 -36 21.3213 -55 28.6562c-25.5918 9.87988 -50 19.0713 -79 29.8291c-35 12.7139 -64.5 22.9824 -104 33.9854
c-30.123 8.39062 -64 14.6699 -95 20.5381c-22 3.91211 -43 4.15625 -68 5.13477c-5 0 -6 0.977539 -6 6.8457v176.284c0 0.978516 1 0.978516 2 0.978516c26 -0.978516 51.8838 -2.19141 75 -4.89062c39.1084 -4.56641 74 -14.1807 99 -21.0264
c26 -6.84668 53.2354 -15.5371 82 -26.6504c51.2969 -19.8203 100.147 -38.876 137 -63.0928c6.37012 -4.18555 14 -6.49902 14 -13.6914v-7.09082v-41.3594v-114.67v-8.80176c0 -0.978516 0 -0.978516 -1 -0.978516c0 0 -0.0712891 -0.237305 -0.367188 -0.237305
c-0.148438 0 -0.352539 0.0595703 -0.632812 0.237305z" />
    <glyph glyph-name="stemInitialUp" unicode="Q" horiz-adv-x="0" 
d="M-13.25 551c0 5 4 8 10 8c9 0 16 -3 16 -11c0 -30 -2 -51 -3 -87c-4 -97 -6 -342 -6 -519v-30v-3.75c-2 -1 -4 -1.25 -6 -1.25c-3 0 -6.66992 1.83789 -8 7c1 90 1 180 1 286c0 115 0 234 -2 336c0 2 -1 5 -1 7s-1 6 -1 8z" />
    <glyph glyph-name="stemInitialUp" unicode="&#xf051;" horiz-adv-x="0" 
d="M-13.25 551c0 5 4 8 10 8c9 0 16 -3 16 -11c0 -30 -2 -51 -3 -87c-4 -97 -6 -342 -6 -519v-30v-3.75c-2 -1 -4 -1.25 -6 -1.25c-3 0 -6.66992 1.83789 -8 7c1 90 1 180 1 286c0 115 0 234 -2 336c0 2 -1 5 -1 7s-1 6 -1 8z" />
    <glyph glyph-name="connectingStem2ndc" unicode="R" horiz-adv-x="6" 
d="M-5.4541 90.333c5.15723 3.68945 9.08887 1.99805 12.75 -2v-48.5166v-118v-136.316c-3.12305 -5.74609 -10.2002 -6 -12.75 0v99.3164v134v71.5166z" />
    <glyph glyph-name="connectingStem2ndc" unicode="&#xf052;" horiz-adv-x="6" 
d="M-5.4541 90.333c5.15723 3.68945 9.08887 1.99805 12.75 -2v-48.5166v-118v-136.316c-3.12305 -5.74609 -10.2002 -6 -12.75 0v99.3164v134v71.5166z" />
    <glyph glyph-name="connectingStem3rdDown" unicode="S" horiz-adv-x="5" 
d="M-5.80957 -39v105v24c1.7002 1 3.39941 1 5.9502 1c1.69922 0 4.25 -1 6.7998 -2v-25v-111v-81v-89v-72.5v-32v-16c-1.7002 -1 -3.40039 -2 -5.10059 -2h-2.5498c-1.7002 0 -3.39941 0 -5.09961 2v25v106.5v57v50v60z" />
    <glyph glyph-name="connectingStem3rdDown" unicode="&#xf053;" horiz-adv-x="5" 
d="M-5.80957 -39v105v24c1.7002 1 3.39941 1 5.9502 1c1.69922 0 4.25 -1 6.7998 -2v-25v-111v-81v-89v-72.5v-32v-16c-1.7002 -1 -3.40039 -2 -5.10059 -2h-2.5498c-1.7002 0 -3.39941 0 -5.09961 2v25v106.5v57v50v60z" />
    <glyph glyph-name="connectingStem4thDown" unicode="T" horiz-adv-x="7" 
d="M-7 92.5c2.16602 0.373047 4.53809 1.02832 7.32422 1.02832c2.25098 0 4.77344 -0.427734 7.67578 -1.77832v-77.75v-125v-116v-149.25v-70.5v-8.5c-1.37988 -2.30078 -3.89062 -3.875 -6.55566 -3.875c-3.12695 0 -6.4668 2.16797 -8.44434 7.875v7.5v90.5v152.25v122
v104v67.5z" />
    <glyph glyph-name="connectingStem4thDown" unicode="&#xf054;" horiz-adv-x="7" 
d="M-7 92.5c2.16602 0.373047 4.53809 1.02832 7.32422 1.02832c2.25098 0 4.77344 -0.427734 7.67578 -1.77832v-77.75v-125v-116v-149.25v-70.5v-8.5c-1.37988 -2.30078 -3.89062 -3.875 -6.55566 -3.875c-3.12695 0 -6.4668 2.16797 -8.44434 7.875v7.5v90.5v152.25v122
v104v67.5z" />
    <glyph glyph-name="connectingStem5thDown" unicode="U" horiz-adv-x="6" 
d="M-7 91.25c0.924805 0.523438 4.39355 1.28418 7.1875 1.28418c2.26562 0 3.5752 -0.250977 6.8125 -1.28418v-681.5c-2.01367 -0.788086 -4.7998 -1.19141 -6.8916 -1.19141c-2.9082 0 -4.18945 0.168945 -7.1084 2.19141v680.5z" />
    <glyph glyph-name="connectingStem5thDown" unicode="&#xf055;" horiz-adv-x="6" 
d="M-7 91.25c0.924805 0.523438 4.39355 1.28418 7.1875 1.28418c2.26562 0 3.5752 -0.250977 6.8125 -1.28418v-681.5c-2.01367 -0.788086 -4.7998 -1.19141 -6.8916 -1.19141c-2.9082 0 -4.18945 0.168945 -7.1084 2.19141v680.5z" />
    <glyph glyph-name="connectingStem6thDown" unicode="V" horiz-adv-x="7" 
d="M-6 89.25c1.37012 0.530273 3.37207 1.17871 6.34473 1.17871c2.05176 0 4.56641 -0.308594 7.65527 -1.17871v-803.75c-2.37012 -1.7207 -5.52539 -2.2002 -6.1416 -2.19141c-2.97754 0.0449219 -5.96387 0.0800781 -7.8584 3.44141v802.5z" />
    <glyph glyph-name="connectingStem6thDown" unicode="&#xf056;" horiz-adv-x="7" 
d="M-6 89.25c1.37012 0.530273 3.37207 1.17871 6.34473 1.17871c2.05176 0 4.56641 -0.308594 7.65527 -1.17871v-803.75c-2.37012 -1.7207 -5.52539 -2.2002 -6.1416 -2.19141c-2.97754 0.0449219 -5.96387 0.0800781 -7.8584 3.44141v802.5z" />
    <glyph glyph-name="connectingStem7thDown" unicode="W" horiz-adv-x="6" 
d="M-6.5 91.75c1.35547 0.600586 3.68652 1.35156 6.62402 1.35156c2.17578 0 4.68359 -0.411133 7.37598 -1.60059v-921.501c-0.645508 -0.128906 -1.27539 -0.191406 -1.8916 -0.191406c-4.1582 0 -7.75391 2.83691 -12.1084 7.19141v914.75z" />
    <glyph glyph-name="connectingStem7thDown" unicode="&#xf057;" horiz-adv-x="6" 
d="M-6.5 91.75c1.35547 0.600586 3.68652 1.35156 6.62402 1.35156c2.17578 0 4.68359 -0.411133 7.37598 -1.60059v-921.501c-0.645508 -0.128906 -1.27539 -0.191406 -1.8916 -0.191406c-4.1582 0 -7.75391 2.83691 -12.1084 7.19141v914.75z" />
    <glyph glyph-name="chantPunctumBlack" unicode="X" 
d="M170 -19c0 -21 1 -53 1 -64c0 -9 -6 -11 -17 -11c-17 0 -45 3 -66 3c-10 0 -17 1 -27 1h-8c-18 0 -38 0 -46 -3c-3 -1 -3 -2 -3 -2h-1c-4 0 -5 4 -5 11v2c0 28 2 55 2 83c0 24 -1 56 -2 82c0 6 2 8 6 8c16 1 40 2 69 2h12c14 0 29 -1 43 -2c12 -1 23 -2 34 -2
c9 0 9 -8 9 -15v-17c0 -24 -1 -50 -1 -76z" />
    <glyph glyph-name="chantPunctumBlack" unicode="&#xe990;" 
d="M170 -19c0 -21 1 -53 1 -64c0 -9 -6 -11 -17 -11c-17 0 -45 3 -66 3c-10 0 -17 1 -27 1h-8c-18 0 -38 0 -46 -3c-3 -1 -3 -2 -3 -2h-1c-4 0 -5 4 -5 11v2c0 28 2 55 2 83c0 24 -1 56 -2 82c0 6 2 8 6 8c16 1 40 2 69 2h12c14 0 29 -1 43 -2c12 -1 23 -2 34 -2
c9 0 9 -8 9 -15v-17c0 -24 -1 -50 -1 -76z" />
    <glyph glyph-name="chantPunctumBlack" unicode="&#xf058;" 
d="M170 -19c0 -21 1 -53 1 -64c0 -9 -6 -11 -17 -11c-17 0 -45 3 -66 3c-10 0 -17 1 -27 1h-8c-18 0 -38 0 -46 -3c-3 -1 -3 -2 -3 -2h-1c-4 0 -5 4 -5 11v2c0 28 2 55 2 83c0 24 -1 56 -2 82c0 6 2 8 6 8c16 1 40 2 69 2h12c14 0 29 -1 43 -2c12 -1 23 -2 34 -2
c9 0 9 -8 9 -15v-17c0 -24 -1 -50 -1 -76z" />
    <glyph glyph-name="virgaShortBlack" unicode="Y" 
d="M170 -19c0 -21 1 -53 1 -64c0 -9 -6 -11 -17 -11c-17 0 -45 3 -66 3c-10 0 -17 1 -27 1h-8c-18 0 -38 0 -46 -3c-3 -1 -3 -2 -3 -2h-1c-4 0 -5 4 -5 11v2c0 28 2 55 2 83c0 24 -1 56 -2 82c0 6 2 8 6 8c16 1 40 2 69 2h12c14 0 29 -1 43 -2c12 -1 23 -2 34 -2
c9 0 9 -8 9 -15v-17c0 -24 -1 -50 -1 -76zM153.997 -332.114c0 3.99512 2 8.11719 2 11.9736c1.99707 81.29 2 81.7578 2 173.09v0.803711c0 84.0352 -0.00292969 155.988 -0.99707 227.409c1 3.99121 5 5.58789 8 5.58789c4.12988 0 6 -0.942383 6 -3.99121
c0 -7.15918 -0.00292969 -10.374 -0.00292969 -18.3564c0 -141.285 1.52734 -251.181 2.75 -328.668c0.381836 -24.2109 0.220703 -37.4277 0.633789 -55.0791c0.0419922 -1.81055 1.3252 -3.66797 1.3457 -5.58789c0.0185547 -1.6582 0.77832 -4.16309 0.77832 -5.92773
c0 -6.12598 -2.6709 -7.63965 -11.5078 -7.63965c-6 0 -11 2.39453 -11 6.38574z" />
    <glyph glyph-name="virgaShortBlack" unicode="&#xf059;" 
d="M170 -19c0 -21 1 -53 1 -64c0 -9 -6 -11 -17 -11c-17 0 -45 3 -66 3c-10 0 -17 1 -27 1h-8c-18 0 -38 0 -46 -3c-3 -1 -3 -2 -3 -2h-1c-4 0 -5 4 -5 11v2c0 28 2 55 2 83c0 24 -1 56 -2 82c0 6 2 8 6 8c16 1 40 2 69 2h12c14 0 29 -1 43 -2c12 -1 23 -2 34 -2
c9 0 9 -8 9 -15v-17c0 -24 -1 -50 -1 -76zM153.997 -332.114c0 3.99512 2 8.11719 2 11.9736c1.99707 81.29 2 81.7578 2 173.09v0.803711c0 84.0352 -0.00292969 155.988 -0.99707 227.409c1 3.99121 5 5.58789 8 5.58789c4.12988 0 6 -0.942383 6 -3.99121
c0 -7.15918 -0.00292969 -10.374 -0.00292969 -18.3564c0 -141.285 1.52734 -251.181 2.75 -328.668c0.381836 -24.2109 0.220703 -37.4277 0.633789 -55.0791c0.0419922 -1.81055 1.3252 -3.66797 1.3457 -5.58789c0.0185547 -1.6582 0.77832 -4.16309 0.77832 -5.92773
c0 -6.12598 -2.6709 -7.63965 -11.5078 -7.63965c-6 0 -11 2.39453 -11 6.38574z" />
    <glyph glyph-name="virgaShortBlack" unicode="&#xf701;" 
d="M170 -19c0 -21 1 -53 1 -64c0 -9 -6 -11 -17 -11c-17 0 -45 3 -66 3c-10 0 -17 1 -27 1h-8c-18 0 -38 0 -46 -3c-3 -1 -3 -2 -3 -2h-1c-4 0 -5 4 -5 11v2c0 28 2 55 2 83c0 24 -1 56 -2 82c0 6 2 8 6 8c16 1 40 2 69 2h12c14 0 29 -1 43 -2c12 -1 23 -2 34 -2
c9 0 9 -8 9 -15v-17c0 -24 -1 -50 -1 -76zM153.997 -332.114c0 3.99512 2 8.11719 2 11.9736c1.99707 81.29 2 81.7578 2 173.09v0.803711c0 84.0352 -0.00292969 155.988 -0.99707 227.409c1 3.99121 5 5.58789 8 5.58789c4.12988 0 6 -0.942383 6 -3.99121
c0 -7.15918 -0.00292969 -10.374 -0.00292969 -18.3564c0 -141.285 1.52734 -251.181 2.75 -328.668c0.381836 -24.2109 0.220703 -37.4277 0.633789 -55.0791c0.0419922 -1.81055 1.3252 -3.66797 1.3457 -5.58789c0.0185547 -1.6582 0.77832 -4.16309 0.77832 -5.92773
c0 -6.12598 -2.6709 -7.63965 -11.5078 -7.63965c-6 0 -11 2.39453 -11 6.38574z" />
    <glyph glyph-name="VirgaBlack" unicode="Z" 
d="M170 -19c0 -21 1 -53 1 -64c0 -9 -6 -11 -17 -11c-17 0 -45 3 -66 3c-10 0 -17 1 -27 1h-8c-18 0 -38 0 -46 -3c-3 -1 -3 -2 -3 -2h-1c-4 0 -5 4 -5 11v2c0 28 2 55 2 83c0 24 -1 56 -2 82c0 6 2 8 6 8c16 1 40 2 69 2h12c14 0 29 -1 43 -2c12 -1 23 -2 34 -2
c9 0 9 -8 9 -15v-17c0 -24 -1 -50 -1 -76zM153.747 -458.98c0 1.69141 1 5.07617 1 6.76855s1 4.23145 1 5.92383c2 86.3076 2 187 2 284.309v1.56641c0 89.082 -0.00292969 165.779 -0.99707 241.49c1 4.23047 5 5.92285 8 5.92285c4.12988 0 6 -0.999023 6 -4.23047
c0 -7.58887 -0.00292969 -10.998 -0.00292969 -19.459c0 -149.771 2.72754 -370.354 4.75 -452.483c0.75293 -30.5713 4.25781 -42.4912 4.25781 -67.6328c0 -6.49414 -7.1709 -8.94434 -16.0078 -8.94434c-6 0 -10 2.53809 -10 6.76953z" />
    <glyph glyph-name="VirgaBlack" unicode="&#xe996;" 
d="M170 -19c0 -21 1 -53 1 -64c0 -9 -6 -11 -17 -11c-17 0 -45 3 -66 3c-10 0 -17 1 -27 1h-8c-18 0 -38 0 -46 -3c-3 -1 -3 -2 -3 -2h-1c-4 0 -5 4 -5 11v2c0 28 2 55 2 83c0 24 -1 56 -2 82c0 6 2 8 6 8c16 1 40 2 69 2h12c14 0 29 -1 43 -2c12 -1 23 -2 34 -2
c9 0 9 -8 9 -15v-17c0 -24 -1 -50 -1 -76zM153.747 -458.98c0 1.69141 1 5.07617 1 6.76855s1 4.23145 1 5.92383c2 86.3076 2 187 2 284.309v1.56641c0 89.082 -0.00292969 165.779 -0.99707 241.49c1 4.23047 5 5.92285 8 5.92285c4.12988 0 6 -0.999023 6 -4.23047
c0 -7.58887 -0.00292969 -10.998 -0.00292969 -19.459c0 -149.771 2.72754 -370.354 4.75 -452.483c0.75293 -30.5713 4.25781 -42.4912 4.25781 -67.6328c0 -6.49414 -7.1709 -8.94434 -16.0078 -8.94434c-6 0 -10 2.53809 -10 6.76953z" />
    <glyph glyph-name="VirgaBlack" 
d="M170 -19c0 -21 1 -53 1 -64c0 -9 -6 -11 -17 -11c-17 0 -45 3 -66 3c-10 0 -17 1 -27 1h-8c-18 0 -38 0 -46 -3c-3 -1 -3 -2 -3 -2h-1c-4 0 -5 4 -5 11v2c0 28 2 55 2 83c0 24 -1 56 -2 82c0 6 2 8 6 8c16 1 40 2 69 2h12c14 0 29 -1 43 -2c12 -1 23 -2 34 -2
c9 0 9 -8 9 -15v-17c0 -24 -1 -50 -1 -76zM153.747 -458.98c0 1.69141 1 5.07617 1 6.76855s1 4.23145 1 5.92383c2 86.3076 2 187 2 284.309v1.56641c0 89.082 -0.00292969 165.779 -0.99707 241.49c1 4.23047 5 5.92285 8 5.92285c4.12988 0 6 -0.999023 6 -4.23047
c0 -7.58887 -0.00292969 -10.998 -0.00292969 -19.459c0 -149.771 2.72754 -370.354 4.75 -452.483c0.75293 -30.5713 4.25781 -42.4912 4.25781 -67.6328c0 -6.49414 -7.1709 -8.94434 -16.0078 -8.94434c-6 0 -10 2.53809 -10 6.76953z" />
    <glyph glyph-name="VirgaLongBlack" unicode="[" horiz-adv-x="189" 
d="M178.271 -678.602c-5.49902 0.467773 -9.60938 7.52148 -9.60938 13.4971c0 1.6582 0.0252685 3.50596 0.289062 5.62988c3.26562 26.293 3.98047 136.222 4.16797 168.299c0.277506 47.4753 1.28516 111.19 1.28516 193.553
c0 90.1309 -0.763672 152.647 -3.11719 165.166c-3.15918 16.8096 -10.9893 28.5195 -29.501 31.4805c-19.291 3.08594 -41.1406 5.95312 -62.5303 7.76953c-28.2354 2.39844 -55.667 2.9668 -75.3457 -0.214844c-1.16602 -0.1875 -2.60449 -0.475586 -3.72852 -0.380859
c-1.1123 0.09375 -1.93066 0.651367 -1.93066 2.40039c0 32.3945 1.75 65.4023 1.75 99.4023c0 15 0.182617 27.1133 0.182617 39.2266c0 12.9004 -0.208008 25.749 -1.06348 41.8037c0 12.8525 0.123047 18.9082 9.98047 20.6045
c22.9629 3.95312 62.4053 4.30664 101.489 0.987305c22.3398 -1.89746 41.0664 -4.7793 64.5049 -10.0088c8.58203 -1.91406 13.6299 -8.7002 14.0645 -20.1133c0.605469 -15.8604 0.762695 -26.6367 0.762695 -42.2305c0 -74.3115 -0.475586 -621.203 -0.878906 -700.719
v-0.178711c0 -2.64844 0.301758 -4.14551 0.301758 -5.75488c0 -6.89746 -5.95215 -10.6533 -11.0732 -10.2188z" />
    <glyph glyph-name="VirgaLongBlack" unicode="&#xf05b;" horiz-adv-x="189" 
d="M178.271 -678.602c-5.49902 0.467773 -9.60938 7.52148 -9.60938 13.4971c0 1.6582 0.0252685 3.50596 0.289062 5.62988c3.26562 26.293 3.98047 136.222 4.16797 168.299c0.277506 47.4753 1.28516 111.19 1.28516 193.553
c0 90.1309 -0.763672 152.647 -3.11719 165.166c-3.15918 16.8096 -10.9893 28.5195 -29.501 31.4805c-19.291 3.08594 -41.1406 5.95312 -62.5303 7.76953c-28.2354 2.39844 -55.667 2.9668 -75.3457 -0.214844c-1.16602 -0.1875 -2.60449 -0.475586 -3.72852 -0.380859
c-1.1123 0.09375 -1.93066 0.651367 -1.93066 2.40039c0 32.3945 1.75 65.4023 1.75 99.4023c0 15 0.182617 27.1133 0.182617 39.2266c0 12.9004 -0.208008 25.749 -1.06348 41.8037c0 12.8525 0.123047 18.9082 9.98047 20.6045
c22.9629 3.95312 62.4053 4.30664 101.489 0.987305c22.3398 -1.89746 41.0664 -4.7793 64.5049 -10.0088c8.58203 -1.91406 13.6299 -8.7002 14.0645 -20.1133c0.605469 -15.8604 0.762695 -26.6367 0.762695 -42.2305c0 -74.3115 -0.475586 -621.203 -0.878906 -700.719
v-0.178711c0 -2.64844 0.301758 -4.14551 0.301758 -5.75488c0 -6.89746 -5.95215 -10.6533 -11.0732 -10.2188z" />
    <glyph glyph-name="plicaLongaAscBlack" unicode="]" 
d="M-3 324.019c0 3.89453 5.25 6.23145 11.25 6.23145c8.67383 0 11.7715 -2.17773 11.7715 -7.90625c0 -2.08984 -0.515625 -4.12305 -0.544922 -6.11328c-0.0302734 -2.05273 -0.575195 -4.06055 -0.631836 -6.03613
c-0.507812 -17.8057 -0.980469 -33.085 -1.59473 -56.2734c-2 -75.5508 -4 -180.698 -4 -318.559v-26.2871c-2 -0.779297 -4 -0.973633 -6 -0.973633c-3 0 -6.41992 0.262695 -7.75 4.2832c0.666992 46.7324 0.777344 83.5986 0.777344 127.447
c0 21.9229 -0.0273438 45.5928 -0.0273438 73.1123c0 89.5703 0 119.946 -2 199.392c0 3.70508 -1.25 7.69238 -1.25 11.6826zM154 445.479c0 4.91992 5.25 7.87207 11.25 7.87207c8.67383 0 11.7715 -2.75098 11.7715 -9.98926
c0 -2.63867 -0.515625 -5.20801 -0.544922 -7.72266c-0.0302734 -2.59375 -0.575195 -5.12988 -0.631836 -7.62695c-0.507812 -22.4951 -0.980469 -41.7988 -1.59473 -71.0967c-2 -95.4521 -4 -228.298 -4 -402.474v-33.2119c-2 -0.983398 -4 -1.22949 -6 -1.22949
c-3 0 -6.41992 0.332031 -7.75 5.41211c0.666992 59.042 0.777344 105.62 0.777344 161.019c0 27.6982 -0.0273438 57.6035 -0.0273438 92.3721c0 113.165 0 151.543 -2 251.915c0 4.68164 -1.25 9.71875 -1.25 14.7607zM159.966 -12.2881
c-0.103516 -21.0264 0.675781 -53.0234 0.62207 -64.0371c-0.0439453 -9.01172 -5.66797 -11.2676 -15.96 -11.7344c-15.9062 -0.719727 -42.0898 1.09863 -61.7383 0.208984c-9.35645 -0.423828 -15.9014 0.28125 -25.2578 -0.142578
c-2.80762 -0.126953 -3.74316 -0.168945 -7.48535 -0.338867c-16.8418 -0.762695 -35.5547 -1.60938 -43.0547 -4.95215c-2.8125 -1.12793 -2.81738 -2.12988 -2.81738 -2.12988l-0.935547 -0.0419922c-3.74219 -0.168945 -4.6582 3.79297 -4.62402 10.8018
c0 0 0.00488281 1.00195 0.00976562 2.00293c0.136719 28.0352 2.14062 55.1533 2.27734 83.1885c0.117188 24.0303 -0.662109 56.0273 -1.46973 82.0176c0.0292969 6.00781 1.91016 8.09473 5.65234 8.26465c14.9756 1.67871 37.4365 3.69629 64.5703 4.9248
c3.74219 0.168945 7.48535 0.338867 11.2275 0.507812c13.0996 0.592773 27.1289 0.227539 40.2236 -0.180664c11.2227 -0.493164 21.5107 -1.02832 31.8027 -0.5625c8.4209 0.380859 8.38184 -7.62891 8.34766 -14.6377
c-0.0292969 -6.00781 -0.0537109 -11.0137 -0.0839844 -17.0215c-0.117188 -24.0303 -1.17969 -50.1045 -1.30664 -76.1377z" />
    <glyph glyph-name="plicaLongaAscBlack" unicode="&#xf05d;" 
d="M-3 324.019c0 3.89453 5.25 6.23145 11.25 6.23145c8.67383 0 11.7715 -2.17773 11.7715 -7.90625c0 -2.08984 -0.515625 -4.12305 -0.544922 -6.11328c-0.0302734 -2.05273 -0.575195 -4.06055 -0.631836 -6.03613
c-0.507812 -17.8057 -0.980469 -33.085 -1.59473 -56.2734c-2 -75.5508 -4 -180.698 -4 -318.559v-26.2871c-2 -0.779297 -4 -0.973633 -6 -0.973633c-3 0 -6.41992 0.262695 -7.75 4.2832c0.666992 46.7324 0.777344 83.5986 0.777344 127.447
c0 21.9229 -0.0273438 45.5928 -0.0273438 73.1123c0 89.5703 0 119.946 -2 199.392c0 3.70508 -1.25 7.69238 -1.25 11.6826zM154 445.479c0 4.91992 5.25 7.87207 11.25 7.87207c8.67383 0 11.7715 -2.75098 11.7715 -9.98926
c0 -2.63867 -0.515625 -5.20801 -0.544922 -7.72266c-0.0302734 -2.59375 -0.575195 -5.12988 -0.631836 -7.62695c-0.507812 -22.4951 -0.980469 -41.7988 -1.59473 -71.0967c-2 -95.4521 -4 -228.298 -4 -402.474v-33.2119c-2 -0.983398 -4 -1.22949 -6 -1.22949
c-3 0 -6.41992 0.332031 -7.75 5.41211c0.666992 59.042 0.777344 105.62 0.777344 161.019c0 27.6982 -0.0273438 57.6035 -0.0273438 92.3721c0 113.165 0 151.543 -2 251.915c0 4.68164 -1.25 9.71875 -1.25 14.7607zM159.966 -12.2881
c-0.103516 -21.0264 0.675781 -53.0234 0.62207 -64.0371c-0.0439453 -9.01172 -5.66797 -11.2676 -15.96 -11.7344c-15.9062 -0.719727 -42.0898 1.09863 -61.7383 0.208984c-9.35645 -0.423828 -15.9014 0.28125 -25.2578 -0.142578
c-2.80762 -0.126953 -3.74316 -0.168945 -7.48535 -0.338867c-16.8418 -0.762695 -35.5547 -1.60938 -43.0547 -4.95215c-2.8125 -1.12793 -2.81738 -2.12988 -2.81738 -2.12988l-0.935547 -0.0419922c-3.74219 -0.168945 -4.6582 3.79297 -4.62402 10.8018
c0 0 0.00488281 1.00195 0.00976562 2.00293c0.136719 28.0352 2.14062 55.1533 2.27734 83.1885c0.117188 24.0303 -0.662109 56.0273 -1.46973 82.0176c0.0292969 6.00781 1.91016 8.09473 5.65234 8.26465c14.9756 1.67871 37.4365 3.69629 64.5703 4.9248
c3.74219 0.168945 7.48535 0.338867 11.2275 0.507812c13.0996 0.592773 27.1289 0.227539 40.2236 -0.180664c11.2227 -0.493164 21.5107 -1.02832 31.8027 -0.5625c8.4209 0.380859 8.38184 -7.62891 8.34766 -14.6377
c-0.0292969 -6.00781 -0.0537109 -11.0137 -0.0839844 -17.0215c-0.117188 -24.0303 -1.17969 -50.1045 -1.30664 -76.1377z" />
    <glyph glyph-name="plicaLongaDescBlack" unicode="^" horiz-adv-x="170" 
d="M151.997 -449.848c0 1.66309 1 4.98828 1 6.65137s1 4.15723 1 5.82031c2 84.8125 2 183.759 2 279.38v1.54004c0 87.5371 -0.00292969 162.904 -0.99707 237.303c1 4.15723 5 5.82031 8 5.82031c4.12988 0 6 -0.982422 6 -4.1582
c0 -7.45703 -0.00292969 -10.8066 -0.00292969 -19.1211c0 -147.174 2.72754 -363.933 4.75 -444.638c0.75293 -30.041 4.25781 -41.7549 4.25781 -66.46c0 -6.38184 -7.1709 -8.79004 -16.0078 -8.79004c-6 0 -10 2.49512 -10 6.65234zM-4.75293 -328.596
c0 4.00684 2 8.14062 2 12.0088c1.99707 81.5283 2 81.998 2 173.599v0.806641c0 84.2822 -0.00292969 156.446 -0.99707 228.078c1 4.00293 5 5.60352 8 5.60352c4.12988 0 6 -0.945312 6 -4.00293c0 -7.17969 -0.00292969 -10.4053 -0.00292969 -18.4102
c0 -141.701 1.52734 -251.919 2.75 -329.634c0.381836 -24.2822 0.220703 -37.5391 0.633789 -55.2422c0.0419922 -1.81543 1.3252 -3.67773 1.3457 -5.60352c0.0185547 -1.66406 0.77832 -4.17578 0.77832 -5.94531c0 -6.14355 -2.6709 -7.66211 -11.5078 -7.66211
c-6 0 -11 2.40137 -11 6.4043zM158.016 -21.4209c0.280273 -21.0273 1.63574 -53.1074 1.78223 -64.1221c0.120117 -9.01172 -5.4248 -10.791 -15.6396 -10.3828c-15.7861 0.631836 -41.8271 4.67578 -61.3281 5.45508c-9.28613 0.37207 -15.7998 1.63281 -25.0859 2.00488
c-2.78613 0.111328 -3.71484 0.148438 -7.42871 0.296875c-16.7158 0.668945 -35.2881 1.41113 -42.6768 -1.29492c-2.77246 -0.890625 -2.75879 -1.8916 -2.75879 -1.8916l-0.928711 0.0371094c-3.71484 0.148438 -4.69629 4.19141 -4.79004 11.2002
c0 0 -0.0136719 1.00195 -0.0263672 2.00293c-0.374023 28.0371 1.12305 54.999 0.749023 83.0361c-0.320312 24.0322 -1.67578 56.1113 -2.95215 82.1836c-0.0800781 6.00781 1.75098 7.93555 5.46484 7.78711c14.8447 0.407227 37.1182 0.517578 64.0479 -0.55957
c3.71484 -0.149414 7.42969 -0.297852 11.1436 -0.446289c13.001 -0.519531 26.9434 -2.07812 39.957 -3.59961c11.1572 -1.44727 21.3848 -2.85742 31.5996 -3.26562c8.35742 -0.333984 8.46484 -8.34473 8.55762 -15.3545
c0.0810547 -6.00781 0.147461 -11.0146 0.227539 -17.0225c0.320312 -24.0322 -0.261719 -50.0293 0.0859375 -76.0645z" />
    <glyph glyph-name="plicaLongaDescBlack" unicode="&#xf05e;" horiz-adv-x="170" 
d="M151.997 -449.848c0 1.66309 1 4.98828 1 6.65137s1 4.15723 1 5.82031c2 84.8125 2 183.759 2 279.38v1.54004c0 87.5371 -0.00292969 162.904 -0.99707 237.303c1 4.15723 5 5.82031 8 5.82031c4.12988 0 6 -0.982422 6 -4.1582
c0 -7.45703 -0.00292969 -10.8066 -0.00292969 -19.1211c0 -147.174 2.72754 -363.933 4.75 -444.638c0.75293 -30.041 4.25781 -41.7549 4.25781 -66.46c0 -6.38184 -7.1709 -8.79004 -16.0078 -8.79004c-6 0 -10 2.49512 -10 6.65234zM-4.75293 -328.596
c0 4.00684 2 8.14062 2 12.0088c1.99707 81.5283 2 81.998 2 173.599v0.806641c0 84.2822 -0.00292969 156.446 -0.99707 228.078c1 4.00293 5 5.60352 8 5.60352c4.12988 0 6 -0.945312 6 -4.00293c0 -7.17969 -0.00292969 -10.4053 -0.00292969 -18.4102
c0 -141.701 1.52734 -251.919 2.75 -329.634c0.381836 -24.2822 0.220703 -37.5391 0.633789 -55.2422c0.0419922 -1.81543 1.3252 -3.67773 1.3457 -5.60352c0.0185547 -1.66406 0.77832 -4.17578 0.77832 -5.94531c0 -6.14355 -2.6709 -7.66211 -11.5078 -7.66211
c-6 0 -11 2.40137 -11 6.4043zM158.016 -21.4209c0.280273 -21.0273 1.63574 -53.1074 1.78223 -64.1221c0.120117 -9.01172 -5.4248 -10.791 -15.6396 -10.3828c-15.7861 0.631836 -41.8271 4.67578 -61.3281 5.45508c-9.28613 0.37207 -15.7998 1.63281 -25.0859 2.00488
c-2.78613 0.111328 -3.71484 0.148438 -7.42871 0.296875c-16.7158 0.668945 -35.2881 1.41113 -42.6768 -1.29492c-2.77246 -0.890625 -2.75879 -1.8916 -2.75879 -1.8916l-0.928711 0.0371094c-3.71484 0.148438 -4.69629 4.19141 -4.79004 11.2002
c0 0 -0.0136719 1.00195 -0.0263672 2.00293c-0.374023 28.0371 1.12305 54.999 0.749023 83.0361c-0.320312 24.0322 -1.67578 56.1113 -2.95215 82.1836c-0.0800781 6.00781 1.75098 7.93555 5.46484 7.78711c14.8447 0.407227 37.1182 0.517578 64.0479 -0.55957
c3.71484 -0.149414 7.42969 -0.297852 11.1436 -0.446289c13.001 -0.519531 26.9434 -2.07812 39.957 -3.59961c11.1572 -1.44727 21.3848 -2.85742 31.5996 -3.26562c8.35742 -0.333984 8.46484 -8.34473 8.55762 -15.3545
c0.0810547 -6.00781 0.147461 -11.0146 0.227539 -17.0225c0.320312 -24.0322 -0.261719 -50.0293 0.0859375 -76.0645z" />

<!--
plicaBrevisAscBlack
-->
    <glyph glyph-name="plicaBrevisAscBlack" unicode="_" horiz-adv-x="172" 
d="M159.966 -12.2881c-0.103516 -21.0264 0.675781 -53.0234 0.62207 -64.0371c-0.0439453 -9.01172 -5.66797 -11.2676 -15.96 -11.7344c-15.9062 -0.719727 -42.0898 1.09863 -61.7383 0.208984c-9.35645 -0.423828 -15.9014 0.28125 -25.2578 -0.142578
c-2.80762 -0.126953 -3.74316 -0.168945 -7.48535 -0.338867c-16.8418 -0.762695 -35.5547 -1.60938 -43.0547 -4.95215c-2.8125 -1.12793 -2.81738 -2.12988 -2.81738 -2.12988l-0.935547 -0.0419922c-3.74219 -0.168945 -4.6582 3.79297 -4.62402 10.8018
c0 0 0.00488281 1.00195 0.00976562 2.00293c0.136719 28.0352 2.14062 55.1533 2.27734 83.1885c0.117188 24.0303 -0.662109 56.0273 -1.46973 82.0176c0.0292969 6.00781 1.91016 8.09473 5.65234 8.26465c14.9756 1.67871 37.4365 3.69629 64.5703 4.9248
c3.74219 0.168945 7.48535 0.338867 11.2275 0.507812c13.0996 0.592773 27.1289 0.227539 40.2236 -0.180664c11.2227 -0.493164 21.5107 -1.02832 31.8027 -0.5625c8.4209 0.380859 8.38184 -7.62891 8.34766 -14.6377
c-0.0292969 -6.00781 -0.0537109 -11.0137 -0.0839844 -17.0215c-0.117188 -24.0303 -1.17969 -50.1045 -1.30664 -76.1377zM155.25 323.671c0 3.84375 5.25 6.15039 11.25 6.15039c8.67383 0 11.7715 -2.14941 11.7715 -7.80371
c0 -2.06152 -0.515625 -4.06934 -0.544922 -6.0332c-0.0302734 -2.02637 -0.575195 -4.00781 -0.631836 -5.95801c-0.507812 -17.5732 -0.980469 -32.6533 -1.59473 -55.54c-2 -74.5664 -4 -178.344 -4 -314.408v-25.9443c-2 -0.768555 -4 -0.960938 -6 -0.960938
c-3 0 -6.41992 0.259766 -7.75 4.22754c0.666992 46.124 0.777344 82.5098 0.777344 125.786c0 21.6377 -0.0273438 44.999 -0.0273438 72.1602c0 88.4033 0 118.384 -2 196.794c0 3.65723 -1.25 7.5918 -1.25 11.5303zM-3.75 446.685c0 5 5.25 8 11.25 8
c8.67383 0 11.7715 -2.7959 11.7715 -10.1514c0 -2.68262 -0.515625 -5.29297 -0.544922 -7.84863c-0.0302734 -2.63574 -0.575195 -5.21289 -0.631836 -7.75c-0.507812 -22.8604 -0.980469 -42.4766 -1.59473 -72.25c-2 -97 -4 -232 -4 -409v-33.75
c-2 -1 -4 -1.25 -6 -1.25c-3 0 -6.41992 0.337891 -7.75 5.5c0.666992 60 0.777344 107.333 0.777344 163.63c0 28.1475 -0.0273438 58.5371 -0.0273438 93.8701c0 115 0 154 -2 256c0 4.75684 -1.25 9.87598 -1.25 15z" />

<!--
plicaBrevisAscBlack
-->
    <glyph glyph-name="plicaBrevisAscBlack" unicode="&#xf05f;" horiz-adv-x="172" 
d="M159.966 -12.2881c-0.103516 -21.0264 0.675781 -53.0234 0.62207 -64.0371c-0.0439453 -9.01172 -5.66797 -11.2676 -15.96 -11.7344c-15.9062 -0.719727 -42.0898 1.09863 -61.7383 0.208984c-9.35645 -0.423828 -15.9014 0.28125 -25.2578 -0.142578
c-2.80762 -0.126953 -3.74316 -0.168945 -7.48535 -0.338867c-16.8418 -0.762695 -35.5547 -1.60938 -43.0547 -4.95215c-2.8125 -1.12793 -2.81738 -2.12988 -2.81738 -2.12988l-0.935547 -0.0419922c-3.74219 -0.168945 -4.6582 3.79297 -4.62402 10.8018
c0 0 0.00488281 1.00195 0.00976562 2.00293c0.136719 28.0352 2.14062 55.1533 2.27734 83.1885c0.117188 24.0303 -0.662109 56.0273 -1.46973 82.0176c0.0292969 6.00781 1.91016 8.09473 5.65234 8.26465c14.9756 1.67871 37.4365 3.69629 64.5703 4.9248
c3.74219 0.168945 7.48535 0.338867 11.2275 0.507812c13.0996 0.592773 27.1289 0.227539 40.2236 -0.180664c11.2227 -0.493164 21.5107 -1.02832 31.8027 -0.5625c8.4209 0.380859 8.38184 -7.62891 8.34766 -14.6377
c-0.0292969 -6.00781 -0.0537109 -11.0137 -0.0839844 -17.0215c-0.117188 -24.0303 -1.17969 -50.1045 -1.30664 -76.1377zM155.25 323.671c0 3.84375 5.25 6.15039 11.25 6.15039c8.67383 0 11.7715 -2.14941 11.7715 -7.80371
c0 -2.06152 -0.515625 -4.06934 -0.544922 -6.0332c-0.0302734 -2.02637 -0.575195 -4.00781 -0.631836 -5.95801c-0.507812 -17.5732 -0.980469 -32.6533 -1.59473 -55.54c-2 -74.5664 -4 -178.344 -4 -314.408v-25.9443c-2 -0.768555 -4 -0.960938 -6 -0.960938
c-3 0 -6.41992 0.259766 -7.75 4.22754c0.666992 46.124 0.777344 82.5098 0.777344 125.786c0 21.6377 -0.0273438 44.999 -0.0273438 72.1602c0 88.4033 0 118.384 -2 196.794c0 3.65723 -1.25 7.5918 -1.25 11.5303zM-3.75 446.685c0 5 5.25 8 11.25 8
c8.67383 0 11.7715 -2.7959 11.7715 -10.1514c0 -2.68262 -0.515625 -5.29297 -0.544922 -7.84863c-0.0302734 -2.63574 -0.575195 -5.21289 -0.631836 -7.75c-0.507812 -22.8604 -0.980469 -42.4766 -1.59473 -72.25c-2 -97 -4 -232 -4 -409v-33.75
c-2 -1 -4 -1.25 -6 -1.25c-3 0 -6.41992 0.337891 -7.75 5.5c0.666992 60 0.777344 107.333 0.777344 163.63c0 28.1475 -0.0273438 58.5371 -0.0273438 93.8701c0 115 0 154 -2 256c0 4.75684 -1.25 9.87598 -1.25 15z" />
    <glyph glyph-name="plicaBrevisDescBlack" unicode="`" horiz-adv-x="169" 
d="M157.516 -21.4209c0.280273 -21.0273 1.63574 -53.1074 1.78223 -64.1221c0.120117 -9.01172 -5.4248 -10.791 -15.6396 -10.3828c-15.7861 0.631836 -41.8271 4.67578 -61.3281 5.45508c-9.28613 0.37207 -15.7998 1.63281 -25.0859 2.00488
c-2.78613 0.111328 -3.71484 0.148438 -7.42871 0.296875c-16.7158 0.668945 -35.2881 1.41113 -42.6768 -1.29492c-2.77246 -0.890625 -2.75879 -1.8916 -2.75879 -1.8916l-0.928711 0.0371094c-3.71484 0.148438 -4.69629 4.19141 -4.79004 11.2002
c0 0 -0.0136719 1.00195 -0.0263672 2.00293c-0.374023 28.0371 1.12305 54.999 0.749023 83.0361c-0.320312 24.0322 -1.67578 56.1113 -2.95215 82.1836c-0.0800781 6.00781 1.75098 7.93555 5.46484 7.78711c14.8447 0.407227 37.1182 0.517578 64.0479 -0.55957
c3.71484 -0.149414 7.42969 -0.297852 11.1436 -0.446289c13.001 -0.519531 26.9434 -2.07812 39.957 -3.59961c11.1572 -1.44727 21.3848 -2.85742 31.5996 -3.26562c8.35742 -0.333984 8.46484 -8.34473 8.55762 -15.3545
c0.0810547 -6.00781 0.147461 -11.0146 0.227539 -17.0225c0.320312 -24.0322 -0.261719 -50.0293 0.0859375 -76.0645zM151.997 -333.846c0 4.00684 2 8.14062 2 12.0088c1.99707 81.5283 2 81.998 2 173.599v0.806641c0 84.2822 -0.00292969 156.446 -0.99707 228.078
c1 4.00293 5 5.60352 8 5.60352c4.12988 0 6 -0.945312 6 -4.00293c0 -7.17969 -0.00292969 -10.4053 -0.00292969 -18.4102c0 -141.701 1.52734 -251.919 2.75 -329.634c0.381836 -24.2822 0.220703 -37.5391 0.633789 -55.2422
c0.0419922 -1.81543 1.3252 -3.67773 1.3457 -5.60352c0.0185547 -1.66406 0.77832 -4.17578 0.77832 -5.94531c0 -6.14355 -2.6709 -7.66211 -11.5078 -7.66211c-6 0 -11 2.40137 -11 6.4043zM-5.25293 -453.584c0 1.68652 1 5.06152 1 6.74805
c0 1.6875 1 4.21875 1 5.90527c2 86.0479 2 186.438 2 283.452v1.56152c0 88.8135 -0.00292969 165.279 -0.99707 240.762c1 4.21777 5 5.90527 8 5.90527c4.12988 0 6 -0.996094 6 -4.21777c0 -7.56641 -0.00292969 -10.9648 -0.00292969 -19.4004
c0 -149.318 2.72754 -369.237 4.75 -451.119c0.75293 -30.4785 4.25781 -42.3623 4.25781 -67.4277c0 -6.47461 -7.1709 -8.91797 -16.0078 -8.91797c-6 0 -10 2.53027 -10 6.74902z" />
    <glyph glyph-name="plicaBrevisDescBlack" unicode="&#xf060;" horiz-adv-x="169" 
d="M157.516 -21.4209c0.280273 -21.0273 1.63574 -53.1074 1.78223 -64.1221c0.120117 -9.01172 -5.4248 -10.791 -15.6396 -10.3828c-15.7861 0.631836 -41.8271 4.67578 -61.3281 5.45508c-9.28613 0.37207 -15.7998 1.63281 -25.0859 2.00488
c-2.78613 0.111328 -3.71484 0.148438 -7.42871 0.296875c-16.7158 0.668945 -35.2881 1.41113 -42.6768 -1.29492c-2.77246 -0.890625 -2.75879 -1.8916 -2.75879 -1.8916l-0.928711 0.0371094c-3.71484 0.148438 -4.69629 4.19141 -4.79004 11.2002
c0 0 -0.0136719 1.00195 -0.0263672 2.00293c-0.374023 28.0371 1.12305 54.999 0.749023 83.0361c-0.320312 24.0322 -1.67578 56.1113 -2.95215 82.1836c-0.0800781 6.00781 1.75098 7.93555 5.46484 7.78711c14.8447 0.407227 37.1182 0.517578 64.0479 -0.55957
c3.71484 -0.149414 7.42969 -0.297852 11.1436 -0.446289c13.001 -0.519531 26.9434 -2.07812 39.957 -3.59961c11.1572 -1.44727 21.3848 -2.85742 31.5996 -3.26562c8.35742 -0.333984 8.46484 -8.34473 8.55762 -15.3545
c0.0810547 -6.00781 0.147461 -11.0146 0.227539 -17.0225c0.320312 -24.0322 -0.261719 -50.0293 0.0859375 -76.0645zM151.997 -333.846c0 4.00684 2 8.14062 2 12.0088c1.99707 81.5283 2 81.998 2 173.599v0.806641c0 84.2822 -0.00292969 156.446 -0.99707 228.078
c1 4.00293 5 5.60352 8 5.60352c4.12988 0 6 -0.945312 6 -4.00293c0 -7.17969 -0.00292969 -10.4053 -0.00292969 -18.4102c0 -141.701 1.52734 -251.919 2.75 -329.634c0.381836 -24.2822 0.220703 -37.5391 0.633789 -55.2422
c0.0419922 -1.81543 1.3252 -3.67773 1.3457 -5.60352c0.0185547 -1.66406 0.77832 -4.17578 0.77832 -5.94531c0 -6.14355 -2.6709 -7.66211 -11.5078 -7.66211c-6 0 -11 2.40137 -11 6.4043zM-5.25293 -453.584c0 1.68652 1 5.06152 1 6.74805
c0 1.6875 1 4.21875 1 5.90527c2 86.0479 2 186.438 2 283.452v1.56152c0 88.8135 -0.00292969 165.279 -0.99707 240.762c1 4.21777 5 5.90527 8 5.90527c4.12988 0 6 -0.996094 6 -4.21777c0 -7.56641 -0.00292969 -10.9648 -0.00292969 -19.4004
c0 -149.318 2.72754 -369.237 4.75 -451.119c0.75293 -30.4785 4.25781 -42.3623 4.25781 -67.4277c0 -6.47461 -7.1709 -8.91797 -16.0078 -8.91797c-6 0 -10 2.53027 -10 6.74902z" />
    <glyph glyph-name="accidentalSharpParens" unicode="a" 
d="M-3.75 460.898c0 5.06445 5.25 8.10352 11.25 8.10352c8.67383 0 11.7715 -2.83203 11.7715 -10.2822c0 -2.7168 -0.515625 -5.36133 -0.544922 -7.9502c-0.0302734 -2.66992 -0.575195 -5.28027 -0.631836 -7.85059
c-0.507812 -23.1553 -0.980469 -43.0254 -1.59473 -73.1836c-2 -98.2529 -4 -234.997 -4 -414.284v-34.1855c-2 -1.0127 -4 -1.2666 -6 -1.2666c-3 0 -6.41992 0.342773 -7.75 5.57129c0.666992 60.7754 0.777344 108.72 0.777344 165.744
c0 28.5107 -0.0273438 59.293 -0.0273438 95.083c0 116.485 0 155.989 -2 259.308c0 4.81836 -1.25 10.0039 -1.25 15.1934zM159.966 -12.2881c-0.103516 -21.0264 0.675781 -53.0234 0.62207 -64.0371c-0.0439453 -9.01172 -5.66797 -11.2676 -15.96 -11.7344
c-15.9062 -0.719727 -42.0898 1.09863 -61.7383 0.208984c-9.35645 -0.423828 -15.9014 0.28125 -25.2578 -0.142578c-2.80762 -0.126953 -3.74316 -0.168945 -7.48535 -0.338867c-16.8418 -0.762695 -35.5547 -1.60938 -43.0547 -4.95215
c-2.8125 -1.12793 -2.81738 -2.12988 -2.81738 -2.12988l-0.935547 -0.0419922c-3.74219 -0.168945 -4.6582 3.79297 -4.62402 10.8018c0 0 0.00488281 1.00195 0.00976562 2.00293c0.136719 28.0352 2.14062 55.1533 2.27734 83.1885
c0.117188 24.0303 -0.662109 56.0273 -1.46973 82.0176c0.0292969 6.00781 1.91016 8.09473 5.65234 8.26465c14.9756 1.67871 37.4365 3.69629 64.5703 4.9248c3.74219 0.168945 7.48535 0.338867 11.2275 0.507812c13.0996 0.592773 27.1289 0.227539 40.2236 -0.180664
c11.2227 -0.493164 21.5107 -1.02832 31.8027 -0.5625c8.4209 0.380859 8.38184 -7.62891 8.34766 -14.6377c-0.0292969 -6.00781 -0.0537109 -11.0137 -0.0839844 -17.0215c-0.117188 -24.0303 -1.17969 -50.1045 -1.30664 -76.1377zM155.75 459.428
c0 5.04395 4.90332 8.07031 10.5068 8.07031c8.10059 0 10.9932 -2.82031 10.9932 -10.2402c0 -2.70605 -0.481445 -5.33984 -0.508789 -7.91797c-0.0283203 -2.6582 -0.537109 -5.25781 -0.589844 -7.81738c-0.474609 -23.0605 -0.916016 -42.8496 -1.48926 -72.8828
c-1.86816 -97.8496 -3.73633 -234.032 -3.73633 -412.583v-34.0459c-1.86719 -1.00879 -3.73535 -1.26074 -5.60352 -1.26074c-2.80176 0 -5.99512 0.34082 -7.2373 5.54785c0.623047 60.5264 0.725586 108.273 0.725586 165.063
c0 28.3945 -0.0253906 59.0498 -0.0253906 94.6924c0 116.008 0 155.35 -1.86816 258.243c0 4.79883 -1.16699 9.96191 -1.16699 15.1309z" />
    <glyph glyph-name="accidentalSharpParens" unicode="&#xf061;" 
d="M-3.75 460.898c0 5.06445 5.25 8.10352 11.25 8.10352c8.67383 0 11.7715 -2.83203 11.7715 -10.2822c0 -2.7168 -0.515625 -5.36133 -0.544922 -7.9502c-0.0302734 -2.66992 -0.575195 -5.28027 -0.631836 -7.85059
c-0.507812 -23.1553 -0.980469 -43.0254 -1.59473 -73.1836c-2 -98.2529 -4 -234.997 -4 -414.284v-34.1855c-2 -1.0127 -4 -1.2666 -6 -1.2666c-3 0 -6.41992 0.342773 -7.75 5.57129c0.666992 60.7754 0.777344 108.72 0.777344 165.744
c0 28.5107 -0.0273438 59.293 -0.0273438 95.083c0 116.485 0 155.989 -2 259.308c0 4.81836 -1.25 10.0039 -1.25 15.1934zM159.966 -12.2881c-0.103516 -21.0264 0.675781 -53.0234 0.62207 -64.0371c-0.0439453 -9.01172 -5.66797 -11.2676 -15.96 -11.7344
c-15.9062 -0.719727 -42.0898 1.09863 -61.7383 0.208984c-9.35645 -0.423828 -15.9014 0.28125 -25.2578 -0.142578c-2.80762 -0.126953 -3.74316 -0.168945 -7.48535 -0.338867c-16.8418 -0.762695 -35.5547 -1.60938 -43.0547 -4.95215
c-2.8125 -1.12793 -2.81738 -2.12988 -2.81738 -2.12988l-0.935547 -0.0419922c-3.74219 -0.168945 -4.6582 3.79297 -4.62402 10.8018c0 0 0.00488281 1.00195 0.00976562 2.00293c0.136719 28.0352 2.14062 55.1533 2.27734 83.1885
c0.117188 24.0303 -0.662109 56.0273 -1.46973 82.0176c0.0292969 6.00781 1.91016 8.09473 5.65234 8.26465c14.9756 1.67871 37.4365 3.69629 64.5703 4.9248c3.74219 0.168945 7.48535 0.338867 11.2275 0.507812c13.0996 0.592773 27.1289 0.227539 40.2236 -0.180664
c11.2227 -0.493164 21.5107 -1.02832 31.8027 -0.5625c8.4209 0.380859 8.38184 -7.62891 8.34766 -14.6377c-0.0292969 -6.00781 -0.0537109 -11.0137 -0.0839844 -17.0215c-0.117188 -24.0303 -1.17969 -50.1045 -1.30664 -76.1377zM155.75 459.428
c0 5.04395 4.90332 8.07031 10.5068 8.07031c8.10059 0 10.9932 -2.82031 10.9932 -10.2402c0 -2.70605 -0.481445 -5.33984 -0.508789 -7.91797c-0.0283203 -2.6582 -0.537109 -5.25781 -0.589844 -7.81738c-0.474609 -23.0605 -0.916016 -42.8496 -1.48926 -72.8828
c-1.86816 -97.8496 -3.73633 -234.032 -3.73633 -412.583v-34.0459c-1.86719 -1.00879 -3.73535 -1.26074 -5.60352 -1.26074c-2.80176 0 -5.99512 0.34082 -7.2373 5.54785c0.623047 60.5264 0.725586 108.273 0.725586 165.063
c0 28.3945 -0.0253906 59.0498 -0.0253906 94.6924c0 116.008 0 155.35 -1.86816 258.243c0 4.79883 -1.16699 9.96191 -1.16699 15.1309z" />
    <glyph glyph-name="accidentalFlat" unicode="b" horiz-adv-x="169" 
d="M-5.25293 -470.541c0 1.73926 1 5.21875 1 6.95898c0 1.73926 1 4.34961 1 6.08887c2 88.7285 2 192.245 2 292.282v1.61035c0 91.5801 -0.00292969 170.428 -0.99707 248.262c1 4.34863 5 6.08887 8 6.08887c4.12988 0 6 -1.02734 6 -4.34961
c0 -7.80176 -0.00292969 -11.3057 -0.00292969 -20.0049c0 -153.97 2.72754 -380.739 4.75 -465.171c0.75293 -31.4287 4.25781 -43.6836 4.25781 -69.5293c0 -6.67578 -7.1709 -9.19531 -16.0078 -9.19531c-6 0 -10 2.60938 -10 6.95898zM157.516 -21.4209
c0.280273 -21.0273 1.63574 -53.1074 1.78223 -64.1221c0.120117 -9.01172 -5.4248 -10.791 -15.6396 -10.3828c-15.7861 0.631836 -41.8271 4.67578 -61.3281 5.45508c-9.28613 0.37207 -15.7998 1.63281 -25.0859 2.00488
c-2.78613 0.111328 -3.71484 0.148438 -7.42871 0.296875c-16.7158 0.668945 -35.2881 1.41113 -42.6768 -1.29492c-2.77246 -0.890625 -2.75879 -1.8916 -2.75879 -1.8916l-0.928711 0.0371094c-3.71484 0.148438 -4.69629 4.19141 -4.79004 11.2002
c0 0 -0.0136719 1.00195 -0.0263672 2.00293c-0.374023 28.0371 1.12305 54.999 0.749023 83.0361c-0.320312 24.0322 -1.67578 56.1113 -2.95215 82.1836c-0.0800781 6.00781 1.75098 7.93555 5.46484 7.78711c14.8447 0.407227 37.1182 0.517578 64.0479 -0.55957
c3.71484 -0.149414 7.42969 -0.297852 11.1436 -0.446289c13.001 -0.519531 26.9434 -2.07812 39.957 -3.59961c11.1572 -1.44727 21.3848 -2.85742 31.5996 -3.26562c8.35742 -0.333984 8.46484 -8.34473 8.55762 -15.3545
c0.0810547 -6.00781 0.147461 -11.0146 0.227539 -17.0225c0.320312 -24.0322 -0.261719 -50.0293 0.0859375 -76.0645zM151.497 -470.594c0 1.72754 1 5.18066 1 6.90723s1 4.31738 1 6.04395c2 88.0645 2 190.807 2 290.096v1.59863
c0 90.8955 -0.00292969 169.153 -0.99707 246.404c1 4.31738 5 6.04395 8 6.04395c4.12988 0 6 -1.01953 6 -4.31641c0 -7.74414 -0.00292969 -11.2217 -0.00292969 -19.8555c0 -152.818 2.72754 -377.892 4.75 -461.692
c0.75293 -31.1934 4.25781 -43.3564 4.25781 -69.0088c0 -6.62695 -7.1709 -9.12695 -16.0078 -9.12695c-6 0 -10 2.58984 -10 6.90625z" />
    <glyph glyph-name="accidentalFlat" unicode="&#xf062;" horiz-adv-x="169" 
d="M-5.25293 -470.541c0 1.73926 1 5.21875 1 6.95898c0 1.73926 1 4.34961 1 6.08887c2 88.7285 2 192.245 2 292.282v1.61035c0 91.5801 -0.00292969 170.428 -0.99707 248.262c1 4.34863 5 6.08887 8 6.08887c4.12988 0 6 -1.02734 6 -4.34961
c0 -7.80176 -0.00292969 -11.3057 -0.00292969 -20.0049c0 -153.97 2.72754 -380.739 4.75 -465.171c0.75293 -31.4287 4.25781 -43.6836 4.25781 -69.5293c0 -6.67578 -7.1709 -9.19531 -16.0078 -9.19531c-6 0 -10 2.60938 -10 6.95898zM157.516 -21.4209
c0.280273 -21.0273 1.63574 -53.1074 1.78223 -64.1221c0.120117 -9.01172 -5.4248 -10.791 -15.6396 -10.3828c-15.7861 0.631836 -41.8271 4.67578 -61.3281 5.45508c-9.28613 0.37207 -15.7998 1.63281 -25.0859 2.00488
c-2.78613 0.111328 -3.71484 0.148438 -7.42871 0.296875c-16.7158 0.668945 -35.2881 1.41113 -42.6768 -1.29492c-2.77246 -0.890625 -2.75879 -1.8916 -2.75879 -1.8916l-0.928711 0.0371094c-3.71484 0.148438 -4.69629 4.19141 -4.79004 11.2002
c0 0 -0.0136719 1.00195 -0.0263672 2.00293c-0.374023 28.0371 1.12305 54.999 0.749023 83.0361c-0.320312 24.0322 -1.67578 56.1113 -2.95215 82.1836c-0.0800781 6.00781 1.75098 7.93555 5.46484 7.78711c14.8447 0.407227 37.1182 0.517578 64.0479 -0.55957
c3.71484 -0.149414 7.42969 -0.297852 11.1436 -0.446289c13.001 -0.519531 26.9434 -2.07812 39.957 -3.59961c11.1572 -1.44727 21.3848 -2.85742 31.5996 -3.26562c8.35742 -0.333984 8.46484 -8.34473 8.55762 -15.3545
c0.0810547 -6.00781 0.147461 -11.0146 0.227539 -17.0225c0.320312 -24.0322 -0.261719 -50.0293 0.0859375 -76.0645zM151.497 -470.594c0 1.72754 1 5.18066 1 6.90723s1 4.31738 1 6.04395c2 88.0645 2 190.807 2 290.096v1.59863
c0 90.8955 -0.00292969 169.153 -0.99707 246.404c1 4.31738 5 6.04395 8 6.04395c4.12988 0 6 -1.01953 6 -4.31641c0 -7.74414 -0.00292969 -11.2217 -0.00292969 -19.8555c0 -152.818 2.72754 -377.892 4.75 -461.692
c0.75293 -31.1934 4.25781 -43.3564 4.25781 -69.0088c0 -6.62695 -7.1709 -9.12695 -16.0078 -9.12695c-6 0 -10 2.58984 -10 6.90625z" />
    <glyph glyph-name="mensuralMaximaBlack" unicode="c" horiz-adv-x="390" 
d="M378.858 -551.105c-7.18848 0 -10.7168 4.49902 -10.7168 11.6973v2.69922c4.41113 41.3887 8.82031 173.653 8.82031 296.921c0 60.2832 -0.881836 92.5723 -3.52832 113.268c-1.76367 9.89648 -4.55566 18.7441 -16.9033 20.5439
c-44.1006 5.39844 -109.966 4.71973 -159.358 5.62012h-19.4043c-46.7451 0 -108.971 -0.0712891 -165.42 -1.87109h-1.76367c-7.9375 0 -12.3477 2.69922 -12.3477 11.6973c0 27.8916 1.76367 65.7852 1.76367 95.4766c0 24.293 -0.882812 60.5859 -1.76367 87.5781
v0.900391c0 6.29785 7.9375 7.19824 14.9941 7.19824c5.29199 0 11.4658 -1.7998 29.1055 -1.7998c49.3916 0 83.3945 2.12109 131.022 2.12109c69.6777 0 125.369 -0.243164 196.812 -5.56348c14.9814 -1.11523 17.6406 -4.49902 17.6406 -12.5977
c2.64551 -89.0762 2.64551 -280.283 2.64551 -381.057c0 -121.467 -1.76465 -202.445 -2.64551 -240.235c0 -10.7969 -2.01367 -12.5967 -8.95215 -12.5967z" />
    <glyph glyph-name="mensuralMaximaBlack" unicode="&#xf063;" horiz-adv-x="390" 
d="M378.858 -551.105c-7.18848 0 -10.7168 4.49902 -10.7168 11.6973v2.69922c4.41113 41.3887 8.82031 173.653 8.82031 296.921c0 60.2832 -0.881836 92.5723 -3.52832 113.268c-1.76367 9.89648 -4.55566 18.7441 -16.9033 20.5439
c-44.1006 5.39844 -109.966 4.71973 -159.358 5.62012h-19.4043c-46.7451 0 -108.971 -0.0712891 -165.42 -1.87109h-1.76367c-7.9375 0 -12.3477 2.69922 -12.3477 11.6973c0 27.8916 1.76367 65.7852 1.76367 95.4766c0 24.293 -0.882812 60.5859 -1.76367 87.5781
v0.900391c0 6.29785 7.9375 7.19824 14.9941 7.19824c5.29199 0 11.4658 -1.7998 29.1055 -1.7998c49.3916 0 83.3945 2.12109 131.022 2.12109c69.6777 0 125.369 -0.243164 196.812 -5.56348c14.9814 -1.11523 17.6406 -4.49902 17.6406 -12.5977
c2.64551 -89.0762 2.64551 -280.283 2.64551 -381.057c0 -121.467 -1.76465 -202.445 -2.64551 -240.235c0 -10.7969 -2.01367 -12.5967 -8.95215 -12.5967z" />
    <glyph glyph-name="d" unicode="d" horiz-adv-x="385" 
d="M364.5 645c7.5 1.5 13.5 1.5 21 0v-754.5c-19.5 0 -51 -3 -94.5 -6c-37.5 -3 -67.5 -4.5 -90 -4.5c-16.5 0 -49.5 1.5 -97.5 4.5c-48.9111 2.38574 -80.7441 3.82324 -95.5 4.31152c-10.1387 0.335938 -8 1.60938 -8 10.6885v172
c0 10.0947 0.332031 17.0928 10.5 16.8711c44.2158 -0.960938 130.263 -6.99609 190.5 -6.99609c43.6865 0 85.2871 4.99902 148.5 12.7471c13.627 1.6709 15 8.4834 15 24.3779v526.5z" />
    <glyph glyph-name="d" unicode="&#xf064;" horiz-adv-x="385" 
d="M364.5 645c7.5 1.5 13.5 1.5 21 0v-754.5c-19.5 0 -51 -3 -94.5 -6c-37.5 -3 -67.5 -4.5 -90 -4.5c-16.5 0 -49.5 1.5 -97.5 4.5c-48.9111 2.38574 -80.7441 3.82324 -95.5 4.31152c-10.1387 0.335938 -8 1.60938 -8 10.6885v172
c0 10.0947 0.332031 17.0928 10.5 16.8711c44.2158 -0.960938 130.263 -6.99609 190.5 -6.99609c43.6865 0 85.2871 4.99902 148.5 12.7471c13.627 1.6709 15 8.4834 15 24.3779v526.5z" />
    <glyph glyph-name="mensuralLongaBlack" unicode="e" horiz-adv-x="192" 
d="M170 -560c-9 0 -10 5 -10 14c0 2 3 19 4 35c2 37 2 81 2 142v99c0 73 0 127 -3 150c-1 10 0 21 -11 24c-10 3 -26 5 -66 5c-28 0 -46 -1 -73 -2h-1c-8 0 -13 2 -13 11c0 28 1 53 1 82v3c0 25 -1 54 -1 82c0 6 5 8 11 8c31 1 33 1 83 1c28 0 39 -1 65 -2c4 0 9 0 13 -1
c7 -2 9 -9 9 -16v-72v-88v-187v-38c0 -69 -1 -123 -1 -163v-5c0 -23 2 -41 2 -57c0 -5 0 -11 -1 -15c-2 -9 -1 -10 -10 -10z" />
    <glyph glyph-name="mensuralLongaBlack" unicode="&#xe951;" horiz-adv-x="192" 
d="M170 -560c-9 0 -10 5 -10 14c0 2 3 19 4 35c2 37 2 81 2 142v99c0 73 0 127 -3 150c-1 10 0 21 -11 24c-10 3 -26 5 -66 5c-28 0 -46 -1 -73 -2h-1c-8 0 -13 2 -13 11c0 28 1 53 1 82v3c0 25 -1 54 -1 82c0 6 5 8 11 8c31 1 33 1 83 1c28 0 39 -1 65 -2c4 0 9 0 13 -1
c7 -2 9 -9 9 -16v-72v-88v-187v-38c0 -69 -1 -123 -1 -163v-5c0 -23 2 -41 2 -57c0 -5 0 -11 -1 -15c-2 -9 -1 -10 -10 -10z" />
    <glyph glyph-name="mensuralLongaBlack" unicode="&#xf065;" horiz-adv-x="192" 
d="M170 -560c-9 0 -10 5 -10 14c0 2 3 19 4 35c2 37 2 81 2 142v99c0 73 0 127 -3 150c-1 10 0 21 -11 24c-10 3 -26 5 -66 5c-28 0 -46 -1 -73 -2h-1c-8 0 -13 2 -13 11c0 28 1 53 1 82v3c0 25 -1 54 -1 82c0 6 5 8 11 8c31 1 33 1 83 1c28 0 39 -1 65 -2c4 0 9 0 13 -1
c7 -2 9 -9 9 -16v-72v-88v-187v-38c0 -69 -1 -123 -1 -163v-5c0 -23 2 -41 2 -57c0 -5 0 -11 -1 -15c-2 -9 -1 -10 -10 -10z" />
    <glyph glyph-name="f" unicode="f" horiz-adv-x="648" 
d="M648 -112.5c-94.5 -51 -271.5 -93 -381 -124.5c-78 -22.5 -166.5 -40.5 -267 -63v211.5c54 7.5 139.5 21 253.5 48c94.5 22.5 225 64.5 394.5 139.5v-211.5z" />
    <glyph glyph-name="f" unicode="&#xf066;" horiz-adv-x="648" 
d="M648 -112.5c-94.5 -51 -271.5 -93 -381 -124.5c-78 -22.5 -166.5 -40.5 -267 -63v211.5c54 7.5 139.5 21 253.5 48c94.5 22.5 225 64.5 394.5 139.5v-211.5z" />
    <glyph glyph-name="g" unicode="g" horiz-adv-x="792" 
d="M792 -112.5c-99 -66 -232.5 -146.55 -448.5 -247.05c-105 -49.5 -237 -85.9502 -343.5 -129.45v211.5c66 22.5 171 60 310.5 121.5c112.5 49.5 271.5 129 481.5 255v-211.5z" />
    <glyph glyph-name="g" unicode="&#xf067;" horiz-adv-x="792" 
d="M792 -112.5c-99 -66 -232.5 -146.55 -448.5 -247.05c-105 -49.5 -237 -85.9502 -343.5 -129.45v211.5c66 22.5 171 60 310.5 121.5c112.5 49.5 271.5 129 481.5 255v-211.5z" />
    <glyph glyph-name="mensuralSemibrevisBlack" unicode="h" horiz-adv-x="188" 
d="M92 161c39 -67 62 -119 78 -164c-24 -69 -61 -119 -90 -156v4c0 40 -51 107 -80 154c38 52 60 94 92 162z" />
    <glyph glyph-name="mensuralSemibrevisBlack" unicode="&#xe953;" horiz-adv-x="188" 
d="M92 161c39 -67 62 -119 78 -164c-24 -69 -61 -119 -90 -156v4c0 40 -51 107 -80 154c38 52 60 94 92 162z" />
    <glyph glyph-name="mensuralSemibrevisBlack" unicode="&#xf068;" horiz-adv-x="188" 
d="M92 161c39 -67 62 -119 78 -164c-24 -69 -61 -119 -90 -156v4c0 40 -51 107 -80 154c38 52 60 94 92 162z" />
    <glyph glyph-name="mensuralMinimaBlack" unicode="i" horiz-adv-x="169" 
d="M92 161c39 -67 62 -119 78 -164c-24 -69 -61 -119 -90 -156v4c0 40 -51 107 -80 154c38 52 60 94 92 162zM82.75 598.5c0 5 4 8 10 8c9 0 16 -3 16 -11c0 -30 -2 -51 -3 -87c-4 -97 -6 -342 -6 -519v-30v-3.75c-2 -1 -4 -1.25 -6 -1.25c-3 0 -6.66992 1.83789 -8 7
c1 90 1 180 1 286c0 115 0 234 -2 336c0 2 -1 5 -1 7s-1 6 -1 8z" />
    <glyph glyph-name="mensuralMinimaBlack" unicode="&#xe954;" horiz-adv-x="169" 
d="M92 161c39 -67 62 -119 78 -164c-24 -69 -61 -119 -90 -156v4c0 40 -51 107 -80 154c38 52 60 94 92 162zM82.75 598.5c0 5 4 8 10 8c9 0 16 -3 16 -11c0 -30 -2 -51 -3 -87c-4 -97 -6 -342 -6 -519v-30v-3.75c-2 -1 -4 -1.25 -6 -1.25c-3 0 -6.66992 1.83789 -8 7
c1 90 1 180 1 286c0 115 0 234 -2 336c0 2 -1 5 -1 7s-1 6 -1 8z" />
    <glyph glyph-name="mensuralMinimaBlack" unicode="&#xf069;" horiz-adv-x="169" 
d="M92 161c39 -67 62 -119 78 -164c-24 -69 -61 -119 -90 -156v4c0 40 -51 107 -80 154c38 52 60 94 92 162zM82.75 598.5c0 5 4 8 10 8c9 0 16 -3 16 -11c0 -30 -2 -51 -3 -87c-4 -97 -6 -342 -6 -519v-30v-3.75c-2 -1 -4 -1.25 -6 -1.25c-3 0 -6.66992 1.83789 -8 7
c1 90 1 180 1 286c0 115 0 234 -2 336c0 2 -1 5 -1 7s-1 6 -1 8z" />
    <glyph glyph-name="mensuralSemibrevisCaudataBlack" unicode="j" horiz-adv-x="170" 
d="M92 161c39 -67 62 -119 78 -164c-24 -69 -61 -119 -90 -156v4c0 40 -51 107 -80 154c38 52 60 94 92 162zM75.9971 -416.372c0 3.52051 2 7.15234 2 10.5508c1.99707 71.6367 2 72.0488 2 152.535v0.708008c0 74.0566 -0.00292969 137.465 -0.99707 200.404
c1 3.5166 5 4.92383 8 4.92383c4.12988 0 6 -0.830078 6 -3.51758c0 -6.30859 -0.00292969 -9.1416 -0.00292969 -16.1768c0 -124.507 1.52734 -221.351 2.75 -289.637c0.381836 -21.3359 0.220703 -32.9834 0.633789 -48.5381
c0.0419922 -1.5957 1.3252 -3.23242 1.3457 -4.9248c0.0185547 -1.46094 0.77832 -3.66895 0.77832 -5.22266c0 -5.39941 -2.6709 -6.7334 -11.5078 -6.7334c-6 0 -11 2.11035 -11 5.62793z" />
    <glyph glyph-name="mensuralSemibrevisCaudataBlack" unicode="&#xe959;" horiz-adv-x="170" 
d="M92 161c39 -67 62 -119 78 -164c-24 -69 -61 -119 -90 -156v4c0 40 -51 107 -80 154c38 52 60 94 92 162zM75.9971 -416.372c0 3.52051 2 7.15234 2 10.5508c1.99707 71.6367 2 72.0488 2 152.535v0.708008c0 74.0566 -0.00292969 137.465 -0.99707 200.404
c1 3.5166 5 4.92383 8 4.92383c4.12988 0 6 -0.830078 6 -3.51758c0 -6.30859 -0.00292969 -9.1416 -0.00292969 -16.1768c0 -124.507 1.52734 -221.351 2.75 -289.637c0.381836 -21.3359 0.220703 -32.9834 0.633789 -48.5381
c0.0419922 -1.5957 1.3252 -3.23242 1.3457 -4.9248c0.0185547 -1.46094 0.77832 -3.66895 0.77832 -5.22266c0 -5.39941 -2.6709 -6.7334 -11.5078 -6.7334c-6 0 -11 2.11035 -11 5.62793z" />
    <glyph glyph-name="mensuralSemibrevisCaudataBlack" unicode="&#xf06a;" horiz-adv-x="170" 
d="M92 161c39 -67 62 -119 78 -164c-24 -69 -61 -119 -90 -156v4c0 40 -51 107 -80 154c38 52 60 94 92 162zM75.9971 -416.372c0 3.52051 2 7.15234 2 10.5508c1.99707 71.6367 2 72.0488 2 152.535v0.708008c0 74.0566 -0.00292969 137.465 -0.99707 200.404
c1 3.5166 5 4.92383 8 4.92383c4.12988 0 6 -0.830078 6 -3.51758c0 -6.30859 -0.00292969 -9.1416 -0.00292969 -16.1768c0 -124.507 1.52734 -221.351 2.75 -289.637c0.381836 -21.3359 0.220703 -32.9834 0.633789 -48.5381
c0.0419922 -1.5957 1.3252 -3.23242 1.3457 -4.9248c0.0185547 -1.46094 0.77832 -3.66895 0.77832 -5.22266c0 -5.39941 -2.6709 -6.7334 -11.5078 -6.7334c-6 0 -11 2.11035 -11 5.62793z" />
    <glyph glyph-name="mensuralDragmaBlack" unicode="k" horiz-adv-x="186" 
d="M104.97 720.887v-566.65l81.1299 -149.207c-11.9688 -16.7637 -39.8994 -63.7061 -81.1299 -139.147v-580.062c-5.31934 -6.70605 -11.9697 -8.38184 -18.6201 -5.0293v580.062c-13.2998 30.1768 -42.5596 77.1191 -86.4492 139.148
c19.9492 33.5303 47.8799 82.1475 86.4492 145.853v570.004c5.32031 10.0596 11.9697 11.7363 18.6201 5.03027z" />
    <glyph glyph-name="mensuralDragmaBlack" unicode="&#xe95a;" horiz-adv-x="186" 
d="M104.97 720.887v-566.65l81.1299 -149.207c-11.9688 -16.7637 -39.8994 -63.7061 -81.1299 -139.147v-580.062c-5.31934 -6.70605 -11.9697 -8.38184 -18.6201 -5.0293v580.062c-13.2998 30.1768 -42.5596 77.1191 -86.4492 139.148
c19.9492 33.5303 47.8799 82.1475 86.4492 145.853v570.004c5.32031 10.0596 11.9697 11.7363 18.6201 5.03027z" />
    <glyph glyph-name="mensuralDragmaBlack" unicode="&#xf06b;" horiz-adv-x="186" 
d="M104.97 720.887v-566.65l81.1299 -149.207c-11.9688 -16.7637 -39.8994 -63.7061 -81.1299 -139.147v-580.062c-5.31934 -6.70605 -11.9697 -8.38184 -18.6201 -5.0293v580.062c-13.2998 30.1768 -42.5596 77.1191 -86.4492 139.148
c19.9492 33.5303 47.8799 82.1475 86.4492 145.853v570.004c5.32031 10.0596 11.9697 11.7363 18.6201 5.03027z" />
    <glyph glyph-name="obliqueDesc2ndEndBlack" unicode="l" horiz-adv-x="378" 
d="M342.5 -114.637c-76.6172 55.7236 -116.343 82.7168 -188.5 116.137c-47.3994 21.9531 -69.6758 29.4775 -133.08 29.4775c-3.82617 0 -13.1982 0.475586 -15.6699 0.772461c-1.9248 0.231445 -3.4043 0.461914 -4.16309 2
c-0.613281 1.24316 -1.08594 5.13672 -1.08691 8.25l-0.0458984 171.433c0 1.32031 1.03516 1.61816 1.8916 1.61816c1.48242 0 4.50195 -0.078125 7.7168 -0.518555c12.002 -1.64453 16.292 -2.00879 27.7422 -3.21582c73.292 -7.72949 140.857 -25.5635 197.695 -64.3164
c44 -30 87.3418 -71.1504 129 -116c3.84961 -4.14453 8.21973 -5.90918 11.25 -8c1.6416 -1.13281 3.05078 -1.92969 3.05078 -3.66211c0 -0.1875 -0.0166016 -0.632812 -0.0507812 -0.837891c-6.55859 -38.8115 -29.2148 -81.002 -32.25 -124.5
c0 -5.53223 -0.360352 -9.0127 -2.26172 -9.0127c-0.438477 0 -0.881836 0.117188 -1.23828 0.375977z" />
    <glyph glyph-name="obliqueDesc2ndEndBlack" unicode="&#xf06c;" horiz-adv-x="378" 
d="M342.5 -114.637c-76.6172 55.7236 -116.343 82.7168 -188.5 116.137c-47.3994 21.9531 -69.6758 29.4775 -133.08 29.4775c-3.82617 0 -13.1982 0.475586 -15.6699 0.772461c-1.9248 0.231445 -3.4043 0.461914 -4.16309 2
c-0.613281 1.24316 -1.08594 5.13672 -1.08691 8.25l-0.0458984 171.433c0 1.32031 1.03516 1.61816 1.8916 1.61816c1.48242 0 4.50195 -0.078125 7.7168 -0.518555c12.002 -1.64453 16.292 -2.00879 27.7422 -3.21582c73.292 -7.72949 140.857 -25.5635 197.695 -64.3164
c44 -30 87.3418 -71.1504 129 -116c3.84961 -4.14453 8.21973 -5.90918 11.25 -8c1.6416 -1.13281 3.05078 -1.92969 3.05078 -3.66211c0 -0.1875 -0.0166016 -0.632812 -0.0507812 -0.837891c-6.55859 -38.8115 -29.2148 -81.002 -32.25 -124.5
c0 -5.53223 -0.360352 -9.0127 -2.26172 -9.0127c-0.438477 0 -0.881836 0.117188 -1.23828 0.375977z" />
    <glyph glyph-name="mensuralSemibrevisObliqueBlack" unicode="m" horiz-adv-x="178" 
d="M-207 -381c70 126 166 307 289 540c21 -33 57 -88 96 -164c-23 -35 -51 -87 -84 -158c-15 32 -38 72 -72 130c-3 6 -5 9 -8 9c-2 0 -4 -2 -7 -7c-34 -57 -69 -120 -107 -189c-24 -44 -49 -91 -75 -140c-2 -5 -5 -11 -7 -16c-4 -7 -6 -11 -11 -18c-2 -1 -3 -1 -5 -1l-5 1
c-2 2 -4 6 -4 13z" />
    <glyph glyph-name="mensuralSemibrevisObliqueBlack" unicode="&#xe95b;" horiz-adv-x="178" 
d="M-207 -381c70 126 166 307 289 540c21 -33 57 -88 96 -164c-23 -35 -51 -87 -84 -158c-15 32 -38 72 -72 130c-3 6 -5 9 -8 9c-2 0 -4 -2 -7 -7c-34 -57 -69 -120 -107 -189c-24 -44 -49 -91 -75 -140c-2 -5 -5 -11 -7 -16c-4 -7 -6 -11 -11 -18c-2 -1 -3 -1 -5 -1l-5 1
c-2 2 -4 6 -4 13z" />
    <glyph glyph-name="mensuralSemibrevisObliqueBlack" unicode="&#xf06d;" horiz-adv-x="178" 
d="M-207 -381c70 126 166 307 289 540c21 -33 57 -88 96 -164c-23 -35 -51 -87 -84 -158c-15 32 -38 72 -72 130c-3 6 -5 9 -8 9c-2 0 -4 -2 -7 -7c-34 -57 -69 -120 -107 -189c-24 -44 -49 -91 -75 -140c-2 -5 -5 -11 -7 -16c-4 -7 -6 -11 -11 -18c-2 -1 -3 -1 -5 -1l-5 1
c-2 2 -4 6 -4 13z" />
    <glyph glyph-name="ascii6e" unicode="n" horiz-adv-x="186" 
d="M186.1 -5.0293c-31.5137 -69.4551 -60.6484 -113.441 -95 -164.971c11.9834 40.6934 -33.4717 94.7764 -91.1992 170c22.9883 28.291 51.6875 71.4111 86.4492 139.148c2.53809 131.551 6.80859 244.654 1.30469 422.679
c-25.127 -8.84473 -42.3857 -10.8379 -51.75 -7.65625c-13.3818 4.78418 -20.2256 16.3945 -20.5586 36.5107c-0.27832 16.7617 4.7627 33.6221 15.123 50.5801c24.416 40.3135 45.3828 67.0254 63.0762 79.2383c8.24902 5.69434 11.0947 0.0517578 11.373 -5
c3.00488 -54.4756 3.77148 -140.347 3.77148 -140.347c11.9131 3.07324 29.5234 9.9873 38.7773 13.5117c-4.91309 -3.00098 -21.5449 -11.8408 -38.6934 -19.79c4.44336 -203.545 -1.63574 -309.487 -3.80371 -431.757c28.7334 -36.7812 60.0186 -86.9785 81.1299 -142.147
zM87.7812 569.782c-0.855469 32.084 -1.73926 75.5371 -3.49023 93.7168c-0.761719 7.91113 -3.27246 10.0342 -6.96582 6.66797c-8.4043 -7.6582 -12.4473 -12.1562 -19.042 -19.9385c-17.333 -20.457 -28.6719 -37.4883 -29.8066 -49.2461
c-1.10742 -13.4346 1.71875 -23.4434 8.47949 -30.0264c6.78809 -8.25781 24.3125 -6.69043 50.8252 -1.17383z" />
    <glyph glyph-name="ascii6e" unicode="&#xf06e;" horiz-adv-x="186" 
d="M186.1 -5.0293c-31.5137 -69.4551 -60.6484 -113.441 -95 -164.971c11.9834 40.6934 -33.4717 94.7764 -91.1992 170c22.9883 28.291 51.6875 71.4111 86.4492 139.148c2.53809 131.551 6.80859 244.654 1.30469 422.679
c-25.127 -8.84473 -42.3857 -10.8379 -51.75 -7.65625c-13.3818 4.78418 -20.2256 16.3945 -20.5586 36.5107c-0.27832 16.7617 4.7627 33.6221 15.123 50.5801c24.416 40.3135 45.3828 67.0254 63.0762 79.2383c8.24902 5.69434 11.0947 0.0517578 11.373 -5
c3.00488 -54.4756 3.77148 -140.347 3.77148 -140.347c11.9131 3.07324 29.5234 9.9873 38.7773 13.5117c-4.91309 -3.00098 -21.5449 -11.8408 -38.6934 -19.79c4.44336 -203.545 -1.63574 -309.487 -3.80371 -431.757c28.7334 -36.7812 60.0186 -86.9785 81.1299 -142.147
zM87.7812 569.782c-0.855469 32.084 -1.73926 75.5371 -3.49023 93.7168c-0.761719 7.91113 -3.27246 10.0342 -6.96582 6.66797c-8.4043 -7.6582 -12.4473 -12.1562 -19.042 -19.9385c-17.333 -20.457 -28.6719 -37.4883 -29.8066 -49.2461
c-1.10742 -13.4346 1.71875 -23.4434 8.47949 -30.0264c6.78809 -8.25781 24.3125 -6.69043 50.8252 -1.17383z" />
    <glyph glyph-name="mensuralSemiminimaBlack" unicode="o" horiz-adv-x="170" 
d="M92 161c39 -67 62 -119 78 -164c-24 -69 -61 -119 -90 -156v4c0 40 -51 107 -80 154c38 52 60 94 92 162zM91.5049 124.998c-6.77441 0.0185547 -8.79395 3.95508 -8.79395 10.5664c0 0.223633 0.00195312 0.449219 0.00683594 0.678711
c1.58691 80.6133 2.60938 161.858 2.60938 231.157c0 60.1074 -0.769531 120.631 -2.60938 189.677c-0.0117188 0.449219 -0.0166016 0.898438 -0.0166016 1.34668c0 1.0957 0.0253906 2.18359 0.0253906 3.24219c0 4.35547 -0.428711 8.2207 -4.82227 10.124
c-10.0283 4.34473 -24.5273 10.6895 -32.5693 15.0361c3.6582 -1.53809 16.7051 -5.98438 31.54 -9.58887c1.33203 -0.323242 2.37207 -0.551758 3.18164 -0.551758c1.87305 0 2.50879 1.22168 2.66113 5.30762c0.193359 5.18945 0.279297 11.2656 0.279297 17.8857
c0 36.4141 -2.60352 89.3135 -4.31641 101.864c-0.442383 3.23828 -0.84082 7.66992 -0.84082 11.918c0 6.91602 1.05566 13.3447 4.69434 13.3447c0.773438 0 1.66406 -0.291016 2.68555 -0.928711c21.1113 -13.1836 43.5322 -40.708 69.3652 -82.5742
c10.6396 -16.7656 18.5723 -33.5303 18.5723 -50.2949c0 -20.1191 -6.65039 -31.8535 -19.9502 -36.8828c-2.94727 -1.06152 -6.55176 -1.61914 -10.9121 -1.61914c-8.16602 0 -18.9854 1.95508 -33.1152 6.21484c-1.0498 0.316406 -1.93652 0.458984 -2.68652 0.458984
c-3.55078 0 -4.02246 -3.20312 -4.02246 -6.36426c0 -0.896484 0.0380859 -1.79004 0.0546875 -2.60547c0.942383 -47.1738 1.31152 -92.8672 1.31152 -138.18c0 -83.917 -1.26562 -179.028 -2.49902 -267.32c-0.0126953 -0.866211 -0.0195312 -9.2207 -0.0195312 -10.0625
c0 -9.96094 -2.9248 -11.8496 -9.70801 -11.8496h-0.105469zM157.244 603.267c-2.5293 15.9453 -18.8008 39.4736 -51.4688 69.1436c-1.22168 1.10938 -2.16602 1.55176 -2.89258 1.55176c-1.83691 0 -2.27832 -2.82617 -2.27832 -4.82324
c0 -0.259766 0.0078125 -0.504883 0.0205078 -0.728516c1.10449 -19.2852 1.27734 -34.4062 1.27734 -48.0693c0 -6.21875 -0.0361328 -12.1357 -0.0361328 -18.0059c0 -5.93457 0.0371094 -11.8223 0.183594 -17.9248
c0.00683594 -0.275391 0.00976562 -0.551758 0.00976562 -0.829102c0 -1.83301 -0.125977 -3.70996 -0.125977 -5.49316c0 -4.58496 0.831055 -8.54883 6.7666 -9.53516c9.4502 -1.57031 17.4316 -2.40137 23.9717 -2.40137c9.26758 0 15.6426 1.66797 19.2061 5.26172
c4.61719 5.82031 6.05078 12.4482 6.05078 20.4463c0 3.52148 -0.277344 7.30762 -0.68457 11.4072z" />
    <glyph glyph-name="mensuralSemiminimaBlack" unicode="&#xe955;" horiz-adv-x="170" 
d="M92 161c39 -67 62 -119 78 -164c-24 -69 -61 -119 -90 -156v4c0 40 -51 107 -80 154c38 52 60 94 92 162zM91.5049 124.998c-6.77441 0.0185547 -8.79395 3.95508 -8.79395 10.5664c0 0.223633 0.00195312 0.449219 0.00683594 0.678711
c1.58691 80.6133 2.60938 161.858 2.60938 231.157c0 60.1074 -0.769531 120.631 -2.60938 189.677c-0.0117188 0.449219 -0.0166016 0.898438 -0.0166016 1.34668c0 1.0957 0.0253906 2.18359 0.0253906 3.24219c0 4.35547 -0.428711 8.2207 -4.82227 10.124
c-10.0283 4.34473 -24.5273 10.6895 -32.5693 15.0361c3.6582 -1.53809 16.7051 -5.98438 31.54 -9.58887c1.33203 -0.323242 2.37207 -0.551758 3.18164 -0.551758c1.87305 0 2.50879 1.22168 2.66113 5.30762c0.193359 5.18945 0.279297 11.2656 0.279297 17.8857
c0 36.4141 -2.60352 89.3135 -4.31641 101.864c-0.442383 3.23828 -0.84082 7.66992 -0.84082 11.918c0 6.91602 1.05566 13.3447 4.69434 13.3447c0.773438 0 1.66406 -0.291016 2.68555 -0.928711c21.1113 -13.1836 43.5322 -40.708 69.3652 -82.5742
c10.6396 -16.7656 18.5723 -33.5303 18.5723 -50.2949c0 -20.1191 -6.65039 -31.8535 -19.9502 -36.8828c-2.94727 -1.06152 -6.55176 -1.61914 -10.9121 -1.61914c-8.16602 0 -18.9854 1.95508 -33.1152 6.21484c-1.0498 0.316406 -1.93652 0.458984 -2.68652 0.458984
c-3.55078 0 -4.02246 -3.20312 -4.02246 -6.36426c0 -0.896484 0.0380859 -1.79004 0.0546875 -2.60547c0.942383 -47.1738 1.31152 -92.8672 1.31152 -138.18c0 -83.917 -1.26562 -179.028 -2.49902 -267.32c-0.0126953 -0.866211 -0.0195312 -9.2207 -0.0195312 -10.0625
c0 -9.96094 -2.9248 -11.8496 -9.70801 -11.8496h-0.105469zM157.244 603.267c-2.5293 15.9453 -18.8008 39.4736 -51.4688 69.1436c-1.22168 1.10938 -2.16602 1.55176 -2.89258 1.55176c-1.83691 0 -2.27832 -2.82617 -2.27832 -4.82324
c0 -0.259766 0.0078125 -0.504883 0.0205078 -0.728516c1.10449 -19.2852 1.27734 -34.4062 1.27734 -48.0693c0 -6.21875 -0.0361328 -12.1357 -0.0361328 -18.0059c0 -5.93457 0.0371094 -11.8223 0.183594 -17.9248
c0.00683594 -0.275391 0.00976562 -0.551758 0.00976562 -0.829102c0 -1.83301 -0.125977 -3.70996 -0.125977 -5.49316c0 -4.58496 0.831055 -8.54883 6.7666 -9.53516c9.4502 -1.57031 17.4316 -2.40137 23.9717 -2.40137c9.26758 0 15.6426 1.66797 19.2061 5.26172
c4.61719 5.82031 6.05078 12.4482 6.05078 20.4463c0 3.52148 -0.277344 7.30762 -0.68457 11.4072z" />
    <glyph glyph-name="mensuralSemiminimaBlack" unicode="&#xf06f;" horiz-adv-x="170" 
d="M92 161c39 -67 62 -119 78 -164c-24 -69 -61 -119 -90 -156v4c0 40 -51 107 -80 154c38 52 60 94 92 162zM91.5049 124.998c-6.77441 0.0185547 -8.79395 3.95508 -8.79395 10.5664c0 0.223633 0.00195312 0.449219 0.00683594 0.678711
c1.58691 80.6133 2.60938 161.858 2.60938 231.157c0 60.1074 -0.769531 120.631 -2.60938 189.677c-0.0117188 0.449219 -0.0166016 0.898438 -0.0166016 1.34668c0 1.0957 0.0253906 2.18359 0.0253906 3.24219c0 4.35547 -0.428711 8.2207 -4.82227 10.124
c-10.0283 4.34473 -24.5273 10.6895 -32.5693 15.0361c3.6582 -1.53809 16.7051 -5.98438 31.54 -9.58887c1.33203 -0.323242 2.37207 -0.551758 3.18164 -0.551758c1.87305 0 2.50879 1.22168 2.66113 5.30762c0.193359 5.18945 0.279297 11.2656 0.279297 17.8857
c0 36.4141 -2.60352 89.3135 -4.31641 101.864c-0.442383 3.23828 -0.84082 7.66992 -0.84082 11.918c0 6.91602 1.05566 13.3447 4.69434 13.3447c0.773438 0 1.66406 -0.291016 2.68555 -0.928711c21.1113 -13.1836 43.5322 -40.708 69.3652 -82.5742
c10.6396 -16.7656 18.5723 -33.5303 18.5723 -50.2949c0 -20.1191 -6.65039 -31.8535 -19.9502 -36.8828c-2.94727 -1.06152 -6.55176 -1.61914 -10.9121 -1.61914c-8.16602 0 -18.9854 1.95508 -33.1152 6.21484c-1.0498 0.316406 -1.93652 0.458984 -2.68652 0.458984
c-3.55078 0 -4.02246 -3.20312 -4.02246 -6.36426c0 -0.896484 0.0380859 -1.79004 0.0546875 -2.60547c0.942383 -47.1738 1.31152 -92.8672 1.31152 -138.18c0 -83.917 -1.26562 -179.028 -2.49902 -267.32c-0.0126953 -0.866211 -0.0195312 -9.2207 -0.0195312 -10.0625
c0 -9.96094 -2.9248 -11.8496 -9.70801 -11.8496h-0.105469zM157.244 603.267c-2.5293 15.9453 -18.8008 39.4736 -51.4688 69.1436c-1.22168 1.10938 -2.16602 1.55176 -2.89258 1.55176c-1.83691 0 -2.27832 -2.82617 -2.27832 -4.82324
c0 -0.259766 0.0078125 -0.504883 0.0205078 -0.728516c1.10449 -19.2852 1.27734 -34.4062 1.27734 -48.0693c0 -6.21875 -0.0361328 -12.1357 -0.0361328 -18.0059c0 -5.93457 0.0371094 -11.8223 0.183594 -17.9248
c0.00683594 -0.275391 0.00976562 -0.551758 0.00976562 -0.829102c0 -1.83301 -0.125977 -3.70996 -0.125977 -5.49316c0 -4.58496 0.831055 -8.54883 6.7666 -9.53516c9.4502 -1.57031 17.4316 -2.40137 23.9717 -2.40137c9.26758 0 15.6426 1.66797 19.2061 5.26172
c4.61719 5.82031 6.05078 12.4482 6.05078 20.4463c0 3.52148 -0.277344 7.30762 -0.68457 11.4072z" />
    <glyph glyph-name="p" unicode="p" horiz-adv-x="186" 
d="M186.1 5.0293c-11.9688 -16.7637 -39.8994 -63.7061 -81.1299 -139.147v-434.208c11.9707 -5.0293 22.6104 -10.0586 31.9209 -15.0898c-3.99023 1.67773 -14.6309 5.03125 -31.9209 10.0605v-152.561c-19.9502 6.70605 -43.8896 35.207 -74.4795 83.8232
c-10.6406 16.7656 -15.96 33.5303 -15.96 50.2949c0 20.1191 6.65039 31.8535 19.9502 36.8828c9.30957 3.35254 26.5996 1.67676 51.8691 -6.70508v422.472c-13.2998 30.1768 -42.5596 77.1191 -86.4492 139.148c21.2803 38.5596 54.5303 92.207 98.4189 164.296z
M86.3496 -675.622v107.296c-26.5996 5.0293 -43.8896 5.0293 -50.54 -1.67676c-6.64941 -8.38184 -9.30957 -18.4414 -7.97949 -31.8535c2.66016 -16.7646 22.6104 -41.9121 58.5195 -73.7656z" />
    <glyph glyph-name="p" unicode="&#xf070;" horiz-adv-x="186" 
d="M186.1 5.0293c-11.9688 -16.7637 -39.8994 -63.7061 -81.1299 -139.147v-434.208c11.9707 -5.0293 22.6104 -10.0586 31.9209 -15.0898c-3.99023 1.67773 -14.6309 5.03125 -31.9209 10.0605v-152.561c-19.9502 6.70605 -43.8896 35.207 -74.4795 83.8232
c-10.6406 16.7656 -15.96 33.5303 -15.96 50.2949c0 20.1191 6.65039 31.8535 19.9502 36.8828c9.30957 3.35254 26.5996 1.67676 51.8691 -6.70508v422.472c-13.2998 30.1768 -42.5596 77.1191 -86.4492 139.148c21.2803 38.5596 54.5303 92.207 98.4189 164.296z
M86.3496 -675.622v107.296c-26.5996 5.0293 -43.8896 5.0293 -50.54 -1.67676c-6.64941 -8.38184 -9.30957 -18.4414 -7.97949 -31.8535c2.66016 -16.7646 22.6104 -41.9121 58.5195 -73.7656z" />
    <glyph glyph-name="q" unicode="q" horiz-adv-x="186" 
d="M86.3496 -570.003c-26.5996 5.03027 -43.8896 5.03027 -50.54 -1.67578c-6.64941 -8.38379 -9.30957 -18.4424 -7.97949 -31.8545c2.66016 -16.7646 22.6104 -41.9121 58.5195 -73.7646v107.295zM30.4902 -643.769c-10.6406 16.7646 -15.96 33.5293 -15.96 50.2939
c0 20.1191 6.65039 31.8545 19.9502 36.8838c9.30957 3.35254 26.5996 1.67578 51.8691 -6.70605v424.148c-13.2998 30.1768 -42.5596 77.1191 -86.4492 139.148c19.9492 33.5303 47.8799 82.1475 86.4492 145.853v570.004c5.32031 10.0596 11.9697 11.7363 18.6201 5.03027
v-566.65l81.1299 -149.207c-11.9688 -16.7637 -39.8994 -63.7061 -81.1299 -139.147v-435.885c11.9707 -5.0293 22.6104 -10.0596 31.9209 -15.0889c-3.99023 1.67578 -14.6309 5.0293 -31.9209 10.0596v-154.236c-15.96 1.67578 -41.2295 30.1777 -74.4795 85.5z" />
    <glyph glyph-name="q" unicode="&#xf071;" horiz-adv-x="186" 
d="M86.3496 -570.003c-26.5996 5.03027 -43.8896 5.03027 -50.54 -1.67578c-6.64941 -8.38379 -9.30957 -18.4424 -7.97949 -31.8545c2.66016 -16.7646 22.6104 -41.9121 58.5195 -73.7646v107.295zM30.4902 -643.769c-10.6406 16.7646 -15.96 33.5293 -15.96 50.2939
c0 20.1191 6.65039 31.8545 19.9502 36.8838c9.30957 3.35254 26.5996 1.67578 51.8691 -6.70605v424.148c-13.2998 30.1768 -42.5596 77.1191 -86.4492 139.148c19.9492 33.5303 47.8799 82.1475 86.4492 145.853v570.004c5.32031 10.0596 11.9697 11.7363 18.6201 5.03027
v-566.65l81.1299 -149.207c-11.9688 -16.7637 -39.8994 -63.7061 -81.1299 -139.147v-435.885c11.9707 -5.0293 22.6104 -10.0596 31.9209 -15.0889c-3.99023 1.67578 -14.6309 5.0293 -31.9209 10.0596v-154.236c-15.96 1.67578 -41.2295 30.1777 -74.4795 85.5z" />
    <glyph glyph-name="r" unicode="r" horiz-adv-x="186" 
d="M99.6504 -570.003v-107.295c35.9092 31.8525 55.8594 57 58.5195 73.7646c1.33008 13.4121 -1.33008 23.4707 -7.97949 31.8545c-6.65039 6.70605 -23.9404 6.70605 -50.54 1.67578zM155.51 -643.769c-33.25 -55.3223 -58.5195 -83.8242 -74.4795 -85.5v154.236
c-17.29 -5.03027 -27.9307 -8.38379 -31.9209 -10.0596c9.31055 5.0293 19.9502 10.0596 31.9209 15.0889v435.885c-41.2305 75.4414 -69.1602 122.384 -81.1299 139.147l81.1299 149.207v566.65c6.65039 6.70605 13.2998 5.0293 18.6201 -5.03027v-570.004
c38.5693 -63.7051 66.5 -112.322 86.4492 -145.853c-43.8896 -62.0293 -73.1494 -108.972 -86.4492 -139.148v-424.148c25.2695 8.38184 42.5596 10.0586 51.8691 6.70605c13.2998 -5.0293 19.9502 -16.7646 19.9502 -36.8838c0 -16.7646 -5.31934 -33.5293 -15.96 -50.2939
z" />
    <glyph glyph-name="r" unicode="&#xf072;" horiz-adv-x="186" 
d="M99.6504 -570.003v-107.295c35.9092 31.8525 55.8594 57 58.5195 73.7646c1.33008 13.4121 -1.33008 23.4707 -7.97949 31.8545c-6.65039 6.70605 -23.9404 6.70605 -50.54 1.67578zM155.51 -643.769c-33.25 -55.3223 -58.5195 -83.8242 -74.4795 -85.5v154.236
c-17.29 -5.03027 -27.9307 -8.38379 -31.9209 -10.0596c9.31055 5.0293 19.9502 10.0596 31.9209 15.0889v435.885c-41.2305 75.4414 -69.1602 122.384 -81.1299 139.147l81.1299 149.207v566.65c6.65039 6.70605 13.2998 5.0293 18.6201 -5.03027v-570.004
c38.5693 -63.7051 66.5 -112.322 86.4492 -145.853c-43.8896 -62.0293 -73.1494 -108.972 -86.4492 -139.148v-424.148c25.2695 8.38184 42.5596 10.0586 51.8691 6.70605c13.2998 -5.0293 19.9502 -16.7646 19.9502 -36.8838c0 -16.7646 -5.31934 -33.5293 -15.96 -50.2939
z" />
    <glyph glyph-name="s" unicode="s" horiz-adv-x="186" 
d="M186.1 0c-22.6094 -30.1777 -50.54 -77.1172 -86.4492 -139.148v-424.148c25.2695 8.38184 42.5596 10.0586 51.8691 6.70605c13.2998 -5.0293 19.9502 -16.7646 19.9502 -36.8838c0 -16.7646 -5.31934 -33.5293 -15.96 -50.2939
c-33.25 -55.3223 -58.5195 -83.8242 -74.4795 -85.5v154.236c-11.9707 -3.35254 -22.6104 -6.70605 -31.9209 -10.0596c3.99023 1.67578 14.6309 6.70703 31.9209 15.0889v435.885c-15.9609 31.8525 -42.5605 77.1172 -81.1299 139.147
c13.2998 23.4697 39.8994 70.4121 81.1299 139.147v425.826c-11.9707 5.0293 -22.6104 10.0596 -31.9209 15.0889c3.99023 -1.67578 14.6309 -5.0293 31.9209 -10.0596v154.236c15.96 -1.67578 41.2295 -30.1777 74.4795 -85.5
c10.6406 -16.7646 15.96 -33.5293 15.96 -50.2939c0 -20.1191 -6.65039 -31.8545 -19.9502 -36.8838c-9.30957 -3.35254 -26.5996 -1.67578 -51.8691 6.70605v-424.148c18.6191 -31.8535 47.8799 -77.1191 86.4492 -139.148zM158.17 613.592
c-2.66016 16.7637 -22.6104 41.9121 -58.5195 73.7646v-107.294c26.5996 -5.03027 43.8896 -5.03027 50.54 1.67578c6.64941 8.38281 9.30957 18.4424 7.97949 31.8535zM158.17 -603.533c1.33008 13.4121 -1.33008 23.4707 -7.97949 30.1777
c-6.65039 8.38281 -23.9404 8.38281 -50.54 3.35254v-107.295c10.6396 8.38184 19.9492 18.4404 27.9297 26.8232c18.6201 20.1191 29.2598 35.207 30.5898 46.9414z" />
    <glyph glyph-name="s" unicode="&#xf073;" horiz-adv-x="186" 
d="M186.1 0c-22.6094 -30.1777 -50.54 -77.1172 -86.4492 -139.148v-424.148c25.2695 8.38184 42.5596 10.0586 51.8691 6.70605c13.2998 -5.0293 19.9502 -16.7646 19.9502 -36.8838c0 -16.7646 -5.31934 -33.5293 -15.96 -50.2939
c-33.25 -55.3223 -58.5195 -83.8242 -74.4795 -85.5v154.236c-11.9707 -3.35254 -22.6104 -6.70605 -31.9209 -10.0596c3.99023 1.67578 14.6309 6.70703 31.9209 15.0889v435.885c-15.9609 31.8525 -42.5605 77.1172 -81.1299 139.147
c13.2998 23.4697 39.8994 70.4121 81.1299 139.147v425.826c-11.9707 5.0293 -22.6104 10.0596 -31.9209 15.0889c3.99023 -1.67578 14.6309 -5.0293 31.9209 -10.0596v154.236c15.96 -1.67578 41.2295 -30.1777 74.4795 -85.5
c10.6406 -16.7646 15.96 -33.5293 15.96 -50.2939c0 -20.1191 -6.65039 -31.8545 -19.9502 -36.8838c-9.30957 -3.35254 -26.5996 -1.67578 -51.8691 6.70605v-424.148c18.6191 -31.8535 47.8799 -77.1191 86.4492 -139.148zM158.17 613.592
c-2.66016 16.7637 -22.6104 41.9121 -58.5195 73.7646v-107.294c26.5996 -5.03027 43.8896 -5.03027 50.54 1.67578c6.64941 8.38281 9.30957 18.4424 7.97949 31.8535zM158.17 -603.533c1.33008 13.4121 -1.33008 23.4707 -7.97949 30.1777
c-6.65039 8.38281 -23.9404 8.38281 -50.54 3.35254v-107.295c10.6396 8.38184 19.9492 18.4404 27.9297 26.8232c18.6201 20.1191 29.2598 35.207 30.5898 46.9414z" />
    <glyph glyph-name="semibrevisSquareStemUpBlack" unicode="t" horiz-adv-x="172" 
d="M171.5 -19c0 -21 1 -53 1 -64c0 -9 -6 -11 -17 -11c-17 0 -45 3 -66 3c-10 0 -17 1 -27 1h-8c-18 0 -38 0 -46 -3c-3 -1 -3 -2 -3 -2h-1c-4 0 -5 4 -5 11v2c0 28 2 55 2 83c0 24 -1 56 -2 82c0 6 2 8 6 8c16 1 40 2 69 2h12c14 0 29 -1 43 -2c12 -1 23 -2 34 -2
c9 0 9 -8 9 -15v-17c0 -24 -1 -50 -1 -76zM-3.75 558.419c0 5.0498 4 8.0791 10 8.0791c9 0 16 -3.0293 16 -11.1094c0 -30.2988 -2 -51.5088 -3 -87.8672c-4 -97.9668 -6 -345.41 -6 -524.175v-30.2988v-3.78711c-2 -1.00977 -4 -1.2627 -6 -1.2627
c-3 0 -6.66992 1.85645 -8 7.06934c1 90.8975 1 181.795 1 288.852c0 116.146 0 236.333 -2 339.351c0 2.01953 -1 5.0498 -1 7.06934c0 2.02051 -1 6.05957 -1 8.08008z" />
    <glyph glyph-name="semibrevisSquareStemUpBlack" unicode="&#xf074;" horiz-adv-x="172" 
d="M171.5 -19c0 -21 1 -53 1 -64c0 -9 -6 -11 -17 -11c-17 0 -45 3 -66 3c-10 0 -17 1 -27 1h-8c-18 0 -38 0 -46 -3c-3 -1 -3 -2 -3 -2h-1c-4 0 -5 4 -5 11v2c0 28 2 55 2 83c0 24 -1 56 -2 82c0 6 2 8 6 8c16 1 40 2 69 2h12c14 0 29 -1 43 -2c12 -1 23 -2 34 -2
c9 0 9 -8 9 -15v-17c0 -24 -1 -50 -1 -76zM-3.75 558.419c0 5.0498 4 8.0791 10 8.0791c9 0 16 -3.0293 16 -11.1094c0 -30.2988 -2 -51.5088 -3 -87.8672c-4 -97.9668 -6 -345.41 -6 -524.175v-30.2988v-3.78711c-2 -1.00977 -4 -1.2627 -6 -1.2627
c-3 0 -6.66992 1.85645 -8 7.06934c1 90.8975 1 181.795 1 288.852c0 116.146 0 236.333 -2 339.351c0 2.01953 -1 5.0498 -1 7.06934c0 2.02051 -1 6.05957 -1 8.08008z" />
    <glyph glyph-name="u" unicode="u" horiz-adv-x="208" 
d="M208 -21c0 -23 2 -44 2 -71c0 -10 -9 -12 -22 -12c-21 0 -54 3 -80 3c-12 0 -22 1 -34 1h-10c-22 0 -45 0 -55 -3c-3 -1 -5 -2 -5 -2h-1c-5 0 -5 4 -5 12v2c0 31 2 60 2 92c0 27 -1 62 -2 91v1c0 6 2 8 7 8c1 0 5 0 8 -1c15 -3 45 -2 90 -3c17 0 36 -1 53 -1
c12 0 23 0 34 1c1 0 7 2 8 2c11 0 11 -8 11 -16v-20c0 -27 -1 -55 -1 -84z" />
    <glyph glyph-name="u" unicode="&#xf075;" horiz-adv-x="208" 
d="M208 -21c0 -23 2 -44 2 -71c0 -10 -9 -12 -22 -12c-21 0 -54 3 -80 3c-12 0 -22 1 -34 1h-10c-22 0 -45 0 -55 -3c-3 -1 -5 -2 -5 -2h-1c-5 0 -5 4 -5 12v2c0 31 2 60 2 92c0 27 -1 62 -2 91v1c0 6 2 8 7 8c1 0 5 0 8 -1c15 -3 45 -2 90 -3c17 0 36 -1 53 -1
c12 0 23 0 34 1c1 0 7 2 8 2c11 0 11 -8 11 -16v-20c0 -27 -1 -55 -1 -84z" />
    <glyph glyph-name="pesInitialSmallBlack" unicode="v" horiz-adv-x="208" 
d="M208 -45c0 -15 1 -34 1 -52c0 -6 -6 -8 -17 -8c-23.1504 0 -41.3633 0.775391 -69 1c-20.0918 0.163086 -37.7725 0.514648 -62.8936 0.514648c-23.1064 0 -40.8418 -1.51465 -54.1064 -1.51465h-3c-5 0 -5 3 -5 8v1c0 20 2 37.25 2 58.25c0 18 -1 38.75 -2 57.75
c0 5 2 8 7 10c10 3 36 7 68 8h16h12c17 0 38 0 50 -1c16 -1 35 -2 47 -4c11 -2 11 -6 11 -11v-13c0 -18 -1 -35 -1 -54z" />
    <glyph glyph-name="pesInitialSmallBlack" unicode="&#xf076;" horiz-adv-x="208" 
d="M208 -45c0 -15 1 -34 1 -52c0 -6 -6 -8 -17 -8c-23.1504 0 -41.3633 0.775391 -69 1c-20.0918 0.163086 -37.7725 0.514648 -62.8936 0.514648c-23.1064 0 -40.8418 -1.51465 -54.1064 -1.51465h-3c-5 0 -5 3 -5 8v1c0 20 2 37.25 2 58.25c0 18 -1 38.75 -2 57.75
c0 5 2 8 7 10c10 3 36 7 68 8h16h12c17 0 38 0 50 -1c16 -1 35 -2 47 -4c11 -2 11 -6 11 -11v-13c0 -18 -1 -35 -1 -54z" />
    <glyph glyph-name="w" unicode="w" horiz-adv-x="194" 
d="M0 427c0 4 2 6 7 6c5 -1 7 -3 7 -6v-379.333c0 -11.5583 1.21867 -10.9447 11.3333 -12.1128c20.2959 -2.34405 42.1456 -3.57733 65.549 -3.57733c31.549 0 65.9215 2.24114 103.118 7.0235v-104.5c0 -0.723636 0.00505292 -1.4026 0.00505292 -2.03846
c0 -5.01227 -0.313962 -7.34712 -5.89153 -7.78082c-29.4085 -2.28675 -57.1457 -3.18145 -83.9309 -3.18145c-33.8363 0 -66.1537 1.42775 -98.4024 3.28063c-5.17936 0.297586 -5.87305 2.59789 -5.87305 6.52492c0 1.43678 0.092857 3.09131 0.092857 4.94518v490.75z
" />
    <glyph glyph-name="w" unicode="&#xf077;" horiz-adv-x="194" 
d="M0 427c0 4 2 6 7 6c5 -1 7 -3 7 -6v-379.333c0 -11.5583 1.21867 -10.9447 11.3333 -12.1128c20.2959 -2.34405 42.1456 -3.57733 65.549 -3.57733c31.549 0 65.9215 2.24114 103.118 7.0235v-104.5c0 -0.723636 0.00505292 -1.4026 0.00505292 -2.03846
c0 -5.01227 -0.313962 -7.34712 -5.89153 -7.78082c-29.4085 -2.28675 -57.1457 -3.18145 -83.9309 -3.18145c-33.8363 0 -66.1537 1.42775 -98.4024 3.28063c-5.17936 0.297586 -5.87305 2.59789 -5.87305 6.52492c0 1.43678 0.092857 3.09131 0.092857 4.94518v490.75z
" />
    <glyph glyph-name="clivisInitial1Black" unicode="x" 
d="M170.5 -19c0 -21 1 -53 1 -64c0 -9 -6 -11 -17 -11c-17 0 -45 3 -66 3c-10 0 -17 1 -27 1h-8c-18 0 -38 0 -46 -3c-3 -1 -3 -2 -3 -2h-1c-4 0 -5 4 -5 11v2c0 28 2 55 2 83c0 24 -1 56 -2 82c0 6 2 8 6 8c16 1 40 2 69 2h12c14 0 29 -1 43 -2c12 -1 23 -2 34 -2
c9 0 9 -8 9 -15v-17c0 -24 -1 -50 -1 -76zM-3.6084 -214.142c0 0.944336 0.480469 2.83203 0.480469 3.77539c0 0.944336 0.481445 2.36035 0.481445 3.30371c0.960938 48.1406 0.960938 104.305 0.960938 158.58v0.874023
c0 49.6875 -0.000976562 92.4668 -0.479492 134.696c0.481445 2.35938 2.4043 3.30371 3.8457 3.30371c1.98535 0 2.88477 -0.557617 2.88477 -2.36035c0 -4.23242 -0.00195312 -6.13379 -0.00195312 -10.8535c0 -83.5371 1.31152 -206.573 2.28418 -252.383
c0.361328 -17.0508 2.04688 -23.7002 2.04688 -37.7227c0 -3.62207 -3.44727 -4.98926 -7.69531 -4.98926c-2.88477 0 -4.80762 1.41504 -4.80762 3.77539z" />
    <glyph glyph-name="clivisInitial1Black" unicode="&#xf078;" 
d="M170.5 -19c0 -21 1 -53 1 -64c0 -9 -6 -11 -17 -11c-17 0 -45 3 -66 3c-10 0 -17 1 -27 1h-8c-18 0 -38 0 -46 -3c-3 -1 -3 -2 -3 -2h-1c-4 0 -5 4 -5 11v2c0 28 2 55 2 83c0 24 -1 56 -2 82c0 6 2 8 6 8c16 1 40 2 69 2h12c14 0 29 -1 43 -2c12 -1 23 -2 34 -2
c9 0 9 -8 9 -15v-17c0 -24 -1 -50 -1 -76zM-3.6084 -214.142c0 0.944336 0.480469 2.83203 0.480469 3.77539c0 0.944336 0.481445 2.36035 0.481445 3.30371c0.960938 48.1406 0.960938 104.305 0.960938 158.58v0.874023
c0 49.6875 -0.000976562 92.4668 -0.479492 134.696c0.481445 2.35938 2.4043 3.30371 3.8457 3.30371c1.98535 0 2.88477 -0.557617 2.88477 -2.36035c0 -4.23242 -0.00195312 -6.13379 -0.00195312 -10.8535c0 -83.5371 1.31152 -206.573 2.28418 -252.383
c0.361328 -17.0508 2.04688 -23.7002 2.04688 -37.7227c0 -3.62207 -3.44727 -4.98926 -7.69531 -4.98926c-2.88477 0 -4.80762 1.41504 -4.80762 3.77539z" />
    <glyph glyph-name="clivisInitial2Black" unicode="y" 
d="M169.75 -19c0 -21 1 -53 1 -64c0 -9 -6 -11 -17 -11c-17 0 -45 3 -66 3c-10 0 -17 1 -27 1h-8c-18 0 -38 0 -46 -3c-3 -1 -3 -2 -3 -2h-1c-4 0 -5 4 -5 11v2c0 28 2 55 2 83c0 24 -1 56 -2 82c0 6 2 8 6 8c16 1 40 2 69 2h12c14 0 29 -1 43 -2c12 -1 23 -2 34 -2
c9 0 9 -8 9 -15v-17c0 -24 -1 -50 -1 -76zM-5.44824 -340.984c0 1.33789 0.758789 4.0127 0.758789 5.34961c0 1.33789 0.759766 3.34375 0.759766 4.68164c1.51855 68.207 1.51855 147.783 1.51855 224.685v1.23828c0 70.4004 -0.00195312 131.013 -0.756836 190.845
c0.758789 3.34375 3.79688 4.68164 6.0752 4.68164c3.13672 0 4.55664 -0.790039 4.55664 -3.34375c0 -5.99707 -0.00195312 -8.69141 -0.00195312 -15.3779c0 -118.361 2.07129 -292.685 3.60742 -357.59c0.571289 -24.1602 3.2334 -33.5811 3.2334 -53.4492
c0 -5.13184 -5.44629 -7.06836 -12.1572 -7.06836c-4.55664 0 -7.59375 2.00488 -7.59375 5.34863z" />
    <glyph glyph-name="clivisInitial2Black" unicode="&#xf079;" 
d="M169.75 -19c0 -21 1 -53 1 -64c0 -9 -6 -11 -17 -11c-17 0 -45 3 -66 3c-10 0 -17 1 -27 1h-8c-18 0 -38 0 -46 -3c-3 -1 -3 -2 -3 -2h-1c-4 0 -5 4 -5 11v2c0 28 2 55 2 83c0 24 -1 56 -2 82c0 6 2 8 6 8c16 1 40 2 69 2h12c14 0 29 -1 43 -2c12 -1 23 -2 34 -2
c9 0 9 -8 9 -15v-17c0 -24 -1 -50 -1 -76zM-5.44824 -340.984c0 1.33789 0.758789 4.0127 0.758789 5.34961c0 1.33789 0.759766 3.34375 0.759766 4.68164c1.51855 68.207 1.51855 147.783 1.51855 224.685v1.23828c0 70.4004 -0.00195312 131.013 -0.756836 190.845
c0.758789 3.34375 3.79688 4.68164 6.0752 4.68164c3.13672 0 4.55664 -0.790039 4.55664 -3.34375c0 -5.99707 -0.00195312 -8.69141 -0.00195312 -15.3779c0 -118.361 2.07129 -292.685 3.60742 -357.59c0.571289 -24.1602 3.2334 -33.5811 3.2334 -53.4492
c0 -5.13184 -5.44629 -7.06836 -12.1572 -7.06836c-4.55664 0 -7.59375 2.00488 -7.59375 5.34863z" />
    <glyph glyph-name="clivisInitial3Black" unicode="z" 
d="M170 -19c0 -21 1 -53 1 -64c0 -9 -6 -11 -17 -11c-17 0 -45 3 -66 3c-10 0 -17 1 -27 1h-8c-18 0 -38 0 -46 -3c-3 -1 -3 -2 -3 -2h-1c-4 0 -5 4 -5 11v2c0 28 2 55 2 83c0 24 -1 56 -2 82c0 6 2 8 6 8c16 1 40 2 69 2h12c14 0 29 -1 43 -2c12 -1 23 -2 34 -2
c9 0 9 -8 9 -15v-17c0 -24 -1 -50 -1 -76zM-5.2041 -463.133c0 1.71582 0.827148 5.14941 0.827148 6.86621s0.827148 4.29199 0.827148 6.00879c1.65332 87.5508 1.65332 189.694 1.65332 288.403v1.58984c0 90.3652 -0.00292969 168.167 -0.824219 244.968
c0.826172 4.29199 4.13379 6.00879 6.61426 6.00879c3.41406 0 4.95996 -1.01367 4.95996 -4.29199c0 -7.69824 -0.00195312 -11.1562 -0.00195312 -19.7393c0 -151.928 2.25488 -375.688 3.92676 -459c0.623047 -31.0107 3.52051 -43.1035 3.52051 -68.6074
c0 -6.58691 -5.92871 -9.07324 -13.2344 -9.07324c-4.96094 0 -8.26855 2.5752 -8.26855 6.86719z" />
    <glyph glyph-name="clivisInitial3Black" unicode="&#xf07a;" 
d="M170 -19c0 -21 1 -53 1 -64c0 -9 -6 -11 -17 -11c-17 0 -45 3 -66 3c-10 0 -17 1 -27 1h-8c-18 0 -38 0 -46 -3c-3 -1 -3 -2 -3 -2h-1c-4 0 -5 4 -5 11v2c0 28 2 55 2 83c0 24 -1 56 -2 82c0 6 2 8 6 8c16 1 40 2 69 2h12c14 0 29 -1 43 -2c12 -1 23 -2 34 -2
c9 0 9 -8 9 -15v-17c0 -24 -1 -50 -1 -76zM-5.2041 -463.133c0 1.71582 0.827148 5.14941 0.827148 6.86621s0.827148 4.29199 0.827148 6.00879c1.65332 87.5508 1.65332 189.694 1.65332 288.403v1.58984c0 90.3652 -0.00292969 168.167 -0.824219 244.968
c0.826172 4.29199 4.13379 6.00879 6.61426 6.00879c3.41406 0 4.95996 -1.01367 4.95996 -4.29199c0 -7.69824 -0.00195312 -11.1562 -0.00195312 -19.7393c0 -151.928 2.25488 -375.688 3.92676 -459c0.623047 -31.0107 3.52051 -43.1035 3.52051 -68.6074
c0 -6.58691 -5.92871 -9.07324 -13.2344 -9.07324c-4.96094 0 -8.26855 2.5752 -8.26855 6.86719z" />
    <glyph glyph-name="clivisInitial4Black" unicode="{" 
d="M170.5 -19c0 -21 1 -53 1 -64c0 -9 -6 -11 -17 -11c-17 0 -45 3 -66 3c-10 0 -17 1 -27 1h-8c-18 0 -38 0 -46 -3c-3 -1 -3 -2 -3 -2h-1c-4 0 -5 4 -5 11v2c0 28 2 55 2 83c0 24 -1 56 -2 82c0 6 2 8 6 8c16 1 40 2 69 2h12c14 0 29 -1 43 -2c12 -1 23 -2 34 -2
c9 0 9 -8 9 -15v-17c0 -24 -1 -50 -1 -76zM-4.62695 -575.746c0 2.06348 0.75 6.18945 0.75 8.25293s0.75 5.15918 0.75 7.22266c1.49902 105.235 1.49902 228.011 1.49902 346.658v1.91016c0 108.618 -0.00195312 202.135 -0.74707 294.448
c0.75 5.15918 3.74902 7.22266 5.99902 7.22266c3.09668 0 4.49902 -1.21777 4.49902 -5.15918c0 -9.25293 -0.00195312 -13.4092 -0.00195312 -23.7256c0 -182.615 2.04492 -451.573 3.56152 -551.714c0.56543 -37.2744 3.19336 -51.8096 3.19336 -82.4639
c0 -7.91797 -5.37793 -10.9062 -12.0039 -10.9062c-4.5 0 -7.49902 3.09473 -7.49902 8.25391z" />
    <glyph glyph-name="clivisInitial4Black" unicode="&#xf07b;" 
d="M170.5 -19c0 -21 1 -53 1 -64c0 -9 -6 -11 -17 -11c-17 0 -45 3 -66 3c-10 0 -17 1 -27 1h-8c-18 0 -38 0 -46 -3c-3 -1 -3 -2 -3 -2h-1c-4 0 -5 4 -5 11v2c0 28 2 55 2 83c0 24 -1 56 -2 82c0 6 2 8 6 8c16 1 40 2 69 2h12c14 0 29 -1 43 -2c12 -1 23 -2 34 -2
c9 0 9 -8 9 -15v-17c0 -24 -1 -50 -1 -76zM-4.62695 -575.746c0 2.06348 0.75 6.18945 0.75 8.25293s0.75 5.15918 0.75 7.22266c1.49902 105.235 1.49902 228.011 1.49902 346.658v1.91016c0 108.618 -0.00195312 202.135 -0.74707 294.448
c0.75 5.15918 3.74902 7.22266 5.99902 7.22266c3.09668 0 4.49902 -1.21777 4.49902 -5.15918c0 -9.25293 -0.00195312 -13.4092 -0.00195312 -23.7256c0 -182.615 2.04492 -451.573 3.56152 -551.714c0.56543 -37.2744 3.19336 -51.8096 3.19336 -82.4639
c0 -7.91797 -5.37793 -10.9062 -12.0039 -10.9062c-4.5 0 -7.49902 3.09473 -7.49902 8.25391z" />
    <glyph glyph-name="clivisInitial5Black" unicode="|" 
d="M170.5 -19c0 -21 1 -53 1 -64c0 -9 -6 -11 -17 -11c-17 0 -45 3 -66 3c-10 0 -17 1 -27 1h-8c-18 0 -38 0 -46 -3c-3 -1 -3 -2 -3 -2h-1c-4 0 -5 4 -5 11v2c0 28 2 55 2 83c0 24 -1 56 -2 82c0 6 2 8 6 8c16 1 40 2 69 2h12c14 0 29 -1 43 -2c12 -1 23 -2 34 -2
c9 0 9 -8 9 -15v-17c0 -24 -1 -50 -1 -76zM-3.97363 -698.55c0 2.44434 0.595703 7.33496 0.595703 9.78027s0.59668 6.11426 0.59668 8.55957c1.19238 124.711 1.19238 270.209 1.19238 410.815v2.26367c0 128.721 -0.00195312 239.545 -0.594727 348.944
c0.595703 6.11328 2.98047 8.55859 4.76855 8.55859c2.46191 0 3.57715 -1.44336 3.57715 -6.11328c0 -10.9658 -0.00195312 -15.8916 -0.00195312 -28.1182c0 -216.412 1.62598 -535.146 2.83105 -653.821c0.449219 -44.1729 2.53809 -61.3984 2.53809 -97.7266
c0 -9.38281 -4.27441 -12.9238 -9.54199 -12.9238c-3.57617 0 -5.96094 3.66699 -5.96094 9.78125z" />
    <glyph glyph-name="clivisInitial5Black" unicode="&#xf07c;" 
d="M170.5 -19c0 -21 1 -53 1 -64c0 -9 -6 -11 -17 -11c-17 0 -45 3 -66 3c-10 0 -17 1 -27 1h-8c-18 0 -38 0 -46 -3c-3 -1 -3 -2 -3 -2h-1c-4 0 -5 4 -5 11v2c0 28 2 55 2 83c0 24 -1 56 -2 82c0 6 2 8 6 8c16 1 40 2 69 2h12c14 0 29 -1 43 -2c12 -1 23 -2 34 -2
c9 0 9 -8 9 -15v-17c0 -24 -1 -50 -1 -76zM-3.97363 -698.55c0 2.44434 0.595703 7.33496 0.595703 9.78027s0.59668 6.11426 0.59668 8.55957c1.19238 124.711 1.19238 270.209 1.19238 410.815v2.26367c0 128.721 -0.00195312 239.545 -0.594727 348.944
c0.595703 6.11328 2.98047 8.55859 4.76855 8.55859c2.46191 0 3.57715 -1.44336 3.57715 -6.11328c0 -10.9658 -0.00195312 -15.8916 -0.00195312 -28.1182c0 -216.412 1.62598 -535.146 2.83105 -653.821c0.449219 -44.1729 2.53809 -61.3984 2.53809 -97.7266
c0 -9.38281 -4.27441 -12.9238 -9.54199 -12.9238c-3.57617 0 -5.96094 3.66699 -5.96094 9.78125z" />
    <glyph glyph-name="clivisInitial6Black" unicode="}" 
d="M170.5 -19c0 -21 1 -53 1 -64c0 -9 -6 -11 -17 -11c-17 0 -45 3 -66 3c-10 0 -17 1 -27 1h-8c-18 0 -38 0 -46 -3c-3 -1 -3 -2 -3 -2h-1c-4 0 -5 4 -5 11v2c0 28 2 55 2 83c0 24 -1 56 -2 82c0 6 2 8 6 8c16 1 40 2 69 2h12c14 0 29 -1 43 -2c12 -1 23 -2 34 -2
c9 0 9 -8 9 -15v-17c0 -24 -1 -50 -1 -76zM-4.26172 -811.561c0 2.7959 0.634766 8.38965 0.634766 11.1855c0 2.79688 0.633789 6.99219 0.633789 9.78906c1.26953 142.63 1.26953 309.032 1.26953 469.841v2.58887c0 147.215 -0.00195312 273.962 -0.632812 399.079
c0.634766 6.99219 3.17285 9.78809 5.07617 9.78809c2.62109 0 3.80762 -1.65039 3.80762 -6.99121c0 -12.541 -0.00195312 -18.1748 -0.00195312 -32.1572c0 -247.507 1.73047 -612.036 3.01367 -747.761c0.477539 -50.5195 2.70215 -70.2197 2.70215 -111.768
c0 -10.7314 -4.55078 -14.7812 -10.1582 -14.7812c-3.80664 0 -6.34473 4.19434 -6.34473 11.1865z" />
    <glyph glyph-name="clivisInitial6Black" unicode="&#xf07d;" 
d="M170.5 -19c0 -21 1 -53 1 -64c0 -9 -6 -11 -17 -11c-17 0 -45 3 -66 3c-10 0 -17 1 -27 1h-8c-18 0 -38 0 -46 -3c-3 -1 -3 -2 -3 -2h-1c-4 0 -5 4 -5 11v2c0 28 2 55 2 83c0 24 -1 56 -2 82c0 6 2 8 6 8c16 1 40 2 69 2h12c14 0 29 -1 43 -2c12 -1 23 -2 34 -2
c9 0 9 -8 9 -15v-17c0 -24 -1 -50 -1 -76zM-4.26172 -811.561c0 2.7959 0.634766 8.38965 0.634766 11.1855c0 2.79688 0.633789 6.99219 0.633789 9.78906c1.26953 142.63 1.26953 309.032 1.26953 469.841v2.58887c0 147.215 -0.00195312 273.962 -0.632812 399.079
c0.634766 6.99219 3.17285 9.78809 5.07617 9.78809c2.62109 0 3.80762 -1.65039 3.80762 -6.99121c0 -12.541 -0.00195312 -18.1748 -0.00195312 -32.1572c0 -247.507 1.73047 -612.036 3.01367 -747.761c0.477539 -50.5195 2.70215 -70.2197 2.70215 -111.768
c0 -10.7314 -4.55078 -14.7812 -10.1582 -14.7812c-3.80664 0 -6.34473 4.19434 -6.34473 11.1865z" />
    <glyph glyph-name="clivisInitial7Black" unicode="~" 
d="M170.5 -19c0 -21 1 -53 1 -64c0 -9 -6 -11 -17 -11c-17 0 -45 3 -66 3c-10 0 -17 1 -27 1h-8c-18 0 -38 0 -46 -3c-3 -1 -3 -2 -3 -2h-1c-4 0 -5 4 -5 11v2c0 28 2 55 2 83c0 24 -1 56 -2 82c0 6 2 8 6 8c16 1 40 2 69 2h12c14 0 29 -1 43 -2c12 -1 23 -2 34 -2
c9 0 9 -8 9 -15v-17c0 -24 -1 -50 -1 -76zM-3.8291 -924.094c0 3.14355 0.576172 9.43066 0.576172 12.5742s0.577148 7.85938 0.577148 11.0029c1.1543 160.323 1.1543 347.369 1.1543 528.126v2.91016c0 165.478 -0.00195312 307.948 -0.575195 448.586
c0.576172 7.85938 2.88379 11.0029 4.61426 11.0029c2.38281 0 3.46094 -1.85547 3.46094 -7.85938c0 -14.0967 -0.000976562 -20.4287 -0.000976562 -36.1465c0 -278.21 1.57324 -687.961 2.74023 -840.522c0.433594 -56.7871 2.45605 -78.9316 2.45605 -125.633
c0 -12.0625 -4.13672 -16.6152 -9.23438 -16.6152c-3.46094 0 -5.76855 4.71484 -5.76855 12.5742z" />
    <glyph glyph-name="clivisInitial7Black" unicode="&#xf07e;" 
d="M170.5 -19c0 -21 1 -53 1 -64c0 -9 -6 -11 -17 -11c-17 0 -45 3 -66 3c-10 0 -17 1 -27 1h-8c-18 0 -38 0 -46 -3c-3 -1 -3 -2 -3 -2h-1c-4 0 -5 4 -5 11v2c0 28 2 55 2 83c0 24 -1 56 -2 82c0 6 2 8 6 8c16 1 40 2 69 2h12c14 0 29 -1 43 -2c12 -1 23 -2 34 -2
c9 0 9 -8 9 -15v-17c0 -24 -1 -50 -1 -76zM-3.8291 -924.094c0 3.14355 0.576172 9.43066 0.576172 12.5742s0.577148 7.85938 0.577148 11.0029c1.1543 160.323 1.1543 347.369 1.1543 528.126v2.91016c0 165.478 -0.00195312 307.948 -0.575195 448.586
c0.576172 7.85938 2.88379 11.0029 4.61426 11.0029c2.38281 0 3.46094 -1.85547 3.46094 -7.85938c0 -14.0967 -0.000976562 -20.4287 -0.000976562 -36.1465c0 -278.21 1.57324 -687.961 2.74023 -840.522c0.433594 -56.7871 2.45605 -78.9316 2.45605 -125.633
c0 -12.0625 -4.13672 -16.6152 -9.23438 -16.6152c-3.46094 0 -5.76855 4.71484 -5.76855 12.5742z" />
    <glyph glyph-name="clivisFinal2ndBlack" unicode="&#xc5;" horiz-adv-x="170" 
d="M169.75 -19c0 -21 1 -53 1 -64c0 -9 -6 -11 -17 -11c-17 0 -45 3 -66 3c-10 0 -17 1 -27 1h-8c-18 0 -38 0 -46 -3c-3 -1 -3 -2 -3 -2h-1c-4 0 -5 4 -5 11v2c0 28 2 55 2 83c0 24 -1 56 -2 82c0 6 2 8 6 8c16 1 40 2 69 2h12c14 0 29 -1 43 -2c12 -1 23 -2 34 -2
c9 0 9 -8 9 -15v-17c0 -24 -1 -50 -1 -76z" />
    <glyph glyph-name="clivisFinal2ndBlack" unicode="&#xf081;" horiz-adv-x="170" 
d="M169.75 -19c0 -21 1 -53 1 -64c0 -9 -6 -11 -17 -11c-17 0 -45 3 -66 3c-10 0 -17 1 -27 1h-8c-18 0 -38 0 -46 -3c-3 -1 -3 -2 -3 -2h-1c-4 0 -5 4 -5 11v2c0 28 2 55 2 83c0 24 -1 56 -2 82c0 6 2 8 6 8c16 1 40 2 69 2h12c14 0 29 -1 43 -2c12 -1 23 -2 34 -2
c9 0 9 -8 9 -15v-17c0 -24 -1 -50 -1 -76z" />
    <glyph glyph-name="clivisFinal3rdBlack" unicode="&#xc7;" horiz-adv-x="169" 
d="M-3.55957 206.766v101.475v23.1943c1.7002 0.966797 3.39941 0.966797 5.9502 0.966797c1.69922 0 4.25 -0.966797 6.7998 -1.93359v-24.1602v-107.273v-78.2812v-86.0117v-70.0664v-30.9258v-15.4629c-1.7002 -0.96582 -3.40039 -1.93262 -5.10059 -1.93262h-2.5498
c-1.7002 0 -3.39941 0 -5.09961 1.93262v24.1611v102.925v55.0859v48.3213v57.9863zM168.25 -21c0 -21 1 -53 1 -64c0 -9 -6 -11 -17 -11c-17 0 -45 3 -66 3c-10 0 -17 1 -27 1h-8c-18 0 -38 0 -46 -3c-3 -1 -3 -2 -3 -2h-1c-4 0 -5 4 -5 11v2c0 28 2 55 2 83
c0 24 -1 56 -2 82c0 6 2 8 6 8c16 1 40 2 69 2h12c14 0 29 -1 43 -2c12 -1 23 -2 34 -2c9 0 9 -8 9 -15v-17c0 -24 -1 -50 -1 -76z" />
    <glyph glyph-name="clivisFinal3rdBlack" unicode="&#xf082;" horiz-adv-x="169" 
d="M-3.55957 206.766v101.475v23.1943c1.7002 0.966797 3.39941 0.966797 5.9502 0.966797c1.69922 0 4.25 -0.966797 6.7998 -1.93359v-24.1602v-107.273v-78.2812v-86.0117v-70.0664v-30.9258v-15.4629c-1.7002 -0.96582 -3.40039 -1.93262 -5.10059 -1.93262h-2.5498
c-1.7002 0 -3.39941 0 -5.09961 1.93262v24.1611v102.925v55.0859v48.3213v57.9863zM168.25 -21c0 -21 1 -53 1 -64c0 -9 -6 -11 -17 -11c-17 0 -45 3 -66 3c-10 0 -17 1 -27 1h-8c-18 0 -38 0 -46 -3c-3 -1 -3 -2 -3 -2h-1c-4 0 -5 4 -5 11v2c0 28 2 55 2 83
c0 24 -1 56 -2 82c0 6 2 8 6 8c16 1 40 2 69 2h12c14 0 29 -1 43 -2c12 -1 23 -2 34 -2c9 0 9 -8 9 -15v-17c0 -24 -1 -50 -1 -76z" />
    <glyph glyph-name="clivisFinal4thBlack" unicode="&#xc9;" horiz-adv-x="169" 
d="M-3 460.633c2.16602 0.375 4.53809 1.03418 7.32422 1.03418c2.25098 0 4.77344 -0.430664 7.67578 -1.78906v-78.2129v-125.743v-116.69v-150.138v-70.9199v-8.55078c-1.37988 -2.31445 -3.89062 -3.89746 -6.55566 -3.89746
c-3.12695 0 -6.4668 2.18066 -8.44434 7.92188v7.54395v91.0391v153.155v122.727v104.618v67.9023zM168 -20.333c0 -21 1 -53 1 -64c0 -9 -6 -11 -17 -11c-17 0 -45 3 -66 3c-10 0 -17 1 -27 1h-8c-18 0 -38 0 -46 -3c-3 -1 -3 -2 -3 -2h-1c-4 0 -5 4 -5 11v2
c0 28 2 55 2 83c0 24 -1 56 -2 82c0 6 2 8 6 8c16 1 40 2 69 2h12c14 0 29 -1 43 -2c12 -1 23 -2 34 -2c9 0 9 -8 9 -15v-17c0 -24 -1 -50 -1 -76z" />
    <glyph glyph-name="clivisFinal4thBlack" unicode="&#xf083;" horiz-adv-x="169" 
d="M-3 460.633c2.16602 0.375 4.53809 1.03418 7.32422 1.03418c2.25098 0 4.77344 -0.430664 7.67578 -1.78906v-78.2129v-125.743v-116.69v-150.138v-70.9199v-8.55078c-1.37988 -2.31445 -3.89062 -3.89746 -6.55566 -3.89746
c-3.12695 0 -6.4668 2.18066 -8.44434 7.92188v7.54395v91.0391v153.155v122.727v104.618v67.9023zM168 -20.333c0 -21 1 -53 1 -64c0 -9 -6 -11 -17 -11c-17 0 -45 3 -66 3c-10 0 -17 1 -27 1h-8c-18 0 -38 0 -46 -3c-3 -1 -3 -2 -3 -2h-1c-4 0 -5 4 -5 11v2
c0 28 2 55 2 83c0 24 -1 56 -2 82c0 6 2 8 6 8c16 1 40 2 69 2h12c14 0 29 -1 43 -2c12 -1 23 -2 34 -2c9 0 9 -8 9 -15v-17c0 -24 -1 -50 -1 -76z" />
    <glyph glyph-name="clivisFinal5thBlack" unicode="&#xd1;" horiz-adv-x="167" 
d="M-5.5 585.733c2.16602 0.459961 4.53809 1.2666 7.32422 1.2666c2.25098 0 4.77344 -0.526367 7.67578 -2.19141v-95.8066v-154.029v-142.94v-183.911v-86.873v-10.4746c-1.37988 -2.83496 -3.89062 -4.77441 -6.55566 -4.77441
c-3.12695 0 -6.4668 2.6709 -8.44434 9.7041v9.24121v111.518v187.608v150.334v128.152v83.1768zM166.25 -20.333c0 -21 1 -53 1 -64c0 -9 -6 -11 -17 -11c-17 0 -45 3 -66 3c-10 0 -17 1 -27 1h-8c-18 0 -38 0 -46 -3c-3 -1 -3 -2 -3 -2h-1c-4 0 -5 4 -5 11v2
c0 28 2 55 2 83c0 24 -1 56 -2 82c0 6 2 8 6 8c16 1 40 2 69 2h12c14 0 29 -1 43 -2c12 -1 23 -2 34 -2c9 0 9 -8 9 -15v-17c0 -24 -1 -50 -1 -76z" />
    <glyph glyph-name="clivisFinal5thBlack" unicode="&#xf084;" horiz-adv-x="167" 
d="M-5.5 585.733c2.16602 0.459961 4.53809 1.2666 7.32422 1.2666c2.25098 0 4.77344 -0.526367 7.67578 -2.19141v-95.8066v-154.029v-142.94v-183.911v-86.873v-10.4746c-1.37988 -2.83496 -3.89062 -4.77441 -6.55566 -4.77441
c-3.12695 0 -6.4668 2.6709 -8.44434 9.7041v9.24121v111.518v187.608v150.334v128.152v83.1768zM166.25 -20.333c0 -21 1 -53 1 -64c0 -9 -6 -11 -17 -11c-17 0 -45 3 -66 3c-10 0 -17 1 -27 1h-8c-18 0 -38 0 -46 -3c-3 -1 -3 -2 -3 -2h-1c-4 0 -5 4 -5 11v2
c0 28 2 55 2 83c0 24 -1 56 -2 82c0 6 2 8 6 8c16 1 40 2 69 2h12c14 0 29 -1 43 -2c12 -1 23 -2 34 -2c9 0 9 -8 9 -15v-17c0 -24 -1 -50 -1 -76z" />
    <glyph glyph-name="pesInitial2ndBlack" unicode="&#xe0;" 
d="M170.25 -19c0 -21 1 -53 1 -64c0 -9 -6 -11 -17 -11c-17 0 -45 3 -66 3c-10 0 -17 1 -27 1h-8c-18 0 -38 0 -46 -3c-3 -1 -3 -2 -3 -2h-1c-4 0 -5 4 -5 11v2c0 28 2 55 2 83c0 24 -1 56 -2 82c0 6 2 8 6 8c16 1 40 2 69 2h12c14 0 29 -1 43 -2c12 -1 23 -2 34 -2
c9 0 9 -8 9 -15v-17c0 -24 -1 -50 -1 -76z" />
    <glyph glyph-name="pesInitial2ndBlack" unicode="&#xf088;" 
d="M170.25 -19c0 -21 1 -53 1 -64c0 -9 -6 -11 -17 -11c-17 0 -45 3 -66 3c-10 0 -17 1 -27 1h-8c-18 0 -38 0 -46 -3c-3 -1 -3 -2 -3 -2h-1c-4 0 -5 4 -5 11v2c0 28 2 55 2 83c0 24 -1 56 -2 82c0 6 2 8 6 8c16 1 40 2 69 2h12c14 0 29 -1 43 -2c12 -1 23 -2 34 -2
c9 0 9 -8 9 -15v-17c0 -24 -1 -50 -1 -76z" />
    <glyph glyph-name="pesInitial3rdBlack" unicode="&#xe2;" 
d="M170.5 -21c0 -21 1 -53 1 -64c0 -9 -6 -11 -17 -11c-17 0 -45 3 -66 3c-10 0 -17 1 -27 1h-8c-18 0 -38 0 -46 -3c-3 -1 -3 -2 -3 -2h-1c-4 0 -5 4 -5 11v2c0 28 2 55 2 83c0 24 -1 56 -2 82c0 6 2 8 6 8c16 1 40 2 69 2h12c14 0 29 -1 43 -2c12 -1 23 -2 34 -2
c9 0 9 -8 9 -15v-17c0 -24 -1 -50 -1 -76zM158.69 213.781v103.322v23.6162c1.7002 0.984375 3.39941 0.984375 5.9502 0.984375c1.69922 0 4.25 -0.984375 6.7998 -1.96777v-24.6006v-109.227v-79.7061v-87.5781v-71.3418v-31.4883v-15.7441
c-1.7002 -0.984375 -3.40039 -1.96777 -5.10059 -1.96777h-2.5498c-1.7002 0 -3.39941 0 -5.09961 1.96777v24.6006v104.798v56.0898v49.2012v59.041z" />
    <glyph glyph-name="pesInitial3rdBlack" unicode="&#xf089;" 
d="M170.5 -21c0 -21 1 -53 1 -64c0 -9 -6 -11 -17 -11c-17 0 -45 3 -66 3c-10 0 -17 1 -27 1h-8c-18 0 -38 0 -46 -3c-3 -1 -3 -2 -3 -2h-1c-4 0 -5 4 -5 11v2c0 28 2 55 2 83c0 24 -1 56 -2 82c0 6 2 8 6 8c16 1 40 2 69 2h12c14 0 29 -1 43 -2c12 -1 23 -2 34 -2
c9 0 9 -8 9 -15v-17c0 -24 -1 -50 -1 -76zM158.69 213.781v103.322v23.6162c1.7002 0.984375 3.39941 0.984375 5.9502 0.984375c1.69922 0 4.25 -0.984375 6.7998 -1.96777v-24.6006v-109.227v-79.7061v-87.5781v-71.3418v-31.4883v-15.7441
c-1.7002 -0.984375 -3.40039 -1.96777 -5.10059 -1.96777h-2.5498c-1.7002 0 -3.39941 0 -5.09961 1.96777v24.6006v104.798v56.0898v49.2012v59.041z" />
    <glyph glyph-name="pesFinal4thBlack__" unicode="&#xe4;" 
d="M156.25 450.742c2.16602 0.365234 4.53809 1.00781 7.32422 1.00781c2.25098 0 4.77344 -0.418945 7.67578 -1.74316v-76.2158v-122.534v-113.711v-146.306v-69.1094v-8.33203c-1.37988 -2.25586 -3.89062 -3.79883 -6.55566 -3.79883
c-3.12695 0 -6.4668 2.125 -8.44434 7.71973v7.35156v88.7148v149.246v119.594v101.948v66.168zM170.5 -20.333c0 -21 1 -53 1 -64c0 -9 -6 -11 -17 -11c-17 0 -45 3 -66 3c-10 0 -17 1 -27 1h-8c-18 0 -38 0 -46 -3c-3 -1 -3 -2 -3 -2h-1c-4 0 -5 4 -5 11v2c0 28 2 55 2 83
c0 24 -1 56 -2 82c0 6 2 8 6 8c16 1 40 2 69 2h12c14 0 29 -1 43 -2c12 -1 23 -2 34 -2c9 0 9 -8 9 -15v-17c0 -24 -1 -50 -1 -76z" />
    <glyph glyph-name="pesFinal4thBlack__" unicode="&#xf08a;" 
d="M156.25 450.742c2.16602 0.365234 4.53809 1.00781 7.32422 1.00781c2.25098 0 4.77344 -0.418945 7.67578 -1.74316v-76.2158v-122.534v-113.711v-146.306v-69.1094v-8.33203c-1.37988 -2.25586 -3.89062 -3.79883 -6.55566 -3.79883
c-3.12695 0 -6.4668 2.125 -8.44434 7.71973v7.35156v88.7148v149.246v119.594v101.948v66.168zM170.5 -20.333c0 -21 1 -53 1 -64c0 -9 -6 -11 -17 -11c-17 0 -45 3 -66 3c-10 0 -17 1 -27 1h-8c-18 0 -38 0 -46 -3c-3 -1 -3 -2 -3 -2h-1c-4 0 -5 4 -5 11v2c0 28 2 55 2 83
c0 24 -1 56 -2 82c0 6 2 8 6 8c16 1 40 2 69 2h12c14 0 29 -1 43 -2c12 -1 23 -2 34 -2c9 0 9 -8 9 -15v-17c0 -24 -1 -50 -1 -76z" />
    <glyph glyph-name="mensuralBrevisBlack" unicode="&#xe8;" 
d="M170.5 -19c0 -21 1 -53 1 -64c0 -9 -6 -11 -17 -11c-17 0 -45 3 -66 3c-10 0 -17 1 -27 1h-8c-18 0 -38 0 -46 -3c-3 -1 -3 -2 -3 -2h-1c-4 0 -5 4 -5 11v2c0 28 2 55 2 83c0 24 -1 56 -2 82c0 6 2 8 6 8c16 1 40 2 69 2h12c14 0 29 -1 43 -2c12 -1 23 -2 34 -2
c9 0 9 -8 9 -15v-17c0 -24 -1 -50 -1 -76z" />
    <glyph glyph-name="mensuralBrevisBlack" unicode="&#xf08f;" 
d="M170.5 -19c0 -21 1 -53 1 -64c0 -9 -6 -11 -17 -11c-17 0 -45 3 -66 3c-10 0 -17 1 -27 1h-8c-18 0 -38 0 -46 -3c-3 -1 -3 -2 -3 -2h-1c-4 0 -5 4 -5 11v2c0 28 2 55 2 83c0 24 -1 56 -2 82c0 6 2 8 6 8c16 1 40 2 69 2h12c14 0 29 -1 43 -2c12 -1 23 -2 34 -2
c9 0 9 -8 9 -15v-17c0 -24 -1 -50 -1 -76z" />
    <glyph glyph-name="ecircumflex" unicode="&#xea;" horiz-adv-x="324" 
d="M324 -99c-38 5 -134 48 -190 78c-51 28 -86 62 -134 98v186c56 -40 87 -71 127 -95c51 -30 91 -69 197 -81v-186z" />
    <glyph glyph-name="ecircumflex" unicode="&#xf090;" horiz-adv-x="324" 
d="M324 -99c-38 5 -134 48 -190 78c-51 28 -86 62 -134 98v186c56 -40 87 -71 127 -95c51 -30 91 -69 197 -81v-186z" />
    <glyph glyph-name="edieresis" unicode="&#xeb;" horiz-adv-x="448" 
d="M448 -75c-53 21 -187 84.0996 -264 131.1c-71 43 -117 80.9004 -184 126.9v141c78 -54 119 -91 176 -125c70 -43 124 -78 272 -134v-140z" />
    <glyph glyph-name="edieresis" unicode="&#xf091;" horiz-adv-x="448" 
d="M448 -75c-53 21 -187 84.0996 -264 131.1c-71 43 -117 80.9004 -184 126.9v141c78 -54 119 -91 176 -125c70 -43 124 -78 272 -134v-140z" />
    <glyph glyph-name="iacute" unicode="&#xed;" horiz-adv-x="538" 
d="M538 -75c-85 30 -233 128.269 -323 195.269c-84 63 -136 120.981 -215 187.731v141c93 -75 125.608 -108.893 208 -176c113.646 -92.5635 134 -115 330 -205v-143z" />
    <glyph glyph-name="iacute" unicode="&#xf092;" horiz-adv-x="538" 
d="M538 -75c-85 30 -233 128.269 -323 195.269c-84 63 -136 120.981 -215 187.731v141c93 -75 125.608 -108.893 208 -176c113.646 -92.5635 134 -115 330 -205v-143z" />
    <glyph glyph-name="igrave" unicode="&#xec;" horiz-adv-x="550" 
d="M550 -75c-87 51 -237 160 -327 250c-85 85 -137 165 -223 258v141c95 -98 152 -161 218 -231c85 -89 143 -158 332 -275v-143z" />
    <glyph glyph-name="igrave" unicode="&#xf093;" horiz-adv-x="550" 
d="M550 -75c-87 51 -237 160 -327 250c-85 85 -137 165 -223 258v141c95 -98 152 -161 218 -231c85 -89 143 -158 332 -275v-143z" />
    <glyph glyph-name="icircumflex" unicode="&#xee;" horiz-adv-x="668" 
d="M668 -75c-106 65 -295 201 -402 316c-103 110 -167 214 -266 317v141c115 -119 187 -192 266 -281c100 -113 173 -205 402 -353v-140z" />
    <glyph glyph-name="icircumflex" unicode="&#xf094;" horiz-adv-x="668" 
d="M668 -75c-106 65 -295 201 -402 316c-103 110 -167 214 -266 317v141c115 -119 187 -192 266 -281c100 -113 173 -205 402 -353v-140z" />
    <glyph glyph-name="idieresis" unicode="&#xef;" horiz-adv-x="764" 
d="M764 -75c-121 79 -330 256 -456 391c-118 127 -194 246 -308 367v141c132 -140 209 -234 304 -337c119 -128 205 -220 460 -422v-140z" />
    <glyph glyph-name="idieresis" unicode="&#xf095;" horiz-adv-x="764" 
d="M764 -75c-121 79 -330 256 -456 391c-118 127 -194 246 -308 367v141c132 -140 209 -234 304 -337c119 -128 205 -220 460 -422v-140z" />
    <glyph glyph-name="ntilde" unicode="&#xf1;" horiz-adv-x="868" 
d="M868 -75c-138 93 -394 300 -524 452s-218 273 -344 431v141c150 -171 236 -273 339 -397c131 -158 274 -293 529 -486v-141z" />
    <glyph glyph-name="ntilde" unicode="&#xf096;" horiz-adv-x="868" 
d="M868 -75c-138 93 -394 300 -524 452s-218 273 -344 431v141c150 -171 236 -273 339 -397c131 -158 274 -293 529 -486v-141z" />
    <glyph glyph-name="oacute" unicode="&#xf3;" horiz-adv-x="968" 
d="M968 -75c-154 110 -372.469 300.687 -575 522c-161.511 176.489 -249 314 -393 486v141c170 -198 265 -311 385 -451c153 -177 277 -297 583 -557v-141z" />
    <glyph glyph-name="oacute" unicode="&#xf097;" horiz-adv-x="968" 
d="M968 -75c-154 110 -372.469 300.687 -575 522c-161.511 176.489 -249 314 -393 486v141c170 -198 265 -311 385 -451c153 -177 277 -297 583 -557v-141z" />
    <glyph glyph-name="porrectusOblique2ndCrushedBlack" unicode="&#xf2;" horiz-adv-x="475" 
d="M475 -179c-92 0 -190 59 -256 99c-70 42 -131 94 -219 111v183c86 -6 209 -107 262 -138c77 -45 107 -76 213 -76v-179z" />
    <glyph glyph-name="porrectusOblique2ndCrushedBlack" unicode="&#xf098;" horiz-adv-x="475" 
d="M475 -179c-92 0 -190 59 -256 99c-70 42 -131 94 -219 111v183c86 -6 209 -107 262 -138c77 -45 107 -76 213 -76v-179z" />
    <glyph glyph-name="porrectusOblique3rdCrushedBlack" unicode="&#xf4;" horiz-adv-x="405" 
d="M405 -103.877c-22 20.3896 -35.8096 35.0566 -54.25 51.043c-46.4199 40.2412 -83.9707 70.0195 -131.5 103.272c-27.6143 19.3203 -51.959 35.4053 -92 58.2773c-38.2217 21.833 -82.1875 35.4414 -127.25 47.1465v181.136
c49.6748 -13.1621 95.2637 -28.5078 140 -49.9346c99.1113 -47.4717 161.41 -113.553 250 -191.747c7.46777 -6.59082 15 -8.83203 15 -25.3701v-173.823z" />
    <glyph glyph-name="porrectusOblique3rdCrushedBlack" unicode="&#xf099;" horiz-adv-x="405" 
d="M405 -103.877c-22 20.3896 -35.8096 35.0566 -54.25 51.043c-46.4199 40.2412 -83.9707 70.0195 -131.5 103.272c-27.6143 19.3203 -51.959 35.4053 -92 58.2773c-38.2217 21.833 -82.1875 35.4414 -127.25 47.1465v181.136
c49.6748 -13.1621 95.2637 -28.5078 140 -49.9346c99.1113 -47.4717 161.41 -113.553 250 -191.747c7.46777 -6.59082 15 -8.83203 15 -25.3701v-173.823z" />
    <glyph glyph-name="porrectusObl4thCrushedBlack" unicode="&#xf6;" horiz-adv-x="538" 
d="M538 -75c-2.77571 -0.0834801 -5.53923 -0.124711 -8.29059 -0.124711c-129.082 0 -242.823 82.5427 -316.709 165.125c-76.9492 86.0039 -116.357 151.847 -213 218v141c112.723 -73.3077 172.792 -162.269 229 -224c72.1909 -79.2849 164.011 -179.704 264.94 -179.704
c14.5826 0 29.2893 2.40162 44.0597 7.70382c0 -24.6667 0.444444 -62.6667 0.444444 -92.3704c0 -14.8519 -0.111111 -27.6296 -0.444444 -35.6296z" />
    <glyph glyph-name="porrectusObl4thCrushedBlack" unicode="&#xf09a;" horiz-adv-x="538" 
d="M538 -75c-2.77571 -0.0834801 -5.53923 -0.124711 -8.29059 -0.124711c-129.082 0 -242.823 82.5427 -316.709 165.125c-76.9492 86.0039 -116.357 151.847 -213 218v141c112.723 -73.3077 172.792 -162.269 229 -224c72.1909 -79.2849 164.011 -179.704 264.94 -179.704
c14.5826 0 29.2893 2.40162 44.0597 7.70382c0 -24.6667 0.444444 -62.6667 0.444444 -92.3704c0 -14.8519 -0.111111 -27.6296 -0.444444 -35.6296z" />
    <glyph glyph-name="porrectusObl5thCrushedBlack" unicode="&#xf5;" horiz-adv-x="550" 
d="M550 -75c-2.25224 -0.046279 -4.4983 -0.0692367 -6.73808 -0.0692367c-142.952 0 -264.081 90.8487 -329.262 186.069c-75.3993 110.148 -136.596 237.437 -214 322v141c99.7637 -111.02 146.482 -191.632 202 -277c86.9622 -133.718 158.828 -249.779 299.095 -249.779
c15.2286 0 31.4719 1.23231 48.9045 3.77864v-126z" />
    <glyph glyph-name="porrectusObl5thCrushedBlack" unicode="&#xf09b;" horiz-adv-x="550" 
d="M550 -75c-2.25224 -0.046279 -4.4983 -0.0692367 -6.73808 -0.0692367c-142.952 0 -264.081 90.8487 -329.262 186.069c-75.3993 110.148 -136.596 237.437 -214 322v141c99.7637 -111.02 146.482 -191.632 202 -277c86.9622 -133.718 158.828 -249.779 299.095 -249.779
c15.2286 0 31.4719 1.23231 48.9045 3.77864v-126z" />
    <glyph glyph-name="porrectusObl6thCrushedBlack" unicode="&#xfa;" horiz-adv-x="668" 
d="M668 -75c-235 35 -300 115 -397 238c-93 118 -184 281 -271 395v141c118 -137 194 -256 266 -351c86 -115 228.822 -306.059 402 -283v-140z" />
    <glyph glyph-name="porrectusObl6thCrushedBlack" unicode="&#xf09c;" horiz-adv-x="668" 
d="M668 -75c-235 35 -300 115 -397 238c-93 118 -184 281 -271 395v141c118 -137 194 -256 266 -351c86 -115 228.822 -306.059 402 -283v-140z" />
    <glyph glyph-name="porrectusObl7thCrushedBlack" unicode="&#xf9;" horiz-adv-x="764" 
d="M764 -75c-212 37 -343 119 -451 263c-102 136 -214 352 -313 495v141c132 -140 221 -317 304 -437c98 -141 290.968 -334.989 460 -333v-129z" />
    <glyph glyph-name="porrectusObl7thCrushedBlack" unicode="&#xf09d;" horiz-adv-x="764" 
d="M764 -75c-212 37 -343 119 -451 263c-102 136 -214 352 -313 495v141c132 -140 221 -317 304 -437c98 -141 290.968 -334.989 460 -333v-129z" />
    <glyph glyph-name="porrectusOblOctCrushedBlack" unicode="&#xfb;" horiz-adv-x="868" 
d="M868 -75c-3.82529 -0.0921756 -7.63311 -0.137857 -11.4235 -0.137857c-242.94 0 -414.389 187.657 -530.576 349.138c-115 160 -200 362 -326 534v141c146 -178 266 -361 345 -502c98 -176 290.008 -384.693 523 -395v-127z" />
    <glyph glyph-name="porrectusOblOctCrushedBlack" unicode="&#xf09e;" horiz-adv-x="868" 
d="M868 -75c-3.82529 -0.0921756 -7.63311 -0.137857 -11.4235 -0.137857c-242.94 0 -414.389 187.657 -530.576 349.138c-115 160 -200 362 -326 534v141c146 -178 266 -361 345 -502c98 -176 290.008 -384.693 523 -395v-127z" />
    <glyph glyph-name="porrectusObl9thCrushedBlack" unicode="&#xfc;" horiz-adv-x="968" 
d="M968 -75c-232 -10 -451 259 -597 450c-141 184 -226 373 -371 558v141c170 -198 278 -381 385 -531c188 -261 383.342 -488.919 583 -492v-126z" />
    <glyph glyph-name="porrectusObl9thCrushedBlack" unicode="&#xf09f;" horiz-adv-x="968" 
d="M968 -75c-232 -10 -451 259 -597 450c-141 184 -226 373 -371 558v141c170 -198 278 -381 385 -531c188 -261 383.342 -488.919 583 -492v-126z" />
    <glyph glyph-name="obliqueDesc2ndBlack" unicode="&#x2020;" horiz-adv-x="407" 
d="M405.25 -87.8086c-17 10.791 -36 21.3213 -55 28.6562c-25.5918 9.87988 -50 19.0713 -79 29.8291c-35 12.7139 -64.5 22.9824 -104 33.9854c-30.123 8.39062 -64 14.6699 -95 20.5381c-22 3.91211 -43 4.15625 -68 5.13477c-5 0 -6 0.977539 -6 6.8457v176.284
c0 0.978516 1 0.978516 2 0.978516c26 -0.978516 51.8838 -2.19141 75 -4.89062c39.1084 -4.56641 74 -14.1807 99 -21.0264c26 -6.84668 53.2354 -15.5371 82 -26.6504c51.2969 -19.8203 100.147 -38.876 137 -63.0928c6.37012 -4.18555 14 -6.49902 14 -13.6914v-7.09082
v-41.3594v-114.67v-8.80176c0 -0.978516 0 -0.978516 -1 -0.978516c0 0 -0.15918 -0.533203 -1 0z" />
    <glyph glyph-name="obliqueDesc2ndBlack" unicode="&#xe980;" horiz-adv-x="407" 
d="M405.25 -87.8086c-17 10.791 -36 21.3213 -55 28.6562c-25.5918 9.87988 -50 19.0713 -79 29.8291c-35 12.7139 -64.5 22.9824 -104 33.9854c-30.123 8.39062 -64 14.6699 -95 20.5381c-22 3.91211 -43 4.15625 -68 5.13477c-5 0 -6 0.977539 -6 6.8457v176.284
c0 0.978516 1 0.978516 2 0.978516c26 -0.978516 51.8838 -2.19141 75 -4.89062c39.1084 -4.56641 74 -14.1807 99 -21.0264c26 -6.84668 53.2354 -15.5371 82 -26.6504c51.2969 -19.8203 100.147 -38.876 137 -63.0928c6.37012 -4.18555 14 -6.49902 14 -13.6914v-7.09082
v-41.3594v-114.67v-8.80176c0 -0.978516 0 -0.978516 -1 -0.978516c0 0 -0.15918 -0.533203 -1 0z" />
    <glyph glyph-name="obliqueDesc2ndBlack" unicode="&#xf0a0;" horiz-adv-x="407" 
d="M405.25 -87.8086c-17 10.791 -36 21.3213 -55 28.6562c-25.5918 9.87988 -50 19.0713 -79 29.8291c-35 12.7139 -64.5 22.9824 -104 33.9854c-30.123 8.39062 -64 14.6699 -95 20.5381c-22 3.91211 -43 4.15625 -68 5.13477c-5 0 -6 0.977539 -6 6.8457v176.284
c0 0.978516 1 0.978516 2 0.978516c26 -0.978516 51.8838 -2.19141 75 -4.89062c39.1084 -4.56641 74 -14.1807 99 -21.0264c26 -6.84668 53.2354 -15.5371 82 -26.6504c51.2969 -19.8203 100.147 -38.876 137 -63.0928c6.37012 -4.18555 14 -6.49902 14 -13.6914v-7.09082
v-41.3594v-114.67v-8.80176c0 -0.978516 0 -0.978516 -1 -0.978516c0 0 -0.15918 -0.533203 -1 0z" />
    <glyph glyph-name="obliqueDesc3rdBlack" unicode="&#xb0;" horiz-adv-x="405" 
d="M405 -94.877c-22 20.3896 -35.8096 31.5566 -54.25 47.543c-46.4199 40.2412 -83.9707 64.5195 -131.5 97.7725c-27.6143 19.3203 -51.959 35.4053 -92 58.2773c-38.2217 21.833 -82.1875 35.4414 -127.25 47.1465v181.136
c49.6748 -13.1621 95.2637 -28.5078 140 -49.9346c99.1113 -47.4717 161.41 -104.553 250 -182.747c7.46777 -6.59082 15 -8.83203 15 -25.3701v-173.823z" />
    <glyph glyph-name="obliqueDesc3rdBlack" unicode="&#xe984;" horiz-adv-x="405" 
d="M405 -94.877c-22 20.3896 -35.8096 31.5566 -54.25 47.543c-46.4199 40.2412 -83.9707 64.5195 -131.5 97.7725c-27.6143 19.3203 -51.959 35.4053 -92 58.2773c-38.2217 21.833 -82.1875 35.4414 -127.25 47.1465v181.136
c49.6748 -13.1621 95.2637 -28.5078 140 -49.9346c99.1113 -47.4717 161.41 -104.553 250 -182.747c7.46777 -6.59082 15 -8.83203 15 -25.3701v-173.823z" />
    <glyph glyph-name="obliqueDesc3rdBlack" unicode="&#xf0a1;" horiz-adv-x="405" 
d="M405 -94.877c-22 20.3896 -35.8096 31.5566 -54.25 47.543c-46.4199 40.2412 -83.9707 64.5195 -131.5 97.7725c-27.6143 19.3203 -51.959 35.4053 -92 58.2773c-38.2217 21.833 -82.1875 35.4414 -127.25 47.1465v181.136
c49.6748 -13.1621 95.2637 -28.5078 140 -49.9346c99.1113 -47.4717 161.41 -104.553 250 -182.747c7.46777 -6.59082 15 -8.83203 15 -25.3701v-173.823z" />
    <glyph glyph-name="obliqueDesc4thBlack" unicode="&#xa2;" horiz-adv-x="538" 
d="M0 467.37c91.9248 -27.916 202.748 -90.6748 319.5 -177.064c109.107 -80.7334 168.125 -137.605 218.5 -203.016v-180.66c-59.21 70.0244 -138.9 133.891 -242.5 212.37c-92.3809 69.9805 -148.928 105.82 -295.5 167.71v180.66z" />
    <glyph glyph-name="obliqueDesc4thBlack" unicode="&#xe988;" horiz-adv-x="538" 
d="M0 467.37c91.9248 -27.916 202.748 -90.6748 319.5 -177.064c109.107 -80.7334 168.125 -137.605 218.5 -203.016v-180.66c-59.21 70.0244 -138.9 133.891 -242.5 212.37c-92.3809 69.9805 -148.928 105.82 -295.5 167.71v180.66z" />
    <glyph glyph-name="obliqueDesc4thBlack" unicode="&#xf0a2;" horiz-adv-x="538" 
d="M0 467.37c91.9248 -27.916 202.748 -90.6748 319.5 -177.064c109.107 -80.7334 168.125 -137.605 218.5 -203.016v-180.66c-59.21 70.0244 -138.9 133.891 -242.5 212.37c-92.3809 69.9805 -148.928 105.82 -295.5 167.71v180.66z" />
    <glyph glyph-name="obliqueDesc5thBlack" unicode="&#xa3;" horiz-adv-x="676" 
d="M0 587.777c63.9639 -10.9043 107.489 -27.3223 207.87 -77.0273c95.6133 -47.3447 200.559 -123.303 263.22 -178c99.5596 -86.9062 140.01 -134.664 205.41 -245.633v-179.07c-87.7021 103.67 -181.724 196.314 -300.12 287.703
c-122.318 94.417 -239.828 162.723 -376.38 212.957v179.07z" />
    <glyph glyph-name="obliqueDesc5thBlack" unicode="&#xe98c;" horiz-adv-x="676" 
d="M0 587.777c63.9639 -10.9043 107.489 -27.3223 207.87 -77.0273c95.6133 -47.3447 200.559 -123.303 263.22 -178c99.5596 -86.9062 140.01 -134.664 205.41 -245.633v-179.07c-87.7021 103.67 -181.724 196.314 -300.12 287.703
c-122.318 94.417 -239.828 162.723 -376.38 212.957v179.07z" />
    <glyph glyph-name="obliqueDesc5thBlack" unicode="&#xf0a3;" horiz-adv-x="676" 
d="M0 587.777c63.9639 -10.9043 107.489 -27.3223 207.87 -77.0273c95.6133 -47.3447 200.559 -123.303 263.22 -178c99.5596 -86.9062 140.01 -134.664 205.41 -245.633v-179.07c-87.7021 103.67 -181.724 196.314 -300.12 287.703
c-122.318 94.417 -239.828 162.723 -376.38 212.957v179.07z" />
    <glyph glyph-name="obliqueDesc6thBlack" unicode="&#xa7;" horiz-adv-x="668" 
d="M0 699c143 -88 274 -189 394 -302c113 -107 205 -217 274 -331v-141c-79 128 -171 240 -277 336c-100 91 -230 190 -391 297v141z" />
    <glyph glyph-name="obliqueDesc6thBlack" unicode="&#xf0a4;" horiz-adv-x="668" 
d="M0 699c143 -88 274 -189 394 -302c113 -107 205 -217 274 -331v-141c-79 128 -171 240 -277 336c-100 91 -230 190 -391 297v141z" />
    <glyph glyph-name="obliqueDesc7thBlack" unicode="&#x2022;" horiz-adv-x="764" 
d="M0 824c65 -42 139 -97 222 -164c91 -73 167 -141 229 -204c149 -152 254 -282 313 -390v-141c-85 127 -187 250 -306 367c-137 135 -290 265 -458 391v141z" />
    <glyph glyph-name="obliqueDesc7thBlack" unicode="&#xf0a5;" horiz-adv-x="764" 
d="M0 824c65 -42 139 -97 222 -164c91 -73 167 -141 229 -204c149 -152 254 -282 313 -390v-141c-85 127 -187 250 -306 367c-137 135 -290 265 -458 391v141z" />
    <glyph glyph-name="obliqueDescOctBlack" unicode="&#xb6;" horiz-adv-x="868" 
d="M0 949c68 -41 153 -103 255 -188c97 -81 184 -161 261 -240c175 -177 292 -329 352 -455v-141c-110 154 -225 295 -345 422c-137 146 -312 300 -523 461v141z" />
    <glyph glyph-name="obliqueDescOctBlack" unicode="&#xf0a6;" horiz-adv-x="868" 
d="M0 949c68 -41 153 -103 255 -188c97 -81 184 -161 261 -240c175 -177 292 -329 352 -455v-141c-110 154 -225 295 -345 422c-137 146 -312 300 -523 461v141z" />
    <glyph glyph-name="obliqueDesc9thBlack" unicode="&#xdf;" horiz-adv-x="968" 
d="M0 1074c261 -195 452 -357 574 -488c110 -118 192 -213 247 -284c59 -77 108 -156 147 -236v-141c-91 149 -221 314 -390 496c-158 170 -351 341 -578 512v141z" />
    <glyph glyph-name="obliqueDesc9thBlack" unicode="&#xf0a7;" horiz-adv-x="968" 
d="M0 1074c261 -195 452 -357 574 -488c110 -118 192 -213 247 -284c59 -77 108 -156 147 -236v-141c-91 149 -221 314 -390 496c-158 170 -351 341 -578 512v141z" />
    <glyph glyph-name="registered" unicode="&#xae;" horiz-adv-x="128" 
d="M107.5 -19.4482v33.8887c0 10.9043 -2.94238 19.46 -9.91797 22.666c-10.8213 4.97363 -22.3965 7.74902 -33.9082 7.74902c-10.6592 0 -21.2646 -2.37891 -31.168 -7.5957c-6.96094 -3.66602 -12.0059 -13.333 -12.0059 -25.082v-32.5176
c0 -14.1582 11.21 -16.9971 20.7119 -18.1992c7.88574 -0.998047 15.3223 -1.52637 22.8477 -1.52637c7.47266 0 15.0322 0.521484 23.2041 1.62402c10.0449 1.35547 20.2363 5.46191 20.2363 18.9932zM128 -76c-20 13 -41 16 -57 16c-20 0 -51 -3 -71 -16v135
c17.3287 14.358 39.8051 20.6268 62.5746 20.6268c20.0143 0 40.2551 -4.84348 57.4254 -13.2941c5.56901 -2.74086 8 -7.9392 8 -14.2458v-128.087z" />
    <glyph glyph-name="registered" unicode="&#xf0a8;" horiz-adv-x="128" 
d="M107.5 -19.4482v33.8887c0 10.9043 -2.94238 19.46 -9.91797 22.666c-10.8213 4.97363 -22.3965 7.74902 -33.9082 7.74902c-10.6592 0 -21.2646 -2.37891 -31.168 -7.5957c-6.96094 -3.66602 -12.0059 -13.333 -12.0059 -25.082v-32.5176
c0 -14.1582 11.21 -16.9971 20.7119 -18.1992c7.88574 -0.998047 15.3223 -1.52637 22.8477 -1.52637c7.47266 0 15.0322 0.521484 23.2041 1.62402c10.0449 1.35547 20.2363 5.46191 20.2363 18.9932zM128 -76c-20 13 -41 16 -57 16c-20 0 -51 -3 -71 -16v135
c17.3287 14.358 39.8051 20.6268 62.5746 20.6268c20.0143 0 40.2551 -4.84348 57.4254 -13.2941c5.56901 -2.74086 8 -7.9392 8 -14.2458v-128.087z" />
    <glyph glyph-name="copyright" unicode="&#xa9;" horiz-adv-x="128" 
d="M107.5 -16.9482v33.8887c0 10.9043 -2.94238 19.46 -9.91797 22.666c-10.8213 4.97363 -22.3965 7.74902 -33.9082 7.74902c-10.6592 0 -21.2646 -2.37891 -31.168 -7.5957c-6.96094 -3.66602 -12.0059 -13.333 -12.0059 -25.082v-32.5176
c0 -14.1582 11.21 -16.9971 20.7119 -18.1992c7.88574 -0.998047 15.3223 -1.52637 22.8477 -1.52637c7.47266 0 15.0322 0.521484 23.2041 1.62402c10.0449 1.35547 20.2363 5.46191 20.2363 18.9932zM128 -32v-38v-106
c-2.59573 -3.11488 -5.19146 -4.88219 -7.64728 -4.88219c-2.27467 0 -4.42931 1.51621 -6.35272 4.88219v97.6455c0 13.2627 -6.31081 16.102 -15.3333 19.4172c-10.2535 3.7676 -20.7619 5.93725 -28.6667 5.93725c-20 0 -50 -4 -70 -17v127
c33.1053 15.2105 49.3984 16.5107 68.2207 16.5107c25.0674 0 39.1539 -5.05221 59.7793 -16.5107v-89z" />
    <glyph glyph-name="copyright" unicode="&#xf0a9;" horiz-adv-x="128" 
d="M107.5 -16.9482v33.8887c0 10.9043 -2.94238 19.46 -9.91797 22.666c-10.8213 4.97363 -22.3965 7.74902 -33.9082 7.74902c-10.6592 0 -21.2646 -2.37891 -31.168 -7.5957c-6.96094 -3.66602 -12.0059 -13.333 -12.0059 -25.082v-32.5176
c0 -14.1582 11.21 -16.9971 20.7119 -18.1992c7.88574 -0.998047 15.3223 -1.52637 22.8477 -1.52637c7.47266 0 15.0322 0.521484 23.2041 1.62402c10.0449 1.35547 20.2363 5.46191 20.2363 18.9932zM128 -32v-38v-106
c-2.59573 -3.11488 -5.19146 -4.88219 -7.64728 -4.88219c-2.27467 0 -4.42931 1.51621 -6.35272 4.88219v97.6455c0 13.2627 -6.31081 16.102 -15.3333 19.4172c-10.2535 3.7676 -20.7619 5.93725 -28.6667 5.93725c-20 0 -50 -4 -70 -17v127
c33.1053 15.2105 49.3984 16.5107 68.2207 16.5107c25.0674 0 39.1539 -5.05221 59.7793 -16.5107v-89z" />
    <glyph glyph-name="mensuralLongaWhite" unicode="&#x2122;" horiz-adv-x="192" 
d="M13.1562 -97.375zM170.689 27.7344v11.5156c0 4.47656 -4.875 13.6699 -14.9541 13.6699c-20.5234 0 -43.8984 -0.603516 -66.2168 -0.603516c-23.2178 0 -41.1104 1.8291 -56.5264 1.8291c-4.01172 0 -7.61816 -0.0556641 -10.6855 -0.197266
c-3.85352 0 -5.39453 -1.27832 -5.39453 -5.11816c0.771484 -17.2715 1.54102 -31.3564 1.54102 -47.3486c0 -18.5498 -1.54102 -28.4082 -1.54102 -46.96c0 -0.78418 -0.0107422 -1.55273 -0.0107422 -2.29102c0 -3.80078 0.290039 -6.77441 3.86426 -6.77441
c2.42285 0 5.33887 0.683594 8.60938 0.847656c15.834 0.794922 40.1152 1.15625 58.2266 1.15625c18.4922 0 53.8086 -1.61426 68.4482 -2.11426c0.728516 -0.0244141 1.43262 -0.0380859 2.11035 -0.0380859c7.91895 0 12.3369 1.77246 12.3369 7.0752
c0 21.1318 0.192383 53.0322 0.192383 75.3516zM180.737 -560.394c-9.5 0 -10.4502 5.86719 -10.4502 14.6699c0 1.95605 2.85059 18.582 3.80078 34.2295c1.89941 37.1641 2.84961 82.1523 2.84961 142.788v98.7783c0 73.3496 -2.13437 126.029 -2.5498 149.634
c-0.327939 18.6338 0.881552 24.2299 -11.3877 26.7939c-10.7941 2.25576 -28.8732 3.86242 -71.1787 3.86242c-0.206471 0 -0.413519 -3.8269e-05 -0.621146 -0.000114918c-24.9539 -0.0092122 -49.8398 -0.718889 -71.0752 -2.90348
c-5.04018 -0.518509 -6.29715 -6.76467 -10.7513 -6.76467c-0.567785 0 -1.18752 0.101495 -1.87367 0.329287c-2.07215 0.687927 -3.47127 1.95481 -5 3.19434c-2.26074 1.83398 -3.4502 4.76855 -3.4502 9.17383c0 28.3623 1.9502 57.2686 1.9502 86.6084
c0 26.773 -1.9502 60.0195 -1.9502 89.5645c0 3.64844 1.83691 7.43359 4.8252 8.81641c1.77449 0.821931 3.95491 1.23608 6.39761 1.23608c0.059041 0 0.118235 -0.000241946 0.177581 -0.000725928c1.99902 -0.0166016 3.88555 -6.24468 5.6748 -6.30925
c24.9353 -0.899852 32.6729 -4.21321 82.6748 -4.21321c29.5469 0 41.9941 2.79395 69.5879 3.29395c3.49835 0.0633902 9.03309 4.88552 12.8544 4.88552c0.328591 0 0.644513 -0.035655 0.945382 -0.113057c2.14746 -0.552734 3.82715 -1.57422 5.13574 -2.91016
c3.32031 -3.39062 3.99805 -9.55566 4.11426 -14.4658c0.305915 -12.9227 0.360282 -29.4328 0.360282 -47.0337c0 -9.70582 -0.0165322 -19.7433 -0.0165322 -29.6938c0 -27.9961 -0.119141 -56.3027 -0.119141 -87.5986v-187.342v-38.1426
c0 -69.4375 -1.4248 -123.228 -1.4248 -163.325v-4.89062c0 -23.4717 1.90039 -41.0762 1.90039 -56.7236c0 -1.86514 0.0308216 -3.95299 0.0308216 -6.03578c0 -3.37853 -0.0810999 -6.74373 -0.506408 -9.1234c-1.60938 -9.00781 -1.4248 -10.2686 -10.9248 -10.2686z
" />
    <glyph glyph-name="mensuralLongaWhite" unicode="&#xf0aa;" horiz-adv-x="192" 
d="M13.1562 -97.375zM170.689 27.7344v11.5156c0 4.47656 -4.875 13.6699 -14.9541 13.6699c-20.5234 0 -43.8984 -0.603516 -66.2168 -0.603516c-23.2178 0 -41.1104 1.8291 -56.5264 1.8291c-4.01172 0 -7.61816 -0.0556641 -10.6855 -0.197266
c-3.85352 0 -5.39453 -1.27832 -5.39453 -5.11816c0.771484 -17.2715 1.54102 -31.3564 1.54102 -47.3486c0 -18.5498 -1.54102 -28.4082 -1.54102 -46.96c0 -0.78418 -0.0107422 -1.55273 -0.0107422 -2.29102c0 -3.80078 0.290039 -6.77441 3.86426 -6.77441
c2.42285 0 5.33887 0.683594 8.60938 0.847656c15.834 0.794922 40.1152 1.15625 58.2266 1.15625c18.4922 0 53.8086 -1.61426 68.4482 -2.11426c0.728516 -0.0244141 1.43262 -0.0380859 2.11035 -0.0380859c7.91895 0 12.3369 1.77246 12.3369 7.0752
c0 21.1318 0.192383 53.0322 0.192383 75.3516zM180.737 -560.394c-9.5 0 -10.4502 5.86719 -10.4502 14.6699c0 1.95605 2.85059 18.582 3.80078 34.2295c1.89941 37.1641 2.84961 82.1523 2.84961 142.788v98.7783c0 73.3496 -2.13437 126.029 -2.5498 149.634
c-0.327939 18.6338 0.881552 24.2299 -11.3877 26.7939c-10.7941 2.25576 -28.8732 3.86242 -71.1787 3.86242c-0.206471 0 -0.413519 -3.8269e-05 -0.621146 -0.000114918c-24.9539 -0.0092122 -49.8398 -0.718889 -71.0752 -2.90348
c-5.04018 -0.518509 -6.29715 -6.76467 -10.7513 -6.76467c-0.567785 0 -1.18752 0.101495 -1.87367 0.329287c-2.07215 0.687927 -3.47127 1.95481 -5 3.19434c-2.26074 1.83398 -3.4502 4.76855 -3.4502 9.17383c0 28.3623 1.9502 57.2686 1.9502 86.6084
c0 26.773 -1.9502 60.0195 -1.9502 89.5645c0 3.64844 1.83691 7.43359 4.8252 8.81641c1.77449 0.821931 3.95491 1.23608 6.39761 1.23608c0.059041 0 0.118235 -0.000241946 0.177581 -0.000725928c1.99902 -0.0166016 3.88555 -6.24468 5.6748 -6.30925
c24.9353 -0.899852 32.6729 -4.21321 82.6748 -4.21321c29.5469 0 41.9941 2.79395 69.5879 3.29395c3.49835 0.0633902 9.03309 4.88552 12.8544 4.88552c0.328591 0 0.644513 -0.035655 0.945382 -0.113057c2.14746 -0.552734 3.82715 -1.57422 5.13574 -2.91016
c3.32031 -3.39062 3.99805 -9.55566 4.11426 -14.4658c0.305915 -12.9227 0.360282 -29.4328 0.360282 -47.0337c0 -9.70582 -0.0165322 -19.7433 -0.0165322 -29.6938c0 -27.9961 -0.119141 -56.3027 -0.119141 -87.5986v-187.342v-38.1426
c0 -69.4375 -1.4248 -123.228 -1.4248 -163.325v-4.89062c0 -23.4717 1.90039 -41.0762 1.90039 -56.7236c0 -1.86514 0.0308216 -3.95299 0.0308216 -6.03578c0 -3.37853 -0.0810999 -6.74373 -0.506408 -9.1234c-1.60938 -9.00781 -1.4248 -10.2686 -10.9248 -10.2686z
" />
    <glyph glyph-name="mensuralLongaWhite" unicode="&#xe95d;" horiz-adv-x="192" 
d="M13.1562 -97.375zM170.689 27.7344v11.5156c0 4.47656 -4.875 13.6699 -14.9541 13.6699c-20.5234 0 -43.8984 -0.603516 -66.2168 -0.603516c-23.2178 0 -41.1104 1.8291 -56.5264 1.8291c-4.01172 0 -7.61816 -0.0556641 -10.6855 -0.197266
c-3.85352 0 -5.39453 -1.27832 -5.39453 -5.11816c0.771484 -17.2715 1.54102 -31.3564 1.54102 -47.3486c0 -18.5498 -1.54102 -28.4082 -1.54102 -46.96c0 -0.78418 -0.0107422 -1.55273 -0.0107422 -2.29102c0 -3.80078 0.290039 -6.77441 3.86426 -6.77441
c2.42285 0 5.33887 0.683594 8.60938 0.847656c15.834 0.794922 40.1152 1.15625 58.2266 1.15625c18.4922 0 53.8086 -1.61426 68.4482 -2.11426c0.728516 -0.0244141 1.43262 -0.0380859 2.11035 -0.0380859c7.91895 0 12.3369 1.77246 12.3369 7.0752
c0 21.1318 0.192383 53.0322 0.192383 75.3516zM180.737 -560.394c-9.5 0 -10.4502 5.86719 -10.4502 14.6699c0 1.95605 2.85059 18.582 3.80078 34.2295c1.89941 37.1641 2.84961 82.1523 2.84961 142.788v98.7783c0 73.3496 -2.13437 126.029 -2.5498 149.634
c-0.327939 18.6338 0.881552 24.2299 -11.3877 26.7939c-10.7941 2.25576 -28.8732 3.86242 -71.1787 3.86242c-0.206471 0 -0.413519 -3.8269e-05 -0.621146 -0.000114918c-24.9539 -0.0092122 -49.8398 -0.718889 -71.0752 -2.90348
c-5.04018 -0.518509 -6.29715 -6.76467 -10.7513 -6.76467c-0.567785 0 -1.18752 0.101495 -1.87367 0.329287c-2.07215 0.687927 -3.47127 1.95481 -5 3.19434c-2.26074 1.83398 -3.4502 4.76855 -3.4502 9.17383c0 28.3623 1.9502 57.2686 1.9502 86.6084
c0 26.773 -1.9502 60.0195 -1.9502 89.5645c0 3.64844 1.83691 7.43359 4.8252 8.81641c1.77449 0.821931 3.95491 1.23608 6.39761 1.23608c0.059041 0 0.118235 -0.000241946 0.177581 -0.000725928c1.99902 -0.0166016 3.88555 -6.24468 5.6748 -6.30925
c24.9353 -0.899852 32.6729 -4.21321 82.6748 -4.21321c29.5469 0 41.9941 2.79395 69.5879 3.29395c3.49835 0.0633902 9.03309 4.88552 12.8544 4.88552c0.328591 0 0.644513 -0.035655 0.945382 -0.113057c2.14746 -0.552734 3.82715 -1.57422 5.13574 -2.91016
c3.32031 -3.39062 3.99805 -9.55566 4.11426 -14.4658c0.305915 -12.9227 0.360282 -29.4328 0.360282 -47.0337c0 -9.70582 -0.0165322 -19.7433 -0.0165322 -29.6938c0 -27.9961 -0.119141 -56.3027 -0.119141 -87.5986v-187.342v-38.1426
c0 -69.4375 -1.4248 -123.228 -1.4248 -163.325v-4.89062c0 -23.4717 1.90039 -41.0762 1.90039 -56.7236c0 -1.86514 0.0308216 -3.95299 0.0308216 -6.03578c0 -3.37853 -0.0810999 -6.74373 -0.506408 -9.1234c-1.60938 -9.00781 -1.4248 -10.2686 -10.9248 -10.2686z
" />
    <glyph glyph-name="acute" unicode="&#xb4;" horiz-adv-x="128" 
d="M107.5 -18.9482v33.8887c0 10.9043 -2.94238 19.46 -9.91797 22.666c-10.8213 4.97363 -22.3965 7.74902 -33.9082 7.74902c-10.6592 0 -21.2646 -2.37891 -31.168 -7.5957c-6.96094 -3.66602 -12.0059 -13.333 -12.0059 -25.082v-32.5176
c0 -14.1582 11.21 -16.9971 20.7119 -18.1992c7.88574 -0.998047 15.3223 -1.52637 22.8477 -1.52637c7.47266 0 15.0322 0.521484 23.2041 1.62402c10.0449 1.35547 20.2363 5.46191 20.2363 18.9932zM128 -450c-1.67945 -1.67945 -3.98569 -3.0455 -6.74327 -3.0455
c-2.16829 0 -4.61563 0.844587 -7.25673 3.0455v364c0 14.0898 -5.86372 18.2537 -16 20.3116c-10.9338 2.21986 -20.7326 2.68839 -31 2.68839c-20 0 -46 -6 -67 -13v135c19 12 48 16.75 70 16.75s35 -3.75 58 -13.75v-512z" />
    <glyph glyph-name="acute" unicode="&#xf0ab;" horiz-adv-x="128" 
d="M107.5 -18.9482v33.8887c0 10.9043 -2.94238 19.46 -9.91797 22.666c-10.8213 4.97363 -22.3965 7.74902 -33.9082 7.74902c-10.6592 0 -21.2646 -2.37891 -31.168 -7.5957c-6.96094 -3.66602 -12.0059 -13.333 -12.0059 -25.082v-32.5176
c0 -14.1582 11.21 -16.9971 20.7119 -18.1992c7.88574 -0.998047 15.3223 -1.52637 22.8477 -1.52637c7.47266 0 15.0322 0.521484 23.2041 1.62402c10.0449 1.35547 20.2363 5.46191 20.2363 18.9932zM128 -450c-1.67945 -1.67945 -3.98569 -3.0455 -6.74327 -3.0455
c-2.16829 0 -4.61563 0.844587 -7.25673 3.0455v364c0 14.0898 -5.86372 18.2537 -16 20.3116c-10.9338 2.21986 -20.7326 2.68839 -31 2.68839c-20 0 -46 -6 -67 -13v135c19 12 48 16.75 70 16.75s35 -3.75 58 -13.75v-512z" />
    <glyph glyph-name="dieresis" unicode="&#xa8;" horiz-adv-x="128" 
d="M107.5 -20.6982v33.8887c0 10.9043 -2.94238 19.46 -9.91797 22.666c-10.8213 4.97363 -22.3965 7.74902 -33.9082 7.74902c-10.6592 0 -21.2646 -2.37891 -31.168 -7.5957c-6.96094 -3.66602 -12.0059 -13.333 -12.0059 -25.082v-32.5176
c0 -14.1582 11.21 -16.9971 20.7119 -18.1992c7.88574 -0.998047 15.3223 -1.52637 22.8477 -1.52637c7.47266 0 15.0322 0.521484 23.2041 1.62402c10.0449 1.35547 20.2363 5.46191 20.2363 18.9932zM128 -75c-18 6 -46 12 -61 12c-20 0 -43 -5 -67 -13v135
c26 14 48 16 70 16c13.615 0 24.0229 -1.28282 35.3333 -4.36216c1.02079 -0.277916 1.92522 -0.409847 2.72625 -0.409847c5.29807 0 6.07275 5.77147 6.07275 13.248c0 3.09009 -0.132329 6.47144 -0.132329 9.85697v336.667
c2.6411 2.20092 5.08844 3.0455 7.25673 3.0455c2.75758 0 5.06382 -1.36605 6.74327 -3.0455v-505z" />
    <glyph glyph-name="dieresis" unicode="&#xf0ac;" horiz-adv-x="128" 
d="M107.5 -20.6982v33.8887c0 10.9043 -2.94238 19.46 -9.91797 22.666c-10.8213 4.97363 -22.3965 7.74902 -33.9082 7.74902c-10.6592 0 -21.2646 -2.37891 -31.168 -7.5957c-6.96094 -3.66602 -12.0059 -13.333 -12.0059 -25.082v-32.5176
c0 -14.1582 11.21 -16.9971 20.7119 -18.1992c7.88574 -0.998047 15.3223 -1.52637 22.8477 -1.52637c7.47266 0 15.0322 0.521484 23.2041 1.62402c10.0449 1.35547 20.2363 5.46191 20.2363 18.9932zM128 -75c-18 6 -46 12 -61 12c-20 0 -43 -5 -67 -13v135
c26 14 48 16 70 16c13.615 0 24.0229 -1.28282 35.3333 -4.36216c1.02079 -0.277916 1.92522 -0.409847 2.72625 -0.409847c5.29807 0 6.07275 5.77147 6.07275 13.248c0 3.09009 -0.132329 6.47144 -0.132329 9.85697v336.667
c2.6411 2.20092 5.08844 3.0455 7.25673 3.0455c2.75758 0 5.06382 -1.36605 6.74327 -3.0455v-505z" />
    <glyph glyph-name="AE" unicode="&#xc6;" horiz-adv-x="128" 
d="M107.5 -20.6982v33.8887c0 10.9043 -2.94238 19.46 -9.91797 22.666c-10.8213 4.97363 -22.3965 7.74902 -33.9082 7.74902c-10.6592 0 -21.2646 -2.37891 -31.168 -7.5957c-6.96094 -3.66602 -12.0059 -13.333 -12.0059 -25.082v-32.5176
c0 -14.1582 11.21 -16.9971 20.7119 -18.1992c7.88574 -0.998047 15.3223 -1.52637 22.8477 -1.52637c7.47266 0 15.0322 0.521484 23.2041 1.62402c10.0449 1.35547 20.2363 5.46191 20.2363 18.9932zM128 -450c-3 -3 -8 -5 -14 0v366.5
c0 11.9561 -7.44504 16.0568 -15.75 17.7606c-11.0346 2.26372 -20.9045 2.73941 -31.25 2.73941c-11.2882 0 -23.5719 -1.49325 -36.5 -4.12858c-9.47874 -1.9322 -16.5 -5.29818 -16.5 -18.1214v-105.75c-5 -2 -10 -3 -14 0v115v28v107c26 14 48 16 70 16s35 -3 58 -13
v-512z" />
    <glyph glyph-name="AE" unicode="&#xf0ae;" horiz-adv-x="128" 
d="M107.5 -20.6982v33.8887c0 10.9043 -2.94238 19.46 -9.91797 22.666c-10.8213 4.97363 -22.3965 7.74902 -33.9082 7.74902c-10.6592 0 -21.2646 -2.37891 -31.168 -7.5957c-6.96094 -3.66602 -12.0059 -13.333 -12.0059 -25.082v-32.5176
c0 -14.1582 11.21 -16.9971 20.7119 -18.1992c7.88574 -0.998047 15.3223 -1.52637 22.8477 -1.52637c7.47266 0 15.0322 0.521484 23.2041 1.62402c10.0449 1.35547 20.2363 5.46191 20.2363 18.9932zM128 -450c-3 -3 -8 -5 -14 0v366.5
c0 11.9561 -7.44504 16.0568 -15.75 17.7606c-11.0346 2.26372 -20.9045 2.73941 -31.25 2.73941c-11.2882 0 -23.5719 -1.49325 -36.5 -4.12858c-9.47874 -1.9322 -16.5 -5.29818 -16.5 -18.1214v-105.75c-5 -2 -10 -3 -14 0v115v28v107c26 14 48 16 70 16s35 -3 58 -13
v-512z" />
    <glyph glyph-name="Oslash" unicode="&#xd8;" horiz-adv-x="128" 
d="M107.5 -20.6982v33.8887c0 10.9043 -2.94238 19.46 -9.91797 22.666c-10.8213 4.97363 -22.3965 7.74902 -33.9082 7.74902c-10.6592 0 -21.2646 -2.37891 -31.168 -7.5957c-6.96094 -3.66602 -12.0059 -13.333 -12.0059 -25.082v-32.5176
c0 -14.1582 11.21 -16.9971 20.7119 -18.1992c7.88574 -0.998047 15.3223 -1.52637 22.8477 -1.52637c7.47266 0 15.0322 0.521484 23.2041 1.62402c10.0449 1.35547 20.2363 5.46191 20.2363 18.9932zM0 -75v505c1.67945 1.67945 3.98569 3.0455 6.74327 3.0455
c2.16829 0 4.61563 -0.844587 7.25673 -3.0455v-340.333c0 -12.8218 2.60194 -18.258 9.59084 -18.258c1.31134 0 2.77713 0.191388 4.40916 0.561286c9.36147 2.12178 18.5458 3.02973 30 3.02973c13.6013 0 27.2025 -0.57097 41.6667 -4.30155
c1.82582 -0.470913 3.47404 -0.725587 4.94648 -0.725587c6.30511 0 9.38686 4.66979 9.38686 17.0271v88c2.19434 1.09717 4.68961 1.89339 7.32074 1.89339c2.16509 0 4.42217 -0.539142 6.67926 -1.89339v-251c-24 8 -47 13 -67 13c-15 0 -43 -6 -61 -12z" />
    <glyph glyph-name="Oslash" unicode="&#xf0af;" horiz-adv-x="128" 
d="M107.5 -20.6982v33.8887c0 10.9043 -2.94238 19.46 -9.91797 22.666c-10.8213 4.97363 -22.3965 7.74902 -33.9082 7.74902c-10.6592 0 -21.2646 -2.37891 -31.168 -7.5957c-6.96094 -3.66602 -12.0059 -13.333 -12.0059 -25.082v-32.5176
c0 -14.1582 11.21 -16.9971 20.7119 -18.1992c7.88574 -0.998047 15.3223 -1.52637 22.8477 -1.52637c7.47266 0 15.0322 0.521484 23.2041 1.62402c10.0449 1.35547 20.2363 5.46191 20.2363 18.9932zM0 -75v505c1.67945 1.67945 3.98569 3.0455 6.74327 3.0455
c2.16829 0 4.61563 -0.844587 7.25673 -3.0455v-340.333c0 -12.8218 2.60194 -18.258 9.59084 -18.258c1.31134 0 2.77713 0.191388 4.40916 0.561286c9.36147 2.12178 18.5458 3.02973 30 3.02973c13.6013 0 27.2025 -0.57097 41.6667 -4.30155
c1.82582 -0.470913 3.47404 -0.725587 4.94648 -0.725587c6.30511 0 9.38686 4.66979 9.38686 17.0271v88c2.19434 1.09717 4.68961 1.89339 7.32074 1.89339c2.16509 0 4.42217 -0.539142 6.67926 -1.89339v-251c-24 8 -47 13 -67 13c-15 0 -43 -6 -61 -12z" />
    <glyph glyph-name="infinity" unicode="&#x221e;" horiz-adv-x="128" 
d="M107.5 -20.6982v33.8887c0 10.9043 -2.94238 19.46 -9.91797 22.666c-10.8213 4.97363 -22.3965 7.74902 -33.9082 7.74902c-10.6592 0 -21.2646 -2.37891 -31.168 -7.5957c-6.96094 -3.66602 -12.0059 -13.333 -12.0059 -25.082v-32.5176
c0 -14.1582 11.21 -16.9971 20.7119 -18.1992c7.88574 -0.998047 15.3223 -1.52637 22.8477 -1.52637c7.47266 0 15.0322 0.521484 23.2041 1.62402c10.0449 1.35547 20.2363 5.46191 20.2363 18.9932zM0 -450v512c23 10 36 13 58 13s44 -2 70 -16v-107v-28v-115
c-1.80566 -1.35425 -3.81511 -1.89339 -5.93634 -1.89339c-2.57783 0 -5.32074 0.796223 -8.06366 1.89339v108c0 10.5254 -8.556 14.2442 -16.25 15.8203c-13.0197 2.66711 -25.389 4.17967 -36.75 4.17967c-10.4236 0 -20.3643 -0.482897 -31.5 -2.79096
c-10.1742 -2.10878 -15.5 -6.30962 -15.5 -20.459v-363.75c-2.6411 -2.20092 -5.08844 -3.0455 -7.25673 -3.0455c-2.75758 0 -5.06382 1.36605 -6.74327 3.0455z" />
    <glyph glyph-name="infinity" unicode="&#xf0b0;" horiz-adv-x="128" 
d="M107.5 -20.6982v33.8887c0 10.9043 -2.94238 19.46 -9.91797 22.666c-10.8213 4.97363 -22.3965 7.74902 -33.9082 7.74902c-10.6592 0 -21.2646 -2.37891 -31.168 -7.5957c-6.96094 -3.66602 -12.0059 -13.333 -12.0059 -25.082v-32.5176
c0 -14.1582 11.21 -16.9971 20.7119 -18.1992c7.88574 -0.998047 15.3223 -1.52637 22.8477 -1.52637c7.47266 0 15.0322 0.521484 23.2041 1.62402c10.0449 1.35547 20.2363 5.46191 20.2363 18.9932zM0 -450v512c23 10 36 13 58 13s44 -2 70 -16v-107v-28v-115
c-1.80566 -1.35425 -3.81511 -1.89339 -5.93634 -1.89339c-2.57783 0 -5.32074 0.796223 -8.06366 1.89339v108c0 10.5254 -8.556 14.2442 -16.25 15.8203c-13.0197 2.66711 -25.389 4.17967 -36.75 4.17967c-10.4236 0 -20.3643 -0.482897 -31.5 -2.79096
c-10.1742 -2.10878 -15.5 -6.30962 -15.5 -20.459v-363.75c-2.6411 -2.20092 -5.08844 -3.0455 -7.25673 -3.0455c-2.75758 0 -5.06382 1.36605 -6.74327 3.0455z" />
    </font>
</defs>
</svg>
